<?xml version="1.0" encoding="utf-8"?>
<!-- Generator: Adobe Illustrator 24.1.0, SVG Export Plug-In . SVG Version: 6.00 Build 0)  -->
<svg version="1.1" id="Laag_1" xmlns="http://www.w3.org/2000/svg" xmlns:xlink="http://www.w3.org/1999/xlink" x="0px" y="0px"
	 viewBox="0 0 800 500" style="enable-background:new 0 0 800 500;" xml:space="preserve">
<style type="text/css">
	.st0{fill:none;stroke:#E62B22;stroke-width:0.25;stroke-miterlimit:10;}
	.st1{fill:none;stroke:#E62B22;stroke-width:0.25;stroke-miterlimit:10;stroke-dasharray:1.9898,1.9898;}
	.st2{opacity:0.05;fill:#FF0000;}
	.st3{fill:none;stroke:#E62B22;stroke-width:0.25;stroke-miterlimit:10;stroke-dasharray:1.9955,1.9955;}
	.st4{fill:#FFFFFF;}
	.st5{fill:#E62B22;}
	.st6{fill:none;stroke:#E62B22;stroke-width:0.25;stroke-miterlimit:10;stroke-dasharray:2.0034,2.0034;}
	.st7{fill:none;}
	.st8{fill:#FF0000;}
	.st9{font-family:'CircularStd-Book';}
	.st10{font-size:18px;}
	.st11{fill:none;stroke:#E62B22;stroke-width:0.25;stroke-miterlimit:10;stroke-dasharray:1.9901,1.9901;}
	.st12{opacity:0.2;fill:#FF0000;}
	.st13{fill:#FF0000;stroke:#FFFFFF;stroke-width:0.1;}
	.st14{opacity:0.6;fill:#FF0000;}
	.st15{fill:none;stroke:#E62B22;stroke-width:0.25;stroke-miterlimit:10;stroke-dasharray:1.9969,1.9969;}
	.st16{fill:none;stroke:#E62B22;stroke-width:0.25;stroke-miterlimit:10;stroke-dasharray:1.9774,1.9774;}
</style>
<g>
	<g>
		<line class="st0" x1="75.98" y1="335.8" x2="75.98" y2="334.8"/>
		<line class="st1" x1="75.98" y1="332.81" x2="75.98" y2="174.62"/>
		<line class="st0" x1="75.98" y1="173.63" x2="75.98" y2="172.63"/>
	</g>
</g>
<g>
	<g>
		<line class="st0" x1="142.09" y1="335.73" x2="142.09" y2="334.73"/>
		<line class="st1" x1="142.09" y1="332.74" x2="142.09" y2="174.55"/>
		<line class="st0" x1="142.09" y1="173.56" x2="142.09" y2="172.56"/>
	</g>
</g>
<rect x="35.37" y="174.3" class="st2" width="146.62" height="159.66"/>
<g>
	<g>
		<line class="st0" x1="222.27" y1="214.2" x2="223.27" y2="214.2"/>
		<line class="st3" x1="225.27" y1="214.2" x2="523.6" y2="214.2"/>
		<line class="st0" x1="524.59" y1="214.2" x2="525.59" y2="214.2"/>
	</g>
</g>
<g>
	<g>
		<line class="st0" x1="222.27" y1="294.11" x2="223.27" y2="294.11"/>
		<line class="st3" x1="225.27" y1="294.11" x2="523.6" y2="294.11"/>
		<line class="st0" x1="524.59" y1="294.11" x2="525.59" y2="294.11"/>
	</g>
</g>
<g>
	<g>
		<line class="st0" x1="266.63" y1="335.8" x2="266.63" y2="334.8"/>
		<line class="st1" x1="266.63" y1="332.81" x2="266.63" y2="174.62"/>
		<line class="st0" x1="266.63" y1="173.63" x2="266.63" y2="172.63"/>
	</g>
</g>
<g>
	<g>
		<line class="st0" x1="332.74" y1="335.73" x2="332.74" y2="334.73"/>
		<line class="st1" x1="332.74" y1="332.74" x2="332.74" y2="174.55"/>
		<line class="st0" x1="332.74" y1="173.56" x2="332.74" y2="172.56"/>
	</g>
</g>
<rect x="226.73" y="174.3" class="st2" width="294.59" height="159.66"/>
<rect x="266.61" y="214.18" class="st4" width="214.82" height="79.93"/>
<path class="st5" d="M299.13,270.59c0.35,0.04,0.7,0.06,1.06,0.06c0.36,0,0.71-0.02,1.06-0.06c-0.35,0.01-0.7,0.02-1.06,0.02
	C299.83,270.61,299.48,270.6,299.13,270.59z"/>
<g>
	<g>
		<line class="st0" x1="32.22" y1="214.2" x2="33.22" y2="214.2"/>
		<line class="st6" x1="35.22" y1="214.2" x2="182.47" y2="214.2"/>
		<line class="st0" x1="183.47" y1="214.2" x2="184.47" y2="214.2"/>
	</g>
</g>
<g>
	<g>
		<line class="st0" x1="32.22" y1="294.11" x2="33.22" y2="294.11"/>
		<line class="st6" x1="35.22" y1="294.11" x2="182.47" y2="294.11"/>
		<line class="st0" x1="183.47" y1="294.11" x2="184.47" y2="294.11"/>
	</g>
</g>
<rect x="75.96" y="214.18" class="st4" width="66.13" height="79.93"/>
<rect x="341.7" y="239.48" class="st7" width="175.38" height="51.36"/>
<text transform="matrix(1 0 0 1 341.6989 252.5153)"><tspan x="0" y="0" class="st8 st9 st10">Brandweerzone</tspan><tspan x="0" y="18" class="st8 st9 st10">Centrum</tspan></text>
<g>
	<g>
		<line class="st0" x1="481.43" y1="335.8" x2="481.43" y2="334.8"/>
		<line class="st11" x1="481.43" y1="332.81" x2="481.43" y2="174.6"/>
		<line class="st0" x1="481.43" y1="173.61" x2="481.43" y2="172.61"/>
	</g>
</g>
<path class="st8" d="M502.11,165.66l0.9-0.9c0.09-0.09,0.12-0.21,0.09-0.33c-0.03-0.12-0.14-0.23-0.26-0.26
	c-0.12-0.03-0.24,0-0.33,0.09l-0.9,0.9l-0.9-0.9c-0.09-0.09-0.21-0.13-0.33-0.09c-0.12,0.03-0.23,0.14-0.26,0.26
	c-0.03,0.12,0,0.24,0.09,0.33l0.9,0.9l-0.9,0.9c-0.07,0.07-0.1,0.16-0.1,0.25c0,0.09,0.04,0.18,0.11,0.25
	c0.14,0.14,0.36,0.14,0.49,0l0.9-0.9l0.9,0.9c0.07,0.07,0.15,0.1,0.24,0.1c0.09,0,0.18-0.04,0.25-0.11
	c0.07-0.07,0.11-0.16,0.11-0.25c0-0.09-0.04-0.18-0.1-0.25L502.11,165.66z"/>
<polygon class="st12" points="483.65,164.1 481.73,167.22 479.61,164.1 "/>
<polygon class="st12" points="523.61,164.1 521.69,167.22 519.57,164.1 "/>
<g>
	<g>
		<line class="st0" x1="521.59" y1="335.8" x2="521.59" y2="334.8"/>
		<line class="st11" x1="521.59" y1="332.81" x2="521.59" y2="174.6"/>
		<line class="st0" x1="521.59" y1="173.61" x2="521.59" y2="172.61"/>
	</g>
</g>
<g>
	<path class="st8" d="M189.28,196.06l0.9,0.9c0.09,0.09,0.21,0.12,0.33,0.09c0.12-0.03,0.23-0.14,0.26-0.26
		c0.03-0.12,0-0.24-0.09-0.33l-0.9-0.9l0.9-0.9c0.09-0.09,0.13-0.21,0.09-0.33c-0.03-0.12-0.14-0.23-0.26-0.26
		c-0.12-0.03-0.24,0-0.33,0.09l-0.9,0.9l-0.9-0.9c-0.07-0.07-0.16-0.1-0.25-0.1c-0.09,0-0.18,0.04-0.25,0.11
		c-0.14,0.14-0.14,0.36,0,0.49l0.9,0.9l-0.9,0.9c-0.07,0.07-0.1,0.15-0.1,0.24c0,0.09,0.04,0.18,0.11,0.25
		c0.07,0.07,0.16,0.11,0.25,0.11c0.09,0,0.18-0.04,0.25-0.1L189.28,196.06z"/>
	<polygon class="st12" points="190.84,176.6 187.72,174.68 190.84,172.56 	"/>
	<polygon class="st12" points="190.84,216.56 187.72,214.64 190.84,212.52 	"/>
</g>
<g>
	<g>
		<line class="st0" x1="32.22" y1="174.3" x2="33.22" y2="174.3"/>
		<line class="st6" x1="35.22" y1="174.3" x2="182.47" y2="174.3"/>
		<line class="st0" x1="183.47" y1="174.3" x2="184.47" y2="174.3"/>
	</g>
</g>
<g>
	<g>
		<line class="st0" x1="32.22" y1="333.96" x2="33.22" y2="333.96"/>
		<line class="st6" x1="35.22" y1="333.96" x2="182.47" y2="333.96"/>
		<line class="st0" x1="183.47" y1="333.96" x2="184.47" y2="333.96"/>
	</g>
</g>
<path class="st8" d="M189.28,315.4l0.9,0.9c0.09,0.09,0.21,0.12,0.33,0.09c0.12-0.03,0.23-0.14,0.26-0.26
	c0.03-0.12,0-0.24-0.09-0.33l-0.9-0.9l0.9-0.9c0.09-0.09,0.13-0.21,0.09-0.33c-0.03-0.12-0.14-0.23-0.26-0.26
	c-0.12-0.03-0.24,0-0.33,0.09l-0.9,0.9l-0.9-0.9c-0.07-0.07-0.16-0.1-0.25-0.1c-0.09,0-0.18,0.04-0.25,0.11
	c-0.14,0.14-0.14,0.36,0,0.49l0.9,0.9l-0.9,0.9c-0.07,0.07-0.1,0.15-0.1,0.24c0,0.09,0.04,0.18,0.11,0.25
	c0.07,0.07,0.16,0.11,0.25,0.11c0.09,0,0.18-0.04,0.25-0.1L189.28,315.4z"/>
<polygon class="st12" points="190.84,295.94 187.72,294.02 190.84,291.9 "/>
<polygon class="st12" points="190.84,335.9 187.72,333.98 190.84,331.87 "/>
<g>
	<path class="st8" d="M27.74,315.4l-0.9,0.9c-0.09,0.09-0.21,0.12-0.33,0.09c-0.12-0.03-0.23-0.14-0.26-0.26
		c-0.03-0.12,0-0.24,0.09-0.33l0.9-0.9l-0.9-0.9c-0.09-0.09-0.13-0.21-0.09-0.33c0.03-0.12,0.14-0.23,0.26-0.26
		c0.12-0.03,0.24,0,0.33,0.09l0.9,0.9l0.9-0.9c0.07-0.07,0.16-0.1,0.25-0.1c0.09,0,0.18,0.04,0.25,0.11c0.14,0.14,0.14,0.36,0,0.49
		l-0.9,0.9l0.9,0.9c0.07,0.07,0.1,0.15,0.1,0.24c0,0.09-0.04,0.18-0.11,0.25c-0.07,0.07-0.16,0.11-0.25,0.11
		c-0.09,0-0.18-0.04-0.25-0.1L27.74,315.4z"/>
	<polygon class="st12" points="26.18,295.94 29.3,294.02 26.18,291.9 	"/>
	<polygon class="st12" points="26.18,335.9 29.3,333.98 26.18,331.87 	"/>
</g>
<g>
	<path class="st8" d="M27.74,195.56l-0.9,0.9c-0.09,0.09-0.21,0.12-0.33,0.09c-0.12-0.03-0.23-0.14-0.26-0.26
		c-0.03-0.12,0-0.24,0.09-0.33l0.9-0.9l-0.9-0.9c-0.09-0.09-0.13-0.21-0.09-0.33c0.03-0.12,0.14-0.23,0.26-0.26
		c0.12-0.03,0.24,0,0.33,0.09l0.9,0.9l0.9-0.9c0.07-0.07,0.16-0.1,0.25-0.1c0.09,0,0.18,0.04,0.25,0.11c0.14,0.14,0.14,0.36,0,0.49
		l-0.9,0.9l0.9,0.9c0.07,0.07,0.1,0.15,0.1,0.24c0,0.09-0.04,0.18-0.11,0.25c-0.07,0.07-0.16,0.11-0.25,0.11
		c-0.09,0-0.18-0.04-0.25-0.1L27.74,195.56z"/>
	<polygon class="st12" points="26.18,176.09 29.3,174.17 26.18,172.06 	"/>
	<polygon class="st12" points="26.18,216.06 29.3,214.14 26.18,212.02 	"/>
</g>
<g>
	<g>
		<line class="st0" x1="220.29" y1="174.07" x2="221.29" y2="174.07"/>
		<line class="st3" x1="223.29" y1="174.07" x2="521.61" y2="174.07"/>
		<line class="st0" x1="522.61" y1="174.07" x2="523.61" y2="174.07"/>
	</g>
</g>
<g>
	<g>
		<line class="st0" x1="220.29" y1="334.01" x2="221.29" y2="334.01"/>
		<line class="st3" x1="223.29" y1="334.01" x2="521.61" y2="334.01"/>
		<line class="st0" x1="522.61" y1="334.01" x2="523.61" y2="334.01"/>
	</g>
</g>
<g>
	<path class="st8" d="M529.69,196.06l0.9,0.9c0.09,0.09,0.21,0.12,0.33,0.09c0.12-0.03,0.23-0.14,0.26-0.26
		c0.03-0.12,0-0.24-0.09-0.33l-0.9-0.9l0.9-0.9c0.09-0.09,0.13-0.21,0.09-0.33c-0.03-0.12-0.14-0.23-0.26-0.26
		c-0.12-0.03-0.24,0-0.33,0.09l-0.9,0.9l-0.9-0.9c-0.07-0.07-0.16-0.1-0.25-0.1c-0.09,0-0.18,0.04-0.25,0.11
		c-0.14,0.14-0.14,0.36,0,0.49l0.9,0.9l-0.9,0.9c-0.07,0.07-0.1,0.15-0.1,0.24c0,0.09,0.04,0.18,0.11,0.25
		c0.07,0.07,0.16,0.11,0.25,0.11c0.09,0,0.18-0.04,0.25-0.1L529.69,196.06z"/>
	<polygon class="st12" points="531.25,176.6 528.12,174.68 531.25,172.56 	"/>
	<polygon class="st12" points="531.25,216.56 528.12,214.64 531.25,212.52 	"/>
</g>
<g>
	<path class="st8" d="M529.69,314.9l0.9,0.9c0.09,0.09,0.21,0.12,0.33,0.09c0.12-0.03,0.23-0.14,0.26-0.26
		c0.03-0.12,0-0.24-0.09-0.33l-0.9-0.9l0.9-0.9c0.09-0.09,0.13-0.21,0.09-0.33c-0.03-0.12-0.14-0.23-0.26-0.26
		c-0.12-0.03-0.24,0-0.33,0.09l-0.9,0.9l-0.9-0.9c-0.07-0.07-0.16-0.1-0.25-0.1c-0.09,0-0.18,0.04-0.25,0.11
		c-0.14,0.14-0.14,0.36,0,0.49l0.9,0.9l-0.9,0.9c-0.07,0.07-0.1,0.15-0.1,0.24c0,0.09,0.04,0.18,0.11,0.25
		c0.07,0.07,0.16,0.11,0.25,0.11c0.09,0,0.18-0.04,0.25-0.1L529.69,314.9z"/>
	<polygon class="st12" points="531.25,295.43 528.12,293.52 531.25,291.4 	"/>
	<polygon class="st12" points="531.25,335.4 528.12,333.48 531.25,331.36 	"/>
</g>
<g>
	<g>
		<line class="st0" x1="226.73" y1="335.8" x2="226.73" y2="334.8"/>
		<line class="st11" x1="226.73" y1="332.81" x2="226.73" y2="174.6"/>
		<line class="st0" x1="226.73" y1="173.61" x2="226.73" y2="172.61"/>
	</g>
</g>
<g>
	<g>
		<line class="st0" x1="35.37" y1="335.8" x2="35.37" y2="334.8"/>
		<line class="st1" x1="35.37" y1="332.81" x2="35.37" y2="174.62"/>
		<line class="st0" x1="35.37" y1="173.63" x2="35.37" y2="172.63"/>
	</g>
</g>
<g>
	<g>
		<line class="st0" x1="181.99" y1="335.8" x2="181.99" y2="334.8"/>
		<line class="st1" x1="181.99" y1="332.81" x2="181.99" y2="174.62"/>
		<line class="st0" x1="181.99" y1="173.63" x2="181.99" y2="172.63"/>
	</g>
</g>
<path class="st8" d="M247.23,165.66l0.9-0.9c0.09-0.09,0.12-0.21,0.09-0.33c-0.03-0.12-0.14-0.23-0.26-0.26
	c-0.12-0.03-0.24,0-0.33,0.09l-0.9,0.9l-0.9-0.9c-0.09-0.09-0.21-0.13-0.33-0.09c-0.12,0.03-0.23,0.14-0.26,0.26
	c-0.03,0.12,0,0.24,0.09,0.33l0.9,0.9l-0.9,0.9c-0.07,0.07-0.1,0.16-0.1,0.25c0,0.09,0.04,0.18,0.11,0.25
	c0.14,0.14,0.36,0.14,0.49,0l0.9-0.9l0.9,0.9c0.07,0.07,0.15,0.1,0.24,0.1c0.09,0,0.18-0.04,0.25-0.11
	c0.07-0.07,0.11-0.16,0.11-0.25c0-0.09-0.04-0.18-0.1-0.25L247.23,165.66z"/>
<polygon class="st12" points="228.77,164.1 226.85,167.22 224.73,164.1 "/>
<polygon class="st12" points="268.74,164.1 266.82,167.22 264.7,164.1 "/>
<path class="st8" d="M162.39,165.66l0.9-0.9c0.09-0.09,0.12-0.21,0.09-0.33c-0.03-0.12-0.14-0.23-0.26-0.26
	c-0.12-0.03-0.24,0-0.33,0.09l-0.9,0.9l-0.9-0.9c-0.09-0.09-0.21-0.13-0.33-0.09c-0.12,0.03-0.23,0.14-0.26,0.26
	c-0.03,0.12,0,0.24,0.09,0.33l0.9,0.9l-0.9,0.9c-0.07,0.07-0.1,0.16-0.1,0.25c0,0.09,0.04,0.18,0.11,0.25
	c0.14,0.14,0.36,0.14,0.49,0l0.9-0.9l0.9,0.9c0.07,0.07,0.15,0.1,0.24,0.1c0.09,0,0.18-0.04,0.25-0.11
	c0.07-0.07,0.11-0.16,0.11-0.25c0-0.09-0.04-0.18-0.1-0.25L162.39,165.66z"/>
<polygon class="st12" points="143.93,164.1 142.01,167.22 139.89,164.1 "/>
<polygon class="st12" points="183.9,164.1 181.98,167.22 179.86,164.1 "/>
<path class="st8" d="M55.87,165.66l0.9-0.9c0.09-0.09,0.12-0.21,0.09-0.33c-0.03-0.12-0.14-0.23-0.26-0.26
	c-0.12-0.03-0.24,0-0.33,0.09l-0.9,0.9l-0.9-0.9c-0.09-0.09-0.21-0.13-0.33-0.09c-0.12,0.03-0.23,0.14-0.26,0.26
	c-0.03,0.12,0,0.24,0.09,0.33l0.9,0.9l-0.9,0.9c-0.07,0.07-0.1,0.16-0.1,0.25c0,0.09,0.04,0.18,0.11,0.25
	c0.14,0.14,0.36,0.14,0.49,0l0.9-0.9l0.9,0.9c0.07,0.07,0.15,0.1,0.24,0.1c0.09,0,0.18-0.04,0.25-0.11
	c0.07-0.07,0.11-0.16,0.11-0.25c0-0.09-0.04-0.18-0.1-0.25L55.87,165.66z"/>
<polygon class="st12" points="37.41,164.1 35.49,167.22 33.37,164.1 "/>
<polygon class="st12" points="77.37,164.1 75.45,167.22 73.33,164.1 "/>
<path class="st13" d="M138.85,276.02c-0.03,0.04-0.05,0.08-0.07,0.12c-0.03,0.05-0.06,0.1-0.09,0.15c-0.27,0.42-0.56,0.83-0.86,1.23
	c-0.04,0.05-0.08,0.1-0.12,0.15c-0.03,0.04-0.06,0.08-0.09,0.12c-0.21,0.27-0.46,0.59-0.72,0.89c-0.07,0.08-0.15,0.17-0.22,0.25
	c-0.05,0.05-0.09,0.1-0.14,0.15c-0.21,0.23-0.43,0.47-0.65,0.69c-0.1,0.1-0.19,0.19-0.29,0.28c-0.05,0.04-0.09,0.09-0.14,0.13
	l-0.03,0.03c-0.2,0.19-0.41,0.39-0.62,0.57c-0.13,0.11-0.26,0.22-0.39,0.33l-0.09,0.07c-0.21,0.17-0.43,0.36-0.66,0.53
	c-0.14,0.11-0.29,0.21-0.43,0.32l-0.09,0.06c-0.22,0.15-0.45,0.32-0.69,0.48c-0.18,0.12-0.37,0.24-0.55,0.35
	c-0.25,0.15-0.48,0.29-0.71,0.42c-0.17,0.1-0.36,0.2-0.57,0.31c-0.24,0.13-0.48,0.25-0.74,0.37c-0.24,0.11-0.42,0.2-0.59,0.28
	c-0.22,0.1-0.46,0.2-0.77,0.32l-0.07,0.03c-0.18,0.07-0.36,0.14-0.54,0.21c-0.27,0.1-0.54,0.19-0.8,0.27l-0.14,0.04
	c-0.16,0.05-0.32,0.1-0.48,0.15c-0.28,0.08-0.56,0.15-0.84,0.22l-0.16,0.04c-0.15,0.04-0.3,0.08-0.45,0.11
	c-0.27,0.06-0.54,0.1-0.8,0.15l-0.09,0.01c-0.06,0.01-0.12,0.02-0.18,0.03c-0.13,0.02-0.27,0.05-0.4,0.07
	c-0.32,0.04-0.64,0.08-0.96,0.11l-0.05,0c-0.07,0.01-0.14,0.01-0.2,0.02c-0.1,0.01-0.2,0.02-0.3,0.03
	c-0.52,0.04-1.04,0.06-1.52,0.06c-10.25,0-19.15-7.28-21.17-17.31c-0.28-1.4-0.43-2.84-0.43-4.27c-0.03-0.57,0.02-1.3,0.15-2.17
	c0.11-0.87,0.28-1.74,0.51-2.68c0.03-0.16,0.08-0.34,0.13-0.51c0.01-0.05,0.03-0.1,0.04-0.15c0.05-0.21,0.09-0.34,0.1-0.38
	l0.01-0.03c1.53-4.53,7.22-10.19,8.93-11.82c0.23-0.2,0.43-0.39,0.63-0.58c0.17-0.17,0.35-0.34,0.51-0.51
	c4.13-4.24,6.41-9.83,6.41-15.75c0-0.38-0.01-0.76-0.03-1.14c0-0.07-0.01-0.15-0.02-0.22c0-0.05-0.01-0.1-0.01-0.15l0-0.06
	c-0.01-0.23-0.03-0.46-0.05-0.69c-0.01-0.09-0.02-0.18-0.03-0.27c-0.01-0.05-0.01-0.11-0.02-0.16l-0.02-0.13
	c-0.02-0.18-0.04-0.37-0.07-0.55c-0.01-0.1-0.03-0.19-0.05-0.29c-0.01-0.06-0.02-0.12-0.03-0.18l-0.02-0.14
	c-0.03-0.16-0.06-0.33-0.09-0.49c-0.02-0.11-0.05-0.22-0.07-0.32c-0.01-0.05-0.02-0.11-0.04-0.16l-0.03-0.13
	c-0.03-0.16-0.07-0.32-0.11-0.48c-0.03-0.11-0.06-0.21-0.09-0.32c-0.02-0.06-0.03-0.11-0.05-0.17l-0.03-0.11
	c-0.04-0.16-0.09-0.32-0.14-0.48c-0.03-0.11-0.07-0.23-0.11-0.34l-0.09-0.28c-0.05-0.14-0.09-0.29-0.15-0.43
	c-0.04-0.12-0.09-0.24-0.14-0.36l-0.06-0.16c-0.06-0.17-0.13-0.34-0.2-0.51c-0.05-0.12-0.11-0.25-0.16-0.37l-0.08-0.18
	c-0.07-0.15-0.14-0.31-0.21-0.46c-0.06-0.13-0.12-0.25-0.19-0.37l-0.08-0.15c-0.08-0.15-0.16-0.31-0.24-0.46
	c-0.06-0.12-0.13-0.23-0.2-0.35l-0.08-0.14c-0.09-0.16-0.18-0.32-0.28-0.47c-0.08-0.13-0.16-0.26-0.24-0.39l-0.07-0.12
	c-0.09-0.14-0.18-0.29-0.28-0.43c-0.08-0.12-0.16-0.23-0.24-0.34l-0.07-0.09c-0.11-0.16-0.23-0.32-0.34-0.47
	c-0.11-0.14-0.22-0.28-0.33-0.42c-0.13-0.17-0.25-0.31-0.37-0.46c-0.11-0.14-0.23-0.27-0.35-0.41c-0.12-0.14-0.26-0.29-0.4-0.44
	c-0.12-0.13-0.24-0.26-0.37-0.39c-0.04-0.04-0.08-0.08-0.12-0.12c0.06,0.19,0.12,0.37,0.17,0.56l0.04,0.13
	c0.01,0.05,0.03,0.09,0.04,0.14c0.02,0.06,0.04,0.12,0.06,0.18c0.02,0.07,0.04,0.15,0.06,0.22c0.01,0.06,0.03,0.11,0.04,0.16
	c0.31,1.23,0.46,2.47,0.46,3.7c0,6.68-4.27,12.5-10.62,14.52l0,0l-0.03,0.01c-0.02,0-0.03,0.01-0.05,0.02
	c-0.02,0.01-0.04,0.02-0.06,0.02l-0.17,0.05l-0.02-0.18c-0.28-2.59-1.25-5.08-2.81-7.19l-0.02-0.03l0,0c0-0.01-0.01-0.01-0.01-0.02
	c0,0-0.01-0.01-0.01-0.01c-2.21,2.44-4.28,4.86-6.16,7.19c-3.86,4.79-6.98,9.28-9.27,13.34c-0.29,0.51-0.56,1.02-0.82,1.51
	c-0.2,0.37-0.39,0.76-0.59,1.15c-2.22,4.49-3.35,8.45-3.35,11.78c0,2.8,0.36,5.59,1.07,8.3c0.12,0.46,0.26,0.92,0.39,1.37
	c1.94,6.23,5.77,11.83,10.91,15.93c0.19,0.15,0.38,0.31,0.58,0.45c0.06,0.05,0.13,0.1,0.19,0.14c5.47,4.06,12.24,6.47,19.58,6.47
	c8.26,0,15.81-3.05,21.59-8.08c0.02-0.02,0.04-0.03,0.06-0.05c0.22-0.2,0.44-0.4,0.66-0.6c0.38-0.36,0.76-0.72,1.13-1.09
	c0.04-0.04,0.08-0.08,0.11-0.12c2.39-2.48,4.38-5.31,5.89-8.42C138.94,275.88,138.89,275.95,138.85,276.02z"/>
<path class="st14" d="M137.38,248.9c-0.14,0.59-0.3,1.17-0.47,1.7c-3.58,11.62-14.16,19.72-26.31,20.17c-0.72,0.08-1.43,0.08-2.16,0
	c-2.4-0.26-4.62-1.36-6.26-3.12c-1.56-1.67-2.5-3.82-2.67-6.09c0,0.01,0,0.02-0.01,0.04c-0.19,1.11-0.28,2.08-0.28,2.97
	c0.07,1.4,0.14,2.85,0.42,4.23c1.99,9.89,10.78,17.08,20.88,17.08c0.52,0,1.05-0.02,1.56-0.06c0.08-0.01,0.15-0.02,0.23-0.02
	c0.06-0.01,0.12-0.02,0.18-0.02l0.08-0.01c0.34-0.03,0.7-0.07,1.05-0.12c0.09-0.01,0.17-0.03,0.26-0.05
	c0.06-0.01,0.13-0.03,0.19-0.04l0.08-0.01c0.32-0.05,0.66-0.11,0.98-0.18c0.08-0.02,0.15-0.04,0.23-0.06
	c0.06-0.02,0.12-0.03,0.18-0.05l0.08-0.02c0.32-0.08,0.66-0.16,0.98-0.26c0.05-0.01,0.1-0.03,0.14-0.05
	c0.04-0.01,0.08-0.03,0.13-0.04c0.36-0.11,0.77-0.25,1.17-0.4c0.04-0.02,0.08-0.03,0.12-0.05c0.04-0.02,0.07-0.03,0.11-0.05
	c0.35-0.14,0.76-0.3,1.17-0.49c0.04-0.02,0.09-0.04,0.13-0.07c0.04-0.02,0.07-0.04,0.11-0.05c0.36-0.17,0.74-0.36,1.11-0.56
	c0.06-0.03,0.11-0.06,0.17-0.1c0.04-0.03,0.09-0.06,0.13-0.08c0.34-0.19,0.67-0.39,1-0.6c0.06-0.04,0.11-0.07,0.16-0.11
	c0.05-0.03,0.09-0.07,0.14-0.1c0.29-0.2,0.62-0.42,0.94-0.65c0.06-0.05,0.12-0.1,0.19-0.15c0.05-0.04,0.09-0.08,0.14-0.12l0.06-0.05
	c0.26-0.2,0.53-0.42,0.79-0.64c0.07-0.06,0.15-0.13,0.21-0.2c0.05-0.05,0.1-0.1,0.15-0.14l0.12-0.11c0.21-0.19,0.42-0.38,0.62-0.58
	c0.08-0.08,0.16-0.17,0.23-0.25c0.05-0.06,0.1-0.11,0.15-0.16l0.13-0.14c0.17-0.18,0.35-0.37,0.52-0.56
	c0.09-0.11,0.18-0.22,0.26-0.32c0.05-0.06,0.1-0.13,0.15-0.19c0.05-0.06,0.1-0.12,0.15-0.18c0.13-0.16,0.27-0.32,0.39-0.49
	c0.1-0.14,0.2-0.28,0.29-0.42c0.05-0.07,0.1-0.14,0.14-0.21c0.05-0.07,0.1-0.14,0.15-0.21c0.1-0.14,0.2-0.28,0.29-0.42
	c0.1-0.16,0.19-0.32,0.28-0.48c0.04-0.07,0.09-0.15,0.13-0.22c0.04-0.07,0.09-0.14,0.13-0.22c0.08-0.13,0.17-0.27,0.24-0.41
	c0.1-0.19,0.19-0.38,0.29-0.57c0.04-0.07,0.07-0.15,0.11-0.22c0.04-0.07,0.07-0.15,0.11-0.22c0.06-0.12,0.13-0.25,0.18-0.37v-0.12
	h0.05c0,0,0.42-0.91,0.57-1.35l-0.02-0.01l0.08-0.22l0.02,0.01c0.03-0.1,0.06-0.19,0.09-0.29l-0.01,0l0.08-0.24l0.01,0
	c0.03-0.09,0.05-0.18,0.08-0.27l0.01-0.04l0.06-0.22l0.01,0c0.02-0.09,0.05-0.17,0.07-0.26l0.01-0.04l0.06-0.23l0,0
	c0.02-0.08,0.04-0.17,0.07-0.25l0-0.04c0.02-0.06,0.03-0.13,0.05-0.19l0.01-0.04l0.01,0c0.02-0.08,0.04-0.17,0.06-0.25l-0.01,0
	l0.06-0.29l0.02,0c0.57-2.43,0.86-4.94,0.86-7.46c0-3.88-1.53-8.62-4.56-14.08c-0.04,0.23-0.09,0.45-0.14,0.67l-0.05,0.23
	c-0.02,0.07-0.03,0.15-0.05,0.23C137.44,248.67,137.41,248.78,137.38,248.9z"/>
<path class="st14" d="M112.75,217.23c0.01,0.02,0.03,0.04,0.04,0.06c0.3,0.44,0.59,0.92,0.87,1.41c0.02,0.03,0.04,0.07,0.06,0.1
	c0.02,0.04,0.04,0.07,0.07,0.11c0.26,0.47,0.51,0.96,0.76,1.5c0.05,0.1,0.09,0.2,0.14,0.3c0.24,0.55,0.45,1.06,0.63,1.56
	c0.02,0.04,0.03,0.09,0.04,0.13c0.01,0.03,0.02,0.06,0.03,0.09c0.19,0.53,0.35,1.07,0.49,1.59c0.01,0.02,0.01,0.04,0.02,0.06
	c0.01,0.03,0.02,0.05,0.02,0.08c0.13,0.51,0.25,1.06,0.36,1.68l0.02,0.1c0.01,0.07,0.03,0.14,0.04,0.22
	c0.09,0.56,0.17,1.13,0.21,1.68c0,0.06,0.01,0.12,0.01,0.18c0,0.04,0.01,0.08,0.01,0.12c0.05,0.66,0.08,1.24,0.08,1.79
	c0,6-2.31,11.66-6.49,15.95h0c-0.13,0.13-0.26,0.26-0.4,0.41c1.15,1.06,9.83,9.24,9.83,14.42c0,2.21-0.7,4.31-2.03,6.07
	c-1.23,1.63-2.89,2.82-4.81,3.46c0.19-0.02,0.37-0.05,0.56-0.08l0.23-0.03c0.39-0.06,0.79-0.11,1.19-0.19
	c0.25-0.05,0.51-0.1,0.75-0.16l0.19-0.04c0.42-0.09,0.79-0.18,1.17-0.28c0.31-0.08,0.61-0.18,0.91-0.27
	c0.34-0.1,0.74-0.23,1.13-0.36c0.32-0.11,0.63-0.23,0.89-0.33c0.41-0.16,0.76-0.3,1.1-0.45c0.25-0.11,0.52-0.23,0.86-0.39
	c0.37-0.18,0.72-0.35,1.05-0.53c0.29-0.15,0.56-0.3,0.83-0.45c0.32-0.18,0.65-0.38,1-0.6c0.31-0.2,0.57-0.36,0.8-0.51
	c0.35-0.24,0.69-0.48,0.95-0.67c0.26-0.19,0.51-0.38,0.76-0.57c0.32-0.25,0.63-0.52,0.89-0.74l0.05-0.05
	c0.22-0.19,0.44-0.38,0.66-0.58c0.3-0.27,0.59-0.56,0.84-0.81l0.13-0.13c0.18-0.18,0.36-0.36,0.54-0.55
	c0.26-0.28,0.51-0.57,0.76-0.85l0.16-0.18c0.16-0.18,0.32-0.37,0.48-0.56c0.22-0.28,0.44-0.56,0.64-0.84l0.08-0.1
	c0.05-0.07,0.1-0.13,0.15-0.2c0.13-0.18,0.27-0.36,0.4-0.55c0.19-0.28,0.38-0.57,0.56-0.86l0.11-0.17c0.05-0.08,0.11-0.17,0.16-0.25
	c0.11-0.17,0.22-0.35,0.33-0.52c0.19-0.32,0.36-0.65,0.53-0.97l0.08-0.16c0.05-0.09,0.1-0.18,0.15-0.28
	c0.09-0.16,0.18-0.32,0.26-0.49c0.19-0.39,0.36-0.8,0.53-1.2l0.05-0.12c0.04-0.09,0.08-0.18,0.12-0.27c0.06-0.13,0.12-0.26,0.17-0.4
	c0.27-0.69,0.52-1.39,0.73-2.07c0.18-0.57,0.34-1.15,0.48-1.74c0.03-0.14,0.06-0.28,0.09-0.41c0.02-0.09,0.04-0.18,0.05-0.27
	l0.05-0.24c0.06-0.27,0.12-0.55,0.17-0.83c-2.39-4.24-9.63-15.67-25.56-30.94c0.29,0.38,0.56,0.73,0.79,1.08
	C112.72,217.18,112.74,217.2,112.75,217.23z"/>
<g>
	<path class="st13" d="M328.82,275.52c-0.02,0.04-0.05,0.08-0.07,0.12c-0.03,0.05-0.06,0.1-0.09,0.15
		c-0.27,0.41-0.55,0.82-0.84,1.21c-0.04,0.05-0.08,0.1-0.12,0.15c-0.03,0.04-0.06,0.08-0.09,0.11c-0.2,0.26-0.45,0.57-0.7,0.87
		c-0.07,0.08-0.14,0.16-0.22,0.24c-0.05,0.05-0.09,0.1-0.14,0.15c-0.2,0.23-0.42,0.46-0.63,0.68c-0.09,0.09-0.19,0.19-0.28,0.27
		c-0.05,0.04-0.09,0.09-0.14,0.13l-0.03,0.03c-0.2,0.19-0.4,0.38-0.61,0.56c-0.13,0.11-0.26,0.22-0.38,0.32l-0.09,0.07
		c-0.2,0.17-0.42,0.35-0.65,0.52c-0.14,0.11-0.28,0.21-0.42,0.31l-0.09,0.06c-0.21,0.15-0.44,0.31-0.67,0.47
		c-0.18,0.12-0.36,0.23-0.53,0.34c-0.24,0.15-0.47,0.28-0.7,0.41c-0.17,0.1-0.35,0.2-0.56,0.31c-0.23,0.12-0.47,0.24-0.72,0.36
		c-0.23,0.11-0.41,0.2-0.58,0.27c-0.21,0.1-0.45,0.19-0.75,0.31l-0.06,0.02c-0.17,0.07-0.35,0.14-0.53,0.2
		c-0.26,0.1-0.53,0.18-0.78,0.26l-0.14,0.04c-0.15,0.05-0.31,0.1-0.47,0.14c-0.27,0.08-0.55,0.15-0.82,0.21l-0.16,0.04
		c-0.14,0.04-0.29,0.07-0.44,0.11c-0.26,0.06-0.53,0.1-0.78,0.15l-0.09,0.01c-0.06,0.01-0.12,0.02-0.18,0.03
		c-0.13,0.02-0.26,0.05-0.39,0.07c-0.31,0.04-0.63,0.07-0.93,0.1l-0.05,0c-0.07,0.01-0.13,0.01-0.2,0.02
		c-0.1,0.01-0.19,0.02-0.29,0.03c-0.51,0.04-1.01,0.05-1.49,0.05c-10.01,0-18.71-7.11-20.68-16.91c-0.28-1.37-0.42-2.77-0.42-4.18
		c-0.03-0.56,0.02-1.27,0.14-2.12c0.11-0.85,0.27-1.7,0.5-2.62c0.03-0.16,0.08-0.33,0.13-0.5c0.01-0.05,0.03-0.1,0.04-0.15
		c0.05-0.2,0.09-0.33,0.1-0.37l0.01-0.03c1.49-4.42,7.05-9.96,8.72-11.55c0.22-0.2,0.42-0.38,0.62-0.57c0.17-0.16,0.34-0.33,0.5-0.5
		c4.04-4.14,6.26-9.6,6.26-15.38c0-0.37-0.01-0.74-0.03-1.11c0-0.07-0.01-0.14-0.02-0.21c0-0.05-0.01-0.1-0.01-0.15l0-0.06
		c-0.01-0.22-0.03-0.45-0.05-0.68c-0.01-0.09-0.02-0.18-0.03-0.27c-0.01-0.05-0.01-0.11-0.02-0.16l-0.01-0.13
		c-0.02-0.18-0.04-0.36-0.07-0.53c-0.01-0.09-0.03-0.19-0.05-0.28c-0.01-0.06-0.02-0.12-0.03-0.17l-0.02-0.14
		c-0.03-0.16-0.05-0.32-0.09-0.48c-0.02-0.11-0.05-0.21-0.07-0.32c-0.01-0.05-0.02-0.1-0.04-0.15l-0.03-0.12
		c-0.03-0.15-0.07-0.31-0.11-0.47c-0.03-0.1-0.06-0.21-0.08-0.31c-0.02-0.05-0.03-0.11-0.05-0.16l-0.03-0.1
		c-0.04-0.15-0.09-0.31-0.13-0.47c-0.03-0.11-0.07-0.22-0.11-0.33l-0.09-0.28c-0.05-0.14-0.09-0.28-0.14-0.42
		c-0.04-0.12-0.09-0.23-0.13-0.35l-0.06-0.16c-0.06-0.16-0.13-0.33-0.2-0.5c-0.05-0.12-0.11-0.24-0.16-0.36l-0.08-0.18
		c-0.07-0.15-0.13-0.3-0.2-0.45c-0.06-0.12-0.12-0.24-0.18-0.37l-0.07-0.15c-0.08-0.15-0.15-0.3-0.23-0.45
		c-0.06-0.11-0.13-0.23-0.19-0.34l-0.08-0.14c-0.09-0.15-0.18-0.31-0.27-0.46c-0.08-0.13-0.16-0.25-0.24-0.38l-0.07-0.11
		c-0.09-0.14-0.18-0.28-0.27-0.42c-0.08-0.11-0.16-0.22-0.23-0.34l-0.07-0.09c-0.11-0.15-0.22-0.31-0.33-0.46
		c-0.1-0.14-0.21-0.28-0.32-0.41c-0.13-0.17-0.24-0.31-0.36-0.45c-0.11-0.13-0.23-0.27-0.34-0.4c-0.12-0.14-0.25-0.29-0.39-0.43
		c-0.12-0.13-0.24-0.25-0.36-0.38c-0.04-0.04-0.08-0.08-0.11-0.12c0.06,0.18,0.12,0.37,0.17,0.55l0.04,0.12
		c0.01,0.04,0.03,0.09,0.04,0.13c0.02,0.06,0.04,0.12,0.06,0.18c0.02,0.07,0.04,0.14,0.05,0.22c0.01,0.05,0.02,0.11,0.04,0.16
		c0.3,1.2,0.45,2.41,0.45,3.61c0,6.52-4.17,12.21-10.38,14.18l0,0l-0.03,0.01c-0.02,0-0.03,0.01-0.05,0.02
		c-0.02,0.01-0.04,0.02-0.06,0.02l-0.17,0.05l-0.02-0.17c-0.28-2.53-1.22-4.96-2.74-7.02l-0.02-0.03l0,0c0-0.01-0.01-0.01-0.01-0.02
		c0,0-0.01-0.01-0.01-0.01c-2.16,2.38-4.18,4.75-6.02,7.02c-3.77,4.68-6.82,9.06-9.06,13.04c-0.28,0.5-0.55,1-0.8,1.48
		c-0.19,0.36-0.38,0.74-0.58,1.13c-2.17,4.39-3.27,8.26-3.27,11.5c0,2.74,0.35,5.47,1.04,8.1c0.12,0.45,0.25,0.9,0.39,1.34
		c1.89,6.09,5.64,11.56,10.66,15.56c0.19,0.15,0.37,0.3,0.56,0.44c0.06,0.05,0.12,0.09,0.19,0.14c5.34,3.97,11.96,6.32,19.13,6.32
		c8.07,0,15.45-2.98,21.09-7.9c0.02-0.02,0.04-0.03,0.06-0.05c0.22-0.19,0.43-0.39,0.64-0.59c0.37-0.35,0.75-0.7,1.1-1.06
		c0.04-0.04,0.07-0.08,0.11-0.12c2.33-2.42,4.28-5.19,5.75-8.22C328.91,275.38,328.87,275.45,328.82,275.52z"/>
	<path class="st14" d="M327.39,249.03c-0.14,0.58-0.29,1.14-0.45,1.66c-3.5,11.35-13.83,19.26-25.7,19.7c-0.7,0.07-1.39,0.07-2.11,0
		c-2.34-0.25-4.51-1.33-6.11-3.05c-1.52-1.63-2.44-3.73-2.61-5.95c0,0.01,0,0.02-0.01,0.04c-0.19,1.08-0.28,2.03-0.28,2.9
		c0.07,1.37,0.14,2.79,0.41,4.13c1.95,9.67,10.53,16.68,20.4,16.68c0.51,0,1.02-0.02,1.52-0.06c0.07-0.01,0.15-0.02,0.22-0.02
		c0.06-0.01,0.12-0.02,0.18-0.02l0.08-0.01c0.34-0.03,0.68-0.06,1.02-0.11c0.08-0.01,0.17-0.03,0.25-0.04
		c0.06-0.01,0.13-0.02,0.19-0.04l0.08-0.01c0.31-0.05,0.64-0.11,0.95-0.18c0.08-0.02,0.15-0.04,0.23-0.06
		c0.06-0.02,0.12-0.03,0.18-0.05l0.08-0.02c0.32-0.08,0.64-0.16,0.96-0.25c0.05-0.01,0.09-0.03,0.14-0.05
		c0.04-0.01,0.08-0.03,0.12-0.04c0.35-0.11,0.75-0.24,1.14-0.39c0.04-0.02,0.08-0.03,0.12-0.05c0.04-0.02,0.07-0.03,0.11-0.05
		c0.34-0.13,0.74-0.29,1.14-0.48c0.04-0.02,0.08-0.04,0.13-0.06c0.03-0.02,0.07-0.04,0.1-0.05c0.35-0.17,0.72-0.35,1.09-0.55
		c0.06-0.03,0.11-0.06,0.16-0.1c0.04-0.03,0.09-0.05,0.13-0.08c0.33-0.19,0.66-0.38,0.97-0.58c0.05-0.04,0.11-0.07,0.16-0.11
		c0.05-0.03,0.09-0.07,0.14-0.1c0.28-0.19,0.61-0.41,0.91-0.64c0.06-0.05,0.12-0.1,0.18-0.15c0.05-0.04,0.09-0.08,0.14-0.11
		l0.06-0.05c0.25-0.2,0.52-0.41,0.77-0.62c0.07-0.06,0.14-0.13,0.21-0.19c0.05-0.05,0.1-0.09,0.15-0.14l0.12-0.11
		c0.2-0.18,0.41-0.37,0.61-0.57c0.08-0.08,0.15-0.16,0.23-0.24c0.05-0.05,0.1-0.11,0.15-0.16l0.13-0.14
		c0.17-0.18,0.34-0.36,0.51-0.55c0.09-0.1,0.17-0.21,0.26-0.32c0.05-0.06,0.1-0.13,0.15-0.19c0.05-0.06,0.1-0.12,0.14-0.18
		c0.13-0.15,0.26-0.32,0.38-0.48c0.1-0.13,0.2-0.27,0.29-0.41c0.05-0.07,0.09-0.14,0.14-0.21c0.05-0.07,0.09-0.14,0.14-0.2
		c0.09-0.13,0.19-0.27,0.28-0.41c0.1-0.15,0.19-0.31,0.28-0.47c0.04-0.07,0.08-0.15,0.13-0.22c0.04-0.07,0.08-0.14,0.13-0.21
		c0.08-0.13,0.16-0.27,0.24-0.4c0.1-0.18,0.19-0.37,0.28-0.56c0.03-0.07,0.07-0.14,0.1-0.22c0.03-0.07,0.07-0.14,0.11-0.21
		c0.06-0.12,0.12-0.24,0.18-0.36v-0.11h0.05c0,0,0.42-0.89,0.56-1.32l-0.02-0.01l0.08-0.22l0.02,0.01c0.03-0.09,0.06-0.19,0.09-0.28
		l-0.01,0l0.08-0.24l0.01,0c0.03-0.09,0.05-0.18,0.08-0.26l0.01-0.04l0.06-0.21l0.01,0c0.02-0.09,0.05-0.17,0.07-0.25l0.01-0.04
		l0.06-0.23l0,0c0.02-0.08,0.04-0.16,0.07-0.25l0-0.04c0.02-0.06,0.03-0.13,0.05-0.19l0.01-0.04l0.01,0
		c0.02-0.08,0.04-0.16,0.06-0.24l-0.01,0l0.06-0.28l0.02,0c0.55-2.37,0.84-4.82,0.84-7.29c0-3.79-1.5-8.42-4.46-13.76
		c-0.04,0.22-0.09,0.44-0.14,0.65l-0.05,0.22c-0.02,0.07-0.03,0.15-0.05,0.22C327.44,248.79,327.42,248.91,327.39,249.03z"/>
	<path class="st14" d="M303.33,218.08c0.01,0.02,0.03,0.04,0.04,0.06c0.29,0.43,0.58,0.9,0.85,1.38c0.02,0.03,0.04,0.06,0.06,0.1
		c0.02,0.04,0.04,0.07,0.06,0.11c0.25,0.46,0.5,0.94,0.74,1.47c0.04,0.1,0.09,0.2,0.13,0.29c0.24,0.53,0.44,1.03,0.62,1.53
		c0.02,0.04,0.03,0.08,0.04,0.13c0.01,0.03,0.02,0.06,0.03,0.09c0.18,0.52,0.34,1.04,0.48,1.55c0.01,0.02,0.01,0.04,0.02,0.06
		c0.01,0.03,0.02,0.05,0.02,0.08c0.13,0.5,0.24,1.04,0.35,1.64l0.02,0.1c0.01,0.07,0.03,0.14,0.04,0.21
		c0.09,0.55,0.16,1.11,0.21,1.64c0,0.06,0.01,0.11,0.01,0.17c0,0.04,0.01,0.08,0.01,0.12c0.05,0.64,0.07,1.21,0.07,1.75
		c0,5.86-2.25,11.39-6.34,15.59h0c-0.12,0.13-0.25,0.26-0.39,0.4c1.13,1.04,9.6,9.02,9.6,14.08c0,2.16-0.69,4.21-1.98,5.93
		c-1.2,1.59-2.82,2.75-4.7,3.38c0.18-0.02,0.37-0.05,0.54-0.07l0.22-0.03c0.38-0.05,0.78-0.11,1.16-0.18
		c0.25-0.05,0.49-0.1,0.74-0.15l0.18-0.04c0.41-0.09,0.77-0.17,1.14-0.27c0.3-0.08,0.6-0.17,0.89-0.26c0.33-0.1,0.72-0.22,1.11-0.36
		c0.31-0.11,0.61-0.22,0.86-0.32c0.4-0.15,0.75-0.3,1.07-0.44c0.25-0.11,0.51-0.23,0.84-0.38c0.37-0.17,0.7-0.34,1.03-0.51
		c0.29-0.15,0.55-0.3,0.81-0.44c0.31-0.18,0.63-0.37,0.98-0.59c0.31-0.19,0.55-0.35,0.78-0.5c0.34-0.23,0.67-0.47,0.93-0.66
		c0.25-0.19,0.5-0.37,0.74-0.56c0.31-0.25,0.62-0.5,0.87-0.72l0.05-0.04c0.21-0.18,0.43-0.37,0.65-0.57
		c0.29-0.27,0.57-0.55,0.82-0.79l0.12-0.12c0.17-0.17,0.36-0.35,0.53-0.53c0.25-0.27,0.5-0.55,0.74-0.83l0.16-0.18
		c0.15-0.18,0.32-0.36,0.47-0.55c0.22-0.27,0.43-0.55,0.63-0.82l0.07-0.1c0.05-0.07,0.1-0.13,0.15-0.2
		c0.13-0.18,0.27-0.36,0.39-0.54c0.19-0.27,0.37-0.56,0.54-0.84l0.1-0.16c0.05-0.08,0.1-0.16,0.16-0.25
		c0.11-0.17,0.22-0.34,0.32-0.51c0.18-0.31,0.35-0.63,0.52-0.95l0.08-0.15c0.05-0.09,0.1-0.18,0.15-0.27
		c0.08-0.16,0.17-0.32,0.25-0.48c0.19-0.38,0.36-0.78,0.52-1.17l0.05-0.11c0.04-0.09,0.08-0.18,0.12-0.26
		c0.06-0.13,0.12-0.26,0.17-0.39c0.27-0.68,0.51-1.36,0.71-2.02c0.17-0.55,0.33-1.13,0.47-1.7c0.03-0.13,0.06-0.27,0.08-0.4
		c0.02-0.09,0.03-0.18,0.05-0.27l0.05-0.24c0.06-0.26,0.12-0.54,0.16-0.81c-2.34-4.14-9.41-15.31-24.97-30.23
		c0.29,0.37,0.54,0.72,0.78,1.06C303.3,218.04,303.31,218.06,303.33,218.08z"/>
</g>
<g>
	<path class="st8" d="M217.19,315.4l-0.9,0.9c-0.09,0.09-0.21,0.12-0.33,0.09c-0.12-0.03-0.23-0.14-0.26-0.26
		c-0.03-0.12,0-0.24,0.09-0.33l0.9-0.9l-0.9-0.9c-0.09-0.09-0.13-0.21-0.09-0.33c0.03-0.12,0.14-0.23,0.26-0.26
		c0.12-0.03,0.24,0,0.33,0.09l0.9,0.9l0.9-0.9c0.07-0.07,0.16-0.1,0.25-0.1c0.09,0,0.18,0.04,0.25,0.11c0.14,0.14,0.14,0.36,0,0.49
		l-0.9,0.9l0.9,0.9c0.07,0.07,0.1,0.15,0.1,0.24c0,0.09-0.04,0.18-0.11,0.25c-0.07,0.07-0.16,0.11-0.25,0.11
		c-0.09,0-0.18-0.04-0.25-0.1L217.19,315.4z"/>
	<polygon class="st12" points="215.63,295.94 218.75,294.02 215.63,291.9 	"/>
	<polygon class="st12" points="215.63,335.9 218.75,333.98 215.63,331.87 	"/>
</g>
<g>
	<path class="st8" d="M217.19,195.56l-0.9,0.9c-0.09,0.09-0.21,0.12-0.33,0.09c-0.12-0.03-0.23-0.14-0.26-0.26
		c-0.03-0.12,0-0.24,0.09-0.33l0.9-0.9l-0.9-0.9c-0.09-0.09-0.13-0.21-0.09-0.33c0.03-0.12,0.14-0.23,0.26-0.26
		c0.12-0.03,0.24,0,0.33,0.09l0.9,0.9l0.9-0.9c0.07-0.07,0.16-0.1,0.25-0.1c0.09,0,0.18,0.04,0.25,0.11c0.14,0.14,0.14,0.36,0,0.49
		l-0.9,0.9l0.9,0.9c0.07,0.07,0.1,0.15,0.1,0.24c0,0.09-0.04,0.18-0.11,0.25c-0.07,0.07-0.16,0.11-0.25,0.11
		c-0.09,0-0.18-0.04-0.25-0.1L217.19,195.56z"/>
	<polygon class="st12" points="215.63,176.09 218.75,174.17 215.63,172.06 	"/>
	<polygon class="st12" points="215.63,216.06 218.75,214.14 215.63,212.02 	"/>
</g>
<rect x="561.96" y="294.29" class="st2" width="146.62" height="40.24"/>
<rect x="602.55" y="250.4" class="st4" width="66.13" height="87.83"/>
<g>
	<g>
		<line class="st0" x1="602.57" y1="338.27" x2="602.57" y2="337.27"/>
		<line class="st15" x1="602.57" y1="335.27" x2="602.57" y2="252.4"/>
		<line class="st0" x1="602.57" y1="251.4" x2="602.57" y2="250.4"/>
	</g>
</g>
<g>
	<g>
		<line class="st0" x1="668.68" y1="338.23" x2="668.68" y2="337.23"/>
		<line class="st15" x1="668.68" y1="335.23" x2="668.68" y2="252.36"/>
		<line class="st0" x1="668.68" y1="251.36" x2="668.68" y2="250.36"/>
	</g>
</g>
<path class="st8" d="M722.87,316l0.9,0.9c0.09,0.09,0.21,0.12,0.33,0.09c0.12-0.03,0.23-0.14,0.26-0.26c0.03-0.12,0-0.24-0.09-0.33
	l-0.9-0.9l0.9-0.9c0.09-0.09,0.13-0.21,0.09-0.33c-0.03-0.12-0.14-0.23-0.26-0.26c-0.12-0.03-0.24,0-0.33,0.09l-0.9,0.9l-0.9-0.9
	c-0.07-0.07-0.16-0.1-0.25-0.1c-0.09,0-0.18,0.04-0.25,0.11c-0.14,0.14-0.14,0.36,0,0.49l0.9,0.9l-0.9,0.9
	c-0.07,0.07-0.1,0.15-0.1,0.24c0,0.09,0.04,0.18,0.11,0.25c0.07,0.07,0.16,0.11,0.25,0.11c0.09,0,0.18-0.04,0.25-0.1L722.87,316z"/>
<polygon class="st12" points="724.44,296.54 721.31,294.62 724.44,292.5 "/>
<polygon class="st12" points="724.44,336.51 721.31,334.59 724.44,332.47 "/>
<path class="st5" d="M635.07,311.78c0.35,0.04,0.7,0.06,1.06,0.06c0.36,0,0.71-0.02,1.06-0.06c-0.35,0.01-0.7,0.02-1.06,0.02
	C635.77,311.8,635.42,311.79,635.07,311.78z"/>
<rect x="752.88" y="293.05" transform="matrix(-1.836970e-16 1 -1 -1.836970e-16 1085.8253 -459.8214)" class="st8" width="39.9" height="39.9"/>
<g>
	<g>
		<line class="st0" x1="558.81" y1="294.52" x2="559.81" y2="294.52"/>
		<line class="st6" x1="561.81" y1="294.52" x2="709.06" y2="294.52"/>
		<line class="st0" x1="710.07" y1="294.52" x2="711.07" y2="294.52"/>
	</g>
</g>
<g>
	<g>
		<line class="st0" x1="558.81" y1="333.54" x2="559.81" y2="333.54"/>
		<line class="st6" x1="561.81" y1="333.54" x2="709.06" y2="333.54"/>
		<line class="st0" x1="710.07" y1="333.54" x2="711.07" y2="333.54"/>
	</g>
</g>
<g>
	<g>
		<line class="st0" x1="558.81" y1="254.67" x2="559.81" y2="254.67"/>
		<line class="st16" x1="561.79" y1="254.67" x2="715.03" y2="254.62"/>
		<line class="st0" x1="716.02" y1="254.62" x2="717.02" y2="254.62"/>
	</g>
</g>
<g>
	<g>
		<line class="st0" x1="561.96" y1="338.47" x2="561.96" y2="337.47"/>
		<line class="st15" x1="561.96" y1="335.47" x2="561.96" y2="252.6"/>
		<line class="st0" x1="561.96" y1="251.6" x2="561.96" y2="250.6"/>
	</g>
</g>
<g>
	<g>
		<line class="st0" x1="708.42" y1="338.23" x2="708.42" y2="337.23"/>
		<line class="st15" x1="708.42" y1="335.23" x2="708.42" y2="252.36"/>
		<line class="st0" x1="708.42" y1="251.36" x2="708.42" y2="250.36"/>
	</g>
</g>
<path class="st4" d="M773.05,313l0.9-0.9c0.09-0.09,0.12-0.21,0.09-0.33c-0.03-0.12-0.14-0.23-0.26-0.26
	c-0.12-0.03-0.24,0-0.33,0.09l-0.9,0.9l-0.9-0.9c-0.09-0.09-0.21-0.13-0.33-0.09c-0.12,0.03-0.23,0.14-0.26,0.26
	c-0.03,0.12,0,0.24,0.09,0.33l0.9,0.9l-0.9,0.9c-0.07,0.07-0.1,0.16-0.1,0.25c0,0.09,0.04,0.18,0.11,0.25
	c0.14,0.14,0.36,0.14,0.49,0l0.9-0.9l0.9,0.9c0.07,0.07,0.15,0.1,0.24,0.1c0.09,0,0.18-0.04,0.25-0.11
	c0.07-0.07,0.11-0.16,0.11-0.25c0-0.09-0.04-0.18-0.1-0.25L773.05,313z"/>
<g>
	<path class="st8" d="M554.33,315.91l-0.9,0.9c-0.09,0.09-0.21,0.12-0.33,0.09c-0.12-0.03-0.23-0.14-0.26-0.26
		c-0.03-0.12,0-0.24,0.09-0.33l0.9-0.9l-0.9-0.9c-0.09-0.09-0.13-0.21-0.09-0.33c0.03-0.12,0.14-0.23,0.26-0.26
		c0.12-0.03,0.24,0,0.33,0.09l0.9,0.9l0.9-0.9c0.07-0.07,0.16-0.1,0.25-0.1c0.09,0,0.18,0.04,0.25,0.11c0.14,0.14,0.14,0.36,0,0.49
		l-0.9,0.9l0.9,0.9c0.07,0.07,0.1,0.15,0.1,0.24c0,0.09-0.04,0.18-0.11,0.25c-0.07,0.07-0.16,0.11-0.25,0.11
		c-0.09,0-0.18-0.04-0.25-0.1L554.33,315.91z"/>
	<polygon class="st12" points="552.77,296.45 555.89,294.53 552.77,292.41 	"/>
	<polygon class="st12" points="552.77,336.42 555.89,334.5 552.77,332.38 	"/>
</g>
<path class="st13" d="M665.44,316.15c-0.03,0.04-0.05,0.08-0.07,0.12c-0.03,0.05-0.06,0.1-0.09,0.15c-0.27,0.42-0.56,0.83-0.86,1.23
	c-0.04,0.05-0.08,0.1-0.12,0.15c-0.03,0.04-0.06,0.08-0.09,0.12c-0.21,0.27-0.46,0.59-0.72,0.89c-0.07,0.08-0.15,0.17-0.22,0.25
	c-0.05,0.05-0.09,0.1-0.14,0.15c-0.21,0.23-0.43,0.47-0.65,0.69c-0.1,0.1-0.19,0.19-0.29,0.28c-0.05,0.04-0.09,0.09-0.14,0.13
	l-0.03,0.03c-0.2,0.19-0.41,0.39-0.62,0.57c-0.13,0.11-0.26,0.22-0.39,0.33l-0.09,0.07c-0.21,0.17-0.43,0.36-0.66,0.53
	c-0.14,0.11-0.29,0.21-0.43,0.32l-0.09,0.06c-0.22,0.15-0.45,0.32-0.69,0.48c-0.18,0.12-0.37,0.24-0.55,0.35
	c-0.25,0.15-0.48,0.29-0.71,0.42c-0.17,0.1-0.36,0.2-0.57,0.31c-0.24,0.13-0.48,0.25-0.74,0.37c-0.24,0.11-0.42,0.2-0.59,0.28
	c-0.22,0.1-0.46,0.2-0.77,0.32l-0.07,0.03c-0.18,0.07-0.36,0.14-0.54,0.21c-0.27,0.1-0.54,0.19-0.8,0.27l-0.14,0.04
	c-0.16,0.05-0.32,0.1-0.48,0.15c-0.28,0.08-0.56,0.15-0.84,0.22l-0.16,0.04c-0.15,0.04-0.3,0.08-0.45,0.11
	c-0.27,0.06-0.54,0.1-0.8,0.15l-0.09,0.01c-0.06,0.01-0.12,0.02-0.18,0.03c-0.13,0.02-0.27,0.05-0.4,0.07
	c-0.32,0.04-0.64,0.08-0.96,0.11l-0.05,0c-0.07,0.01-0.14,0.01-0.2,0.02c-0.1,0.01-0.2,0.02-0.3,0.03
	c-0.52,0.04-1.03,0.06-1.52,0.06c-10.25,0-19.15-7.28-21.17-17.31c-0.28-1.4-0.43-2.84-0.43-4.27c-0.03-0.57,0.02-1.3,0.15-2.17
	c0.11-0.87,0.28-1.74,0.51-2.68c0.03-0.16,0.08-0.34,0.13-0.51c0.01-0.05,0.03-0.1,0.04-0.15c0.05-0.21,0.09-0.34,0.1-0.38
	l0.01-0.03c1.53-4.53,7.22-10.19,8.93-11.82c0.23-0.2,0.43-0.39,0.63-0.58c0.17-0.17,0.35-0.34,0.51-0.51
	c4.13-4.24,6.41-9.83,6.41-15.75c0-0.38-0.01-0.76-0.03-1.14c0-0.07-0.01-0.15-0.02-0.22c0-0.05-0.01-0.1-0.01-0.15l0-0.06
	c-0.01-0.23-0.03-0.46-0.05-0.69c-0.01-0.09-0.02-0.18-0.03-0.27c-0.01-0.05-0.01-0.11-0.02-0.16l-0.02-0.13
	c-0.02-0.18-0.04-0.37-0.07-0.55c-0.01-0.1-0.03-0.19-0.05-0.29c-0.01-0.06-0.02-0.12-0.03-0.18l-0.02-0.14
	c-0.03-0.16-0.06-0.33-0.09-0.49c-0.02-0.11-0.05-0.22-0.07-0.32c-0.01-0.05-0.02-0.11-0.04-0.16l-0.03-0.13
	c-0.03-0.16-0.07-0.32-0.11-0.48c-0.03-0.11-0.06-0.21-0.09-0.32c-0.02-0.06-0.03-0.11-0.05-0.17l-0.03-0.11
	c-0.04-0.16-0.09-0.32-0.14-0.48c-0.03-0.11-0.07-0.23-0.11-0.34l-0.09-0.28c-0.05-0.14-0.09-0.29-0.15-0.43
	c-0.04-0.12-0.09-0.24-0.14-0.36l-0.06-0.16c-0.06-0.17-0.13-0.34-0.2-0.51c-0.05-0.12-0.11-0.25-0.16-0.37l-0.08-0.18
	c-0.07-0.15-0.14-0.31-0.21-0.46c-0.06-0.13-0.12-0.25-0.19-0.37l-0.08-0.15c-0.08-0.15-0.16-0.31-0.24-0.46
	c-0.06-0.12-0.13-0.23-0.2-0.35l-0.08-0.14c-0.09-0.16-0.18-0.32-0.28-0.47c-0.08-0.13-0.16-0.26-0.24-0.39l-0.07-0.12
	c-0.09-0.14-0.18-0.29-0.28-0.43c-0.08-0.12-0.16-0.23-0.24-0.34l-0.07-0.09c-0.11-0.16-0.23-0.32-0.34-0.47
	c-0.11-0.14-0.22-0.28-0.33-0.42c-0.13-0.17-0.25-0.31-0.37-0.46c-0.11-0.14-0.23-0.27-0.35-0.41c-0.12-0.14-0.26-0.29-0.4-0.44
	c-0.12-0.13-0.24-0.26-0.37-0.39c-0.04-0.04-0.08-0.08-0.12-0.12c0.06,0.19,0.12,0.37,0.17,0.56l0.04,0.13
	c0.01,0.05,0.03,0.09,0.04,0.14c0.02,0.06,0.04,0.12,0.06,0.18c0.02,0.07,0.04,0.15,0.06,0.22c0.01,0.06,0.03,0.11,0.04,0.16
	c0.31,1.23,0.46,2.47,0.46,3.7c0,6.68-4.27,12.5-10.62,14.52l0,0l-0.03,0.01c-0.02,0-0.03,0.01-0.05,0.02
	c-0.02,0.01-0.04,0.02-0.06,0.02l-0.17,0.05l-0.02-0.18c-0.28-2.59-1.25-5.08-2.81-7.19l-0.02-0.03l0,0c0-0.01-0.01-0.01-0.01-0.02
	c0,0-0.01-0.01-0.01-0.01c-2.21,2.44-4.28,4.86-6.16,7.19c-3.86,4.79-6.98,9.28-9.27,13.34c-0.29,0.51-0.56,1.02-0.82,1.51
	c-0.2,0.37-0.39,0.76-0.59,1.15c-2.22,4.49-3.35,8.45-3.35,11.78c0,2.8,0.36,5.59,1.07,8.3c0.12,0.46,0.26,0.92,0.39,1.37
	c1.94,6.23,5.77,11.83,10.91,15.93c0.19,0.15,0.38,0.31,0.58,0.45c0.06,0.05,0.13,0.1,0.19,0.14c5.47,4.06,12.24,6.47,19.58,6.47
	c8.26,0,15.81-3.05,21.59-8.08c0.02-0.02,0.04-0.03,0.06-0.05c0.22-0.2,0.44-0.4,0.66-0.6c0.38-0.36,0.76-0.72,1.13-1.09
	c0.04-0.04,0.08-0.08,0.11-0.12c2.39-2.48,4.38-5.31,5.89-8.42C665.53,316.01,665.49,316.08,665.44,316.15z"/>
<path class="st14" d="M663.98,289.03c-0.14,0.59-0.3,1.17-0.47,1.7c-3.58,11.62-14.16,19.72-26.31,20.17
	c-0.72,0.08-1.43,0.08-2.16,0c-2.4-0.26-4.62-1.36-6.26-3.12c-1.56-1.67-2.5-3.82-2.67-6.09c0,0.01,0,0.02-0.01,0.04
	c-0.19,1.11-0.28,2.08-0.28,2.97c0.07,1.4,0.14,2.85,0.42,4.23c1.99,9.89,10.78,17.08,20.88,17.08c0.52,0,1.05-0.02,1.56-0.06
	c0.08-0.01,0.15-0.02,0.23-0.02c0.06-0.01,0.12-0.02,0.18-0.02l0.08-0.01c0.34-0.03,0.7-0.07,1.05-0.12
	c0.09-0.01,0.17-0.03,0.26-0.05c0.06-0.01,0.13-0.03,0.19-0.04l0.08-0.01c0.32-0.05,0.66-0.11,0.98-0.18
	c0.08-0.02,0.15-0.04,0.23-0.06c0.06-0.02,0.12-0.03,0.18-0.05l0.08-0.02c0.32-0.08,0.66-0.16,0.98-0.26
	c0.05-0.01,0.1-0.03,0.14-0.05c0.04-0.01,0.08-0.03,0.13-0.04c0.36-0.11,0.77-0.25,1.17-0.4c0.04-0.02,0.08-0.03,0.12-0.05
	c0.04-0.02,0.07-0.03,0.11-0.05c0.35-0.14,0.76-0.3,1.17-0.49c0.04-0.02,0.09-0.04,0.13-0.07c0.04-0.02,0.07-0.04,0.11-0.05
	c0.36-0.17,0.74-0.35,1.11-0.56c0.06-0.03,0.11-0.06,0.17-0.1c0.04-0.03,0.09-0.06,0.13-0.08c0.34-0.19,0.67-0.39,1-0.6
	c0.06-0.04,0.11-0.07,0.16-0.11c0.05-0.03,0.09-0.07,0.14-0.1c0.29-0.2,0.62-0.42,0.94-0.65c0.06-0.05,0.12-0.1,0.19-0.15
	c0.05-0.04,0.09-0.08,0.14-0.12l0.06-0.05c0.26-0.2,0.53-0.42,0.79-0.64c0.07-0.06,0.15-0.13,0.21-0.2c0.05-0.05,0.1-0.1,0.15-0.14
	l0.12-0.11c0.21-0.19,0.42-0.38,0.62-0.58c0.08-0.08,0.16-0.17,0.23-0.25c0.05-0.06,0.1-0.11,0.15-0.16l0.13-0.14
	c0.17-0.18,0.35-0.37,0.52-0.56c0.09-0.11,0.18-0.22,0.26-0.32c0.05-0.06,0.1-0.13,0.15-0.19c0.05-0.06,0.1-0.12,0.15-0.18
	c0.13-0.16,0.27-0.32,0.39-0.49c0.1-0.14,0.2-0.28,0.29-0.42c0.05-0.07,0.1-0.14,0.14-0.21c0.05-0.07,0.1-0.14,0.15-0.21
	c0.1-0.14,0.2-0.28,0.29-0.42c0.1-0.16,0.19-0.32,0.28-0.48c0.04-0.07,0.09-0.15,0.13-0.22c0.04-0.07,0.09-0.14,0.13-0.22
	c0.08-0.13,0.17-0.27,0.24-0.41c0.1-0.19,0.19-0.38,0.29-0.57c0.04-0.07,0.07-0.15,0.11-0.22c0.04-0.07,0.07-0.15,0.11-0.22
	c0.06-0.12,0.13-0.25,0.18-0.37v-0.12h0.05c0,0,0.42-0.91,0.57-1.35l-0.02-0.01l0.08-0.22l0.02,0.01c0.03-0.1,0.06-0.19,0.09-0.29
	l-0.01,0l0.08-0.24l0.01,0c0.03-0.09,0.05-0.18,0.08-0.27l0.01-0.04l0.06-0.22l0.01,0c0.02-0.09,0.05-0.17,0.07-0.26l0.01-0.04
	l0.06-0.23l0,0c0.02-0.08,0.04-0.17,0.07-0.25l0-0.04c0.02-0.06,0.03-0.13,0.05-0.19l0.01-0.04l0.01,0
	c0.02-0.08,0.04-0.17,0.06-0.25l-0.01,0l0.06-0.29l0.02,0c0.57-2.43,0.86-4.94,0.86-7.46c0-3.88-1.53-8.62-4.56-14.08
	c-0.04,0.23-0.09,0.45-0.14,0.67l-0.05,0.23c-0.02,0.07-0.03,0.15-0.05,0.23C664.03,288.8,664.01,288.92,663.98,289.03z"/>
<path class="st14" d="M639.34,257.36c0.01,0.02,0.03,0.04,0.04,0.06c0.3,0.44,0.59,0.92,0.87,1.41c0.02,0.03,0.04,0.07,0.06,0.1
	c0.02,0.04,0.04,0.07,0.07,0.11c0.26,0.47,0.51,0.96,0.76,1.5c0.05,0.1,0.09,0.2,0.14,0.3c0.24,0.55,0.45,1.06,0.63,1.56
	c0.02,0.04,0.03,0.09,0.04,0.13c0.01,0.03,0.02,0.06,0.03,0.09c0.19,0.53,0.35,1.07,0.49,1.59c0.01,0.02,0.01,0.04,0.02,0.06
	c0.01,0.03,0.02,0.05,0.02,0.08c0.13,0.51,0.25,1.06,0.36,1.68l0.02,0.1c0.01,0.07,0.03,0.14,0.04,0.22
	c0.09,0.56,0.17,1.13,0.21,1.68c0,0.06,0.01,0.12,0.01,0.18c0,0.04,0.01,0.08,0.01,0.12c0.05,0.66,0.08,1.24,0.08,1.79
	c0,6-2.31,11.66-6.49,15.95h0c-0.13,0.13-0.26,0.26-0.4,0.41c1.15,1.06,9.83,9.24,9.83,14.42c0,2.21-0.7,4.31-2.03,6.07
	c-1.23,1.63-2.89,2.82-4.81,3.46c0.19-0.02,0.37-0.05,0.56-0.08l0.23-0.03c0.39-0.06,0.79-0.11,1.19-0.19
	c0.25-0.05,0.51-0.1,0.75-0.16l0.19-0.04c0.42-0.09,0.79-0.18,1.17-0.28c0.31-0.08,0.61-0.18,0.91-0.27
	c0.34-0.1,0.74-0.23,1.13-0.36c0.32-0.11,0.63-0.23,0.89-0.33c0.41-0.16,0.76-0.3,1.1-0.45c0.25-0.11,0.52-0.23,0.86-0.39
	c0.37-0.18,0.72-0.35,1.05-0.53c0.29-0.15,0.56-0.3,0.83-0.45c0.32-0.18,0.65-0.38,1-0.6c0.31-0.2,0.57-0.36,0.8-0.51
	c0.35-0.24,0.69-0.48,0.95-0.67c0.26-0.19,0.51-0.38,0.76-0.57c0.32-0.25,0.63-0.52,0.89-0.74l0.05-0.05
	c0.22-0.19,0.45-0.38,0.66-0.58c0.3-0.27,0.59-0.56,0.84-0.81l0.13-0.13c0.18-0.18,0.36-0.36,0.54-0.55
	c0.26-0.28,0.51-0.57,0.76-0.85l0.16-0.18c0.16-0.18,0.32-0.37,0.48-0.56c0.22-0.28,0.44-0.56,0.64-0.84l0.08-0.1
	c0.05-0.07,0.1-0.13,0.15-0.2c0.13-0.18,0.27-0.36,0.4-0.55c0.19-0.28,0.38-0.57,0.56-0.86l0.11-0.17c0.05-0.08,0.11-0.17,0.16-0.25
	c0.11-0.17,0.22-0.35,0.33-0.52c0.19-0.32,0.36-0.65,0.53-0.97l0.08-0.16c0.05-0.09,0.1-0.18,0.15-0.28
	c0.09-0.16,0.18-0.32,0.26-0.49c0.19-0.39,0.36-0.8,0.53-1.2l0.05-0.12c0.04-0.09,0.08-0.18,0.12-0.27c0.06-0.13,0.12-0.26,0.17-0.4
	c0.27-0.69,0.52-1.39,0.73-2.07c0.18-0.57,0.34-1.15,0.48-1.74c0.03-0.14,0.06-0.28,0.09-0.41c0.02-0.09,0.04-0.18,0.05-0.27
	l0.05-0.24c0.06-0.27,0.12-0.55,0.17-0.83c-2.39-4.24-9.63-15.67-25.56-30.94c0.29,0.38,0.56,0.73,0.79,1.08
	C639.32,257.32,639.33,257.34,639.34,257.36z"/>
</svg>
