<svg id="Laag_1" data-name="Laag 1" xmlns="http://www.w3.org/2000/svg" viewBox="0 0 1052.01 404.16">
  <defs>
    <style>
      .cls-1, .cls-13, .cls-20, .cls-24, .cls-25 {
        fill: #ec0000;
      }

      .cls-1 {
        opacity: 0.05;
      }

      .cls-2 {
        fill: #fff;
      }

      .cls-10, .cls-23, .cls-26, .cls-3, .cls-4, .cls-5, .cls-6, .cls-7, .cls-9 {
        fill: none;
        stroke: #d30021;
        stroke-miterlimit: 10;
        stroke-width: 0.25px;
      }

      .cls-4 {
        stroke-dasharray: 1.99 1.99;
      }

      .cls-5 {
        stroke-dasharray: 1.99 1.99;
      }

      .cls-6 {
        stroke-dasharray: 2 2;
      }

      .cls-7 {
        stroke-dasharray: 2 2;
      }

      .cls-11, .cls-12, .cls-8 {
        fill: #d30021;
      }

      .cls-9 {
        stroke-dasharray: 1.99 1.99;
      }

      .cls-10 {
        stroke-dasharray: 1.99 1.99;
      }

      .cls-11 {
        opacity: 0.54;
      }

      .cls-12 {
        opacity: 0.72;
      }

      .cls-13 {
        font-size: 26.89px;
      }

      .cls-13, .cls-20 {
        font-family: CircularStd-Book, Circular Std;
      }

      .cls-14 {
        letter-spacing: 0em;
      }

      .cls-15 {
        letter-spacing: -0.01em;
      }

      .cls-16 {
        letter-spacing: 0.01em;
      }

      .cls-17 {
        letter-spacing: -0.02em;
      }

      .cls-18 {
        letter-spacing: -0.01em;
      }

      .cls-19 {
        letter-spacing: 0em;
      }

      .cls-20 {
        font-size: 37.34px;
      }

      .cls-21 {
        letter-spacing: -0.01em;
      }

      .cls-22 {
        letter-spacing: 0em;
      }

      .cls-23 {
        stroke-dasharray: 2 2;
      }

      .cls-25 {
        opacity: 0.2;
      }

      .cls-26 {
        stroke-dasharray: 2 2;
      }

      .cls-27, .cls-28 {
        fill: #e80000;
      }

      .cls-27 {
        opacity: 0.8;
      }
    </style>
  </defs>
  <rect class="cls-1" x="13.73" y="338.17" width="219.01" height="60.11"/>
  <rect class="cls-2" x="74.36" y="272.61" width="98.78" height="131.19"/>
  <g>
    <line class="cls-3" x1="800.24" y1="74.77" x2="801.24" y2="74.77"/>
    <line class="cls-4" x1="803.23" y1="74.77" x2="1040.61" y2="74.77"/>
    <line class="cls-3" x1="1041.6" y1="74.77" x2="1042.6" y2="74.77"/>
  </g>
  <g>
    <line class="cls-3" x1="800.24" y1="194.14" x2="801.24" y2="194.14"/>
    <line class="cls-4" x1="803.23" y1="194.14" x2="1040.61" y2="194.14"/>
    <line class="cls-3" x1="1041.6" y1="194.14" x2="1042.6" y2="194.14"/>
  </g>
  <g>
    <line class="cls-3" x1="871.65" y1="319.22" x2="871.65" y2="318.22"/>
    <line class="cls-5" x1="871.65" y1="316.23" x2="871.65" y2="14.7"/>
    <line class="cls-3" x1="871.65" y1="13.7" x2="871.65" y2="12.7"/>
  </g>
  <g>
    <line class="cls-3" x1="970.39" y1="319.09" x2="970.39" y2="318.09"/>
    <line class="cls-5" x1="970.39" y1="316.1" x2="970.39" y2="14.57"/>
    <line class="cls-3" x1="970.39" y1="13.57" x2="970.39" y2="12.57"/>
  </g>
  <g>
    <line class="cls-3" x1="74.39" y1="256.48" x2="74.39" y2="255.48"/>
    <line class="cls-6" x1="74.39" y1="253.48" x2="74.39" y2="14.75"/>
    <line class="cls-3" x1="74.39" y1="13.75" x2="74.39" y2="12.75"/>
  </g>
  <g>
    <line class="cls-3" x1="173.14" y1="256.37" x2="173.14" y2="255.37"/>
    <line class="cls-6" x1="173.14" y1="253.37" x2="173.14" y2="14.64"/>
    <line class="cls-3" x1="173.14" y1="13.64" x2="173.14" y2="12.64"/>
  </g>
  <rect class="cls-1" x="13.73" y="15.24" width="219.01" height="238.49"/>
  <g>
    <line class="cls-3" x1="292.91" y1="74.84" x2="293.91" y2="74.84"/>
    <line class="cls-7" x1="295.91" y1="74.84" x2="743.98" y2="74.84"/>
    <line class="cls-3" x1="744.98" y1="74.84" x2="745.98" y2="74.84"/>
  </g>
  <g>
    <line class="cls-3" x1="292.91" y1="194.21" x2="293.91" y2="194.21"/>
    <line class="cls-7" x1="295.91" y1="194.21" x2="743.98" y2="194.21"/>
    <line class="cls-3" x1="744.98" y1="194.21" x2="745.98" y2="194.21"/>
  </g>
  <g>
    <line class="cls-3" x1="359.17" y1="256.48" x2="359.17" y2="255.48"/>
    <line class="cls-6" x1="359.17" y1="253.48" x2="359.17" y2="14.75"/>
    <line class="cls-3" x1="359.17" y1="13.75" x2="359.17" y2="12.75"/>
  </g>
  <g>
    <line class="cls-3" x1="457.91" y1="256.37" x2="457.91" y2="255.37"/>
    <line class="cls-6" x1="457.91" y1="253.37" x2="457.91" y2="14.64"/>
    <line class="cls-3" x1="457.91" y1="13.64" x2="457.91" y2="12.64"/>
  </g>
  <rect class="cls-1" x="299.57" y="15.24" width="440.03" height="238.49"/>
  <rect class="cls-2" x="359.13" y="74.81" width="320.88" height="119.4"/>
  <path class="cls-8" d="M484,265.5c.52.05,1,.08,1.58.08s1.06,0,1.58-.08c-.53,0-1.05,0-1.58,0S484.54,265.52,484,265.5Z" transform="translate(-76.31 -106.43)"/>
  <g>
    <line class="cls-3" x1="9.02" y1="74.84" x2="10.02" y2="74.84"/>
    <line class="cls-9" x1="12.02" y1="74.84" x2="234.45" y2="74.84"/>
    <line class="cls-3" x1="235.45" y1="74.84" x2="236.45" y2="74.84"/>
  </g>
  <g>
    <line class="cls-3" x1="9.02" y1="194.21" x2="10.02" y2="194.21"/>
    <line class="cls-9" x1="12.02" y1="194.21" x2="234.45" y2="194.21"/>
    <line class="cls-3" x1="235.45" y1="194.21" x2="236.45" y2="194.21"/>
  </g>
  <g>
    <line class="cls-3" x1="74.39" y1="403.86" x2="74.39" y2="402.86"/>
    <line class="cls-10" x1="74.39" y1="400.87" x2="74.39" y2="274.6"/>
    <line class="cls-3" x1="74.39" y1="273.61" x2="74.39" y2="272.61"/>
  </g>
  <g>
    <line class="cls-3" x1="173.14" y1="403.8" x2="173.14" y2="402.8"/>
    <line class="cls-10" x1="173.14" y1="400.81" x2="173.14" y2="274.54"/>
    <line class="cls-3" x1="173.14" y1="273.55" x2="173.14" y2="272.55"/>
  </g>
  <rect class="cls-2" x="74.36" y="74.81" width="98.78" height="119.4"/>
  <g>
    <line class="cls-3" x1="800.24" y1="74.77" x2="801.24" y2="74.77"/>
    <line class="cls-4" x1="803.23" y1="74.77" x2="1040.61" y2="74.77"/>
    <line class="cls-3" x1="1041.6" y1="74.77" x2="1042.6" y2="74.77"/>
  </g>
  <g>
    <line class="cls-3" x1="800.24" y1="194.14" x2="801.24" y2="194.14"/>
    <line class="cls-4" x1="803.23" y1="194.14" x2="1040.61" y2="194.14"/>
    <line class="cls-3" x1="1041.6" y1="194.14" x2="1042.6" y2="194.14"/>
  </g>
  <g>
    <line class="cls-3" x1="871.65" y1="256.41" x2="871.65" y2="255.41"/>
    <line class="cls-6" x1="871.65" y1="253.41" x2="871.65" y2="14.68"/>
    <line class="cls-3" x1="871.65" y1="13.68" x2="871.65" y2="12.68"/>
  </g>
  <g>
    <line class="cls-3" x1="970.39" y1="256.3" x2="970.39" y2="255.3"/>
    <line class="cls-6" x1="970.39" y1="253.3" x2="970.39" y2="14.57"/>
    <line class="cls-3" x1="970.39" y1="13.57" x2="970.39" y2="12.57"/>
  </g>
  <rect class="cls-1" x="809.85" y="15.24" width="219.24" height="298.08"/>
  <rect class="cls-2" x="871.62" y="74.74" width="98.78" height="119.4"/>
  <path class="cls-11" d="M998.15,181.19a33.61,33.61,0,0,1,.69,47.6c-.25.25-.5.51-.76.75.21.19,14.65,13.29,14.65,21.33a14.66,14.66,0,0,1-13.07,14.56,42.19,42.19,0,0,0,38.71-29.69,41.71,41.71,0,0,0,1.26-5.27C1026.52,207.17,999.64,182.56,998.15,181.19Z" transform="translate(-76.31 -106.43)"/>
  <path class="cls-8" d="M996.5,265.43c.52.05,1,.08,1.58.08s1.06,0,1.58-.08c-.53,0-1,0-1.58,0S997,265.45,996.5,265.43Z" transform="translate(-76.31 -106.43)"/>
  <path class="cls-12" d="M1039.63,230.47a41.71,41.71,0,0,1-1.26,5.27,42.19,42.19,0,0,1-38.71,29.69c-.52.05-1,.08-1.58.08s-1.06,0-1.58-.08a14.65,14.65,0,0,1-13.07-14.56,9.72,9.72,0,0,1,.57-3.06h0a31.44,31.44,0,0,0-1.38,8.67,31.74,31.74,0,0,0,60.69,13h0l.11.06a48.49,48.49,0,0,0,3.28-17.59C1046.7,245.49,1043.9,238.05,1039.63,230.47Zm4,38.16a1.17,1.17,0,0,1-.05.11A1.17,1.17,0,0,0,1043.67,268.63Zm2.4-11.31c0,.09,0,.18,0,.27C1046.06,257.5,1046.07,257.41,1046.07,257.32Zm0,.84c0,.11,0,.21,0,.32C1046,258.37,1046,258.27,1046,258.16Zm-.06.83c0,.11,0,.22,0,.34C1046,259.21,1046,259.1,1046,259Zm-.07.83c0,.11,0,.23,0,.34C1045.88,260.05,1045.9,259.93,1045.91,259.82Zm-.1.82c0,.12,0,.23,0,.34C1045.78,260.87,1045.8,260.76,1045.81,260.64Zm-.12.82c0,.11,0,.22,0,.33C1045.66,261.68,1045.67,261.57,1045.69,261.46Zm-.14.81-.06.32Zm-.16.81-.06.31Zm-.18.8c0,.1,0,.2-.07.3C1045.16,264.08,1045.19,264,1045.21,263.88Zm-.2.8c0,.09,0,.19-.08.28C1045,264.87,1045,264.77,1045,264.68Zm-.22.79c0,.09,0,.18-.08.26C1044.74,265.65,1044.76,265.56,1044.79,265.47Zm-.25.79c0,.08,0,.16-.07.24C1044.49,266.42,1044.52,266.34,1044.54,266.26Zm-.26.78c0,.07,0,.14-.08.22C1044.23,267.18,1044.25,267.11,1044.28,267Zm-.29.79a.87.87,0,0,1-.07.17A.87.87,0,0,0,1044,267.83Z" transform="translate(-76.31 -106.43)"/>
  <path class="cls-8" d="M984,247.81h0c2.23-6.59,10.38-14.76,13.15-17.4q.48-.42.93-.87c.26-.24.51-.5.76-.75a33.61,33.61,0,0,0-.69-47.6l0,0A22.32,22.32,0,0,1,984,210.9a22.12,22.12,0,0,0-4.41-11c-3,3.35-6.21,7-9.3,10.84a147.45,147.45,0,0,0-13.73,19.77c-.43.75-.83,1.49-1.22,2.24-.3.57-.6,1.14-.88,1.71-3.06,6.19-5,12.19-5,17.52a48.63,48.63,0,0,0,94,17.59l-.11-.06a31.74,31.74,0,0,1-60.07-6.7,43,43,0,0,1-.62-6.29C982.46,253.27,984,247.81,984,247.81Z" transform="translate(-76.31 -106.43)"/>
  <rect class="cls-2" x="871.62" y="74.74" width="98.78" height="179.06"/>
  <path class="cls-8" d="M996.5,265.43c.52.05,1,.08,1.58.08s1.06,0,1.58-.08c-.53,0-1,0-1.58,0S997,265.45,996.5,265.43Z" transform="translate(-76.31 -106.43)"/>
  <text class="cls-13" transform="translate(471.3 132.07)"><tspan class="cls-14">B</tspan><tspan x="16.05" y="0">rand</tspan><tspan class="cls-15" x="70.9" y="0">w</tspan><tspan x="91.95" y="0">ee</tspan><tspan class="cls-16" x="121.1" y="0">r</tspan><tspan x="131.23" y="0">zone</tspan><tspan class="cls-17" x="0" y="26.89">C</tspan><tspan x="19.63" y="26.89">en</tspan><tspan class="cls-18" x="49.31" y="26.89">t</tspan><tspan class="cls-19" x="58.59" y="26.89">r</tspan><tspan x="68.59" y="26.89">um</tspan></text>
  <text class="cls-20" transform="translate(877.39 237.07)"><tspan class="cls-21">b</tspan><tspan class="cls-22" x="21.77" y="0">w</tspan><tspan x="51.57" y="0">zc</tspan></text>
  <g>
    <line class="cls-3" x1="680.01" y1="256.48" x2="680.01" y2="255.48"/>
    <line class="cls-23" x1="680.01" y1="253.48" x2="680.01" y2="14.71"/>
    <line class="cls-3" x1="680.01" y1="13.71" x2="680.01" y2="12.71"/>
  </g>
  <path class="cls-24" d="M787.21,108.76l1.35-1.35a.5.5,0,0,0,.14-.49.55.55,0,0,0-.39-.39.48.48,0,0,0-.49.14L786.47,108l-1.35-1.35a.48.48,0,0,0-.49-.14.55.55,0,0,0-.39.39.48.48,0,0,0,.14.49l1.34,1.35-1.34,1.35a.52.52,0,0,0-.16.37.61.61,0,0,0,.16.37.53.53,0,0,0,.74,0l1.35-1.35,1.35,1.35a.52.52,0,0,0,.36.16.57.57,0,0,0,.38-.16.61.61,0,0,0,.16-.37.52.52,0,0,0-.16-.37Z" transform="translate(-76.31 -106.43)"/>
  <polygon class="cls-25" points="683.33 0 680.46 4.66 677.29 0 683.33 0"/>
  <polygon class="cls-25" points="743.02 0 740.16 4.66 736.99 0 743.02 0"/>
  <path class="cls-24" d="M330.4,477l1.35,1.35a.49.49,0,0,0,.49.13.55.55,0,0,0,.39-.38.52.52,0,0,0-.14-.5l-1.35-1.35,1.35-1.34a.5.5,0,0,0,.14-.5.57.57,0,0,0-.39-.39.52.52,0,0,0-.49.14l-1.35,1.35-1.35-1.35a.51.51,0,0,0-.37-.15.54.54,0,0,0-.37.16.53.53,0,0,0,0,.74l1.34,1.34-1.34,1.35a.52.52,0,0,0-.16.37.55.55,0,0,0,.53.53.51.51,0,0,0,.37-.15Z" transform="translate(-76.31 -106.43)"/>
  <polygon class="cls-25" points="256.42 341.53 251.76 338.66 256.42 335.5 256.42 341.53"/>
  <polygon class="cls-25" points="256.42 401.23 251.76 398.36 256.42 395.2 256.42 401.23"/>
  <g>
    <line class="cls-3" x1="740.01" y1="256.48" x2="740.01" y2="255.48"/>
    <line class="cls-23" x1="740.01" y1="253.48" x2="740.01" y2="14.71"/>
    <line class="cls-3" x1="740.01" y1="13.71" x2="740.01" y2="12.71"/>
  </g>
  <path class="cls-8" d="M199.24,470.72a13.91,13.91,0,0,0,3.16,0c-.52,0-1.05,0-1.58,0S199.77,470.74,199.24,470.72Z" transform="translate(-76.31 -106.43)"/>
  <rect class="cls-24" x="375.21" y="442.75" width="59.59" height="59.59" transform="translate(801.24 -38.89) rotate(90)"/>
  <g>
    <line class="cls-3" x1="800.24" y1="253.73" x2="801.24" y2="253.73"/>
    <line class="cls-4" x1="803.23" y1="253.73" x2="1040.61" y2="253.73"/>
    <line class="cls-3" x1="1041.6" y1="253.73" x2="1042.6" y2="253.73"/>
  </g>
  <g>
    <line class="cls-3" x1="9.02" y1="338.51" x2="10.02" y2="338.51"/>
    <line class="cls-9" x1="12.02" y1="338.51" x2="234.45" y2="338.51"/>
    <line class="cls-3" x1="235.45" y1="338.51" x2="236.45" y2="338.51"/>
  </g>
  <g>
    <line class="cls-3" x1="9.02" y1="398.29" x2="10.02" y2="398.29"/>
    <line class="cls-9" x1="12.02" y1="398.29" x2="234.45" y2="398.29"/>
    <line class="cls-3" x1="235.45" y1="398.29" x2="236.45" y2="398.29"/>
  </g>
  <g>
    <line class="cls-3" x1="9.02" y1="278.99" x2="10.02" y2="278.99"/>
    <line class="cls-26" x1="12.02" y1="278.99" x2="243.34" y2="278.91"/>
    <line class="cls-3" x1="244.34" y1="278.91" x2="245.34" y2="278.91"/>
  </g>
  <g>
    <path class="cls-24" d="M319.94,154.17l1.35,1.35a.5.5,0,0,0,.49.13.54.54,0,0,0,.39-.38.5.5,0,0,0-.14-.5l-1.34-1.34,1.34-1.35a.49.49,0,0,0,.14-.49.55.55,0,0,0-.39-.39.5.5,0,0,0-.49.13l-1.35,1.35-1.34-1.35a.53.53,0,0,0-.37-.15.54.54,0,0,0-.38.9l1.35,1.35-1.35,1.34a.51.51,0,0,0-.15.37.49.49,0,0,0,.16.37.52.52,0,0,0,.37.16.53.53,0,0,0,.37-.15Z" transform="translate(-76.31 -106.43)"/>
    <polygon class="cls-25" points="245.96 18.67 241.3 15.81 245.96 12.64 245.96 18.67"/>
    <polygon class="cls-25" points="245.96 78.37 241.3 75.5 245.96 72.34 245.96 78.37"/>
  </g>
  <g>
    <line class="cls-3" x1="9.02" y1="15.24" x2="10.02" y2="15.24"/>
    <line class="cls-9" x1="12.02" y1="15.24" x2="234.45" y2="15.24"/>
    <line class="cls-3" x1="235.45" y1="15.24" x2="236.45" y2="15.24"/>
  </g>
  <g>
    <line class="cls-3" x1="9.02" y1="253.73" x2="10.02" y2="253.73"/>
    <line class="cls-9" x1="12.02" y1="253.73" x2="234.45" y2="253.73"/>
    <line class="cls-3" x1="235.45" y1="253.73" x2="236.45" y2="253.73"/>
  </g>
  <path class="cls-24" d="M319.94,332.43l1.35,1.35a.53.53,0,0,0,.49.14.57.57,0,0,0,.39-.39.5.5,0,0,0-.14-.5l-1.34-1.34,1.34-1.35a.49.49,0,0,0,.14-.49.55.55,0,0,0-.39-.39.5.5,0,0,0-.49.13l-1.35,1.35-1.34-1.35a.53.53,0,0,0-.37-.15.54.54,0,0,0-.38.9l1.35,1.35L317.85,333a.51.51,0,0,0-.15.37.49.49,0,0,0,.16.37.52.52,0,0,0,.37.16.53.53,0,0,0,.37-.15Z" transform="translate(-76.31 -106.43)"/>
  <polygon class="cls-25" points="245.96 196.93 241.3 194.07 245.96 190.9 245.96 196.93"/>
  <polygon class="cls-25" points="245.96 256.63 241.3 253.76 245.96 250.6 245.96 256.63"/>
  <g>
    <path class="cls-24" d="M78.64,332.43l-1.34,1.35a.55.55,0,0,1-.5.14.57.57,0,0,1-.38-.39.52.52,0,0,1,.13-.5l1.35-1.34-1.35-1.35a.51.51,0,0,1-.13-.49.55.55,0,0,1,.38-.39.52.52,0,0,1,.5.13l1.34,1.35L80,329.59a.51.51,0,0,1,.37-.15.52.52,0,0,1,.37.16.53.53,0,0,1,0,.74l-1.35,1.35L80.74,333a.51.51,0,0,1,.15.37.55.55,0,0,1-.53.53.51.51,0,0,1-.37-.15Z" transform="translate(-76.31 -106.43)"/>
    <polygon class="cls-25" points="0 196.93 4.66 194.07 0 190.9 0 196.93"/>
    <polygon class="cls-25" points="0 256.63 4.66 253.76 0 250.6 0 256.63"/>
  </g>
  <g>
    <path class="cls-24" d="M78.64,153.42l-1.34,1.35a.52.52,0,0,1-.5.13.55.55,0,0,1-.38-.39.5.5,0,0,1,.13-.49l1.35-1.35-1.35-1.34a.52.52,0,0,1-.13-.5.57.57,0,0,1,.38-.39.55.55,0,0,1,.5.14l1.34,1.35L80,150.58a.51.51,0,0,1,.37-.15.52.52,0,0,1,.37.16.53.53,0,0,1,0,.74l-1.35,1.34L80.74,154a.51.51,0,0,1,.15.36.55.55,0,0,1-.16.38.52.52,0,0,1-.37.16.51.51,0,0,1-.37-.15Z" transform="translate(-76.31 -106.43)"/>
    <polygon class="cls-25" points="0 17.92 4.66 15.05 0 11.89 0 17.92"/>
    <polygon class="cls-25" points="0 77.62 4.66 74.75 0 71.58 0 77.62"/>
  </g>
  <g>
    <line class="cls-3" x1="289.95" y1="14.9" x2="290.95" y2="14.9"/>
    <line class="cls-7" x1="292.95" y1="14.9" x2="741.02" y2="14.9"/>
    <line class="cls-3" x1="742.02" y1="14.9" x2="743.02" y2="14.9"/>
  </g>
  <g>
    <line class="cls-3" x1="289.95" y1="253.8" x2="290.95" y2="253.8"/>
    <line class="cls-7" x1="292.95" y1="253.8" x2="741.02" y2="253.8"/>
    <line class="cls-3" x1="742.02" y1="253.8" x2="743.02" y2="253.8"/>
  </g>
  <g>
    <path class="cls-24" d="M828.4,154.17l1.35,1.35a.5.5,0,0,0,.49.13.54.54,0,0,0,.39-.38.52.52,0,0,0-.13-.5l-1.35-1.34,1.35-1.35a.51.51,0,0,0,.13-.49.55.55,0,0,0-.39-.39.5.5,0,0,0-.49.13l-1.35,1.35-1.34-1.35a.51.51,0,0,0-.37-.15.54.54,0,0,0-.38.9l1.35,1.35-1.35,1.34a.51.51,0,0,0-.15.37.55.55,0,0,0,.53.53.51.51,0,0,0,.37-.15Z" transform="translate(-76.31 -106.43)"/>
    <polygon class="cls-25" points="754.42 18.67 749.76 15.81 754.42 12.64 754.42 18.67"/>
    <polygon class="cls-25" points="754.42 78.37 749.76 75.5 754.42 72.34 754.42 78.37"/>
  </g>
  <g>
    <path class="cls-24" d="M828.4,331.68l1.35,1.35a.5.5,0,0,0,.49.13.55.55,0,0,0,.39-.38.52.52,0,0,0-.13-.5l-1.35-1.35,1.35-1.34a.52.52,0,0,0,.13-.5.55.55,0,0,0-.39-.38.5.5,0,0,0-.49.13l-1.35,1.35-1.34-1.35a.51.51,0,0,0-.37-.15.54.54,0,0,0-.38.9l1.35,1.34-1.35,1.35a.51.51,0,0,0-.15.37.54.54,0,0,0,.16.37.52.52,0,0,0,.37.16.51.51,0,0,0,.37-.15Z" transform="translate(-76.31 -106.43)"/>
    <polygon class="cls-25" points="754.42 196.18 749.76 193.31 754.42 190.15 754.42 196.18"/>
    <polygon class="cls-25" points="754.42 255.88 749.76 253.01 754.42 249.85 754.42 255.88"/>
  </g>
  <g>
    <line class="cls-3" x1="299.57" y1="256.48" x2="299.57" y2="255.48"/>
    <line class="cls-23" x1="299.57" y1="253.48" x2="299.57" y2="14.71"/>
    <line class="cls-3" x1="299.57" y1="13.71" x2="299.57" y2="12.71"/>
  </g>
  <g>
    <line class="cls-3" x1="13.73" y1="256.48" x2="13.73" y2="255.48"/>
    <line class="cls-6" x1="13.73" y1="253.48" x2="13.73" y2="14.75"/>
    <line class="cls-3" x1="13.73" y1="13.75" x2="13.73" y2="12.75"/>
  </g>
  <g>
    <line class="cls-3" x1="232.73" y1="256.48" x2="232.73" y2="255.48"/>
    <line class="cls-6" x1="232.73" y1="253.48" x2="232.73" y2="14.75"/>
    <line class="cls-3" x1="232.73" y1="13.75" x2="232.73" y2="12.75"/>
  </g>
  <g>
    <line class="cls-3" x1="13.73" y1="404.16" x2="13.73" y2="403.16"/>
    <line class="cls-10" x1="13.73" y1="401.17" x2="13.73" y2="274.91"/>
    <line class="cls-3" x1="13.73" y1="273.91" x2="13.73" y2="272.91"/>
  </g>
  <g>
    <line class="cls-3" x1="232.5" y1="403.8" x2="232.5" y2="402.8"/>
    <line class="cls-10" x1="232.5" y1="400.81" x2="232.5" y2="274.54"/>
    <line class="cls-3" x1="232.5" y1="273.55" x2="232.5" y2="272.55"/>
  </g>
  <g>
    <line class="cls-3" x1="809.85" y1="319.22" x2="809.85" y2="318.22"/>
    <line class="cls-5" x1="809.85" y1="316.23" x2="809.85" y2="14.7"/>
    <line class="cls-3" x1="809.85" y1="13.7" x2="809.85" y2="12.7"/>
  </g>
  <g>
    <line class="cls-3" x1="1029.09" y1="319.22" x2="1029.09" y2="318.22"/>
    <line class="cls-5" x1="1029.09" y1="316.23" x2="1029.09" y2="14.7"/>
    <line class="cls-3" x1="1029.09" y1="13.7" x2="1029.09" y2="12.7"/>
  </g>
  <g>
    <line class="cls-3" x1="800.24" y1="15.66" x2="801.24" y2="15.66"/>
    <line class="cls-4" x1="803.23" y1="15.66" x2="1040.61" y2="15.66"/>
    <line class="cls-3" x1="1041.6" y1="15.66" x2="1042.6" y2="15.66"/>
  </g>
  <g>
    <line class="cls-3" x1="800.24" y1="313.32" x2="801.24" y2="313.32"/>
    <line class="cls-4" x1="803.23" y1="313.32" x2="1040.61" y2="313.32"/>
    <line class="cls-3" x1="1041.6" y1="313.32" x2="1042.6" y2="313.32"/>
  </g>
  <g>
    <path class="cls-24" d="M869.47,332.43l-1.35,1.35a.52.52,0,0,1-.49.14.57.57,0,0,1-.39-.39.52.52,0,0,1,.14-.5l1.35-1.34-1.35-1.35a.49.49,0,0,1-.14-.49.55.55,0,0,1,.39-.39.49.49,0,0,1,.49.13l1.35,1.35,1.35-1.35a.51.51,0,0,1,.37-.15.54.54,0,0,1,.37.16.53.53,0,0,1,0,.74l-1.34,1.35,1.34,1.34a.51.51,0,0,1,0,.74.54.54,0,0,1-.37.16.51.51,0,0,1-.37-.15Z" transform="translate(-76.31 -106.43)"/>
    <polygon class="cls-25" points="790.83 196.93 795.49 194.07 790.83 190.9 790.83 196.93"/>
    <polygon class="cls-25" points="790.83 256.63 795.49 253.76 790.83 250.6 790.83 256.63"/>
  </g>
  <g>
    <path class="cls-24" d="M869.47,153.42l-1.35,1.35a.49.49,0,0,1-.49.13.55.55,0,0,1-.39-.39.5.5,0,0,1,.14-.49l1.35-1.35-1.35-1.34a.5.5,0,0,1-.14-.5.57.57,0,0,1,.39-.39.52.52,0,0,1,.49.14l1.35,1.35,1.35-1.35a.51.51,0,0,1,.37-.15.54.54,0,0,1,.37.16.53.53,0,0,1,0,.74l-1.34,1.34,1.34,1.35a.52.52,0,0,1,.16.36.55.55,0,0,1-.53.54.51.51,0,0,1-.37-.15Z" transform="translate(-76.31 -106.43)"/>
    <polygon class="cls-25" points="790.83 17.92 795.49 15.05 790.83 11.89 790.83 17.92"/>
    <polygon class="cls-25" points="790.83 77.62 795.49 74.75 790.83 71.58 790.83 77.62"/>
  </g>
  <path class="cls-24" d="M916.78,108.76l1.35-1.35a.49.49,0,0,0,.13-.49.55.55,0,0,0-.38-.39.5.5,0,0,0-.5.14L916,108l-1.34-1.35a.5.5,0,0,0-.5-.14.55.55,0,0,0-.38.39.49.49,0,0,0,.13.49l1.35,1.35-1.35,1.35a.51.51,0,0,0-.15.37.56.56,0,0,0,.16.37.53.53,0,0,0,.74,0L916,109.5l1.35,1.35a.52.52,0,0,0,.37.16.54.54,0,0,0,.37-.16.56.56,0,0,0,.16-.37.51.51,0,0,0-.15-.37Z" transform="translate(-76.31 -106.43)"/>
  <polygon class="cls-25" points="812.89 0 810.02 4.66 806.86 0 812.89 0"/>
  <polygon class="cls-25" points="872.59 0 869.72 4.66 866.56 0 872.59 0"/>
  <path class="cls-24" d="M406.51,108.76l1.34-1.35a.48.48,0,0,0,.14-.49.55.55,0,0,0-.39-.39.48.48,0,0,0-.49.14L405.76,108l-1.35-1.35a.48.48,0,0,0-.49-.14.55.55,0,0,0-.39.39.5.5,0,0,0,.14.49l1.35,1.35-1.35,1.35a.48.48,0,0,0-.15.37.53.53,0,0,0,.89.37l1.35-1.35,1.35,1.35a.52.52,0,0,0,.36.16.57.57,0,0,0,.38-.16.61.61,0,0,0,.16-.37.52.52,0,0,0-.16-.37Z" transform="translate(-76.31 -106.43)"/>
  <polygon class="cls-25" points="302.62 0 299.75 4.66 296.58 0 302.62 0"/>
  <polygon class="cls-25" points="362.31 0 359.45 4.66 356.28 0 362.31 0"/>
  <g>
    <path class="cls-24" d="M1126,154.17l1.35,1.35a.5.5,0,0,0,.49.13.54.54,0,0,0,.39-.38.52.52,0,0,0-.13-.5l-1.35-1.34,1.34-1.35a.49.49,0,0,0,.14-.49.55.55,0,0,0-.39-.39.5.5,0,0,0-.49.13l-1.35,1.35-1.34-1.35a.53.53,0,0,0-.37-.15.54.54,0,0,0-.38.9l1.35,1.35-1.35,1.34a.51.51,0,0,0-.15.37.49.49,0,0,0,.16.37.52.52,0,0,0,.37.16.53.53,0,0,0,.37-.15Z" transform="translate(-76.31 -106.43)"/>
    <polygon class="cls-25" points="1052.02 18.67 1047.35 15.81 1052.02 12.64 1052.02 18.67"/>
    <polygon class="cls-25" points="1052.02 78.37 1047.35 75.5 1052.02 72.34 1052.02 78.37"/>
  </g>
  <g>
    <path class="cls-24" d="M1126,331.68l1.35,1.35a.5.5,0,0,0,.49.13.55.55,0,0,0,.39-.38.52.52,0,0,0-.13-.5l-1.35-1.35,1.34-1.34a.5.5,0,0,0,.14-.5.55.55,0,0,0-.39-.38.5.5,0,0,0-.49.13l-1.35,1.35-1.34-1.35a.53.53,0,0,0-.37-.15.54.54,0,0,0-.38.9l1.35,1.34-1.35,1.35a.51.51,0,0,0-.15.37.5.5,0,0,0,.16.37.52.52,0,0,0,.37.16.53.53,0,0,0,.37-.15Z" transform="translate(-76.31 -106.43)"/>
    <polygon class="cls-25" points="1052.02 196.18 1047.35 193.31 1052.02 190.15 1052.02 196.18"/>
    <polygon class="cls-25" points="1052.02 255.88 1047.35 253.01 1052.02 249.85 1052.02 255.88"/>
  </g>
  <path class="cls-2" d="M405.35,472.55l1.34-1.35a.48.48,0,0,0,.14-.49.55.55,0,0,0-.39-.39.48.48,0,0,0-.49.14l-1.35,1.34-1.35-1.34a.48.48,0,0,0-.49-.14.55.55,0,0,0-.39.39.5.5,0,0,0,.14.49l1.35,1.35-1.35,1.34a.51.51,0,0,0-.15.37.49.49,0,0,0,.16.37.51.51,0,0,0,.73,0l1.35-1.35,1.35,1.35a.51.51,0,0,0,.36.15.52.52,0,0,0,.38-.16.57.57,0,0,0,.16-.37.56.56,0,0,0-.16-.37Z" transform="translate(-76.31 -106.43)"/>
  <g>
    <path class="cls-24" d="M78.64,476.9l-1.34,1.34a.5.5,0,0,1-.5.14.55.55,0,0,1-.38-.39.5.5,0,0,1,.13-.49l1.35-1.35-1.35-1.35a.49.49,0,0,1-.13-.49.55.55,0,0,1,.38-.39.55.55,0,0,1,.5.14l1.34,1.35L80,474.06a.48.48,0,0,1,.37-.15.49.49,0,0,1,.37.16.52.52,0,0,1,0,.73l-1.35,1.35,1.35,1.35a.51.51,0,0,1,.15.36.57.57,0,0,1-.16.38.51.51,0,0,1-.74,0Z" transform="translate(-76.31 -106.43)"/>
    <polygon class="cls-25" points="0 341.4 4.66 338.53 0 335.37 0 341.4"/>
    <polygon class="cls-25" points="0 401.1 4.66 398.23 0 395.06 0 401.1"/>
  </g>
  <path class="cls-24" d="M279.78,108.76l1.35-1.35a.49.49,0,0,0,.13-.49.55.55,0,0,0-.38-.39.5.5,0,0,0-.5.14L279,108l-1.34-1.35a.5.5,0,0,0-.5-.14.55.55,0,0,0-.38.39.49.49,0,0,0,.13.49l1.35,1.35-1.35,1.35a.51.51,0,0,0-.15.37.56.56,0,0,0,.16.37.53.53,0,0,0,.74,0L279,109.5l1.35,1.35a.52.52,0,0,0,.37.16.54.54,0,0,0,.37-.16.56.56,0,0,0,.16-.37.51.51,0,0,0-.15-.37Z" transform="translate(-76.31 -106.43)"/>
  <polygon class="cls-25" points="175.89 0 173.02 4.66 169.86 0 175.89 0"/>
  <polygon class="cls-25" points="235.59 0 232.72 4.66 229.56 0 235.59 0"/>
  <path class="cls-24" d="M120.66,108.76l1.35-1.35a.49.49,0,0,0,.13-.49.55.55,0,0,0-.38-.39.5.5,0,0,0-.5.14L119.91,108l-1.34-1.35a.5.5,0,0,0-.5-.14.55.55,0,0,0-.38.39.49.49,0,0,0,.13.49l1.35,1.35-1.35,1.35a.51.51,0,0,0-.15.37.56.56,0,0,0,.16.37.53.53,0,0,0,.74,0l1.34-1.35,1.35,1.35a.52.52,0,0,0,.37.16.54.54,0,0,0,.37-.16.56.56,0,0,0,.16-.37.51.51,0,0,0-.15-.37Z" transform="translate(-76.31 -106.43)"/>
  <polygon class="cls-25" points="16.77 0 13.9 4.66 10.74 0 16.77 0"/>
  <polygon class="cls-25" points="76.47 0 73.6 4.66 70.44 0 76.47 0"/>
  <g>
    <path class="cls-24" d="M361.63,332.43l-1.35,1.35a.52.52,0,0,1-.49.14.57.57,0,0,1-.39-.39.5.5,0,0,1,.14-.5l1.35-1.34-1.35-1.35a.49.49,0,0,1-.14-.49.55.55,0,0,1,.39-.39.49.49,0,0,1,.49.13l1.35,1.35,1.35-1.35a.51.51,0,0,1,.37-.15.56.56,0,0,1,.37.16.53.53,0,0,1,0,.74l-1.35,1.35,1.35,1.34a.51.51,0,0,1,0,.74.56.56,0,0,1-.37.16.51.51,0,0,1-.37-.15Z" transform="translate(-76.31 -106.43)"/>
    <polygon class="cls-25" points="282.99 196.93 287.65 194.07 282.99 190.9 282.99 196.93"/>
    <polygon class="cls-25" points="282.99 256.63 287.65 253.76 282.99 250.6 282.99 256.63"/>
  </g>
  <g>
    <path class="cls-24" d="M361.63,153.42l-1.35,1.35a.49.49,0,0,1-.49.13.55.55,0,0,1-.39-.39.48.48,0,0,1,.14-.49l1.35-1.35-1.35-1.34a.5.5,0,0,1-.14-.5.57.57,0,0,1,.39-.39.52.52,0,0,1,.49.14l1.35,1.35,1.35-1.35a.51.51,0,0,1,.37-.15.56.56,0,0,1,.37.16.53.53,0,0,1,0,.74l-1.35,1.34,1.35,1.35a.52.52,0,0,1,.16.36.55.55,0,0,1-.16.38.56.56,0,0,1-.37.16.51.51,0,0,1-.37-.15Z" transform="translate(-76.31 -106.43)"/>
    <polygon class="cls-25" points="282.99 17.92 287.65 15.05 282.99 11.89 282.99 17.92"/>
    <polygon class="cls-25" points="282.99 77.62 287.65 74.75 282.99 71.58 282.99 77.62"/>
  </g>
  <g>
    <path class="cls-27" d="M1046.47,250.85c-.26-5.78-2.87-12.72-7.76-20.65a268.35,268.35,0,0,0-38-45.85c.43.56.82,1.1,1.18,1.62l.06.09.06.1c.45.66.89,1.37,1.31,2.1a1.09,1.09,0,0,0,.08.15,1.4,1.4,0,0,1,.1.16c.39.7.76,1.43,1.14,2.24.06.15.13.3.2.45.36.81.67,1.58.94,2.33l.06.19c0,.05,0,.1,0,.14.28.8.52,1.6.73,2.37,0,0,0,.06,0,.09l0,.12c.19.77.37,1.58.54,2.51l0,.15.06.33c.11.67.2,1.34.27,2,2,14.88-6.68,25.77-9.32,28.71,3.26,3.11,13.89,13.78,13.89,20.78a14.94,14.94,0,0,1-10.2,14.2l.83-.12.35-.05,1.77-.27,1.12-.24.27-.06c.62-.14,1.18-.26,1.74-.41s.92-.26,1.36-.4,1.1-.33,1.69-.54l1.32-.49c.6-.23,1.14-.45,1.63-.67s.79-.35,1.28-.58,1.07-.52,1.57-.79l1.23-.67c.48-.28,1-.57,1.49-.9s.85-.54,1.19-.76c.52-.36,1-.72,1.41-1s.77-.56,1.13-.85,1-.77,1.33-1.1l.09-.07,1-.86c.44-.41.88-.84,1.25-1.21l.19-.19c.27-.26.54-.54.8-.81s.76-.85,1.13-1.27l.24-.27.71-.84c.33-.41.65-.84,1-1.26l.11-.15.23-.3.6-.82c.29-.42.56-.86.83-1.28l.15-.25.24-.38c.17-.25.33-.51.49-.78.28-.47.54-1,.79-1.44l.12-.24.22-.41c.13-.24.26-.48.38-.73.29-.58.55-1.19.8-1.78l.07-.18.18-.4c.09-.19.18-.39.26-.59.4-1,.77-2.07,1.08-3.08q.21-.66.39-1.35c0,.23-.11.44-.16.66A42.73,42.73,0,0,1,1000,266.83a15,15,0,0,1-17.14-12.95v.06a27,27,0,0,0-.21,4.44,44.06,44.06,0,0,0,.91,6.27,31.83,31.83,0,0,0,32.27,24c.77,0,1.56-.1,2.32-.19l.34-.05.27-.05h.12c.51-.07,1-.15,1.55-.25l.37-.08.29-.07.12,0c.48-.1,1-.21,1.44-.34l.34-.1.28-.09.11,0c.48-.14,1-.29,1.45-.45l.21-.08.19-.08c.52-.19,1.13-.42,1.71-.67l.18-.08.16-.08c.51-.22,1.11-.5,1.7-.8l.19-.11.15-.09c.52-.28,1.08-.58,1.62-.91l.24-.16.2-.13c.49-.32,1-.62,1.44-1l.23-.17.2-.16c.42-.31.9-.67,1.35-1l.27-.24.2-.18.09-.07c.38-.33.76-.66,1.13-1l.3-.31.22-.22.17-.17c.3-.29.6-.6.89-.91l.32-.39.22-.25.19-.22c.24-.28.49-.57.73-.87s.25-.33.37-.5l.21-.3.21-.27c.18-.25.38-.51.55-.76s.28-.44.41-.65l.2-.33c.07-.11.14-.21.2-.32s.28-.42.41-.64l.39-.74c0-.11.11-.22.17-.34l.18-.33c.11-.2.23-.42.33-.63s.27-.58.39-.87c.05-.11.09-.22.14-.34l.15-.33c.08-.18.17-.37.25-.57v-.17h.08s.57-1.39.76-2.06h0l.1-.34h0l.12-.43h0l.1-.36h0c0-.14.06-.27.1-.41v-.06l.08-.33h0l.09-.39V264l.08-.35h0c0-.12,0-.25.08-.37v-.07l.06-.29v-.06h0c0-.13,0-.25.07-.38h0l.08-.44h0A48.52,48.52,0,0,0,1046.47,250.85Z" transform="translate(-76.31 -106.43)"/>
    <path class="cls-28" d="M1041.06,273.4c0,.06-.14.1-.17.16s-.42.53-.47.6c-.4.63-.94,1.1-1.39,1.7,0,.08-.12.15-.18.23l-.14.17c-.31.4-.68.88-1.07,1.33l-.34.36-.2.23c-.31.34-.64.7-1,1l-.43.42-.21.19,0,0c-.3.29-.61.58-.93.86l-.58.49-.13.11-1,.8-.64.47-.13.09c-.33.23-.67.48-1,.71s-.55.36-.82.52-.71.43-1.06.63l-.85.47c-.36.19-.72.37-1.1.55l-.89.41c-.33.15-.68.3-1.14.48l-.1,0c-.26.11-.54.21-.81.31s-.81.28-1.19.41l-.21.06-.71.22c-.42.12-.84.22-1.24.32l-.24.06c-.22.06-.45.12-.68.16-.39.09-.8.16-1.19.23l-.14,0-.27.05-.6.1-1.42.16h-.08l-.3,0-.44.05c-.78.05-1.54.08-2.27.08A32.25,32.25,0,0,1,981.72,263a31.64,31.64,0,0,1-.64-6.37,17.35,17.35,0,0,1,.22-3.23,32.4,32.4,0,0,1,.76-4,5.33,5.33,0,0,1,.2-.76l.06-.23c.08-.31.14-.51.15-.57v0c2.28-6.75,10.76-15.19,13.31-17.62.34-.3.64-.59.94-.87s.51-.5.76-.76A33.42,33.42,0,0,0,1007,205c0-.56,0-1.13,0-1.69l0-.33c0-.07,0-.15,0-.23v-.09c0-.34,0-.69-.08-1,0-.14,0-.27,0-.41l0-.24,0-.2c0-.26-.06-.54-.1-.81s0-.29-.08-.43,0-.18,0-.26l0-.22c0-.24-.08-.49-.13-.73s-.07-.32-.11-.48a2,2,0,0,0,0-.24l0-.18c0-.24-.1-.48-.16-.72s-.09-.31-.13-.47a1.82,1.82,0,0,1-.07-.25l-.05-.16c-.06-.23-.13-.47-.2-.71s-.11-.33-.16-.5l-.14-.42c-.07-.22-.14-.43-.22-.64s-.13-.36-.2-.53l-.1-.25c-.09-.25-.19-.51-.3-.76l-.24-.55-.12-.27c-.1-.22-.2-.46-.31-.68s-.19-.37-.28-.56l-.11-.22-.36-.69-.29-.52-.12-.2c-.13-.24-.27-.48-.41-.71s-.24-.39-.37-.58l-.11-.18c-.14-.21-.27-.43-.42-.64l-.35-.51-.1-.14-.51-.7-.49-.63c-.2-.25-.37-.47-.55-.68s-.35-.41-.52-.61l-.59-.66c-.18-.2-.36-.39-.55-.58l-.17-.18c.09.28.18.56.26.84l0,.18a1.72,1.72,0,0,1,.07.21l.09.27c0,.11,0,.22.08.33l.06.24a22.64,22.64,0,0,1-15.15,27.14h0l0,0-.08,0-.09,0-.26.08,0-.27A22.26,22.26,0,0,0,978.27,200l0,0h0l0,0v0c-3.29,3.63-6.38,7.24-9.19,10.71a149,149,0,0,0-13.82,19.89c-.42.76-.84,1.52-1.22,2.25-.29.55-.59,1.13-.88,1.72-3.31,6.69-5,12.6-5,17.55a48.5,48.5,0,0,0,1.59,12.36c.18.69.38,1.37.59,2a49.2,49.2,0,0,0,16.26,23.74l.86.68.29.21a49,49,0,0,0,61.35-2.41l.09-.08,1-.89c.57-.53,1.14-1.07,1.68-1.63l.18-.17a49.39,49.39,0,0,0,9.08-12.45Z" transform="translate(-76.31 -106.43)"/>
  </g>
  <g>
    <path class="cls-27" d="M535.08,250.85c-.27-5.78-2.88-12.72-7.77-20.65a268.35,268.35,0,0,0-38-45.85c.44.56.83,1.1,1.18,1.62l.07.09.06.1c.44.66.88,1.37,1.3,2.1a1.09,1.09,0,0,1,.08.15,1.4,1.4,0,0,1,.1.16c.39.7.76,1.43,1.14,2.24l.2.45c.36.81.67,1.58.94,2.33a1.07,1.07,0,0,0,.07.19c0,.05,0,.1,0,.14.28.8.52,1.6.73,2.37l0,.09,0,.12c.2.77.37,1.58.54,2.51l0,.15c0,.11,0,.22.05.33.11.67.2,1.34.27,2,2,14.88-6.67,25.77-9.32,28.71,3.27,3.11,13.89,13.78,13.89,20.78a14.94,14.94,0,0,1-10.19,14.2l.83-.12.34-.05,1.77-.27c.38-.07.75-.16,1.12-.24l.28-.06c.62-.14,1.17-.26,1.73-.41s.92-.26,1.36-.4,1.11-.33,1.69-.54l1.32-.49c.61-.23,1.14-.45,1.64-.67l1.27-.58c.56-.27,1.07-.52,1.57-.79l1.23-.67c.48-.28,1-.57,1.5-.9s.84-.54,1.18-.76c.52-.36,1-.72,1.42-1s.76-.56,1.12-.85.95-.77,1.34-1.1l.08-.07,1-.86c.45-.41.88-.84,1.25-1.21l.19-.19c.27-.26.54-.54.8-.81s.77-.85,1.13-1.27l.24-.27c.24-.27.48-.56.71-.84s.65-.84,1-1.26l.11-.15.23-.3c.2-.27.41-.55.6-.82s.56-.86.83-1.28l.16-.25c.07-.13.16-.25.23-.38s.34-.51.49-.78c.28-.47.54-1,.79-1.44l.12-.24.22-.41c.13-.24.26-.48.38-.73.29-.58.55-1.19.8-1.78l.07-.18.18-.4c.09-.19.18-.39.26-.59.41-1,.77-2.07,1.08-3.08q.21-.66.39-1.35c0,.23-.11.44-.16.66a42.73,42.73,0,0,1-37.78,31.84,15,15,0,0,1-17.14-12.95v.06a27,27,0,0,0-.21,4.44,42.69,42.69,0,0,0,.92,6.27,31.81,31.81,0,0,0,32.26,24c.78,0,1.56-.1,2.32-.19l.34-.05.27-.05h.12c.51-.07,1-.15,1.55-.25l.37-.08.29-.07.12,0c.48-.1,1-.21,1.45-.34l.34-.1.27-.09.12,0c.47-.14,1-.29,1.44-.45l.21-.08.19-.08c.52-.19,1.13-.42,1.71-.67l.18-.08.16-.08c.51-.22,1.11-.5,1.7-.8l.19-.11.16-.09c.51-.28,1.07-.58,1.61-.91l.25-.16.19-.13c.49-.32,1-.62,1.44-1l.23-.17.21-.16c.42-.31.89-.67,1.34-1l.27-.24.21-.18.08-.07c.38-.33.77-.66,1.13-1,.11-.1.21-.2.31-.31l.21-.22.17-.17c.3-.29.6-.6.89-.91l.33-.39.21-.25.19-.22c.24-.28.5-.57.73-.87s.25-.33.37-.5l.21-.3.21-.27c.19-.25.38-.51.55-.76s.28-.44.41-.65.14-.22.2-.33l.21-.32c.13-.21.27-.42.4-.64l.39-.74.18-.34c.05-.11.11-.22.17-.33s.23-.42.34-.63.26-.58.38-.87a3.45,3.45,0,0,0,.14-.34l.15-.33c.09-.18.17-.37.25-.57v-.17h.08s.57-1.39.76-2.06h0l.1-.34h0l.12-.43h0l.1-.36h0c0-.14.07-.27.1-.41v-.06l.08-.33h0l.09-.39V264l.08-.35h0c0-.12.06-.25.08-.37v-.07l.06-.29v-.06h0c0-.13.05-.25.07-.38h0l.08-.44h0A49.66,49.66,0,0,0,535.08,250.85Z" transform="translate(-76.31 -106.43)"/>
    <path class="cls-28" d="M529.66,273.4c0,.06-.13.1-.17.16s-.42.53-.47.6c-.4.63-.94,1.1-1.38,1.7l-.19.23a2.09,2.09,0,0,1-.14.17c-.31.4-.68.88-1.07,1.33l-.33.36-.21.23c-.31.34-.63.7-1,1l-.43.42-.21.19,0,0c-.3.29-.61.58-.93.86l-.58.49-.13.11-1,.8-.64.47-.13.09c-.33.23-.67.48-1,.71l-.81.52c-.37.23-.72.43-1.06.63l-.86.47c-.35.19-.71.37-1.1.55l-.89.41c-.32.15-.68.3-1.14.48l-.1,0c-.26.11-.53.21-.81.31s-.8.28-1.19.41l-.21.06-.7.22c-.42.12-.84.22-1.25.32l-.24.06c-.22.06-.45.12-.67.16-.4.09-.81.16-1.2.23l-.13,0-.28.05-.6.1-1.42.16h-.07l-.31,0-.44.05c-.77.05-1.54.08-2.27.08a32.19,32.19,0,0,1-32.19-32.17,17.35,17.35,0,0,1,.22-3.23,34.39,34.39,0,0,1,.76-4,7.1,7.1,0,0,1,.2-.76l.06-.23c.08-.31.14-.51.16-.57v0c2.27-6.75,10.76-15.19,13.3-17.62.34-.3.65-.59.94-.87s.52-.5.76-.76A33.42,33.42,0,0,0,495.64,205c0-.56,0-1.13,0-1.69,0-.11,0-.22,0-.33a1.64,1.64,0,0,1,0-.23v-.09c0-.34,0-.69-.08-1,0-.14,0-.27,0-.41l0-.24,0-.2c0-.26-.06-.54-.1-.81s0-.29-.07-.43,0-.18-.05-.26l0-.22c0-.24-.08-.49-.13-.73s-.07-.32-.1-.48l-.06-.24,0-.18c0-.24-.1-.48-.16-.72s-.09-.31-.13-.47-.05-.16-.07-.25l0-.16c-.07-.23-.13-.47-.21-.71s-.1-.33-.16-.5l-.14-.42c-.07-.22-.14-.43-.22-.64s-.13-.36-.2-.53l-.1-.25c-.09-.25-.19-.51-.3-.76s-.16-.37-.24-.55l-.12-.27c-.1-.22-.2-.46-.31-.68s-.18-.37-.28-.56l-.11-.22c-.12-.23-.23-.46-.36-.69l-.29-.52-.12-.2c-.13-.24-.27-.48-.41-.71l-.36-.58-.12-.18-.41-.64-.36-.51-.1-.14-.51-.7-.49-.63c-.2-.25-.37-.47-.55-.68s-.34-.41-.52-.61l-.59-.66c-.18-.2-.36-.39-.55-.58l-.17-.18c.09.28.18.56.26.84l.06.18.06.21.09.27c0,.11.06.22.08.33l.06.24a22.64,22.64,0,0,1-15.14,27.14h0l-.05,0-.07,0-.1,0-.25.08,0-.27A22.16,22.16,0,0,0,466.87,200l0,0h0l0,0v0c-3.29,3.63-6.38,7.24-9.18,10.71a147.13,147.13,0,0,0-13.82,19.89c-.43.76-.84,1.52-1.23,2.25-.29.55-.58,1.13-.88,1.72-3.31,6.69-5,12.6-5,17.55a49,49,0,0,0,1.59,12.36c.18.69.39,1.37.59,2a49.27,49.27,0,0,0,16.26,23.74c.29.22.57.46.87.68l.28.21a49,49,0,0,0,61.35-2.41l.09-.08c.34-.29.66-.59,1-.89.57-.53,1.13-1.07,1.68-1.63.05,0,.11-.12.17-.17a49.15,49.15,0,0,0,9.08-12.45Z" transform="translate(-76.31 -106.43)"/>
  </g>
  <g>
    <path class="cls-27" d="M250.31,250.85c-.27-5.78-2.88-12.72-7.77-20.65a268.35,268.35,0,0,0-38-45.85c.44.56.83,1.1,1.18,1.62l.07.09.06.1c.44.66.88,1.37,1.3,2.1a1.09,1.09,0,0,1,.08.15,1.4,1.4,0,0,1,.1.16c.39.7.76,1.43,1.14,2.24l.2.45c.36.81.67,1.58.94,2.33a1.07,1.07,0,0,0,.07.19c0,.05,0,.1,0,.14.28.8.52,1.6.73,2.37l0,.09,0,.12c.2.77.37,1.58.54,2.51l0,.15c0,.11,0,.22.05.33.11.67.2,1.34.27,2,2,14.88-6.67,25.77-9.32,28.71C205.34,233.31,216,244,216,251a14.94,14.94,0,0,1-10.19,14.2l.83-.12.34-.05,1.77-.27c.38-.07.75-.16,1.12-.24l.28-.06c.62-.14,1.18-.26,1.73-.41s.92-.26,1.36-.4,1.11-.33,1.69-.54l1.32-.49c.61-.23,1.14-.45,1.64-.67l1.27-.58c.56-.27,1.07-.52,1.57-.79l1.23-.67c.48-.28,1-.57,1.5-.9s.84-.54,1.18-.76c.52-.36,1-.72,1.42-1s.76-.56,1.12-.85,1-.77,1.34-1.1l.08-.07,1-.86c.45-.41.88-.84,1.25-1.21l.19-.19c.27-.26.54-.54.8-.81s.77-.85,1.13-1.27l.24-.27c.24-.27.48-.56.71-.84s.65-.84,1-1.26l.11-.15.23-.3c.2-.27.41-.55.6-.82s.56-.86.83-1.28l.16-.25.24-.38c.16-.25.33-.51.48-.78.28-.47.54-1,.79-1.44l.12-.24.22-.41c.13-.24.26-.48.38-.73.29-.58.55-1.19.8-1.78l.07-.18.18-.4c.09-.19.18-.39.26-.59.41-1,.77-2.07,1.08-3.08q.21-.66.39-1.35c0,.23-.1.44-.16.66a42.73,42.73,0,0,1-37.78,31.84,15,15,0,0,1-17.14-12.95v.06a27,27,0,0,0-.21,4.44,42.69,42.69,0,0,0,.92,6.27,31.81,31.81,0,0,0,32.26,24c.78,0,1.56-.1,2.32-.19l.34-.05.27-.05h.12c.51-.07,1-.15,1.55-.25l.38-.08.28-.07.12,0c.48-.1,1-.21,1.45-.34l.34-.1.27-.09.12,0c.47-.14,1-.29,1.44-.45l.21-.08.19-.08c.52-.19,1.13-.42,1.71-.67l.18-.08.16-.08c.51-.22,1.11-.5,1.7-.8L233,285l.16-.09c.51-.28,1.07-.58,1.61-.91l.25-.16.19-.13c.49-.32,1-.62,1.44-1l.23-.17.21-.16c.42-.31.89-.67,1.35-1l.26-.24.21-.18.08-.07c.38-.33.77-.66,1.13-1,.11-.1.21-.2.31-.31l.21-.22.17-.17c.3-.29.6-.6.89-.91l.33-.39.21-.25.19-.22c.24-.28.5-.57.73-.87s.25-.33.37-.5l.21-.3.21-.27c.19-.25.38-.51.55-.76s.28-.44.41-.65.14-.22.2-.33l.21-.32c.13-.21.27-.42.4-.64s.26-.49.39-.74l.18-.34c0-.11.11-.22.17-.33s.23-.42.34-.63.26-.58.38-.87l.15-.34c0-.11.09-.22.14-.33s.17-.37.25-.57v-.17h.08s.57-1.39.76-2.06h0l.1-.34h0l.12-.43h0l.1-.36h0c0-.14.07-.27.1-.41v-.06l.08-.33h0l.09-.39V264l.07-.35h0c0-.12.06-.25.08-.37v-.07l.06-.29v-.06h0c0-.13.05-.25.07-.38h0l.08-.44h0A49.66,49.66,0,0,0,250.31,250.85Z" transform="translate(-76.31 -106.43)"/>
    <path class="cls-28" d="M244.89,273.4c0,.06-.13.1-.17.16s-.42.53-.47.6c-.4.63-.94,1.1-1.38,1.7l-.19.23a2.09,2.09,0,0,1-.14.17c-.31.4-.68.88-1.07,1.33l-.33.36-.21.23c-.31.34-.63.7-1,1l-.43.42-.21.19,0,0c-.3.29-.61.58-.93.86l-.58.49-.13.11-1,.8-.64.47-.13.09c-.33.23-.67.48-1,.71l-.81.52c-.37.23-.72.43-1.06.63l-.86.47c-.35.19-.71.37-1.1.55l-.89.41c-.32.15-.68.3-1.14.48l-.1,0c-.26.11-.53.21-.81.31s-.8.28-1.19.41l-.2.06-.71.22c-.42.12-.84.22-1.25.32l-.24.06c-.22.06-.45.12-.67.16-.4.09-.81.16-1.2.23l-.13,0-.28.05-.59.1-1.43.16h-.07l-.31,0-.44.05c-.77.05-1.54.08-2.27.08a32.19,32.19,0,0,1-32.19-32.17,17.35,17.35,0,0,1,.22-3.23,34.39,34.39,0,0,1,.76-4,7.1,7.1,0,0,1,.2-.76l.06-.23c.08-.31.14-.51.16-.57v0c2.27-6.75,10.76-15.19,13.3-17.62.34-.3.65-.59.94-.87s.52-.5.76-.76A33.42,33.42,0,0,0,210.87,205c0-.56,0-1.13,0-1.69,0-.11,0-.22,0-.33a1.64,1.64,0,0,1,0-.23v-.09c0-.34,0-.69-.08-1,0-.14,0-.27,0-.41l0-.24,0-.2c0-.26-.06-.54-.1-.81s-.05-.29-.07-.43,0-.18-.05-.26l0-.22c0-.24-.08-.49-.13-.73s-.07-.32-.1-.48l-.06-.24,0-.18c0-.24-.1-.48-.16-.72s-.09-.31-.13-.47-.05-.16-.07-.25l0-.16c-.07-.23-.13-.47-.21-.71s-.1-.33-.16-.5l-.14-.42c-.07-.22-.14-.43-.22-.64s-.13-.36-.2-.53l-.1-.25c-.09-.25-.19-.51-.3-.76s-.16-.37-.24-.55l-.12-.27c-.1-.22-.2-.46-.31-.68l-.28-.56-.11-.22c-.12-.23-.23-.46-.36-.69l-.29-.52-.12-.2c-.13-.24-.27-.48-.41-.71l-.36-.58-.11-.18-.42-.64-.36-.51-.1-.14-.51-.7-.49-.63c-.2-.25-.37-.47-.55-.68s-.34-.41-.52-.61l-.59-.66c-.18-.2-.36-.39-.55-.58l-.17-.18c.1.28.18.56.26.84l.06.18.06.21.09.27c0,.11.06.22.08.33l.06.24a22.64,22.64,0,0,1-15.14,27.14h0l-.05,0-.07,0-.1,0-.25.08,0-.27A22.16,22.16,0,0,0,182.1,200l0,0h0l0,0v0c-3.29,3.63-6.38,7.24-9.18,10.71A147.13,147.13,0,0,0,159,230.47c-.43.76-.84,1.52-1.23,2.25-.29.55-.58,1.13-.88,1.72-3.31,6.69-5,12.6-5,17.55a49,49,0,0,0,1.59,12.36c.18.69.39,1.37.59,2a49.22,49.22,0,0,0,16.27,23.74c.28.22.56.46.86.68l.28.21a49,49,0,0,0,61.35-2.41l.09-.08c.34-.29.66-.59,1-.89.57-.53,1.13-1.07,1.68-1.63.06,0,.11-.12.17-.17a49.15,49.15,0,0,0,9.08-12.45Z" transform="translate(-76.31 -106.43)"/>
  </g>
  <g>
    <path class="cls-27" d="M249.23,454.7c-.26-5.78-2.87-12.73-7.76-20.65a267.91,267.91,0,0,0-38-45.85c.43.56.82,1.09,1.18,1.61l.06.1.06.09c.45.67.89,1.37,1.31,2.11l.08.14.1.17c.39.7.76,1.43,1.14,2.24.06.15.13.3.2.45.36.81.67,1.57.94,2.33l.06.19,0,.14c.28.8.52,1.59.73,2.37,0,0,0,.06,0,.09a.56.56,0,0,1,0,.12c.19.76.37,1.58.54,2.51l0,.15.06.32c.11.67.2,1.35.27,2,2,14.87-6.67,25.77-9.32,28.71,3.26,3.11,13.89,13.77,13.89,20.77a14.91,14.91,0,0,1-10.2,14.2l.83-.11.35-.05c.58-.09,1.18-.17,1.77-.28l1.12-.23.27-.06c.62-.14,1.18-.27,1.74-.42s.92-.26,1.36-.39,1.1-.34,1.69-.55.93-.34,1.32-.49c.6-.23,1.14-.45,1.63-.66s.79-.35,1.28-.59,1.07-.52,1.57-.78.84-.45,1.23-.68,1-.57,1.49-.89.85-.54,1.19-.77c.52-.35,1-.72,1.41-1l1.13-.85c.48-.38,1-.77,1.34-1.11l.08-.07,1-.86c.44-.41.88-.83,1.25-1.2l.19-.19c.27-.27.54-.54.8-.82s.76-.84,1.13-1.27l.24-.27c.23-.27.48-.55.71-.84s.65-.84,1-1.25l.11-.16.23-.3c.2-.26.4-.54.6-.82s.56-.85.83-1.28l.15-.25.24-.37c.17-.25.33-.52.49-.78.28-.47.54-1,.79-1.45l.12-.23c.07-.14.14-.28.22-.41l.38-.73c.29-.59.55-1.2.8-1.79l.07-.17.18-.4c.09-.2.18-.4.26-.6.4-1,.77-2.06,1.08-3.08.14-.44.27-.89.39-1.34-.05.22-.11.44-.16.65a42.72,42.72,0,0,1-37.78,31.84,15.64,15.64,0,0,1-3.21.15,14.93,14.93,0,0,1-13.93-13.09v0a27.1,27.1,0,0,0-.21,4.45,43.72,43.72,0,0,0,.91,6.26,31.84,31.84,0,0,0,32.27,24c.78,0,1.56-.1,2.32-.19l.34-.06.27,0,.12,0c.51-.07,1-.14,1.55-.24l.37-.09.29-.07.12,0c.48-.11,1-.21,1.45-.34l.33-.11.28-.08.11,0c.48-.13,1-.28,1.45-.45l.21-.08.19-.07c.52-.19,1.13-.42,1.71-.67l.18-.08.16-.08c.51-.23,1.11-.5,1.7-.81l.19-.11.15-.08c.52-.28,1.08-.58,1.62-.92l.24-.16.2-.13c.49-.31,1-.62,1.44-1l.23-.18.2-.16c.42-.31.9-.66,1.35-1l.27-.23.21-.18.08-.08c.38-.32.76-.65,1.13-1l.3-.31.22-.22.17-.17c.3-.3.6-.6.89-.92.11-.12.22-.25.32-.38l.22-.26.19-.21c.24-.28.49-.57.73-.87l.37-.51.21-.29.21-.28c.18-.25.38-.5.55-.76s.28-.43.41-.65l.2-.32.21-.32.4-.65.39-.73.17-.34.18-.33c.11-.21.23-.42.33-.64s.27-.58.39-.87l.14-.33.15-.34c.09-.18.17-.37.25-.56v-.17h.08s.57-1.38.76-2h0l.1-.34h0l.12-.44h0l.1-.37h0c0-.13.06-.27.1-.4v-.07l.09-.33h0c0-.14.07-.27.1-.4v-.06l.08-.35h0c0-.13,0-.25.08-.38V467l.06-.3v-.06h0c0-.12.05-.25.07-.37h0l.08-.43h0A48.44,48.44,0,0,0,249.23,454.7Z" transform="translate(-76.31 -106.43)"/>
    <path class="cls-28" d="M243.82,477.25c0,.06-.13.1-.17.16s-.42.53-.47.6c-.4.62-.94,1.1-1.38,1.69l-.19.23-.14.18c-.31.4-.68.87-1.07,1.32-.11.13-.22.25-.34.37l-.2.22c-.31.35-.64.7-1,1-.14.15-.29.29-.43.42l-.21.2,0,0c-.3.28-.61.58-.93.85s-.39.34-.58.49l-.13.11c-.32.26-.65.54-1,.8l-.64.47-.13.1-1,.71-.81.51-1.07.64-.85.46c-.35.19-.71.37-1.1.56l-.89.41c-.33.15-.68.29-1.14.48l-.1,0-.81.31-1.19.4-.21.07-.71.22c-.41.12-.84.22-1.24.32l-.24.06-.68.16c-.39.09-.8.15-1.19.22l-.14,0-.27.05-.6.1c-.47.07-.95.12-1.42.16H219l-.3,0-.44,0c-.78.06-1.54.09-2.27.09a32.2,32.2,0,0,1-32.19-32.18,17.45,17.45,0,0,1,.22-3.23,32.76,32.76,0,0,1,.76-4,6.13,6.13,0,0,1,.2-.76l.06-.23c.08-.3.14-.5.15-.57v0c2.28-6.74,10.76-15.19,13.31-17.61.34-.31.65-.59.94-.87l.76-.76a33.44,33.44,0,0,0,9.55-23.47c0-.56,0-1.13,0-1.7l0-.32c0-.08,0-.15,0-.23v-.09c0-.34,0-.69-.08-1,0-.13,0-.27,0-.4l0-.24,0-.2c0-.27-.06-.55-.1-.82s-.05-.28-.08-.43,0-.17,0-.26l0-.21c0-.24-.08-.49-.13-.74s-.07-.32-.1-.48l-.06-.23,0-.19c-.05-.23-.1-.48-.16-.71s-.09-.32-.13-.47-.05-.17-.07-.25l-.05-.16c-.06-.24-.13-.48-.2-.71s-.11-.34-.16-.51l-.14-.42c-.07-.21-.14-.43-.22-.64s-.13-.35-.2-.53l-.1-.24c-.09-.25-.19-.51-.3-.76l-.24-.56-.12-.27c-.1-.22-.2-.45-.31-.67s-.18-.38-.28-.56l-.11-.23-.36-.68c-.09-.18-.19-.35-.29-.52l-.12-.21-.41-.71-.37-.58-.11-.17c-.13-.21-.27-.43-.42-.64l-.35-.51-.1-.14-.51-.71-.49-.63-.55-.68-.52-.6-.59-.67-.55-.57-.17-.18c.09.28.18.56.26.83l.06.19.06.2.09.27c0,.11,0,.22.08.33l.06.25a22.64,22.64,0,0,1-15.15,27.14h0l-.05,0-.07,0-.1,0-.25.08,0-.26A22.2,22.2,0,0,0,181,403.8l0,0h0l0,0v0c-3.29,3.64-6.38,7.24-9.18,10.71A149.48,149.48,0,0,0,158,434.31c-.42.76-.84,1.52-1.22,2.26-.29.55-.59,1.13-.88,1.71-3.31,6.7-5,12.6-5,17.56a48.62,48.62,0,0,0,1.59,12.36c.18.69.38,1.37.59,2A49.11,49.11,0,0,0,169.31,494l.86.68.29.21a49,49,0,0,0,61.35-2.41l.09-.07,1-.9c.57-.53,1.14-1.06,1.69-1.62l.17-.18a49.52,49.52,0,0,0,9.08-12.44Z" transform="translate(-76.31 -106.43)"/>
  </g>
</svg>
