<svg id="Laag_1" data-name="Laag 1" xmlns="http://www.w3.org/2000/svg" viewBox="0 0 989.44 591.98">
  <defs>
    <style>
      .cls-1, .cls-2 {
        fill: #fff;
      }

      .cls-2 {
        opacity: 0.67;
      }

      .cls-3 {
        fill: #263050;
      }

      .cls-4 {
        fill: #0000f9;
      }
    </style>
  </defs>
  <g>
    <path class="cls-1" d="M525.79,340.93c0,5.57-3.82,11.56-12.74,11.56H495.8V312.05h16c7.22,0,11.86,4.35,11.86,10.45,0,3-1.18,7-5.58,8.39C523.26,331.77,525.79,336.35,525.79,340.93ZM504,319.27v8.86h7.39c2.58,0,4.17-1.7,4.17-4.46,0-2.46-1.29-4.4-4.17-4.4Zm13.61,20.84c0-2.53-1.7-5.17-5.57-5.17h-8v10.33h7.92C515.69,345.27,517.57,342.81,517.57,340.11Z" transform="translate(-105.28 -19.19)"/>
    <path class="cls-1" d="M552,325.32l-1.76,7.33a7.94,7.94,0,0,0-3.93-1c-3.93,0-6.63,3.63-6.63,11.44v9.39H532V325.14h7.63V331c1.53-4.58,4.64-6.51,8-6.51A9.67,9.67,0,0,1,552,325.32Z" transform="translate(-105.28 -19.19)"/>
    <path class="cls-1" d="M583.72,325.14v27.35H576v-3.41c-1.94,2.7-5.75,3.94-8.8,3.94-7.05,0-13.44-5.46-13.44-14.26s6.39-14.26,13.44-14.26c3.17,0,6.86,1.17,8.8,3.93v-3.29Zm-7.93,13.62a7.1,7.1,0,1,0-7.1,7.1A7.07,7.07,0,0,0,575.79,338.76Z" transform="translate(-105.28 -19.19)"/>
    <path class="cls-1" d="M618.23,337.46v15h-7.69v-14.2c0-4.35-2.58-6.28-5.22-6.28s-6.16,1.46-6.16,6.45v14h-7.69V325.14h7.69v4.58c1.17-3.7,5.51-5.28,8.21-5.28C614.53,324.44,618.29,329.25,618.23,337.46Z" transform="translate(-105.28 -19.19)"/>
    <path class="cls-1" d="M653.91,310.53v42h-7.69v-3.41c-1.93,2.7-5.75,3.94-8.8,3.94-7,0-13.44-5.46-13.44-14.26s6.4-14.26,13.44-14.26c3.17,0,6.87,1.17,8.8,3.93v-17.9ZM646,338.76a7.1,7.1,0,1,0-7.1,7.1A7.07,7.07,0,0,0,646,338.76Z" transform="translate(-105.28 -19.19)"/>
    <path class="cls-1" d="M660.61,315.63a4.88,4.88,0,1,1,4.87,4.64A4.77,4.77,0,0,1,660.61,315.63Zm1,9.51h7.69v27.35h-7.69Z" transform="translate(-105.28 -19.19)"/>
    <path class="cls-1" d="M703.86,337.46v15h-7.69v-14.2c0-4.35-2.58-6.28-5.22-6.28s-6.16,1.46-6.16,6.45v14H677.1V325.14h7.69v4.58c1.17-3.7,5.51-5.28,8.21-5.28C700.16,324.44,703.92,329.25,703.86,337.46Z" transform="translate(-105.28 -19.19)"/>
    <path class="cls-1" d="M739.54,325.14v23.59c0,12-6,17.55-15.73,17.55A14.56,14.56,0,0,1,710.49,358l6.4-2.76a7.82,7.82,0,0,0,6.92,4.22c4.93,0,8-2.7,8-9.86v-.41c-2,2.64-5.75,3.88-8.8,3.88-7,0-13.44-5.46-13.44-14.26s6.4-14.26,13.44-14.26c3.11,0,6.81,1.23,8.8,3.87v-3.23Zm-7.92,13.62a7.1,7.1,0,1,0-7.1,7.1A7.07,7.07,0,0,0,731.62,338.76Z" transform="translate(-105.28 -19.19)"/>
    <path class="cls-1" d="M467.69,391a20.56,20.56,0,0,1,20.65-20.77,20,20,0,0,1,15,6.45l-5.93,5.11a12.31,12.31,0,0,0-9-4c-7,0-12.5,6-12.5,13.2s5.46,13.44,12.5,13.44c5.29,0,9.45-2.52,10.51-6.75a4.22,4.22,0,0,0,.23-1H487.64v-6.64H508c0,15-8,21.66-19.66,21.66A20.55,20.55,0,0,1,467.69,391Z" transform="translate(-105.28 -19.19)"/>
    <path class="cls-1" d="M539.82,383.83v27.35h-7.69v-4.46c-1.18,3.58-5.52,5.11-8.22,5.11-7.16,0-10.91-4.76-10.85-13v-15h7.68V398c0,4.28,2.59,6.22,5.23,6.22s6.16-1.47,6.16-6.4v-14Z" transform="translate(-105.28 -19.19)"/>
    <path class="cls-1" d="M546.51,374.33a4.88,4.88,0,1,1,4.87,4.63A4.77,4.77,0,0,1,546.51,374.33Zm1.06,9.5h7.68v27.35h-7.68Z" transform="translate(-105.28 -19.19)"/>
    <path class="cls-1" d="M591.29,369.22v42H583.6v-3.4c-1.94,2.7-5.75,3.93-8.8,3.93-7,0-13.44-5.46-13.44-14.26s6.39-14.26,13.44-14.26c3.17,0,6.86,1.17,8.8,3.93v-17.9Zm-7.93,28.23a7.1,7.1,0,1,0-7.1,7.1A7.06,7.06,0,0,0,583.36,397.45Z" transform="translate(-105.28 -19.19)"/>
    <path class="cls-1" d="M626,400H605.38c.82,3.17,3.4,4.93,7.1,4.93a9.51,9.51,0,0,0,7.16-3l4.52,4.52c-2.59,3.46-7.4,5.34-12.21,5.34-8.39,0-14.55-5.75-14.55-14.2,0-8.86,6.68-14.38,14.55-14.38s14.2,5.52,14.2,13.91C626.15,397.8,626.09,398.74,626,400Zm-7.57-5c-.23-3.22-2.93-5.16-6.39-5.16-3.11,0-5.87,1.47-6.69,5.16Z" transform="translate(-105.28 -19.19)"/>
    <path class="cls-1" d="M632.08,369.22h7.69v42h-7.69Z" transform="translate(-105.28 -19.19)"/>
    <path class="cls-1" d="M646.46,374.33a4.88,4.88,0,1,1,4.87,4.63A4.77,4.77,0,0,1,646.46,374.33Zm1.06,9.5h7.68v27.35h-7.68Z" transform="translate(-105.28 -19.19)"/>
    <path class="cls-1" d="M689.71,396.16v15H682V397c0-4.34-2.58-6.28-5.22-6.28s-6.16,1.47-6.16,6.46v14H663V383.83h7.69v4.58c1.17-3.7,5.52-5.28,8.22-5.28C686,383.13,689.77,387.94,689.71,396.16Z" transform="translate(-105.28 -19.19)"/>
    <path class="cls-1" d="M724.1,400H703.45c.82,3.17,3.4,4.93,7.1,4.93a9.51,9.51,0,0,0,7.16-3l4.52,4.52c-2.59,3.46-7.4,5.34-12.21,5.34-8.39,0-14.55-5.75-14.55-14.2,0-8.86,6.69-14.38,14.55-14.38s14.2,5.52,14.2,13.91C724.22,397.8,724.16,398.74,724.1,400Zm-7.57-5c-.23-3.22-2.93-5.16-6.39-5.16-3.11,0-5.87,1.47-6.69,5.16Z" transform="translate(-105.28 -19.19)"/>
    <path class="cls-1" d="M728.45,402.38h7.22c0,1.58,1.35,3.28,4.05,3.28,2.23,0,3.93-.93,3.93-2.52,0-1.17-.94-1.76-3-2.29L737,400c-7-1.88-8-5.81-8-8.68,0-4.23,4.4-8.16,10.74-8.16,5,0,10.85,2.46,10.8,8.92h-7.34c0-1.82-1.53-2.82-3.35-2.82s-3.16.88-3.16,2.29,1.17,1.94,2.69,2.35l4.52,1.17c6.58,1.76,7.4,5.87,7.4,8.1,0,5.75-5.87,8.57-11.5,8.57S728.51,408.42,728.45,402.38Z" transform="translate(-105.28 -19.19)"/>
    <path class="cls-1" d="M756.39,407a4.75,4.75,0,0,1,4.87-4.7,4.73,4.73,0,1,1,0,9.45A4.76,4.76,0,0,1,756.39,407Z" transform="translate(-105.28 -19.19)"/>
  </g>
  <path class="cls-1" d="M643.62,263.38a.41.41,0,0,1-.07.11,1,1,0,0,1-.08.14c-.25.38-.51.76-.78,1.12a1.34,1.34,0,0,0-.11.14l-.09.11-.65.81-.21.22-.12.14-.59.63-.27.25-.13.12,0,0c-.19.17-.37.35-.57.52l-.35.3-.08.07-.61.48-.39.29-.08.06-.62.43-.5.32-.65.38-.52.29-.68.34-.54.25-.69.29-.06,0-.5.19-.73.25-.12,0-.44.13c-.25.08-.51.14-.76.2l-.14,0-.41.1-.73.13h-.09l-.16,0-.37.07c-.29,0-.58.06-.87.09h0l-.19,0-.27,0c-.47,0-.94.05-1.38.05A19.65,19.65,0,0,1,607.3,253a10.69,10.69,0,0,1,.14-2,21.2,21.2,0,0,1,.46-2.44,3.9,3.9,0,0,1,.12-.46c0-.05,0-.1,0-.14l.09-.35v0c1.39-4.12,6.57-9.27,8.12-10.75.21-.19.4-.36.58-.54l.46-.46a20.4,20.4,0,0,0,5.83-14.33c0-.34,0-.69,0-1,0-.07,0-.14,0-.2s0-.09,0-.14v-.06c0-.21,0-.42-.05-.63l0-.25s0-.09,0-.14v-.12l-.06-.5c0-.09,0-.18,0-.26l0-.17,0-.13c0-.14-.05-.29-.08-.44l-.06-.3a.57.57,0,0,1,0-.14l0-.11c0-.15-.07-.3-.1-.44l-.08-.29,0-.15,0-.1-.12-.43c0-.11-.07-.21-.1-.31l-.09-.26c0-.13-.09-.26-.13-.39s-.08-.21-.13-.32l0-.15c-.06-.15-.12-.31-.19-.46a3.49,3.49,0,0,0-.15-.34l-.07-.17c-.06-.13-.12-.27-.19-.41a3.59,3.59,0,0,0-.17-.34l-.07-.14c-.07-.14-.14-.28-.22-.42l-.17-.31-.08-.13c-.08-.14-.16-.29-.25-.43s-.14-.24-.22-.36l-.07-.1-.25-.39-.22-.32-.06-.08-.31-.43-.3-.39-.34-.41c-.1-.13-.21-.25-.32-.37l-.36-.41-.33-.35a1.14,1.14,0,0,0-.11-.11c.06.17.11.34.16.51l0,.11a.5.5,0,0,0,0,.13s0,.11.05.16a1.6,1.6,0,0,1,0,.21.57.57,0,0,0,0,.14A13.84,13.84,0,0,1,608.44,225h-.07l-.06,0-.16.05V225a13.49,13.49,0,0,0-2.56-6.54v0h0l0,0h0c-2,2.22-3.9,4.42-5.61,6.54A90.51,90.51,0,0,0,591.5,237c-.26.46-.51.92-.75,1.37l-.53,1.05c-2,4.09-3.05,7.69-3.05,10.72a30,30,0,0,0,1,7.55c.11.42.24.83.36,1.24a30,30,0,0,0,9.93,14.5l.53.41a1.09,1.09,0,0,0,.17.13,29.89,29.89,0,0,0,37.46-1.47l.06-.05c.2-.17.4-.36.6-.54s.69-.65,1-1l.11-.11a29.85,29.85,0,0,0,5.36-7.66Z" transform="translate(-105.28 -19.19)"/>
  <path class="cls-2" d="M642.29,238.71c-.14.54-.28,1.06-.43,1.55a26.09,26.09,0,0,1-23.94,18.35,9.14,9.14,0,0,1-10.09-8.38v0a15.41,15.41,0,0,0-.26,2.71,26.28,26.28,0,0,0,.38,3.85,19.45,19.45,0,0,0,19,15.54c.47,0,.95,0,1.42-.06l.2,0,.17,0h.07c.32,0,.64-.05,1-.1l.23,0,.17,0h.08l.89-.16.21-.06.17,0,.07,0,.89-.23.14-.05.11,0c.33-.1.7-.22,1.07-.36l.11,0,.1-.05c.31-.12.69-.27,1.06-.44l.12-.06.09-.05c.33-.16.67-.32,1-.51l.16-.09.12-.08c.31-.17.61-.35.91-.54l.14-.1.13-.09c.27-.18.57-.38.85-.6l.17-.13.13-.11.06,0c.23-.19.48-.38.71-.58l.2-.18.13-.13.11-.1c.19-.17.39-.35.57-.53l.21-.23.14-.15.12-.12.47-.51.24-.3c0-.06.09-.12.14-.17l.13-.17a5.46,5.46,0,0,0,.36-.45l.27-.38.13-.19c0-.07.09-.13.13-.19l.27-.38.26-.44a1.28,1.28,0,0,1,.11-.2l.12-.2c.08-.12.15-.25.22-.38s.18-.34.26-.52.07-.13.1-.2.07-.13.1-.2.11-.22.17-.33v-.11h0s.39-.83.52-1.23h0l.07-.2h0a2,2,0,0,0,.08-.26h0l.08-.22h0c0-.08.05-.16.08-.25v0l.06-.2h0l.06-.24v0l.06-.21h0l.06-.23v0c0-.05,0-.11,0-.17v0h0a1.89,1.89,0,0,0,0-.23h0l.06-.26h0a30.21,30.21,0,0,0,.77-6.79c0-3.54-1.39-7.85-4.15-12.82,0,.21-.08.41-.13.61l0,.21a1.18,1.18,0,0,0,0,.2C642.33,238.49,642.31,238.6,642.29,238.71Z" transform="translate(-105.28 -19.19)"/>
  <path class="cls-2" d="M619.87,209.88l0,.06c.27.4.54.84.79,1.28l.06.09,0,.1c.24.43.47.88.7,1.37l.12.28c.22.49.41,1,.58,1.42a.56.56,0,0,0,0,.12s0,.05,0,.08c.17.49.32,1,.45,1.45v.05a.24.24,0,0,1,0,.08c.12.46.23,1,.33,1.53l0,.09a1.42,1.42,0,0,0,0,.2c.08.51.15,1,.19,1.53a.86.86,0,0,1,0,.16.45.45,0,0,1,0,.11c0,.6.07,1.13.07,1.63A20.69,20.69,0,0,1,617.51,236h0l-.36.37c1,1,8.94,8.4,8.94,13.12a9.14,9.14,0,0,1-6.23,8.67l.51-.07.21,0,1.08-.17.69-.14.16,0,1.07-.25.83-.25c.3-.09.67-.2,1-.33s.57-.2.8-.3l1-.4.78-.36c.34-.16.65-.32,1-.48l.75-.41.91-.55.73-.47.86-.61.69-.52.81-.67,0,0c.2-.17.41-.34.6-.52s.54-.51.76-.74l.12-.11.49-.5c.24-.25.47-.52.69-.77l.14-.17.44-.51c.2-.25.4-.52.59-.77l.06-.09.14-.19.37-.5c.17-.25.34-.52.5-.78l.1-.15.15-.23a5.55,5.55,0,0,0,.29-.48c.17-.29.33-.59.48-.88l.08-.14c0-.09.09-.17.13-.25l.24-.45c.17-.36.33-.73.48-1.09l0-.11a2.56,2.56,0,0,1,.11-.24l.15-.36c.25-.63.47-1.27.67-1.88s.3-1.05.43-1.59c0-.12.05-.25.08-.38a2,2,0,0,1,0-.24l0-.22c.06-.25.11-.5.16-.76-2.18-3.86-8.77-14.26-23.26-28.15.27.34.5.66.72,1Z" transform="translate(-105.28 -19.19)"/>
  <g>
    <path class="cls-1" d="M525.79,340.93c0,5.57-3.82,11.56-12.74,11.56H495.8V312.05h16c7.22,0,11.86,4.35,11.86,10.45,0,3-1.18,7-5.58,8.39C523.26,331.77,525.79,336.35,525.79,340.93ZM504,319.27v8.86h7.39c2.58,0,4.17-1.7,4.17-4.46,0-2.46-1.29-4.4-4.17-4.4Zm13.61,20.84c0-2.53-1.7-5.17-5.57-5.17h-8v10.33h7.92C515.69,345.27,517.57,342.81,517.57,340.11Z" transform="translate(-105.28 -19.19)"/>
    <path class="cls-1" d="M552,325.32l-1.76,7.33a7.94,7.94,0,0,0-3.93-1c-3.93,0-6.63,3.63-6.63,11.44v9.39H532V325.14h7.63V331c1.53-4.58,4.64-6.51,8-6.51A9.67,9.67,0,0,1,552,325.32Z" transform="translate(-105.28 -19.19)"/>
    <path class="cls-1" d="M583.72,325.14v27.35H576v-3.41c-1.94,2.7-5.75,3.94-8.8,3.94-7.05,0-13.44-5.46-13.44-14.26s6.39-14.26,13.44-14.26c3.17,0,6.86,1.17,8.8,3.93v-3.29Zm-7.93,13.62a7.1,7.1,0,1,0-7.1,7.1A7.07,7.07,0,0,0,575.79,338.76Z" transform="translate(-105.28 -19.19)"/>
    <path class="cls-1" d="M618.23,337.46v15h-7.69v-14.2c0-4.35-2.58-6.28-5.22-6.28s-6.16,1.46-6.16,6.45v14h-7.69V325.14h7.69v4.58c1.17-3.7,5.51-5.28,8.21-5.28C614.53,324.44,618.29,329.25,618.23,337.46Z" transform="translate(-105.28 -19.19)"/>
    <path class="cls-1" d="M653.91,310.53v42h-7.69v-3.41c-1.93,2.7-5.75,3.94-8.8,3.94-7,0-13.44-5.46-13.44-14.26s6.4-14.26,13.44-14.26c3.17,0,6.87,1.17,8.8,3.93v-17.9ZM646,338.76a7.1,7.1,0,1,0-7.1,7.1A7.07,7.07,0,0,0,646,338.76Z" transform="translate(-105.28 -19.19)"/>
    <path class="cls-1" d="M660.61,315.63a4.88,4.88,0,1,1,4.87,4.64A4.77,4.77,0,0,1,660.61,315.63Zm1,9.51h7.69v27.35h-7.69Z" transform="translate(-105.28 -19.19)"/>
    <path class="cls-1" d="M703.86,337.46v15h-7.69v-14.2c0-4.35-2.58-6.28-5.22-6.28s-6.16,1.46-6.16,6.45v14H677.1V325.14h7.69v4.58c1.17-3.7,5.51-5.28,8.21-5.28C700.16,324.44,703.92,329.25,703.86,337.46Z" transform="translate(-105.28 -19.19)"/>
    <path class="cls-1" d="M739.54,325.14v23.59c0,12-6,17.55-15.73,17.55A14.56,14.56,0,0,1,710.49,358l6.4-2.76a7.82,7.82,0,0,0,6.92,4.22c4.93,0,8-2.7,8-9.86v-.41c-2,2.64-5.75,3.88-8.8,3.88-7,0-13.44-5.46-13.44-14.26s6.4-14.26,13.44-14.26c3.11,0,6.81,1.23,8.8,3.87v-3.23Zm-7.92,13.62a7.1,7.1,0,1,0-7.1,7.1A7.07,7.07,0,0,0,731.62,338.76Z" transform="translate(-105.28 -19.19)"/>
    <path class="cls-1" d="M467.69,391a20.56,20.56,0,0,1,20.65-20.77,20,20,0,0,1,15,6.45l-5.93,5.11a12.31,12.31,0,0,0-9-4c-7,0-12.5,6-12.5,13.2s5.46,13.44,12.5,13.44c5.29,0,9.45-2.52,10.51-6.75a4.22,4.22,0,0,0,.23-1H487.64v-6.64H508c0,15-8,21.66-19.66,21.66A20.55,20.55,0,0,1,467.69,391Z" transform="translate(-105.28 -19.19)"/>
    <path class="cls-1" d="M539.82,383.83v27.35h-7.69v-4.46c-1.18,3.58-5.52,5.11-8.22,5.11-7.16,0-10.91-4.76-10.85-13v-15h7.68V398c0,4.28,2.59,6.22,5.23,6.22s6.16-1.47,6.16-6.4v-14Z" transform="translate(-105.28 -19.19)"/>
    <path class="cls-1" d="M546.51,374.33a4.88,4.88,0,1,1,4.87,4.63A4.77,4.77,0,0,1,546.51,374.33Zm1.06,9.5h7.68v27.35h-7.68Z" transform="translate(-105.28 -19.19)"/>
    <path class="cls-1" d="M591.29,369.22v42H583.6v-3.4c-1.94,2.7-5.75,3.93-8.8,3.93-7,0-13.44-5.46-13.44-14.26s6.39-14.26,13.44-14.26c3.17,0,6.86,1.17,8.8,3.93v-17.9Zm-7.93,28.23a7.1,7.1,0,1,0-7.1,7.1A7.06,7.06,0,0,0,583.36,397.45Z" transform="translate(-105.28 -19.19)"/>
    <path class="cls-1" d="M626,400H605.38c.82,3.17,3.4,4.93,7.1,4.93a9.51,9.51,0,0,0,7.16-3l4.52,4.52c-2.59,3.46-7.4,5.34-12.21,5.34-8.39,0-14.55-5.75-14.55-14.2,0-8.86,6.68-14.38,14.55-14.38s14.2,5.52,14.2,13.91C626.15,397.8,626.09,398.74,626,400Zm-7.57-5c-.23-3.22-2.93-5.16-6.39-5.16-3.11,0-5.87,1.47-6.69,5.16Z" transform="translate(-105.28 -19.19)"/>
    <path class="cls-1" d="M632.08,369.22h7.69v42h-7.69Z" transform="translate(-105.28 -19.19)"/>
    <path class="cls-1" d="M646.46,374.33a4.88,4.88,0,1,1,4.87,4.63A4.77,4.77,0,0,1,646.46,374.33Zm1.06,9.5h7.68v27.35h-7.68Z" transform="translate(-105.28 -19.19)"/>
    <path class="cls-1" d="M689.71,396.16v15H682V397c0-4.34-2.58-6.28-5.22-6.28s-6.16,1.47-6.16,6.46v14H663V383.83h7.69v4.58c1.17-3.7,5.52-5.28,8.22-5.28C686,383.13,689.77,387.94,689.71,396.16Z" transform="translate(-105.28 -19.19)"/>
    <path class="cls-1" d="M724.1,400H703.45c.82,3.17,3.4,4.93,7.1,4.93a9.51,9.51,0,0,0,7.16-3l4.52,4.52c-2.59,3.46-7.4,5.34-12.21,5.34-8.39,0-14.55-5.75-14.55-14.2,0-8.86,6.69-14.38,14.55-14.38s14.2,5.52,14.2,13.91C724.22,397.8,724.16,398.74,724.1,400Zm-7.57-5c-.23-3.22-2.93-5.16-6.39-5.16-3.11,0-5.87,1.47-6.69,5.16Z" transform="translate(-105.28 -19.19)"/>
    <path class="cls-1" d="M728.45,402.38h7.22c0,1.58,1.35,3.28,4.05,3.28,2.23,0,3.93-.93,3.93-2.52,0-1.17-.94-1.76-3-2.29L737,400c-7-1.88-8-5.81-8-8.68,0-4.23,4.4-8.16,10.74-8.16,5,0,10.85,2.46,10.8,8.92h-7.34c0-1.82-1.53-2.82-3.35-2.82s-3.16.88-3.16,2.29,1.17,1.94,2.69,2.35l4.52,1.17c6.58,1.76,7.4,5.87,7.4,8.1,0,5.75-5.87,8.57-11.5,8.57S728.51,408.42,728.45,402.38Z" transform="translate(-105.28 -19.19)"/>
    <path class="cls-1" d="M756.39,407a4.75,4.75,0,0,1,4.87-4.7,4.73,4.73,0,1,1,0,9.45A4.76,4.76,0,0,1,756.39,407Z" transform="translate(-105.28 -19.19)"/>
  </g>
  <path class="cls-1" d="M643.62,263.38a.41.41,0,0,1-.07.11,1,1,0,0,1-.08.14c-.25.38-.51.76-.78,1.12a1.34,1.34,0,0,0-.11.14l-.09.11-.65.81-.21.22-.12.14-.59.63-.27.25-.13.12,0,0c-.19.17-.37.35-.57.52l-.35.3-.08.07-.61.48-.39.29-.08.06-.62.43-.5.32-.65.38-.52.29-.68.34-.54.25-.69.29-.06,0-.5.19-.73.25-.12,0-.44.13c-.25.08-.51.14-.76.2l-.14,0-.41.1-.73.13h-.09l-.16,0-.37.07c-.29,0-.58.06-.87.09h0l-.19,0-.27,0c-.47,0-.94.05-1.38.05A19.65,19.65,0,0,1,607.3,253a10.69,10.69,0,0,1,.14-2,21.2,21.2,0,0,1,.46-2.44,3.9,3.9,0,0,1,.12-.46c0-.05,0-.1,0-.14l.09-.35v0c1.39-4.12,6.57-9.27,8.12-10.75.21-.19.4-.36.58-.54l.46-.46a20.4,20.4,0,0,0,5.83-14.33c0-.34,0-.69,0-1,0-.07,0-.14,0-.2s0-.09,0-.14v-.06c0-.21,0-.42-.05-.63l0-.25s0-.09,0-.14v-.12l-.06-.5c0-.09,0-.18,0-.26l0-.17,0-.13c0-.14-.05-.29-.08-.44l-.06-.3a.57.57,0,0,1,0-.14l0-.11c0-.15-.07-.3-.1-.44l-.08-.29,0-.15,0-.1-.12-.43c0-.11-.07-.21-.1-.31l-.09-.26c0-.13-.09-.26-.13-.39s-.08-.21-.13-.32l0-.15c-.06-.15-.12-.31-.19-.46a3.49,3.49,0,0,0-.15-.34l-.07-.17c-.06-.13-.12-.27-.19-.41a3.59,3.59,0,0,0-.17-.34l-.07-.14c-.07-.14-.14-.28-.22-.42l-.17-.31-.08-.13c-.08-.14-.16-.29-.25-.43s-.14-.24-.22-.36l-.07-.1-.25-.39-.22-.32-.06-.08-.31-.43-.3-.39-.34-.41c-.1-.13-.21-.25-.32-.37l-.36-.41-.33-.35a1.14,1.14,0,0,0-.11-.11c.06.17.11.34.16.51l0,.11a.5.5,0,0,0,0,.13s0,.11.05.16a1.6,1.6,0,0,1,0,.21.57.57,0,0,0,0,.14A13.84,13.84,0,0,1,608.44,225h-.07l-.06,0-.16.05V225a13.49,13.49,0,0,0-2.56-6.54v0h0l0,0h0c-2,2.22-3.9,4.42-5.61,6.54A90.51,90.51,0,0,0,591.5,237c-.26.46-.51.92-.75,1.37l-.53,1.05c-2,4.09-3.05,7.69-3.05,10.72a30,30,0,0,0,1,7.55c.11.42.24.83.36,1.24a30,30,0,0,0,9.93,14.5l.53.41a1.09,1.09,0,0,0,.17.13,29.89,29.89,0,0,0,37.46-1.47l.06-.05c.2-.17.4-.36.6-.54s.69-.65,1-1l.11-.11a29.85,29.85,0,0,0,5.36-7.66Z" transform="translate(-105.28 -19.19)"/>
  <path class="cls-2" d="M642.29,238.71c-.14.54-.28,1.06-.43,1.55a26.09,26.09,0,0,1-23.94,18.35,9.14,9.14,0,0,1-10.09-8.38v0a15.41,15.41,0,0,0-.26,2.71,26.28,26.28,0,0,0,.38,3.85,19.45,19.45,0,0,0,19,15.54c.47,0,.95,0,1.42-.06l.2,0,.17,0h.07c.32,0,.64-.05,1-.1l.23,0,.17,0h.08l.89-.16.21-.06.17,0,.07,0,.89-.23.14-.05.11,0c.33-.1.7-.22,1.07-.36l.11,0,.1-.05c.31-.12.69-.27,1.06-.44l.12-.06.09-.05c.33-.16.67-.32,1-.51l.16-.09.12-.08c.31-.17.61-.35.91-.54l.14-.1.13-.09c.27-.18.57-.38.85-.6l.17-.13.13-.11.06,0c.23-.19.48-.38.71-.58l.2-.18.13-.13.11-.1c.19-.17.39-.35.57-.53l.21-.23.14-.15.12-.12.47-.51.24-.3c0-.06.09-.12.14-.17l.13-.17a5.46,5.46,0,0,0,.36-.45l.27-.38.13-.19c0-.07.09-.13.13-.19l.27-.38.26-.44a1.28,1.28,0,0,1,.11-.2l.12-.2c.08-.12.15-.25.22-.38s.18-.34.26-.52.07-.13.1-.2.07-.13.1-.2.11-.22.17-.33v-.11h0s.39-.83.52-1.23h0l.07-.2h0a2,2,0,0,0,.08-.26h0l.08-.22h0c0-.08.05-.16.08-.25v0l.06-.2h0l.06-.24v0l.06-.21h0l.06-.23v0c0-.05,0-.11,0-.17v0h0a1.89,1.89,0,0,0,0-.23h0l.06-.26h0a30.21,30.21,0,0,0,.77-6.79c0-3.54-1.39-7.85-4.15-12.82,0,.21-.08.41-.13.61l0,.21a1.18,1.18,0,0,0,0,.2C642.33,238.49,642.31,238.6,642.29,238.71Z" transform="translate(-105.28 -19.19)"/>
  <path class="cls-2" d="M619.87,209.88l0,.06c.27.4.54.84.79,1.28l.06.09,0,.1c.24.43.47.88.7,1.37l.12.28c.22.49.41,1,.58,1.42a.56.56,0,0,0,0,.12s0,.05,0,.08c.17.49.32,1,.45,1.45v.05a.24.24,0,0,1,0,.08c.12.46.23,1,.33,1.53l0,.09a1.42,1.42,0,0,0,0,.2c.08.51.15,1,.19,1.53a.86.86,0,0,1,0,.16.45.45,0,0,1,0,.11c0,.6.07,1.13.07,1.63A20.69,20.69,0,0,1,617.51,236h0l-.36.37c1,1,8.94,8.4,8.94,13.12a9.14,9.14,0,0,1-6.23,8.67l.51-.07.21,0,1.08-.17.69-.14.16,0,1.07-.25.83-.25c.3-.09.67-.2,1-.33s.57-.2.8-.3l1-.4.78-.36c.34-.16.65-.32,1-.48l.75-.41.91-.55.73-.47.86-.61.69-.52.81-.67,0,0c.2-.17.41-.34.6-.52s.54-.51.76-.74l.12-.11.49-.5c.24-.25.47-.52.69-.77l.14-.17.44-.51c.2-.25.4-.52.59-.77l.06-.09.14-.19.37-.5c.17-.25.34-.52.5-.78l.1-.15.15-.23a5.55,5.55,0,0,0,.29-.48c.17-.29.33-.59.48-.88l.08-.14c0-.09.09-.17.13-.25l.24-.45c.17-.36.33-.73.48-1.09l0-.11a2.56,2.56,0,0,1,.11-.24l.15-.36c.25-.63.47-1.27.67-1.88s.3-1.05.43-1.59c0-.12.05-.25.08-.38a2,2,0,0,1,0-.24l0-.22c.06-.25.11-.5.16-.76-2.18-3.86-8.77-14.26-23.26-28.15.27.34.5.66.72,1Z" transform="translate(-105.28 -19.19)"/>
  <g>
    <path class="cls-1" d="M525.79,340.93c0,5.57-3.82,11.56-12.74,11.56H495.8V312.05h16c7.22,0,11.86,4.35,11.86,10.45,0,3-1.18,7-5.58,8.39C523.26,331.77,525.79,336.35,525.79,340.93ZM504,319.27v8.86h7.39c2.58,0,4.17-1.7,4.17-4.46,0-2.46-1.29-4.4-4.17-4.4Zm13.61,20.84c0-2.53-1.7-5.17-5.57-5.17h-8v10.33h7.92C515.69,345.27,517.57,342.81,517.57,340.11Z" transform="translate(-105.28 -19.19)"/>
    <path class="cls-1" d="M552,325.32l-1.76,7.33a7.94,7.94,0,0,0-3.93-1c-3.93,0-6.63,3.63-6.63,11.44v9.39H532V325.14h7.63V331c1.53-4.58,4.64-6.51,8-6.51A9.67,9.67,0,0,1,552,325.32Z" transform="translate(-105.28 -19.19)"/>
    <path class="cls-1" d="M583.72,325.14v27.35H576v-3.41c-1.94,2.7-5.75,3.94-8.8,3.94-7.05,0-13.44-5.46-13.44-14.26s6.39-14.26,13.44-14.26c3.17,0,6.86,1.17,8.8,3.93v-3.29Zm-7.93,13.62a7.1,7.1,0,1,0-7.1,7.1A7.07,7.07,0,0,0,575.79,338.76Z" transform="translate(-105.28 -19.19)"/>
    <path class="cls-1" d="M618.23,337.46v15h-7.69v-14.2c0-4.35-2.58-6.28-5.22-6.28s-6.16,1.46-6.16,6.45v14h-7.69V325.14h7.69v4.58c1.17-3.7,5.51-5.28,8.21-5.28C614.53,324.44,618.29,329.25,618.23,337.46Z" transform="translate(-105.28 -19.19)"/>
    <path class="cls-1" d="M653.91,310.53v42h-7.69v-3.41c-1.93,2.7-5.75,3.94-8.8,3.94-7,0-13.44-5.46-13.44-14.26s6.4-14.26,13.44-14.26c3.17,0,6.87,1.17,8.8,3.93v-17.9ZM646,338.76a7.1,7.1,0,1,0-7.1,7.1A7.07,7.07,0,0,0,646,338.76Z" transform="translate(-105.28 -19.19)"/>
    <path class="cls-1" d="M660.61,315.63a4.88,4.88,0,1,1,4.87,4.64A4.77,4.77,0,0,1,660.61,315.63Zm1,9.51h7.69v27.35h-7.69Z" transform="translate(-105.28 -19.19)"/>
    <path class="cls-1" d="M703.86,337.46v15h-7.69v-14.2c0-4.35-2.58-6.28-5.22-6.28s-6.16,1.46-6.16,6.45v14H677.1V325.14h7.69v4.58c1.17-3.7,5.51-5.28,8.21-5.28C700.16,324.44,703.92,329.25,703.86,337.46Z" transform="translate(-105.28 -19.19)"/>
    <path class="cls-1" d="M739.54,325.14v23.59c0,12-6,17.55-15.73,17.55A14.56,14.56,0,0,1,710.49,358l6.4-2.76a7.82,7.82,0,0,0,6.92,4.22c4.93,0,8-2.7,8-9.86v-.41c-2,2.64-5.75,3.88-8.8,3.88-7,0-13.44-5.46-13.44-14.26s6.4-14.26,13.44-14.26c3.11,0,6.81,1.23,8.8,3.87v-3.23Zm-7.92,13.62a7.1,7.1,0,1,0-7.1,7.1A7.07,7.07,0,0,0,731.62,338.76Z" transform="translate(-105.28 -19.19)"/>
    <path class="cls-1" d="M467.69,391a20.56,20.56,0,0,1,20.65-20.77,20,20,0,0,1,15,6.45l-5.93,5.11a12.31,12.31,0,0,0-9-4c-7,0-12.5,6-12.5,13.2s5.46,13.44,12.5,13.44c5.29,0,9.45-2.52,10.51-6.75a4.22,4.22,0,0,0,.23-1H487.64v-6.64H508c0,15-8,21.66-19.66,21.66A20.55,20.55,0,0,1,467.69,391Z" transform="translate(-105.28 -19.19)"/>
    <path class="cls-1" d="M539.82,383.83v27.35h-7.69v-4.46c-1.18,3.58-5.52,5.11-8.22,5.11-7.16,0-10.91-4.76-10.85-13v-15h7.68V398c0,4.28,2.59,6.22,5.23,6.22s6.16-1.47,6.16-6.4v-14Z" transform="translate(-105.28 -19.19)"/>
    <path class="cls-1" d="M546.51,374.33a4.88,4.88,0,1,1,4.87,4.63A4.77,4.77,0,0,1,546.51,374.33Zm1.06,9.5h7.68v27.35h-7.68Z" transform="translate(-105.28 -19.19)"/>
    <path class="cls-1" d="M591.29,369.22v42H583.6v-3.4c-1.94,2.7-5.75,3.93-8.8,3.93-7,0-13.44-5.46-13.44-14.26s6.39-14.26,13.44-14.26c3.17,0,6.86,1.17,8.8,3.93v-17.9Zm-7.93,28.23a7.1,7.1,0,1,0-7.1,7.1A7.06,7.06,0,0,0,583.36,397.45Z" transform="translate(-105.28 -19.19)"/>
    <path class="cls-1" d="M626,400H605.38c.82,3.17,3.4,4.93,7.1,4.93a9.51,9.51,0,0,0,7.16-3l4.52,4.52c-2.59,3.46-7.4,5.34-12.21,5.34-8.39,0-14.55-5.75-14.55-14.2,0-8.86,6.68-14.38,14.55-14.38s14.2,5.52,14.2,13.91C626.15,397.8,626.09,398.74,626,400Zm-7.57-5c-.23-3.22-2.93-5.16-6.39-5.16-3.11,0-5.87,1.47-6.69,5.16Z" transform="translate(-105.28 -19.19)"/>
    <path class="cls-1" d="M632.08,369.22h7.69v42h-7.69Z" transform="translate(-105.28 -19.19)"/>
    <path class="cls-1" d="M646.46,374.33a4.88,4.88,0,1,1,4.87,4.63A4.77,4.77,0,0,1,646.46,374.33Zm1.06,9.5h7.68v27.35h-7.68Z" transform="translate(-105.28 -19.19)"/>
    <path class="cls-1" d="M689.71,396.16v15H682V397c0-4.34-2.58-6.28-5.22-6.28s-6.16,1.47-6.16,6.46v14H663V383.83h7.69v4.58c1.17-3.7,5.52-5.28,8.22-5.28C686,383.13,689.77,387.94,689.71,396.16Z" transform="translate(-105.28 -19.19)"/>
    <path class="cls-1" d="M724.1,400H703.45c.82,3.17,3.4,4.93,7.1,4.93a9.51,9.51,0,0,0,7.16-3l4.52,4.52c-2.59,3.46-7.4,5.34-12.21,5.34-8.39,0-14.55-5.75-14.55-14.2,0-8.86,6.69-14.38,14.55-14.38s14.2,5.52,14.2,13.91C724.22,397.8,724.16,398.74,724.1,400Zm-7.57-5c-.23-3.22-2.93-5.16-6.39-5.16-3.11,0-5.87,1.47-6.69,5.16Z" transform="translate(-105.28 -19.19)"/>
    <path class="cls-1" d="M728.45,402.38h7.22c0,1.58,1.35,3.28,4.05,3.28,2.23,0,3.93-.93,3.93-2.52,0-1.17-.94-1.76-3-2.29L737,400c-7-1.88-8-5.81-8-8.68,0-4.23,4.4-8.16,10.74-8.16,5,0,10.85,2.46,10.8,8.92h-7.34c0-1.82-1.53-2.82-3.35-2.82s-3.16.88-3.16,2.29,1.17,1.94,2.69,2.35l4.52,1.17c6.58,1.76,7.4,5.87,7.4,8.1,0,5.75-5.87,8.57-11.5,8.57S728.51,408.42,728.45,402.38Z" transform="translate(-105.28 -19.19)"/>
    <path class="cls-1" d="M756.39,407a4.75,4.75,0,0,1,4.87-4.7,4.73,4.73,0,1,1,0,9.45A4.76,4.76,0,0,1,756.39,407Z" transform="translate(-105.28 -19.19)"/>
  </g>
  <path class="cls-1" d="M643.62,263.38a.41.41,0,0,1-.07.11,1,1,0,0,1-.08.14c-.25.38-.51.76-.78,1.12a1.34,1.34,0,0,0-.11.14l-.09.11-.65.81-.21.22-.12.14-.59.63-.27.25-.13.12,0,0c-.19.17-.37.35-.57.52l-.35.3-.08.07-.61.48-.39.29-.08.06-.62.43-.5.32-.65.38-.52.29-.68.34-.54.25-.69.29-.06,0-.5.19-.73.25-.12,0-.44.13c-.25.08-.51.14-.76.2l-.14,0-.41.1-.73.13h-.09l-.16,0-.37.07c-.29,0-.58.06-.87.09h0l-.19,0-.27,0c-.47,0-.94.05-1.38.05A19.65,19.65,0,0,1,607.3,253a10.69,10.69,0,0,1,.14-2,21.2,21.2,0,0,1,.46-2.44,3.9,3.9,0,0,1,.12-.46c0-.05,0-.1,0-.14l.09-.35v0c1.39-4.12,6.57-9.27,8.12-10.75.21-.19.4-.36.58-.54l.46-.46a20.4,20.4,0,0,0,5.83-14.33c0-.34,0-.69,0-1,0-.07,0-.14,0-.2s0-.09,0-.14v-.06c0-.21,0-.42-.05-.63l0-.25s0-.09,0-.14v-.12l-.06-.5c0-.09,0-.18,0-.26l0-.17,0-.13c0-.14-.05-.29-.08-.44l-.06-.3a.57.57,0,0,1,0-.14l0-.11c0-.15-.07-.3-.1-.44l-.08-.29,0-.15,0-.1-.12-.43c0-.11-.07-.21-.1-.31l-.09-.26c0-.13-.09-.26-.13-.39s-.08-.21-.13-.32l0-.15c-.06-.15-.12-.31-.19-.46a3.49,3.49,0,0,0-.15-.34l-.07-.17c-.06-.13-.12-.27-.19-.41a3.59,3.59,0,0,0-.17-.34l-.07-.14c-.07-.14-.14-.28-.22-.42l-.17-.31-.08-.13c-.08-.14-.16-.29-.25-.43s-.14-.24-.22-.36l-.07-.1-.25-.39-.22-.32-.06-.08-.31-.43-.3-.39-.34-.41c-.1-.13-.21-.25-.32-.37l-.36-.41-.33-.35a1.14,1.14,0,0,0-.11-.11c.06.17.11.34.16.51l0,.11a.5.5,0,0,0,0,.13s0,.11.05.16a1.6,1.6,0,0,1,0,.21.57.57,0,0,0,0,.14A13.84,13.84,0,0,1,608.44,225h-.07l-.06,0-.16.05V225a13.49,13.49,0,0,0-2.56-6.54v0h0l0,0h0c-2,2.22-3.9,4.42-5.61,6.54A90.51,90.51,0,0,0,591.5,237c-.26.46-.51.92-.75,1.37l-.53,1.05c-2,4.09-3.05,7.69-3.05,10.72a30,30,0,0,0,1,7.55c.11.42.24.83.36,1.24a30,30,0,0,0,9.93,14.5l.53.41a1.09,1.09,0,0,0,.17.13,29.89,29.89,0,0,0,37.46-1.47l.06-.05c.2-.17.4-.36.6-.54s.69-.65,1-1l.11-.11a29.85,29.85,0,0,0,5.36-7.66Z" transform="translate(-105.28 -19.19)"/>
  <path class="cls-2" d="M642.29,238.71c-.14.54-.28,1.06-.43,1.55a26.09,26.09,0,0,1-23.94,18.35,9.14,9.14,0,0,1-10.09-8.38v0a15.41,15.41,0,0,0-.26,2.71,26.28,26.28,0,0,0,.38,3.85,19.45,19.45,0,0,0,19,15.54c.47,0,.95,0,1.42-.06l.2,0,.17,0h.07c.32,0,.64-.05,1-.1l.23,0,.17,0h.08l.89-.16.21-.06.17,0,.07,0,.89-.23.14-.05.11,0c.33-.1.7-.22,1.07-.36l.11,0,.1-.05c.31-.12.69-.27,1.06-.44l.12-.06.09-.05c.33-.16.67-.32,1-.51l.16-.09.12-.08c.31-.17.61-.35.91-.54l.14-.1.13-.09c.27-.18.57-.38.85-.6l.17-.13.13-.11.06,0c.23-.19.48-.38.71-.58l.2-.18.13-.13.11-.1c.19-.17.39-.35.57-.53l.21-.23.14-.15.12-.12.47-.51.24-.3c0-.06.09-.12.14-.17l.13-.17a5.46,5.46,0,0,0,.36-.45l.27-.38.13-.19c0-.07.09-.13.13-.19l.27-.38.26-.44a1.28,1.28,0,0,1,.11-.2l.12-.2c.08-.12.15-.25.22-.38s.18-.34.26-.52.07-.13.1-.2.07-.13.1-.2.11-.22.17-.33v-.11h0s.39-.83.52-1.23h0l.07-.2h0a2,2,0,0,0,.08-.26h0l.08-.22h0c0-.08.05-.16.08-.25v0l.06-.2h0l.06-.24v0l.06-.21h0l.06-.23v0c0-.05,0-.11,0-.17v0h0a1.89,1.89,0,0,0,0-.23h0l.06-.26h0a30.21,30.21,0,0,0,.77-6.79c0-3.54-1.39-7.85-4.15-12.82,0,.21-.08.41-.13.61l0,.21a1.18,1.18,0,0,0,0,.2C642.33,238.49,642.31,238.6,642.29,238.71Z" transform="translate(-105.28 -19.19)"/>
  <path class="cls-2" d="M619.87,209.88l0,.06c.27.4.54.84.79,1.28l.06.09,0,.1c.24.43.47.88.7,1.37l.12.28c.22.49.41,1,.58,1.42a.56.56,0,0,0,0,.12s0,.05,0,.08c.17.49.32,1,.45,1.45v.05a.24.24,0,0,1,0,.08c.12.46.23,1,.33,1.53l0,.09a1.42,1.42,0,0,0,0,.2c.08.51.15,1,.19,1.53a.86.86,0,0,1,0,.16.45.45,0,0,1,0,.11c0,.6.07,1.13.07,1.63A20.69,20.69,0,0,1,617.51,236h0l-.36.37c1,1,8.94,8.4,8.94,13.12a9.14,9.14,0,0,1-6.23,8.67l.51-.07.21,0,1.08-.17.69-.14.16,0,1.07-.25.83-.25c.3-.09.67-.2,1-.33s.57-.2.8-.3l1-.4.78-.36c.34-.16.65-.32,1-.48l.75-.41.91-.55.73-.47.86-.61.69-.52.81-.67,0,0c.2-.17.41-.34.6-.52s.54-.51.76-.74l.12-.11.49-.5c.24-.25.47-.52.69-.77l.14-.17.44-.51c.2-.25.4-.52.59-.77l.06-.09.14-.19.37-.5c.17-.25.34-.52.5-.78l.1-.15.15-.23a5.55,5.55,0,0,0,.29-.48c.17-.29.33-.59.48-.88l.08-.14c0-.09.09-.17.13-.25l.24-.45c.17-.36.33-.73.48-1.09l0-.11a2.56,2.56,0,0,1,.11-.24l.15-.36c.25-.63.47-1.27.67-1.88s.3-1.05.43-1.59c0-.12.05-.25.08-.38a2,2,0,0,1,0-.24l0-.22c.06-.25.11-.5.16-.76-2.18-3.86-8.77-14.26-23.26-28.15.27.34.5.66.72,1Z" transform="translate(-105.28 -19.19)"/>
  <g>
    <path class="cls-1" d="M525.79,340.93c0,5.57-3.82,11.56-12.74,11.56H495.8V312.05h16c7.22,0,11.86,4.35,11.86,10.45,0,3-1.18,7-5.58,8.39C523.26,331.77,525.79,336.35,525.79,340.93ZM504,319.27v8.86h7.39c2.58,0,4.17-1.7,4.17-4.46,0-2.46-1.29-4.4-4.17-4.4Zm13.61,20.84c0-2.53-1.7-5.17-5.57-5.17h-8v10.33h7.92C515.69,345.27,517.57,342.81,517.57,340.11Z" transform="translate(-105.28 -19.19)"/>
    <path class="cls-1" d="M552,325.32l-1.76,7.33a7.94,7.94,0,0,0-3.93-1c-3.93,0-6.63,3.63-6.63,11.44v9.39H532V325.14h7.63V331c1.53-4.58,4.64-6.51,8-6.51A9.67,9.67,0,0,1,552,325.32Z" transform="translate(-105.28 -19.19)"/>
    <path class="cls-1" d="M583.72,325.14v27.35H576v-3.41c-1.94,2.7-5.75,3.94-8.8,3.94-7.05,0-13.44-5.46-13.44-14.26s6.39-14.26,13.44-14.26c3.17,0,6.86,1.17,8.8,3.93v-3.29Zm-7.93,13.62a7.1,7.1,0,1,0-7.1,7.1A7.07,7.07,0,0,0,575.79,338.76Z" transform="translate(-105.28 -19.19)"/>
    <path class="cls-1" d="M618.23,337.46v15h-7.69v-14.2c0-4.35-2.58-6.28-5.22-6.28s-6.16,1.46-6.16,6.45v14h-7.69V325.14h7.69v4.58c1.17-3.7,5.51-5.28,8.21-5.28C614.53,324.44,618.29,329.25,618.23,337.46Z" transform="translate(-105.28 -19.19)"/>
    <path class="cls-1" d="M653.91,310.53v42h-7.69v-3.41c-1.93,2.7-5.75,3.94-8.8,3.94-7,0-13.44-5.46-13.44-14.26s6.4-14.26,13.44-14.26c3.17,0,6.87,1.17,8.8,3.93v-17.9ZM646,338.76a7.1,7.1,0,1,0-7.1,7.1A7.07,7.07,0,0,0,646,338.76Z" transform="translate(-105.28 -19.19)"/>
    <path class="cls-1" d="M660.61,315.63a4.88,4.88,0,1,1,4.87,4.64A4.77,4.77,0,0,1,660.61,315.63Zm1,9.51h7.69v27.35h-7.69Z" transform="translate(-105.28 -19.19)"/>
    <path class="cls-1" d="M703.86,337.46v15h-7.69v-14.2c0-4.35-2.58-6.28-5.22-6.28s-6.16,1.46-6.16,6.45v14H677.1V325.14h7.69v4.58c1.17-3.7,5.51-5.28,8.21-5.28C700.16,324.44,703.92,329.25,703.86,337.46Z" transform="translate(-105.28 -19.19)"/>
    <path class="cls-1" d="M739.54,325.14v23.59c0,12-6,17.55-15.73,17.55A14.56,14.56,0,0,1,710.49,358l6.4-2.76a7.82,7.82,0,0,0,6.92,4.22c4.93,0,8-2.7,8-9.86v-.41c-2,2.64-5.75,3.88-8.8,3.88-7,0-13.44-5.46-13.44-14.26s6.4-14.26,13.44-14.26c3.11,0,6.81,1.23,8.8,3.87v-3.23Zm-7.92,13.62a7.1,7.1,0,1,0-7.1,7.1A7.07,7.07,0,0,0,731.62,338.76Z" transform="translate(-105.28 -19.19)"/>
    <path class="cls-1" d="M467.69,391a20.56,20.56,0,0,1,20.65-20.77,20,20,0,0,1,15,6.45l-5.93,5.11a12.31,12.31,0,0,0-9-4c-7,0-12.5,6-12.5,13.2s5.46,13.44,12.5,13.44c5.29,0,9.45-2.52,10.51-6.75a4.22,4.22,0,0,0,.23-1H487.64v-6.64H508c0,15-8,21.66-19.66,21.66A20.55,20.55,0,0,1,467.69,391Z" transform="translate(-105.28 -19.19)"/>
    <path class="cls-1" d="M539.82,383.83v27.35h-7.69v-4.46c-1.18,3.58-5.52,5.11-8.22,5.11-7.16,0-10.91-4.76-10.85-13v-15h7.68V398c0,4.28,2.59,6.22,5.23,6.22s6.16-1.47,6.16-6.4v-14Z" transform="translate(-105.28 -19.19)"/>
    <path class="cls-1" d="M546.51,374.33a4.88,4.88,0,1,1,4.87,4.63A4.77,4.77,0,0,1,546.51,374.33Zm1.06,9.5h7.68v27.35h-7.68Z" transform="translate(-105.28 -19.19)"/>
    <path class="cls-1" d="M591.29,369.22v42H583.6v-3.4c-1.94,2.7-5.75,3.93-8.8,3.93-7,0-13.44-5.46-13.44-14.26s6.39-14.26,13.44-14.26c3.17,0,6.86,1.17,8.8,3.93v-17.9Zm-7.93,28.23a7.1,7.1,0,1,0-7.1,7.1A7.06,7.06,0,0,0,583.36,397.45Z" transform="translate(-105.28 -19.19)"/>
    <path class="cls-1" d="M626,400H605.38c.82,3.17,3.4,4.93,7.1,4.93a9.51,9.51,0,0,0,7.16-3l4.52,4.52c-2.59,3.46-7.4,5.34-12.21,5.34-8.39,0-14.55-5.75-14.55-14.2,0-8.86,6.68-14.38,14.55-14.38s14.2,5.52,14.2,13.91C626.15,397.8,626.09,398.74,626,400Zm-7.57-5c-.23-3.22-2.93-5.16-6.39-5.16-3.11,0-5.87,1.47-6.69,5.16Z" transform="translate(-105.28 -19.19)"/>
    <path class="cls-1" d="M632.08,369.22h7.69v42h-7.69Z" transform="translate(-105.28 -19.19)"/>
    <path class="cls-1" d="M646.46,374.33a4.88,4.88,0,1,1,4.87,4.63A4.77,4.77,0,0,1,646.46,374.33Zm1.06,9.5h7.68v27.35h-7.68Z" transform="translate(-105.28 -19.19)"/>
    <path class="cls-1" d="M689.71,396.16v15H682V397c0-4.34-2.58-6.28-5.22-6.28s-6.16,1.47-6.16,6.46v14H663V383.83h7.69v4.58c1.17-3.7,5.52-5.28,8.22-5.28C686,383.13,689.77,387.94,689.71,396.16Z" transform="translate(-105.28 -19.19)"/>
    <path class="cls-1" d="M724.1,400H703.45c.82,3.17,3.4,4.93,7.1,4.93a9.51,9.51,0,0,0,7.16-3l4.52,4.52c-2.59,3.46-7.4,5.34-12.21,5.34-8.39,0-14.55-5.75-14.55-14.2,0-8.86,6.69-14.38,14.55-14.38s14.2,5.52,14.2,13.91C724.22,397.8,724.16,398.74,724.1,400Zm-7.57-5c-.23-3.22-2.93-5.16-6.39-5.16-3.11,0-5.87,1.47-6.69,5.16Z" transform="translate(-105.28 -19.19)"/>
    <path class="cls-1" d="M728.45,402.38h7.22c0,1.58,1.35,3.28,4.05,3.28,2.23,0,3.93-.93,3.93-2.52,0-1.17-.94-1.76-3-2.29L737,400c-7-1.88-8-5.81-8-8.68,0-4.23,4.4-8.16,10.74-8.16,5,0,10.85,2.46,10.8,8.92h-7.34c0-1.82-1.53-2.82-3.35-2.82s-3.16.88-3.16,2.29,1.17,1.94,2.69,2.35l4.52,1.17c6.58,1.76,7.4,5.87,7.4,8.1,0,5.75-5.87,8.57-11.5,8.57S728.51,408.42,728.45,402.38Z" transform="translate(-105.28 -19.19)"/>
    <path class="cls-1" d="M756.39,407a4.75,4.75,0,0,1,4.87-4.7,4.73,4.73,0,1,1,0,9.45A4.76,4.76,0,0,1,756.39,407Z" transform="translate(-105.28 -19.19)"/>
  </g>
  <path class="cls-1" d="M643.62,263.38a.41.41,0,0,1-.07.11,1,1,0,0,1-.08.14c-.25.38-.51.76-.78,1.12a1.34,1.34,0,0,0-.11.14l-.09.11-.65.81-.21.22-.12.14-.59.63-.27.25-.13.12,0,0c-.19.17-.37.35-.57.52l-.35.3-.08.07-.61.48-.39.29-.08.06-.62.43-.5.32-.65.38-.52.29-.68.34-.54.25-.69.29-.06,0-.5.19-.73.25-.12,0-.44.13c-.25.08-.51.14-.76.2l-.14,0-.41.1-.73.13h-.09l-.16,0-.37.07c-.29,0-.58.06-.87.09h0l-.19,0-.27,0c-.47,0-.94.05-1.38.05A19.65,19.65,0,0,1,607.3,253a10.69,10.69,0,0,1,.14-2,21.2,21.2,0,0,1,.46-2.44,3.9,3.9,0,0,1,.12-.46c0-.05,0-.1,0-.14l.09-.35v0c1.39-4.12,6.57-9.27,8.12-10.75.21-.19.4-.36.58-.54l.46-.46a20.4,20.4,0,0,0,5.83-14.33c0-.34,0-.69,0-1,0-.07,0-.14,0-.2s0-.09,0-.14v-.06c0-.21,0-.42-.05-.63l0-.25s0-.09,0-.14v-.12l-.06-.5c0-.09,0-.18,0-.26l0-.17,0-.13c0-.14-.05-.29-.08-.44l-.06-.3a.57.57,0,0,1,0-.14l0-.11c0-.15-.07-.3-.1-.44l-.08-.29,0-.15,0-.1-.12-.43c0-.11-.07-.21-.1-.31l-.09-.26c0-.13-.09-.26-.13-.39s-.08-.21-.13-.32l0-.15c-.06-.15-.12-.31-.19-.46a3.49,3.49,0,0,0-.15-.34l-.07-.17c-.06-.13-.12-.27-.19-.41a3.59,3.59,0,0,0-.17-.34l-.07-.14c-.07-.14-.14-.28-.22-.42l-.17-.31-.08-.13c-.08-.14-.16-.29-.25-.43s-.14-.24-.22-.36l-.07-.1-.25-.39-.22-.32-.06-.08-.31-.43-.3-.39-.34-.41c-.1-.13-.21-.25-.32-.37l-.36-.41-.33-.35a1.14,1.14,0,0,0-.11-.11c.06.17.11.34.16.51l0,.11a.5.5,0,0,0,0,.13s0,.11.05.16a1.6,1.6,0,0,1,0,.21.57.57,0,0,0,0,.14A13.84,13.84,0,0,1,608.44,225h-.07l-.06,0-.16.05V225a13.49,13.49,0,0,0-2.56-6.54v0h0l0,0h0c-2,2.22-3.9,4.42-5.61,6.54A90.51,90.51,0,0,0,591.5,237c-.26.46-.51.92-.75,1.37l-.53,1.05c-2,4.09-3.05,7.69-3.05,10.72a30,30,0,0,0,1,7.55c.11.42.24.83.36,1.24a30,30,0,0,0,9.93,14.5l.53.41a1.09,1.09,0,0,0,.17.13,29.89,29.89,0,0,0,37.46-1.47l.06-.05c.2-.17.4-.36.6-.54s.69-.65,1-1l.11-.11a29.85,29.85,0,0,0,5.36-7.66Z" transform="translate(-105.28 -19.19)"/>
  <path class="cls-2" d="M642.29,238.71c-.14.54-.28,1.06-.43,1.55a26.09,26.09,0,0,1-23.94,18.35,9.14,9.14,0,0,1-10.09-8.38v0a15.41,15.41,0,0,0-.26,2.71,26.28,26.28,0,0,0,.38,3.85,19.45,19.45,0,0,0,19,15.54c.47,0,.95,0,1.42-.06l.2,0,.17,0h.07c.32,0,.64-.05,1-.1l.23,0,.17,0h.08l.89-.16.21-.06.17,0,.07,0,.89-.23.14-.05.11,0c.33-.1.7-.22,1.07-.36l.11,0,.1-.05c.31-.12.69-.27,1.06-.44l.12-.06.09-.05c.33-.16.67-.32,1-.51l.16-.09.12-.08c.31-.17.61-.35.91-.54l.14-.1.13-.09c.27-.18.57-.38.85-.6l.17-.13.13-.11.06,0c.23-.19.48-.38.71-.58l.2-.18.13-.13.11-.1c.19-.17.39-.35.57-.53l.21-.23.14-.15.12-.12.47-.51.24-.3c0-.06.09-.12.14-.17l.13-.17a5.46,5.46,0,0,0,.36-.45l.27-.38.13-.19c0-.07.09-.13.13-.19l.27-.38.26-.44a1.28,1.28,0,0,1,.11-.2l.12-.2c.08-.12.15-.25.22-.38s.18-.34.26-.52.07-.13.1-.2.07-.13.1-.2.11-.22.17-.33v-.11h0s.39-.83.52-1.23h0l.07-.2h0a2,2,0,0,0,.08-.26h0l.08-.22h0c0-.08.05-.16.08-.25v0l.06-.2h0l.06-.24v0l.06-.21h0l.06-.23v0c0-.05,0-.11,0-.17v0h0a1.89,1.89,0,0,0,0-.23h0l.06-.26h0a30.21,30.21,0,0,0,.77-6.79c0-3.54-1.39-7.85-4.15-12.82,0,.21-.08.41-.13.61l0,.21a1.18,1.18,0,0,0,0,.2C642.33,238.49,642.31,238.6,642.29,238.71Z" transform="translate(-105.28 -19.19)"/>
  <path class="cls-2" d="M619.87,209.88l0,.06c.27.4.54.84.79,1.28l.06.09,0,.1c.24.43.47.88.7,1.37l.12.28c.22.49.41,1,.58,1.42a.56.56,0,0,0,0,.12s0,.05,0,.08c.17.49.32,1,.45,1.45v.05a.24.24,0,0,1,0,.08c.12.46.23,1,.33,1.53l0,.09a1.42,1.42,0,0,0,0,.2c.08.51.15,1,.19,1.53a.86.86,0,0,1,0,.16.45.45,0,0,1,0,.11c0,.6.07,1.13.07,1.63A20.69,20.69,0,0,1,617.51,236h0l-.36.37c1,1,8.94,8.4,8.94,13.12a9.14,9.14,0,0,1-6.23,8.67l.51-.07.21,0,1.08-.17.69-.14.16,0,1.07-.25.83-.25c.3-.09.67-.2,1-.33s.57-.2.8-.3l1-.4.78-.36c.34-.16.65-.32,1-.48l.75-.41.91-.55.73-.47.86-.61.69-.52.81-.67,0,0c.2-.17.41-.34.6-.52s.54-.51.76-.74l.12-.11.49-.5c.24-.25.47-.52.69-.77l.14-.17.44-.51c.2-.25.4-.52.59-.77l.06-.09.14-.19.37-.5c.17-.25.34-.52.5-.78l.1-.15.15-.23a5.55,5.55,0,0,0,.29-.48c.17-.29.33-.59.48-.88l.08-.14c0-.09.09-.17.13-.25l.24-.45c.17-.36.33-.73.48-1.09l0-.11a2.56,2.56,0,0,1,.11-.24l.15-.36c.25-.63.47-1.27.67-1.88s.3-1.05.43-1.59c0-.12.05-.25.08-.38a2,2,0,0,1,0-.24l0-.22c.06-.25.11-.5.16-.76-2.18-3.86-8.77-14.26-23.26-28.15.27.34.5.66.72,1Z" transform="translate(-105.28 -19.19)"/>
  <g>
    <path class="cls-1" d="M525.79,340.93c0,5.57-3.82,11.56-12.74,11.56H495.8V312.05h16c7.22,0,11.86,4.35,11.86,10.45,0,3-1.18,7-5.58,8.39C523.26,331.77,525.79,336.35,525.79,340.93ZM504,319.27v8.86h7.39c2.58,0,4.17-1.7,4.17-4.46,0-2.46-1.29-4.4-4.17-4.4Zm13.61,20.84c0-2.53-1.7-5.17-5.57-5.17h-8v10.33h7.92C515.69,345.27,517.57,342.81,517.57,340.11Z" transform="translate(-105.28 -19.19)"/>
    <path class="cls-1" d="M552,325.32l-1.76,7.33a7.94,7.94,0,0,0-3.93-1c-3.93,0-6.63,3.63-6.63,11.44v9.39H532V325.14h7.63V331c1.53-4.58,4.64-6.51,8-6.51A9.67,9.67,0,0,1,552,325.32Z" transform="translate(-105.28 -19.19)"/>
    <path class="cls-1" d="M583.72,325.14v27.35H576v-3.41c-1.94,2.7-5.75,3.94-8.8,3.94-7.05,0-13.44-5.46-13.44-14.26s6.39-14.26,13.44-14.26c3.17,0,6.86,1.17,8.8,3.93v-3.29Zm-7.93,13.62a7.1,7.1,0,1,0-7.1,7.1A7.07,7.07,0,0,0,575.79,338.76Z" transform="translate(-105.28 -19.19)"/>
    <path class="cls-1" d="M618.23,337.46v15h-7.69v-14.2c0-4.35-2.58-6.28-5.22-6.28s-6.16,1.46-6.16,6.45v14h-7.69V325.14h7.69v4.58c1.17-3.7,5.51-5.28,8.21-5.28C614.53,324.44,618.29,329.25,618.23,337.46Z" transform="translate(-105.28 -19.19)"/>
    <path class="cls-1" d="M653.91,310.53v42h-7.69v-3.41c-1.93,2.7-5.75,3.94-8.8,3.94-7,0-13.44-5.46-13.44-14.26s6.4-14.26,13.44-14.26c3.17,0,6.87,1.17,8.8,3.93v-17.9ZM646,338.76a7.1,7.1,0,1,0-7.1,7.1A7.07,7.07,0,0,0,646,338.76Z" transform="translate(-105.28 -19.19)"/>
    <path class="cls-1" d="M660.61,315.63a4.88,4.88,0,1,1,4.87,4.64A4.77,4.77,0,0,1,660.61,315.63Zm1,9.51h7.69v27.35h-7.69Z" transform="translate(-105.28 -19.19)"/>
    <path class="cls-1" d="M703.86,337.46v15h-7.69v-14.2c0-4.35-2.58-6.28-5.22-6.28s-6.16,1.46-6.16,6.45v14H677.1V325.14h7.69v4.58c1.17-3.7,5.51-5.28,8.21-5.28C700.16,324.44,703.92,329.25,703.86,337.46Z" transform="translate(-105.28 -19.19)"/>
    <path class="cls-1" d="M739.54,325.14v23.59c0,12-6,17.55-15.73,17.55A14.56,14.56,0,0,1,710.49,358l6.4-2.76a7.82,7.82,0,0,0,6.92,4.22c4.93,0,8-2.7,8-9.86v-.41c-2,2.64-5.75,3.88-8.8,3.88-7,0-13.44-5.46-13.44-14.26s6.4-14.26,13.44-14.26c3.11,0,6.81,1.23,8.8,3.87v-3.23Zm-7.92,13.62a7.1,7.1,0,1,0-7.1,7.1A7.07,7.07,0,0,0,731.62,338.76Z" transform="translate(-105.28 -19.19)"/>
    <path class="cls-1" d="M467.69,391a20.56,20.56,0,0,1,20.65-20.77,20,20,0,0,1,15,6.45l-5.93,5.11a12.31,12.31,0,0,0-9-4c-7,0-12.5,6-12.5,13.2s5.46,13.44,12.5,13.44c5.29,0,9.45-2.52,10.51-6.75a4.22,4.22,0,0,0,.23-1H487.64v-6.64H508c0,15-8,21.66-19.66,21.66A20.55,20.55,0,0,1,467.69,391Z" transform="translate(-105.28 -19.19)"/>
    <path class="cls-1" d="M539.82,383.83v27.35h-7.69v-4.46c-1.18,3.58-5.52,5.11-8.22,5.11-7.16,0-10.91-4.76-10.85-13v-15h7.68V398c0,4.28,2.59,6.22,5.23,6.22s6.16-1.47,6.16-6.4v-14Z" transform="translate(-105.28 -19.19)"/>
    <path class="cls-1" d="M546.51,374.33a4.88,4.88,0,1,1,4.87,4.63A4.77,4.77,0,0,1,546.51,374.33Zm1.06,9.5h7.68v27.35h-7.68Z" transform="translate(-105.28 -19.19)"/>
    <path class="cls-1" d="M591.29,369.22v42H583.6v-3.4c-1.94,2.7-5.75,3.93-8.8,3.93-7,0-13.44-5.46-13.44-14.26s6.39-14.26,13.44-14.26c3.17,0,6.86,1.17,8.8,3.93v-17.9Zm-7.93,28.23a7.1,7.1,0,1,0-7.1,7.1A7.06,7.06,0,0,0,583.36,397.45Z" transform="translate(-105.28 -19.19)"/>
    <path class="cls-1" d="M626,400H605.38c.82,3.17,3.4,4.93,7.1,4.93a9.51,9.51,0,0,0,7.16-3l4.52,4.52c-2.59,3.46-7.4,5.34-12.21,5.34-8.39,0-14.55-5.75-14.55-14.2,0-8.86,6.68-14.38,14.55-14.38s14.2,5.52,14.2,13.91C626.15,397.8,626.09,398.74,626,400Zm-7.57-5c-.23-3.22-2.93-5.16-6.39-5.16-3.11,0-5.87,1.47-6.69,5.16Z" transform="translate(-105.28 -19.19)"/>
    <path class="cls-1" d="M632.08,369.22h7.69v42h-7.69Z" transform="translate(-105.28 -19.19)"/>
    <path class="cls-1" d="M646.46,374.33a4.88,4.88,0,1,1,4.87,4.63A4.77,4.77,0,0,1,646.46,374.33Zm1.06,9.5h7.68v27.35h-7.68Z" transform="translate(-105.28 -19.19)"/>
    <path class="cls-1" d="M689.71,396.16v15H682V397c0-4.34-2.58-6.28-5.22-6.28s-6.16,1.47-6.16,6.46v14H663V383.83h7.69v4.58c1.17-3.7,5.52-5.28,8.22-5.28C686,383.13,689.77,387.94,689.71,396.16Z" transform="translate(-105.28 -19.19)"/>
    <path class="cls-1" d="M724.1,400H703.45c.82,3.17,3.4,4.93,7.1,4.93a9.51,9.51,0,0,0,7.16-3l4.52,4.52c-2.59,3.46-7.4,5.34-12.21,5.34-8.39,0-14.55-5.75-14.55-14.2,0-8.86,6.69-14.38,14.55-14.38s14.2,5.52,14.2,13.91C724.22,397.8,724.16,398.74,724.1,400Zm-7.57-5c-.23-3.22-2.93-5.16-6.39-5.16-3.11,0-5.87,1.47-6.69,5.16Z" transform="translate(-105.28 -19.19)"/>
    <path class="cls-1" d="M728.45,402.38h7.22c0,1.58,1.35,3.28,4.05,3.28,2.23,0,3.93-.93,3.93-2.52,0-1.17-.94-1.76-3-2.29L737,400c-7-1.88-8-5.81-8-8.68,0-4.23,4.4-8.16,10.74-8.16,5,0,10.85,2.46,10.8,8.92h-7.34c0-1.82-1.53-2.82-3.35-2.82s-3.16.88-3.16,2.29,1.17,1.94,2.69,2.35l4.52,1.17c6.58,1.76,7.4,5.87,7.4,8.1,0,5.75-5.87,8.57-11.5,8.57S728.51,408.42,728.45,402.38Z" transform="translate(-105.28 -19.19)"/>
    <path class="cls-1" d="M756.39,407a4.75,4.75,0,0,1,4.87-4.7,4.73,4.73,0,1,1,0,9.45A4.76,4.76,0,0,1,756.39,407Z" transform="translate(-105.28 -19.19)"/>
  </g>
  <path class="cls-1" d="M643.62,263.38a.41.41,0,0,1-.07.11,1,1,0,0,1-.08.14c-.25.38-.51.76-.78,1.12a1.34,1.34,0,0,0-.11.14l-.09.11-.65.81-.21.22-.12.14-.59.63-.27.25-.13.12,0,0c-.19.17-.37.35-.57.52l-.35.3-.08.07-.61.48-.39.29-.08.06-.62.43-.5.32-.65.38-.52.29-.68.34-.54.25-.69.29-.06,0-.5.19-.73.25-.12,0-.44.13c-.25.08-.51.14-.76.2l-.14,0-.41.1-.73.13h-.09l-.16,0-.37.07c-.29,0-.58.06-.87.09h0l-.19,0-.27,0c-.47,0-.94.05-1.38.05A19.65,19.65,0,0,1,607.3,253a10.69,10.69,0,0,1,.14-2,21.2,21.2,0,0,1,.46-2.44,3.9,3.9,0,0,1,.12-.46c0-.05,0-.1,0-.14l.09-.35v0c1.39-4.12,6.57-9.27,8.12-10.75.21-.19.4-.36.58-.54l.46-.46a20.4,20.4,0,0,0,5.83-14.33c0-.34,0-.69,0-1,0-.07,0-.14,0-.2s0-.09,0-.14v-.06c0-.21,0-.42-.05-.63l0-.25s0-.09,0-.14v-.12l-.06-.5c0-.09,0-.18,0-.26l0-.17,0-.13c0-.14-.05-.29-.08-.44l-.06-.3a.57.57,0,0,1,0-.14l0-.11c0-.15-.07-.3-.1-.44l-.08-.29,0-.15,0-.1-.12-.43c0-.11-.07-.21-.1-.31l-.09-.26c0-.13-.09-.26-.13-.39s-.08-.21-.13-.32l0-.15c-.06-.15-.12-.31-.19-.46a3.49,3.49,0,0,0-.15-.34l-.07-.17c-.06-.13-.12-.27-.19-.41a3.59,3.59,0,0,0-.17-.34l-.07-.14c-.07-.14-.14-.28-.22-.42l-.17-.31-.08-.13c-.08-.14-.16-.29-.25-.43s-.14-.24-.22-.36l-.07-.1-.25-.39-.22-.32-.06-.08-.31-.43-.3-.39-.34-.41c-.1-.13-.21-.25-.32-.37l-.36-.41-.33-.35a1.14,1.14,0,0,0-.11-.11c.06.17.11.34.16.51l0,.11a.5.5,0,0,0,0,.13s0,.11.05.16a1.6,1.6,0,0,1,0,.21.57.57,0,0,0,0,.14A13.84,13.84,0,0,1,608.44,225h-.07l-.06,0-.16.05V225a13.49,13.49,0,0,0-2.56-6.54v0h0l0,0h0c-2,2.22-3.9,4.42-5.61,6.54A90.51,90.51,0,0,0,591.5,237c-.26.46-.51.92-.75,1.37l-.53,1.05c-2,4.09-3.05,7.69-3.05,10.72a30,30,0,0,0,1,7.55c.11.42.24.83.36,1.24a30,30,0,0,0,9.93,14.5l.53.41a1.09,1.09,0,0,0,.17.13,29.89,29.89,0,0,0,37.46-1.47l.06-.05c.2-.17.4-.36.6-.54s.69-.65,1-1l.11-.11a29.85,29.85,0,0,0,5.36-7.66Z" transform="translate(-105.28 -19.19)"/>
  <path class="cls-2" d="M642.29,238.71c-.14.54-.28,1.06-.43,1.55a26.09,26.09,0,0,1-23.94,18.35,9.14,9.14,0,0,1-10.09-8.38v0a15.41,15.41,0,0,0-.26,2.71,26.28,26.28,0,0,0,.38,3.85,19.45,19.45,0,0,0,19,15.54c.47,0,.95,0,1.42-.06l.2,0,.17,0h.07c.32,0,.64-.05,1-.1l.23,0,.17,0h.08l.89-.16.21-.06.17,0,.07,0,.89-.23.14-.05.11,0c.33-.1.7-.22,1.07-.36l.11,0,.1-.05c.31-.12.69-.27,1.06-.44l.12-.06.09-.05c.33-.16.67-.32,1-.51l.16-.09.12-.08c.31-.17.61-.35.91-.54l.14-.1.13-.09c.27-.18.57-.38.85-.6l.17-.13.13-.11.06,0c.23-.19.48-.38.71-.58l.2-.18.13-.13.11-.1c.19-.17.39-.35.57-.53l.21-.23.14-.15.12-.12.47-.51.24-.3c0-.06.09-.12.14-.17l.13-.17a5.46,5.46,0,0,0,.36-.45l.27-.38.13-.19c0-.07.09-.13.13-.19l.27-.38.26-.44a1.28,1.28,0,0,1,.11-.2l.12-.2c.08-.12.15-.25.22-.38s.18-.34.26-.52.07-.13.1-.2.07-.13.1-.2.11-.22.17-.33v-.11h0s.39-.83.52-1.23h0l.07-.2h0a2,2,0,0,0,.08-.26h0l.08-.22h0c0-.08.05-.16.08-.25v0l.06-.2h0l.06-.24v0l.06-.21h0l.06-.23v0c0-.05,0-.11,0-.17v0h0a1.89,1.89,0,0,0,0-.23h0l.06-.26h0a30.21,30.21,0,0,0,.77-6.79c0-3.54-1.39-7.85-4.15-12.82,0,.21-.08.41-.13.61l0,.21a1.18,1.18,0,0,0,0,.2C642.33,238.49,642.31,238.6,642.29,238.71Z" transform="translate(-105.28 -19.19)"/>
  <path class="cls-2" d="M619.87,209.88l0,.06c.27.4.54.84.79,1.28l.06.09,0,.1c.24.43.47.88.7,1.37l.12.28c.22.49.41,1,.58,1.42a.56.56,0,0,0,0,.12s0,.05,0,.08c.17.49.32,1,.45,1.45v.05a.24.24,0,0,1,0,.08c.12.46.23,1,.33,1.53l0,.09a1.42,1.42,0,0,0,0,.2c.08.51.15,1,.19,1.53a.86.86,0,0,1,0,.16.45.45,0,0,1,0,.11c0,.6.07,1.13.07,1.63A20.69,20.69,0,0,1,617.51,236h0l-.36.37c1,1,8.94,8.4,8.94,13.12a9.14,9.14,0,0,1-6.23,8.67l.51-.07.21,0,1.08-.17.69-.14.16,0,1.07-.25.83-.25c.3-.09.67-.2,1-.33s.57-.2.8-.3l1-.4.78-.36c.34-.16.65-.32,1-.48l.75-.41.91-.55.73-.47.86-.61.69-.52.81-.67,0,0c.2-.17.41-.34.6-.52s.54-.51.76-.74l.12-.11.49-.5c.24-.25.47-.52.69-.77l.14-.17.44-.51c.2-.25.4-.52.59-.77l.06-.09.14-.19.37-.5c.17-.25.34-.52.5-.78l.1-.15.15-.23a5.55,5.55,0,0,0,.29-.48c.17-.29.33-.59.48-.88l.08-.14c0-.09.09-.17.13-.25l.24-.45c.17-.36.33-.73.48-1.09l0-.11a2.56,2.56,0,0,1,.11-.24l.15-.36c.25-.63.47-1.27.67-1.88s.3-1.05.43-1.59c0-.12.05-.25.08-.38a2,2,0,0,1,0-.24l0-.22c.06-.25.11-.5.16-.76-2.18-3.86-8.77-14.26-23.26-28.15.27.34.5.66.72,1Z" transform="translate(-105.28 -19.19)"/>
  <g>
    <path class="cls-1" d="M525.79,340.93c0,5.57-3.82,11.56-12.74,11.56H495.8V312.05h16c7.22,0,11.86,4.35,11.86,10.45,0,3-1.18,7-5.58,8.39C523.26,331.77,525.79,336.35,525.79,340.93ZM504,319.27v8.86h7.39c2.58,0,4.17-1.7,4.17-4.46,0-2.46-1.29-4.4-4.17-4.4Zm13.61,20.84c0-2.53-1.7-5.17-5.57-5.17h-8v10.33h7.92C515.69,345.27,517.57,342.81,517.57,340.11Z" transform="translate(-105.28 -19.19)"/>
    <path class="cls-1" d="M552,325.32l-1.76,7.33a7.94,7.94,0,0,0-3.93-1c-3.93,0-6.63,3.63-6.63,11.44v9.39H532V325.14h7.63V331c1.53-4.58,4.64-6.51,8-6.51A9.67,9.67,0,0,1,552,325.32Z" transform="translate(-105.28 -19.19)"/>
    <path class="cls-1" d="M583.72,325.14v27.35H576v-3.41c-1.94,2.7-5.75,3.94-8.8,3.94-7.05,0-13.44-5.46-13.44-14.26s6.39-14.26,13.44-14.26c3.17,0,6.86,1.17,8.8,3.93v-3.29Zm-7.93,13.62a7.1,7.1,0,1,0-7.1,7.1A7.07,7.07,0,0,0,575.79,338.76Z" transform="translate(-105.28 -19.19)"/>
    <path class="cls-1" d="M618.23,337.46v15h-7.69v-14.2c0-4.35-2.58-6.28-5.22-6.28s-6.16,1.46-6.16,6.45v14h-7.69V325.14h7.69v4.58c1.17-3.7,5.51-5.28,8.21-5.28C614.53,324.44,618.29,329.25,618.23,337.46Z" transform="translate(-105.28 -19.19)"/>
    <path class="cls-1" d="M653.91,310.53v42h-7.69v-3.41c-1.93,2.7-5.75,3.94-8.8,3.94-7,0-13.44-5.46-13.44-14.26s6.4-14.26,13.44-14.26c3.17,0,6.87,1.17,8.8,3.93v-17.9ZM646,338.76a7.1,7.1,0,1,0-7.1,7.1A7.07,7.07,0,0,0,646,338.76Z" transform="translate(-105.28 -19.19)"/>
    <path class="cls-1" d="M660.61,315.63a4.88,4.88,0,1,1,4.87,4.64A4.77,4.77,0,0,1,660.61,315.63Zm1,9.51h7.69v27.35h-7.69Z" transform="translate(-105.28 -19.19)"/>
    <path class="cls-1" d="M703.86,337.46v15h-7.69v-14.2c0-4.35-2.58-6.28-5.22-6.28s-6.16,1.46-6.16,6.45v14H677.1V325.14h7.69v4.58c1.17-3.7,5.51-5.28,8.21-5.28C700.16,324.44,703.92,329.25,703.86,337.46Z" transform="translate(-105.28 -19.19)"/>
    <path class="cls-1" d="M739.54,325.14v23.59c0,12-6,17.55-15.73,17.55A14.56,14.56,0,0,1,710.49,358l6.4-2.76a7.82,7.82,0,0,0,6.92,4.22c4.93,0,8-2.7,8-9.86v-.41c-2,2.64-5.75,3.88-8.8,3.88-7,0-13.44-5.46-13.44-14.26s6.4-14.26,13.44-14.26c3.11,0,6.81,1.23,8.8,3.87v-3.23Zm-7.92,13.62a7.1,7.1,0,1,0-7.1,7.1A7.07,7.07,0,0,0,731.62,338.76Z" transform="translate(-105.28 -19.19)"/>
    <path class="cls-1" d="M467.69,391a20.56,20.56,0,0,1,20.65-20.77,20,20,0,0,1,15,6.45l-5.93,5.11a12.31,12.31,0,0,0-9-4c-7,0-12.5,6-12.5,13.2s5.46,13.44,12.5,13.44c5.29,0,9.45-2.52,10.51-6.75a4.22,4.22,0,0,0,.23-1H487.64v-6.64H508c0,15-8,21.66-19.66,21.66A20.55,20.55,0,0,1,467.69,391Z" transform="translate(-105.28 -19.19)"/>
    <path class="cls-1" d="M539.82,383.83v27.35h-7.69v-4.46c-1.18,3.58-5.52,5.11-8.22,5.11-7.16,0-10.91-4.76-10.85-13v-15h7.68V398c0,4.28,2.59,6.22,5.23,6.22s6.16-1.47,6.16-6.4v-14Z" transform="translate(-105.28 -19.19)"/>
    <path class="cls-1" d="M546.51,374.33a4.88,4.88,0,1,1,4.87,4.63A4.77,4.77,0,0,1,546.51,374.33Zm1.06,9.5h7.68v27.35h-7.68Z" transform="translate(-105.28 -19.19)"/>
    <path class="cls-1" d="M591.29,369.22v42H583.6v-3.4c-1.94,2.7-5.75,3.93-8.8,3.93-7,0-13.44-5.46-13.44-14.26s6.39-14.26,13.44-14.26c3.17,0,6.86,1.17,8.8,3.93v-17.9Zm-7.93,28.23a7.1,7.1,0,1,0-7.1,7.1A7.06,7.06,0,0,0,583.36,397.45Z" transform="translate(-105.28 -19.19)"/>
    <path class="cls-1" d="M626,400H605.38c.82,3.17,3.4,4.93,7.1,4.93a9.51,9.51,0,0,0,7.16-3l4.52,4.52c-2.59,3.46-7.4,5.34-12.21,5.34-8.39,0-14.55-5.75-14.55-14.2,0-8.86,6.68-14.38,14.55-14.38s14.2,5.52,14.2,13.91C626.15,397.8,626.09,398.74,626,400Zm-7.57-5c-.23-3.22-2.93-5.16-6.39-5.16-3.11,0-5.87,1.47-6.69,5.16Z" transform="translate(-105.28 -19.19)"/>
    <path class="cls-1" d="M632.08,369.22h7.69v42h-7.69Z" transform="translate(-105.28 -19.19)"/>
    <path class="cls-1" d="M646.46,374.33a4.88,4.88,0,1,1,4.87,4.63A4.77,4.77,0,0,1,646.46,374.33Zm1.06,9.5h7.68v27.35h-7.68Z" transform="translate(-105.28 -19.19)"/>
    <path class="cls-1" d="M689.71,396.16v15H682V397c0-4.34-2.58-6.28-5.22-6.28s-6.16,1.47-6.16,6.46v14H663V383.83h7.69v4.58c1.17-3.7,5.52-5.28,8.22-5.28C686,383.13,689.77,387.94,689.71,396.16Z" transform="translate(-105.28 -19.19)"/>
    <path class="cls-1" d="M724.1,400H703.45c.82,3.17,3.4,4.93,7.1,4.93a9.51,9.51,0,0,0,7.16-3l4.52,4.52c-2.59,3.46-7.4,5.34-12.21,5.34-8.39,0-14.55-5.75-14.55-14.2,0-8.86,6.69-14.38,14.55-14.38s14.2,5.52,14.2,13.91C724.22,397.8,724.16,398.74,724.1,400Zm-7.57-5c-.23-3.22-2.93-5.16-6.39-5.16-3.11,0-5.87,1.47-6.69,5.16Z" transform="translate(-105.28 -19.19)"/>
    <path class="cls-1" d="M728.45,402.38h7.22c0,1.58,1.35,3.28,4.05,3.28,2.23,0,3.93-.93,3.93-2.52,0-1.17-.94-1.76-3-2.29L737,400c-7-1.88-8-5.81-8-8.68,0-4.23,4.4-8.16,10.74-8.16,5,0,10.85,2.46,10.8,8.92h-7.34c0-1.82-1.53-2.82-3.35-2.82s-3.16.88-3.16,2.29,1.17,1.94,2.69,2.35l4.52,1.17c6.58,1.76,7.4,5.87,7.4,8.1,0,5.75-5.87,8.57-11.5,8.57S728.51,408.42,728.45,402.38Z" transform="translate(-105.28 -19.19)"/>
    <path class="cls-1" d="M756.39,407a4.75,4.75,0,0,1,4.87-4.7,4.73,4.73,0,1,1,0,9.45A4.76,4.76,0,0,1,756.39,407Z" transform="translate(-105.28 -19.19)"/>
  </g>
  <path class="cls-1" d="M643.62,263.38a.41.41,0,0,1-.07.11,1,1,0,0,1-.08.14c-.25.38-.51.76-.78,1.12a1.34,1.34,0,0,0-.11.14l-.09.11-.65.81-.21.22-.12.14-.59.63-.27.25-.13.12,0,0c-.19.17-.37.35-.57.52l-.35.3-.08.07-.61.48-.39.29-.08.06-.62.43-.5.32-.65.38-.52.29-.68.34-.54.25-.69.29-.06,0-.5.19-.73.25-.12,0-.44.13c-.25.08-.51.14-.76.2l-.14,0-.41.1-.73.13h-.09l-.16,0-.37.07c-.29,0-.58.06-.87.09h0l-.19,0-.27,0c-.47,0-.94.05-1.38.05A19.65,19.65,0,0,1,607.3,253a10.69,10.69,0,0,1,.14-2,21.2,21.2,0,0,1,.46-2.44,3.9,3.9,0,0,1,.12-.46c0-.05,0-.1,0-.14l.09-.35v0c1.39-4.12,6.57-9.27,8.12-10.75.21-.19.4-.36.58-.54l.46-.46a20.4,20.4,0,0,0,5.83-14.33c0-.34,0-.69,0-1,0-.07,0-.14,0-.2s0-.09,0-.14v-.06c0-.21,0-.42-.05-.63l0-.25s0-.09,0-.14v-.12l-.06-.5c0-.09,0-.18,0-.26l0-.17,0-.13c0-.14-.05-.29-.08-.44l-.06-.3a.57.57,0,0,1,0-.14l0-.11c0-.15-.07-.3-.1-.44l-.08-.29,0-.15,0-.1-.12-.43c0-.11-.07-.21-.1-.31l-.09-.26c0-.13-.09-.26-.13-.39s-.08-.21-.13-.32l0-.15c-.06-.15-.12-.31-.19-.46a3.49,3.49,0,0,0-.15-.34l-.07-.17c-.06-.13-.12-.27-.19-.41a3.59,3.59,0,0,0-.17-.34l-.07-.14c-.07-.14-.14-.28-.22-.42l-.17-.31-.08-.13c-.08-.14-.16-.29-.25-.43s-.14-.24-.22-.36l-.07-.1-.25-.39-.22-.32-.06-.08-.31-.43-.3-.39-.34-.41c-.1-.13-.21-.25-.32-.37l-.36-.41-.33-.35a1.14,1.14,0,0,0-.11-.11c.06.17.11.34.16.51l0,.11a.5.5,0,0,0,0,.13s0,.11.05.16a1.6,1.6,0,0,1,0,.21.57.57,0,0,0,0,.14A13.84,13.84,0,0,1,608.44,225h-.07l-.06,0-.16.05V225a13.49,13.49,0,0,0-2.56-6.54v0h0l0,0h0c-2,2.22-3.9,4.42-5.61,6.54A90.51,90.51,0,0,0,591.5,237c-.26.46-.51.92-.75,1.37l-.53,1.05c-2,4.09-3.05,7.69-3.05,10.72a30,30,0,0,0,1,7.55c.11.42.24.83.36,1.24a30,30,0,0,0,9.93,14.5l.53.41a1.09,1.09,0,0,0,.17.13,29.89,29.89,0,0,0,37.46-1.47l.06-.05c.2-.17.4-.36.6-.54s.69-.65,1-1l.11-.11a29.85,29.85,0,0,0,5.36-7.66Z" transform="translate(-105.28 -19.19)"/>
  <path class="cls-2" d="M642.29,238.71c-.14.54-.28,1.06-.43,1.55a26.09,26.09,0,0,1-23.94,18.35,9.14,9.14,0,0,1-10.09-8.38v0a15.41,15.41,0,0,0-.26,2.71,26.28,26.28,0,0,0,.38,3.85,19.45,19.45,0,0,0,19,15.54c.47,0,.95,0,1.42-.06l.2,0,.17,0h.07c.32,0,.64-.05,1-.1l.23,0,.17,0h.08l.89-.16.21-.06.17,0,.07,0,.89-.23.14-.05.11,0c.33-.1.7-.22,1.07-.36l.11,0,.1-.05c.31-.12.69-.27,1.06-.44l.12-.06.09-.05c.33-.16.67-.32,1-.51l.16-.09.12-.08c.31-.17.61-.35.91-.54l.14-.1.13-.09c.27-.18.57-.38.85-.6l.17-.13.13-.11.06,0c.23-.19.48-.38.71-.58l.2-.18.13-.13.11-.1c.19-.17.39-.35.57-.53l.21-.23.14-.15.12-.12.47-.51.24-.3c0-.06.09-.12.14-.17l.13-.17a5.46,5.46,0,0,0,.36-.45l.27-.38.13-.19c0-.07.09-.13.13-.19l.27-.38.26-.44a1.28,1.28,0,0,1,.11-.2l.12-.2c.08-.12.15-.25.22-.38s.18-.34.26-.52.07-.13.1-.2.07-.13.1-.2.11-.22.17-.33v-.11h0s.39-.83.52-1.23h0l.07-.2h0a2,2,0,0,0,.08-.26h0l.08-.22h0c0-.08.05-.16.08-.25v0l.06-.2h0l.06-.24v0l.06-.21h0l.06-.23v0c0-.05,0-.11,0-.17v0h0a1.89,1.89,0,0,0,0-.23h0l.06-.26h0a30.21,30.21,0,0,0,.77-6.79c0-3.54-1.39-7.85-4.15-12.82,0,.21-.08.41-.13.61l0,.21a1.18,1.18,0,0,0,0,.2C642.33,238.49,642.31,238.6,642.29,238.71Z" transform="translate(-105.28 -19.19)"/>
  <path class="cls-2" d="M619.87,209.88l0,.06c.27.4.54.84.79,1.28l.06.09,0,.1c.24.43.47.88.7,1.37l.12.28c.22.49.41,1,.58,1.42a.56.56,0,0,0,0,.12s0,.05,0,.08c.17.49.32,1,.45,1.45v.05a.24.24,0,0,1,0,.08c.12.46.23,1,.33,1.53l0,.09a1.42,1.42,0,0,0,0,.2c.08.51.15,1,.19,1.53a.86.86,0,0,1,0,.16.45.45,0,0,1,0,.11c0,.6.07,1.13.07,1.63A20.69,20.69,0,0,1,617.51,236h0l-.36.37c1,1,8.94,8.4,8.94,13.12a9.14,9.14,0,0,1-6.23,8.67l.51-.07.21,0,1.08-.17.69-.14.16,0,1.07-.25.83-.25c.3-.09.67-.2,1-.33s.57-.2.8-.3l1-.4.78-.36c.34-.16.65-.32,1-.48l.75-.41.91-.55.73-.47.86-.61.69-.52.81-.67,0,0c.2-.17.41-.34.6-.52s.54-.51.76-.74l.12-.11.49-.5c.24-.25.47-.52.69-.77l.14-.17.44-.51c.2-.25.4-.52.59-.77l.06-.09.14-.19.37-.5c.17-.25.34-.52.5-.78l.1-.15.15-.23a5.55,5.55,0,0,0,.29-.48c.17-.29.33-.59.48-.88l.08-.14c0-.09.09-.17.13-.25l.24-.45c.17-.36.33-.73.48-1.09l0-.11a2.56,2.56,0,0,1,.11-.24l.15-.36c.25-.63.47-1.27.67-1.88s.3-1.05.43-1.59c0-.12.05-.25.08-.38a2,2,0,0,1,0-.24l0-.22c.06-.25.11-.5.16-.76-2.18-3.86-8.77-14.26-23.26-28.15.27.34.5.66.72,1Z" transform="translate(-105.28 -19.19)"/>
  <path class="cls-3" d="M945,19.19H766.54A321.23,321.23,0,0,1,679.85,187.3c-2.35,2.43-4.82,4.88-7.3,7.28-2.83,2.73-5.79,5.46-9,8.37-24.46,23.33-106,104.5-127.88,169.35l-.1.38c-.17.6-.7,2.52-1.46,5.47-.21.73-.43,1.47-.64,2.21-.72,2.44-1.46,5-1.9,7.29a331.36,331.36,0,0,0-7.3,38.35c-1.79,12.48-2.49,22.92-2.09,31.07a311.9,311.9,0,0,0,6.1,61.24,306.38,306.38,0,0,0,35.09,92.87h531.4v-592Z" transform="translate(-105.28 -19.19)"/>
  <path class="cls-4" d="M402.79,19.19H105.28v592h458a306.38,306.38,0,0,1-35.09-92.87,311.9,311.9,0,0,1-6.1-61.24c-.4-8.15.3-18.59,2.09-31.07a331.36,331.36,0,0,1,7.3-38.35c.44-2.33,1.18-4.85,1.9-7.29.21-.74.43-1.48.64-2.21.76-2.95,1.29-4.87,1.46-5.47l.1-.38C557.51,307.45,639,226.28,663.5,203c3.26-2.91,6.22-5.64,9-8.37,2.48-2.4,5-4.85,7.3-7.28A321.23,321.23,0,0,0,766.54,19.19Z" transform="translate(-105.28 -19.19)"/>
  <path class="cls-4" d="M1046.43,71.31v0Zm-121.93,36,60.29.16-60.44,59.92,25,25.09,61.7-61.16-.16,61.33,34.57.09.91-121.4L924.6,71Z" transform="translate(-105.28 -19.19)"/>
  <g>
    <path class="cls-1" d="M525.79,288.59c0,5.58-3.82,11.56-12.74,11.56H495.8V259.72h16c7.22,0,11.86,4.34,11.86,10.44,0,3-1.18,7-5.58,8.4C523.26,279.44,525.79,284,525.79,288.59ZM504,266.94v8.86h7.39c2.58,0,4.17-1.7,4.17-4.46,0-2.47-1.29-4.4-4.17-4.4Zm13.61,20.83c0-2.52-1.7-5.17-5.57-5.17h-8v10.33h7.92C515.69,292.93,517.57,290.47,517.57,287.77Z" transform="translate(-105.28 -19.19)"/>
    <path class="cls-1" d="M552,273l-1.76,7.34a8,8,0,0,0-3.93-1c-3.93,0-6.63,3.64-6.63,11.44v9.39H532V272.8h7.63v5.81c1.53-4.57,4.64-6.51,8-6.51A9.81,9.81,0,0,1,552,273Z" transform="translate(-105.28 -19.19)"/>
    <path class="cls-1" d="M583.72,272.8v27.35H576v-3.4c-1.94,2.7-5.75,3.93-8.8,3.93-7.05,0-13.44-5.46-13.44-14.26s6.39-14.26,13.44-14.26c3.17,0,6.86,1.17,8.8,3.93V272.8Zm-7.93,13.62a7.1,7.1,0,1,0-7.1,7.1A7.06,7.06,0,0,0,575.79,286.42Z" transform="translate(-105.28 -19.19)"/>
    <path class="cls-1" d="M618.23,285.13v15h-7.69V286c0-4.34-2.58-6.28-5.22-6.28s-6.16,1.47-6.16,6.46v14h-7.69V272.8h7.69v4.58c1.17-3.69,5.51-5.28,8.21-5.28C614.53,272.1,618.29,276.91,618.23,285.13Z" transform="translate(-105.28 -19.19)"/>
    <path class="cls-1" d="M653.91,258.19v42h-7.69v-3.4c-1.93,2.7-5.75,3.93-8.8,3.93-7,0-13.44-5.46-13.44-14.26s6.4-14.26,13.44-14.26c3.17,0,6.87,1.17,8.8,3.93v-17.9ZM646,286.42a7.1,7.1,0,1,0-7.1,7.1A7.06,7.06,0,0,0,646,286.42Z" transform="translate(-105.28 -19.19)"/>
    <path class="cls-1" d="M660.61,263.3a4.88,4.88,0,1,1,4.87,4.63A4.73,4.73,0,0,1,660.61,263.3Zm1,9.5h7.69v27.35h-7.69Z" transform="translate(-105.28 -19.19)"/>
    <path class="cls-1" d="M703.86,285.13v15h-7.69V286c0-4.34-2.58-6.28-5.22-6.28s-6.16,1.47-6.16,6.46v14H677.1V272.8h7.69v4.58c1.17-3.69,5.51-5.28,8.21-5.28C700.16,272.1,703.92,276.91,703.86,285.13Z" transform="translate(-105.28 -19.19)"/>
    <path class="cls-1" d="M739.54,272.8v23.6c0,12-6,17.54-15.73,17.54a14.54,14.54,0,0,1-13.32-8.33l6.4-2.76a7.81,7.81,0,0,0,6.92,4.23c4.93,0,8-2.7,8-9.86v-.41c-2,2.64-5.75,3.87-8.8,3.87-7,0-13.44-5.46-13.44-14.26s6.4-14.26,13.44-14.26c3.11,0,6.81,1.23,8.8,3.87V272.8Zm-7.92,13.62a7.1,7.1,0,1,0-7.1,7.1A7.06,7.06,0,0,0,731.62,286.42Z" transform="translate(-105.28 -19.19)"/>
    <path class="cls-1" d="M467.69,338.66a20.56,20.56,0,0,1,20.65-20.78,20,20,0,0,1,15,6.46l-5.93,5.1a12.34,12.34,0,0,0-9-4c-7,0-12.5,6-12.5,13.21s5.46,13.44,12.5,13.44c5.29,0,9.45-2.53,10.51-6.75a4.43,4.43,0,0,0,.23-1H487.64v-6.63H508c0,15-8,21.65-19.66,21.65A20.55,20.55,0,0,1,467.69,338.66Z" transform="translate(-105.28 -19.19)"/>
    <path class="cls-1" d="M539.82,331.5v27.34h-7.69v-4.46c-1.18,3.58-5.52,5.11-8.22,5.11-7.16,0-10.91-4.75-10.85-13v-15h7.68v14.2c0,4.28,2.59,6.22,5.23,6.22s6.16-1.47,6.16-6.4v-14Z" transform="translate(-105.28 -19.19)"/>
    <path class="cls-1" d="M546.51,322a4.88,4.88,0,1,1,4.87,4.64A4.78,4.78,0,0,1,546.51,322Zm1.06,9.51h7.68v27.34h-7.68Z" transform="translate(-105.28 -19.19)"/>
    <path class="cls-1" d="M591.29,316.88v42H583.6v-3.4c-1.94,2.7-5.75,3.93-8.8,3.93-7,0-13.44-5.45-13.44-14.26s6.39-14.26,13.44-14.26c3.17,0,6.86,1.18,8.8,3.93v-17.9Zm-7.93,28.23a7.1,7.1,0,1,0-7.1,7.1A7.07,7.07,0,0,0,583.36,345.11Z" transform="translate(-105.28 -19.19)"/>
    <path class="cls-1" d="M626,347.64H605.38c.82,3.16,3.4,4.93,7.1,4.93a9.51,9.51,0,0,0,7.16-3.06l4.52,4.52c-2.59,3.47-7.4,5.34-12.21,5.34-8.39,0-14.55-5.75-14.55-14.2,0-8.86,6.68-14.38,14.55-14.38s14.2,5.52,14.2,13.91C626.15,345.46,626.09,346.4,626,347.64Zm-7.57-5c-.23-3.23-2.93-5.17-6.39-5.17-3.11,0-5.87,1.47-6.69,5.17Z" transform="translate(-105.28 -19.19)"/>
    <path class="cls-1" d="M632.08,316.88h7.69v42h-7.69Z" transform="translate(-105.28 -19.19)"/>
    <path class="cls-1" d="M646.46,322a4.88,4.88,0,1,1,4.87,4.64A4.78,4.78,0,0,1,646.46,322Zm1.06,9.51h7.68v27.34h-7.68Z" transform="translate(-105.28 -19.19)"/>
    <path class="cls-1" d="M689.71,343.82v15H682v-14.2c0-4.34-2.58-6.28-5.22-6.28s-6.16,1.47-6.16,6.46v14H663V331.5h7.69v4.58c1.17-3.7,5.52-5.29,8.22-5.29C686,330.79,689.77,335.61,689.71,343.82Z" transform="translate(-105.28 -19.19)"/>
    <path class="cls-1" d="M724.1,347.64H703.45c.82,3.16,3.4,4.93,7.1,4.93a9.51,9.51,0,0,0,7.16-3.06l4.52,4.52c-2.59,3.47-7.4,5.34-12.21,5.34-8.39,0-14.55-5.75-14.55-14.2,0-8.86,6.69-14.38,14.55-14.38s14.2,5.52,14.2,13.91C724.22,345.46,724.16,346.4,724.1,347.64Zm-7.57-5c-.23-3.23-2.93-5.17-6.39-5.17-3.11,0-5.87,1.47-6.69,5.17Z" transform="translate(-105.28 -19.19)"/>
    <path class="cls-1" d="M728.45,350h7.22c0,1.59,1.35,3.29,4.05,3.29,2.23,0,3.93-.94,3.93-2.53,0-1.17-.94-1.76-3-2.28l-3.64-.88c-7-1.88-8-5.81-8-8.69,0-4.23,4.4-8.16,10.74-8.16,5,0,10.85,2.47,10.8,8.92h-7.34c0-1.82-1.53-2.81-3.35-2.81s-3.16.88-3.16,2.29,1.17,1.93,2.69,2.34l4.52,1.18c6.58,1.76,7.4,5.87,7.4,8.09,0,5.76-5.87,8.57-11.5,8.57S728.51,356.09,728.45,350Z" transform="translate(-105.28 -19.19)"/>
    <path class="cls-1" d="M756.39,354.62a4.75,4.75,0,0,1,4.87-4.7,4.73,4.73,0,1,1,0,9.45A4.76,4.76,0,0,1,756.39,354.62Z" transform="translate(-105.28 -19.19)"/>
  </g>
</svg>
