<?xml version="1.0" encoding="utf-8"?>
<!-- Generator: Adobe Illustrator 24.1.0, SVG Export Plug-In . SVG Version: 6.00 Build 0)  -->
<svg version="1.1" id="Laag_1" xmlns="http://www.w3.org/2000/svg" xmlns:xlink="http://www.w3.org/1999/xlink" x="0px" y="0px"
	 viewBox="0 0 1200 630" style="enable-background:new 0 0 1200 630;" xml:space="preserve">
<style type="text/css">
	.st0{fill:#263050;}
	.st1{fill:#0000F9;}
	.st2{fill:none;}
	.st3{fill:#FFFFFF;}
	.st4{font-family:'SofiaPro-Bold';}
	.st5{font-size:58.6925px;}
</style>
<path class="st0" d="M672.55,214.58c-2.83,2.73-5.78,5.46-9.05,8.37c-24.46,23.33-105.98,104.5-127.88,169.35l-0.1,0.38
	c-0.16,0.6-0.69,2.52-1.46,5.47c-0.21,0.73-0.43,1.47-0.64,2.21c-0.72,2.44-1.45,4.96-1.9,7.29c-3.33,13.37-5.72,25.92-7.3,38.35
	c-1.8,12.48-2.5,22.92-2.09,31.07c0,4.33,0.11,8.66,0.3,12.99h572.29V264.23V39.19H945.03h-174.2h-4.29
	c-11.29,63.06-41.09,121.34-86.69,168.11C677.5,209.73,675.03,212.18,672.55,214.58z"/>
<path class="st1" d="M522.13,477.07c-0.41-8.15,0.29-18.59,2.09-31.07c1.58-12.43,3.97-24.98,7.3-38.35
	c0.44-2.33,1.18-4.85,1.9-7.29c0.21-0.74,0.43-1.48,0.64-2.21c0.77-2.95,1.29-4.87,1.46-5.47l0.1-0.38
	c21.9-64.85,103.42-146.02,127.88-169.35c3.27-2.91,6.22-5.64,9.05-8.37c2.49-2.4,4.95-4.85,7.3-7.28
	c45.6-46.76,75.4-105.05,86.69-168.11H402.79H105.28v450.87h417.15C522.25,485.73,522.13,481.4,522.13,477.07z"/>
<rect x="435.91" y="209.64" class="st2" width="344.51" height="196.36"/>
<text transform="matrix(1 0 0 1 481.4211 251.6016)"><tspan x="0" y="0" class="st3 st4 st5">Branding </tspan><tspan x="-25.18" y="58.69" class="st3 st4 st5">Guidelines.</tspan></text>
</svg>
