<svg id="Laag_1" data-name="Laag 1" xmlns="http://www.w3.org/2000/svg" viewBox="0 0 1036.56 245.96">
  <defs>
    <style>
      .cls-1, .cls-6 {
        fill: #fff;
      }

      .cls-2 {
        fill: #ec0000;
      }

      .cls-3, .cls-4 {
        fill: #e80000;
      }

      .cls-3, .cls-5, .cls-6 {
        opacity: 0.8;
      }
    </style>
  </defs>
  <rect class="cls-1" width="245.96" height="245.96"/>
  <rect class="cls-1" x="263.21" width="245.96" height="245.96"/>
  <rect x="526.9" width="245.96" height="245.96"/>
  <rect class="cls-2" x="790.59" width="245.96" height="245.96"/>
  <g>
    <path class="cls-3" d="M254.41,303.75c-.27-5.83-2.91-12.84-7.83-20.84a271.69,271.69,0,0,0-38.37-46.27c.44.57.84,1.11,1.2,1.63l.06.1.06.09c.45.67.89,1.39,1.32,2.13l.08.14.1.17c.39.71.77,1.45,1.15,2.26l.2.45c.37.82.68,1.59,1,2.36l.07.19c0,.05,0,.09,0,.14.28.81.53,1.61.74,2.39,0,0,0,.06,0,.09a.5.5,0,0,1,0,.13c.2.76.37,1.59.54,2.52l0,.16.06.32c.11.68.2,1.36.27,2,2,15-6.74,26-9.41,29,3.3,3.14,14,13.9,14,21a15.06,15.06,0,0,1-10.29,14.32l.84-.11.34,0c.59-.08,1.2-.17,1.79-.28.38-.07.76-.15,1.13-.24l.28-.06c.63-.14,1.19-.26,1.76-.41l1.37-.4c.51-.16,1.11-.34,1.7-.55s.94-.34,1.33-.5c.61-.23,1.15-.45,1.65-.67s.79-.35,1.29-.59l1.58-.79,1.25-.68c.48-.28,1-.57,1.5-.91s.86-.54,1.2-.77c.52-.35,1-.73,1.43-1s.77-.57,1.14-.86,1-.78,1.34-1.12l.08-.06,1-.87,1.26-1.22.19-.19c.27-.27.54-.54.81-.83s.77-.85,1.13-1.27l.25-.28.71-.84c.34-.42.66-.85,1-1.27l.12-.16.22-.3c.21-.27.41-.55.61-.83s.57-.86.84-1.29l.15-.25.25-.38c.16-.25.33-.52.49-.79.28-.47.54-1,.79-1.46l.12-.23.23-.42c.13-.24.26-.48.38-.73.29-.59.55-1.21.81-1.81l.07-.17.18-.41c.09-.19.18-.39.26-.59.41-1.05.78-2.09,1.09-3.11.14-.45.27-.9.4-1.36-.06.22-.11.45-.17.66a43.1,43.1,0,0,1-38.12,32.13,14.62,14.62,0,0,1-3.24.15,15.07,15.07,0,0,1-14.06-13.21v.05a27.57,27.57,0,0,0-.21,4.49,43.17,43.17,0,0,0,.92,6.32,32.12,32.12,0,0,0,32.56,24.21c.79,0,1.57-.1,2.34-.2l.35-.05.27,0,.12,0c.51-.07,1.05-.15,1.56-.25a2.34,2.34,0,0,0,.38-.09l.29-.06.13,0c.48-.11,1-.21,1.45-.34l.34-.11.28-.08.12,0c.48-.14,1-.29,1.46-.45l.21-.09L233,340c.53-.19,1.14-.42,1.73-.68l.17-.08.17-.08c.51-.23,1.12-.5,1.71-.81l.19-.11.16-.09c.52-.28,1.08-.58,1.63-.92L239,337l.19-.13c.5-.32,1-.63,1.46-1l.23-.18.21-.16c.42-.31.9-.67,1.36-1l.27-.24.21-.18.08-.08c.38-.33.77-.66,1.14-1,.11-.1.21-.21.31-.32l.22-.22.17-.17c.3-.3.6-.61.89-.92q.18-.2.33-.39l.22-.26.19-.21c.25-.29.5-.58.74-.89s.25-.33.37-.5l.22-.3.21-.28c.18-.25.38-.51.55-.77s.28-.43.42-.65.13-.22.2-.33.13-.22.2-.32.28-.43.41-.66.27-.49.39-.73l.18-.35.18-.33c.11-.21.23-.42.34-.64l.39-.88c0-.11.09-.22.14-.34l.15-.33c.08-.19.17-.38.25-.58v-.17h.08s.57-1.4.77-2.08h0l.1-.34h0l.12-.44h0l.1-.37h0c0-.14.07-.27.1-.41v-.07l.08-.33h0l.09-.39V317l.08-.35h0l.09-.38v-.07l.06-.29v-.07h0c0-.13.05-.26.08-.38h0l.07-.44h0A49.39,49.39,0,0,0,254.41,303.75Z" transform="translate(-81.82 -171.09)"/>
    <path class="cls-4" d="M249,326.51c0,.06-.14.1-.18.16s-.42.53-.47.61c-.41.63-1,1.11-1.4,1.71l-.18.23-.15.17c-.31.41-.68.89-1.08,1.34l-.33.37-.21.22c-.32.35-.64.71-1,1.05l-.44.42-.21.2,0,0c-.3.29-.61.58-.93.86s-.39.33-.59.49l-.13.12-1,.8-.65.47-.13.1-1,.72-.82.52-1.07.64-.86.47-1.12.56-.89.41-1.15.49-.1,0L232,340c-.4.15-.81.28-1.2.41l-.21.06c-.23.08-.47.16-.71.22-.43.13-.85.23-1.26.33l-.24.06-.68.16c-.4.09-.81.16-1.21.23l-.14,0-.27.05-.6.1c-.48.07-1,.11-1.44.16h-.08l-.3,0-.45,0c-.78.06-1.55.09-2.29.09a32.45,32.45,0,0,1-32.48-32.47,17.7,17.7,0,0,1,.22-3.26,33,33,0,0,1,.76-4c0-.24.13-.51.2-.76,0-.08.05-.16.07-.24.08-.31.14-.51.15-.57v0c2.3-6.81,10.86-15.33,13.43-17.78.34-.31.65-.59,1-.88l.77-.76a33.78,33.78,0,0,0,9.63-23.69c0-.56,0-1.14,0-1.71,0-.11,0-.22,0-.33a1.79,1.79,0,0,1,0-.23v-.09c0-.34,0-.7-.08-1,0-.14,0-.28,0-.41a2.13,2.13,0,0,1,0-.25l0-.2c0-.27-.06-.55-.1-.82s-.05-.29-.08-.43,0-.18,0-.27l0-.21c0-.25-.08-.5-.13-.74s-.07-.33-.11-.49,0-.16-.05-.24l0-.18c-.06-.24-.11-.49-.17-.72s-.08-.32-.13-.48l-.07-.25,0-.16c-.07-.24-.13-.48-.21-.72s-.11-.34-.16-.51l-.14-.42c-.08-.22-.15-.43-.22-.65l-.21-.53-.09-.25c-.1-.25-.2-.51-.31-.77l-.24-.56-.12-.27c-.1-.22-.21-.46-.32-.68s-.18-.38-.28-.57l-.11-.22-.36-.7-.3-.52-.11-.21-.42-.71-.37-.59-.11-.17-.42-.65-.37-.52-.1-.14c-.16-.23-.33-.47-.51-.71l-.49-.63-.56-.69c-.17-.21-.35-.41-.52-.61l-.6-.67c-.18-.2-.36-.39-.55-.58l-.17-.18c.09.28.17.56.26.84l.05.19a1.59,1.59,0,0,1,.07.2l.09.28a3.18,3.18,0,0,1,.08.33l.06.25a22.82,22.82,0,0,1-15.28,27.38h-.05l-.07,0-.1,0-.26.08,0-.27a22.47,22.47,0,0,0-4.22-10.81l0,0h0l0,0v0c-3.32,3.67-6.44,7.3-9.27,10.81a150.24,150.24,0,0,0-13.95,20.07c-.43.77-.85,1.53-1.23,2.27-.3.56-.59,1.14-.89,1.74-3.34,6.75-5,12.71-5,17.71a49.11,49.11,0,0,0,1.61,12.48c.18.69.39,1.37.59,2.06a49.59,49.59,0,0,0,16.42,24c.29.22.57.46.87.68l.28.21a49.42,49.42,0,0,0,61.91-2.43l.1-.08q.5-.43,1-.9c.57-.53,1.15-1.07,1.7-1.63l.17-.19A50,50,0,0,0,249,326.51C248.88,326.61,249,326.4,249,326.51Z" transform="translate(-81.82 -171.09)"/>
  </g>
  <g>
    <path class="cls-5" d="M517.86,303.75c-.27-5.83-2.91-12.84-7.83-20.84a271.69,271.69,0,0,0-38.37-46.27c.44.57.84,1.11,1.2,1.63l.06.1.06.09c.45.67.89,1.39,1.32,2.13,0,0,.05.09.08.14l.1.17c.39.71.77,1.45,1.15,2.26l.2.45c.37.82.68,1.59.95,2.36l.07.19c0,.05,0,.09,0,.14.28.81.53,1.61.74,2.39,0,0,0,.06,0,.09a.5.5,0,0,1,0,.13c.2.76.37,1.59.54,2.52l0,.16.06.32c.11.68.2,1.36.27,2,2,15-6.74,26-9.41,29,3.3,3.14,14,13.9,14,21a15.06,15.06,0,0,1-10.29,14.32l.84-.11.34,0c.59-.08,1.2-.17,1.79-.28.38-.07.76-.15,1.13-.24l.28-.06c.63-.14,1.19-.26,1.76-.41l1.37-.4c.51-.16,1.11-.34,1.7-.55s.94-.34,1.33-.5c.61-.23,1.15-.45,1.65-.67s.79-.35,1.29-.59l1.58-.79,1.25-.68c.48-.28,1-.57,1.5-.91s.86-.54,1.2-.77c.52-.35,1-.73,1.43-1s.77-.57,1.14-.86.95-.78,1.34-1.12l.08-.06,1-.87,1.26-1.22.19-.19c.27-.27.54-.54.81-.83s.77-.85,1.13-1.27l.25-.28.71-.84c.34-.42.66-.85,1-1.27l.12-.16.22-.3c.21-.27.42-.55.61-.83s.57-.86.84-1.29l.16-.25c.07-.13.16-.25.24-.38s.33-.52.49-.79c.28-.47.54-1,.79-1.46l.12-.23.23-.42c.13-.24.26-.48.38-.73.29-.59.55-1.21.81-1.81l.07-.17.18-.41c.09-.19.18-.39.26-.59.41-1.05.78-2.09,1.09-3.11.14-.45.27-.9.4-1.36-.06.22-.11.45-.17.66A43.1,43.1,0,0,1,471,319.87a14.62,14.62,0,0,1-3.24.15,15.07,15.07,0,0,1-14.06-13.21v.05a26.58,26.58,0,0,0-.22,4.49,43.17,43.17,0,0,0,.92,6.32,32.12,32.12,0,0,0,32.56,24.21c.79,0,1.57-.1,2.34-.2l.35-.05.27,0,.12,0c.51-.07,1.05-.15,1.56-.25a2.34,2.34,0,0,0,.38-.09l.29-.06.13,0c.48-.11,1-.21,1.45-.34l.34-.11.28-.08.12,0c.48-.14,1-.29,1.46-.45l.21-.09.19-.07c.53-.19,1.14-.42,1.73-.68l.17-.08.17-.08c.51-.23,1.12-.5,1.72-.81l.18-.11.16-.09c.52-.28,1.08-.58,1.63-.92l.25-.16.19-.13c.5-.32,1-.63,1.46-1l.23-.18.21-.16c.42-.31.9-.67,1.36-1l.27-.24.21-.18.08-.08c.38-.33.77-.66,1.14-1,.11-.1.21-.21.31-.32l.22-.22.17-.17c.3-.3.6-.61.89-.92q.18-.2.33-.39l.22-.26.19-.21c.25-.29.5-.58.74-.89s.25-.33.37-.5l.22-.3.21-.28c.18-.25.38-.51.55-.77s.28-.43.42-.65.13-.22.2-.33l.2-.32c.14-.21.28-.43.41-.66s.27-.49.39-.73l.18-.35.18-.33c.12-.21.23-.42.34-.64s.26-.59.39-.88c0-.11.09-.22.14-.34l.15-.33c.09-.19.17-.38.25-.58v-.17h.08s.57-1.4.77-2.08h0l.1-.34h0l.12-.44h0l.1-.37h0c0-.14.07-.27.1-.41v-.07l.08-.33h0l.09-.39V317l.08-.35h0l.09-.38v-.07l.06-.29v-.07h0c0-.13.06-.26.08-.38h0l.07-.44h0A49.39,49.39,0,0,0,517.86,303.75Z" transform="translate(-81.82 -171.09)"/>
    <path d="M512.4,326.51c0,.06-.14.1-.18.16s-.42.53-.47.61c-.41.63-.95,1.11-1.4,1.71l-.18.23-.15.17c-.31.41-.68.89-1.08,1.34l-.33.37-.21.22c-.32.35-.64.71-1,1.05l-.44.42-.21.2,0,0c-.3.29-.61.58-.93.86s-.39.33-.59.49l-.13.12-1,.8-.65.47-.13.1-1,.72-.82.52-1.07.64-.86.47-1.11.56-.9.41-1.15.49-.1,0-.82.31c-.4.15-.81.28-1.2.41l-.21.06c-.23.08-.47.16-.71.22-.43.13-.85.23-1.26.33l-.24.06-.68.16c-.4.09-.81.16-1.21.23l-.14,0-.27.05-.6.1c-.48.07-1,.11-1.44.16h-.08l-.3,0-.45,0c-.78.06-1.55.09-2.29.09a32.45,32.45,0,0,1-32.48-32.47,17.7,17.7,0,0,1,.22-3.26,33,33,0,0,1,.76-4c0-.24.13-.51.2-.76a2.17,2.17,0,0,0,.07-.24c.08-.31.14-.51.15-.57v0c2.3-6.81,10.86-15.33,13.43-17.78.34-.31.65-.59,1-.88l.77-.76a33.78,33.78,0,0,0,9.63-23.69c0-.56,0-1.14,0-1.71,0-.11,0-.22,0-.33s0-.15,0-.23v-.09c0-.34,0-.7-.07-1,0-.14,0-.28,0-.41l0-.25,0-.2c0-.27-.06-.55-.1-.82s-.05-.29-.08-.43,0-.18,0-.27l0-.21c0-.25-.08-.5-.13-.74s-.07-.33-.11-.49,0-.16-.05-.24l0-.18c-.06-.24-.11-.49-.17-.72s-.08-.32-.13-.48l-.07-.25,0-.16c-.07-.24-.13-.48-.21-.72s-.11-.34-.16-.51l-.14-.42c-.08-.22-.15-.43-.22-.65l-.21-.53-.09-.25c-.1-.25-.2-.51-.31-.77l-.24-.56-.12-.27c-.1-.22-.21-.46-.32-.68s-.18-.38-.28-.57l-.11-.22-.36-.7-.29-.52-.12-.21-.42-.71-.37-.59-.11-.17-.42-.65-.36-.52-.1-.14-.52-.71-.49-.63-.56-.69c-.17-.21-.35-.41-.52-.61l-.6-.67c-.18-.2-.36-.39-.55-.58l-.17-.18c.09.28.18.56.26.84l.05.19a1.59,1.59,0,0,1,.07.2l.09.28a3.18,3.18,0,0,1,.08.33l.06.25a22.82,22.82,0,0,1-15.28,27.38h-.05l-.07,0-.1,0-.26.08,0-.27A22.47,22.47,0,0,0,449,252.39l0,0h0l0,0v0c-3.32,3.67-6.44,7.3-9.27,10.81a150.24,150.24,0,0,0-13.95,20.07c-.43.77-.84,1.53-1.23,2.27-.3.56-.59,1.14-.89,1.74-3.34,6.75-5,12.71-5,17.71a49.11,49.11,0,0,0,1.61,12.48c.18.69.39,1.37.59,2.06a49.65,49.65,0,0,0,16.42,24c.29.22.57.46.87.68l.28.21a49.42,49.42,0,0,0,61.91-2.43.39.39,0,0,0,.1-.08l1-.9c.57-.53,1.15-1.07,1.7-1.63l.17-.19a50,50,0,0,0,9.17-12.55C512.33,326.61,512.46,326.4,512.4,326.51Z" transform="translate(-81.82 -171.09)"/>
  </g>
  <g>
    <path class="cls-6" d="M1039.19,303.75c-.27-5.83-2.91-12.84-7.84-20.84A270.74,270.74,0,0,0,993,236.64c.44.57.84,1.11,1.2,1.63l.06.1.06.09c.45.67.89,1.39,1.31,2.13l.09.14.1.17c.39.71.77,1.45,1.15,2.26.06.15.13.3.2.45.37.82.68,1.59,1,2.36l.06.19a.78.78,0,0,1,.05.14c.28.81.53,1.61.74,2.39a.29.29,0,0,0,0,.09s0,.08,0,.13c.19.76.37,1.59.54,2.52l0,.16.06.32c.11.68.2,1.36.27,2,2,15-6.74,26-9.41,29,3.3,3.14,14,13.9,14,21a15.06,15.06,0,0,1-10.29,14.32l.84-.11.34,0c.59-.08,1.2-.17,1.79-.28.38-.07.76-.15,1.13-.24l.28-.06c.63-.14,1.19-.26,1.75-.41l1.37-.4c.52-.16,1.12-.34,1.71-.55s.94-.34,1.33-.5c.61-.23,1.15-.45,1.65-.67s.79-.35,1.29-.59l1.58-.79,1.25-.68c.48-.28,1-.57,1.5-.91s.85-.54,1.2-.77c.52-.35,1-.73,1.43-1l1.13-.86c.49-.38,1-.78,1.35-1.12l.08-.06,1-.87c.45-.42.89-.85,1.26-1.22l.2-.19c.26-.27.54-.54.81-.83s.77-.85,1.13-1.27l.24-.28c.24-.27.49-.56.72-.84s.66-.85,1-1.27l.11-.16.23-.3.61-.83c.29-.42.57-.86.83-1.29l.16-.25.24-.38c.17-.25.34-.52.5-.79.27-.47.54-1,.79-1.46l.12-.23.23-.42c.13-.24.26-.48.38-.73.29-.59.55-1.21.8-1.81l.08-.17.18-.41c.09-.19.18-.39.26-.59.41-1.05.78-2.09,1.09-3.11.14-.45.27-.9.4-1.36-.06.22-.11.45-.17.66a43.12,43.12,0,0,1-38.12,32.13A14.62,14.62,0,0,1,989,320,15.07,15.07,0,0,1,975,306.81v.05a26.49,26.49,0,0,0-.21,4.49,43.17,43.17,0,0,0,.92,6.32,32.12,32.12,0,0,0,32.56,24.21c.78,0,1.57-.1,2.34-.2l.34-.05.28,0,.12,0c.51-.07,1-.15,1.56-.25a2.62,2.62,0,0,0,.38-.09l.29-.06.12,0c.48-.11,1-.21,1.46-.34l.34-.11.28-.08.11,0c.49-.14,1-.29,1.46-.45l.22-.09.19-.07c.52-.19,1.14-.42,1.72-.68l.18-.08.17-.08c.51-.23,1.11-.5,1.71-.81l.19-.11.16-.09c.52-.28,1.08-.58,1.63-.92l.25-.16.19-.13c.5-.32,1-.63,1.46-1l.23-.18.21-.16c.42-.31.9-.67,1.36-1l.27-.24.2-.18.09-.08c.38-.33.77-.66,1.14-1l.31-.32.21-.22.18-.17c.29-.3.6-.61.89-.92l.33-.39.22-.26.19-.21c.24-.29.5-.58.74-.89s.25-.33.37-.5l.22-.3a2.55,2.55,0,0,1,.21-.28l.55-.77c.15-.21.28-.43.41-.65l.21-.33a3.45,3.45,0,0,1,.2-.32c.14-.21.28-.43.41-.66s.27-.49.39-.73l.18-.35.18-.33c.11-.21.23-.42.33-.64s.27-.59.39-.88l.15-.34.15-.33c.08-.19.17-.38.25-.58v-.17h.08s.57-1.4.76-2.08h0l.1-.34h0l.12-.44h0l.1-.37h0c0-.14.07-.27.1-.41v-.07l.08-.33h0l.09-.39V317l.07-.35h0c0-.13.06-.26.08-.38v-.07a2.93,2.93,0,0,0,0-.29l0-.07h0c0-.13,0-.26.08-.38h0l.07-.44h0A50,50,0,0,0,1039.19,303.75Z" transform="translate(-81.82 -171.09)"/>
    <path class="cls-1" d="M1033.72,326.51c0,.06-.13.1-.17.16s-.42.53-.47.61c-.41.63-.95,1.11-1.4,1.71l-.18.23-.15.17c-.31.41-.69.89-1.08,1.34-.11.13-.22.25-.34.37l-.21.22c-.31.35-.64.71-1,1.05l-.44.42-.21.2,0,0c-.3.29-.62.58-.93.86l-.59.49-.14.12-1,.8-.65.47-.13.1-1,.72-.82.52-1.07.64-.87.47c-.35.19-.71.37-1.11.56l-.89.41-1.15.49-.1,0-.82.31c-.4.15-.81.28-1.2.41l-.21.06c-.23.08-.48.16-.72.22-.42.13-.84.23-1.25.33l-.24.06-.68.16c-.4.09-.81.16-1.21.23l-.14,0-.27.05-.61.1c-.47.07-1,.11-1.43.16h-.08l-.3,0-.45,0c-.78.06-1.55.09-2.29.09a32.45,32.45,0,0,1-32.48-32.47,16.86,16.86,0,0,1,.22-3.26,33,33,0,0,1,.76-4c.05-.24.13-.51.2-.76,0-.08,0-.16.07-.24.08-.31.13-.51.15-.57v0c2.3-6.81,10.86-15.33,13.43-17.78.34-.31.65-.59,1-.88l.76-.76a33.75,33.75,0,0,0,9.64-23.69c0-.56,0-1.14,0-1.71,0-.11,0-.22,0-.33a1.79,1.79,0,0,1,0-.23v-.09c0-.34,0-.7-.08-1,0-.14,0-.28-.05-.41l0-.25,0-.2c0-.27-.06-.55-.1-.82s0-.29-.08-.43,0-.18,0-.27l0-.21c0-.25-.08-.5-.13-.74s-.07-.33-.11-.49a2,2,0,0,1,0-.24l-.05-.18c0-.24-.1-.49-.16-.72s-.09-.32-.13-.48l-.07-.25,0-.16c-.06-.24-.13-.48-.2-.72s-.11-.34-.16-.51l-.15-.42-.21-.65-.21-.53-.1-.25c-.09-.25-.19-.51-.3-.77s-.16-.37-.25-.56l-.12-.27c-.1-.22-.2-.46-.31-.68s-.18-.38-.28-.57l-.11-.22-.36-.7-.3-.52-.12-.21c-.13-.23-.27-.48-.41-.71l-.37-.59-.11-.17c-.14-.22-.28-.44-.43-.65s-.24-.34-.36-.52l-.1-.14-.51-.71-.5-.63-.55-.69c-.17-.21-.35-.41-.53-.61l-.59-.67c-.18-.2-.37-.39-.55-.58l-.18-.18c.1.28.18.56.27.84l0,.19c0,.07.05.13.07.2l.09.28c0,.1,0,.22.08.33l.06.25a22.87,22.87,0,0,1-15.28,27.38H975l-.07,0-.1,0-.26.08,0-.27a22.36,22.36,0,0,0-4.21-10.81l0,0h0l0,0,0,0c-3.31,3.67-6.43,7.3-9.26,10.81a149.31,149.31,0,0,0-13.95,20.07c-.43.77-.85,1.53-1.23,2.27-.3.56-.6,1.14-.89,1.74-3.34,6.75-5,12.71-5,17.71a49.11,49.11,0,0,0,1.61,12.48c.17.69.38,1.37.59,2.06a49.63,49.63,0,0,0,16.41,24l.87.68.29.21a49.42,49.42,0,0,0,61.91-2.43l.1-.08,1-.9c.57-.53,1.15-1.07,1.69-1.63l.18-.19a49.72,49.72,0,0,0,9.16-12.55Z" transform="translate(-81.82 -171.09)"/>
  </g>
  <g>
    <path class="cls-6" d="M781.31,303.75c-.27-5.83-2.91-12.84-7.83-20.84a271.69,271.69,0,0,0-38.37-46.27c.44.57.84,1.11,1.2,1.63l.06.1.06.09c.45.67.89,1.39,1.32,2.13,0,0,0,.09.08.14l.1.17c.39.71.77,1.45,1.15,2.26.07.15.14.3.2.45.37.82.68,1.59,1,2.36l.07.19c0,.05,0,.09,0,.14.28.81.53,1.61.74,2.39a.29.29,0,0,1,0,.09.5.5,0,0,1,0,.13c.2.76.38,1.59.54,2.52l0,.16.06.32c.11.68.2,1.36.27,2,2,15-6.74,26-9.41,29,3.3,3.14,14,13.9,14,21a15.06,15.06,0,0,1-10.29,14.32l.84-.11.34,0c.59-.08,1.2-.17,1.79-.28.38-.07.76-.15,1.13-.24l.28-.06c.63-.14,1.19-.26,1.76-.41l1.37-.4c.51-.16,1.11-.34,1.7-.55s.94-.34,1.33-.5c.61-.23,1.15-.45,1.65-.67s.79-.35,1.29-.59l1.58-.79,1.25-.68c.48-.28,1-.57,1.5-.91s.86-.54,1.2-.77c.53-.35,1-.73,1.43-1s.77-.57,1.14-.86.95-.78,1.34-1.12l.08-.06,1-.87,1.26-1.22.19-.19c.27-.27.55-.54.81-.83s.77-.85,1.13-1.27l.25-.28.71-.84c.34-.42.66-.85,1-1.27l.12-.16.22-.3c.21-.27.42-.55.61-.83s.57-.86.84-1.29l.16-.25.24-.38c.16-.25.33-.52.49-.79.28-.47.54-1,.79-1.46l.12-.23.23-.42c.13-.24.26-.48.38-.73.29-.59.55-1.21.81-1.81l.07-.17.18-.41c.09-.19.18-.39.26-.59.41-1.05.78-2.09,1.09-3.11.14-.45.27-.9.4-1.36-.06.22-.11.45-.17.66a43.1,43.1,0,0,1-38.12,32.13,14.62,14.62,0,0,1-3.24.15,15.07,15.07,0,0,1-14.06-13.21v.05a26.58,26.58,0,0,0-.22,4.49,43.17,43.17,0,0,0,.92,6.32,32.12,32.12,0,0,0,32.56,24.21c.79,0,1.57-.1,2.35-.2l.34-.05.27,0,.12,0c.51-.07,1-.15,1.56-.25a2.34,2.34,0,0,0,.38-.09l.29-.06.13,0c.48-.11,1-.21,1.45-.34l.35-.11.27-.08.12,0c.48-.14,1-.29,1.46-.45l.21-.09.19-.07c.53-.19,1.14-.42,1.73-.68l.17-.08.17-.08c.51-.23,1.12-.5,1.72-.81l.19-.11.15-.09c.52-.28,1.08-.58,1.63-.92l.25-.16.19-.13c.5-.32,1-.63,1.46-1l.23-.18.21-.16c.42-.31.9-.67,1.36-1l.27-.24.21-.18.08-.08c.38-.33.77-.66,1.14-1,.11-.1.21-.21.31-.32l.22-.22.17-.17c.3-.3.6-.61.89-.92q.18-.2.33-.39l.22-.26.19-.21c.25-.29.5-.58.74-.89s.25-.33.37-.5l.22-.3.21-.28c.18-.25.38-.51.55-.77s.28-.43.42-.65.13-.22.2-.33l.2-.32c.14-.21.28-.43.41-.66s.27-.49.39-.73l.18-.35.18-.33c.12-.21.23-.42.34-.64s.26-.59.39-.88c0-.11.09-.22.14-.34l.15-.33c.09-.19.17-.38.25-.58v-.17h.08s.57-1.4.77-2.08h0l.1-.34h0l.12-.44h0l.1-.37h0c0-.14.07-.27.1-.41v-.07l.08-.33h0l.09-.39V317l.08-.35h0l.09-.38v-.07l.06-.29v-.07h0c0-.13.06-.26.08-.38h0l.07-.44h0A49.39,49.39,0,0,0,781.31,303.75Z" transform="translate(-81.82 -171.09)"/>
    <path class="cls-1" d="M775.85,326.51c0,.06-.14.1-.18.16s-.42.53-.47.61c-.41.63-1,1.11-1.4,1.71l-.18.23-.15.17c-.31.41-.68.89-1.08,1.34l-.33.37-.21.22c-.32.35-.64.71-1,1.05l-.44.42-.21.2,0,0c-.3.29-.61.58-.93.86s-.39.33-.59.49l-.13.12-1,.8-.65.47-.13.1c-.33.23-.67.48-1,.72l-.82.52-1.07.64-.86.47-1.11.56-.9.41c-.33.15-.68.3-1.15.49l-.1,0-.82.31c-.4.15-.81.28-1.2.41l-.21.06c-.23.08-.47.16-.71.22-.43.13-.85.23-1.26.33l-.24.06-.68.16c-.4.09-.81.16-1.21.23l-.14,0-.27.05-.6.1c-.48.07-1,.11-1.44.16h-.08l-.3,0-.45,0c-.78.06-1.55.09-2.29.09A32.56,32.56,0,0,1,716,316a32.24,32.24,0,0,1-.64-6.43,17.7,17.7,0,0,1,.22-3.26,33,33,0,0,1,.76-4c.05-.24.13-.51.2-.76a2.17,2.17,0,0,0,.07-.24c.08-.31.14-.51.15-.57v0c2.3-6.81,10.86-15.33,13.43-17.78.34-.31.65-.59,1-.88l.77-.76a33.78,33.78,0,0,0,9.63-23.69c0-.56,0-1.14,0-1.71,0-.11,0-.22,0-.33s0-.15,0-.23v-.09c0-.34,0-.7-.07-1,0-.14,0-.28-.05-.41l0-.25,0-.2c0-.27-.06-.55-.1-.82s0-.29-.08-.43,0-.18,0-.27l0-.21c0-.25-.08-.5-.13-.74s-.07-.33-.11-.49,0-.16,0-.24l0-.18c0-.24-.11-.49-.17-.72s-.08-.32-.13-.48l-.07-.25,0-.16c-.07-.24-.13-.48-.21-.72s-.11-.34-.16-.51l-.14-.42c-.07-.22-.15-.43-.22-.65l-.21-.53-.09-.25c-.1-.25-.2-.51-.31-.77l-.24-.56-.12-.27c-.1-.22-.21-.46-.32-.68s-.18-.38-.28-.57l-.11-.22-.36-.7-.29-.52-.12-.21-.42-.71-.37-.59-.11-.17-.42-.65-.36-.52-.1-.14-.52-.71-.49-.63-.56-.69c-.17-.21-.35-.41-.52-.61l-.6-.67c-.18-.2-.36-.39-.55-.58l-.17-.18c.09.28.18.56.26.84l.06.19.06.2.09.28a3.18,3.18,0,0,1,.08.33l.06.25a22.82,22.82,0,0,1-15.28,27.38h-.05l-.07,0-.1,0-.26.08,0-.27a22.47,22.47,0,0,0-4.22-10.81l0,0h0l0,0v0c-3.32,3.67-6.44,7.3-9.27,10.81a150.24,150.24,0,0,0-13.95,20.07c-.43.77-.84,1.53-1.23,2.27-.3.56-.59,1.14-.89,1.74-3.34,6.75-5,12.71-5,17.71a49.11,49.11,0,0,0,1.61,12.48c.18.69.39,1.37.59,2.06a49.65,49.65,0,0,0,16.42,24c.29.22.57.46.87.68l.28.21a49.42,49.42,0,0,0,61.91-2.43.39.39,0,0,0,.1-.08q.49-.43,1-.9c.58-.53,1.15-1.07,1.7-1.63l.17-.19a50,50,0,0,0,9.17-12.55C775.78,326.61,775.92,326.4,775.85,326.51Z" transform="translate(-81.82 -171.09)"/>
  </g>
</svg>
