<?xml version="1.0" encoding="utf-8"?>
<!-- Generator: Adobe Illustrator 24.1.0, SVG Export Plug-In . SVG Version: 6.00 Build 0)  -->
<svg version="1.1" id="Laag_1" xmlns="http://www.w3.org/2000/svg" xmlns:xlink="http://www.w3.org/1999/xlink" x="0px" y="0px"
	 viewBox="0 0 500 500" style="enable-background:new 0 0 500 500;" xml:space="preserve">
<style type="text/css">
	.st0{fill:#FF0000;}
	.st1{fill:#FFFFFF;stroke:#FFFFFF;stroke-width:0.1;}
	.st2{opacity:0.72;fill:#FFFFFF;}
</style>
<rect x="-8.5" y="-8.5" class="st0" width="517.01" height="517.01"/>
<g>
	<path class="st1" d="M358.69,323.86c-0.09,0.15-0.18,0.3-0.27,0.45c-0.11,0.19-0.22,0.37-0.33,0.55c-1.01,1.56-2.08,3.1-3.19,4.58
		c-0.15,0.2-0.3,0.38-0.46,0.57c-0.12,0.14-0.24,0.29-0.35,0.44c-0.78,1-1.7,2.17-2.67,3.29c-0.27,0.31-0.55,0.61-0.83,0.91
		c-0.17,0.18-0.34,0.37-0.51,0.55c-0.78,0.86-1.58,1.74-2.4,2.57c-0.35,0.36-0.72,0.7-1.08,1.04c-0.17,0.16-0.35,0.32-0.52,0.49
		l-0.11,0.1c-0.74,0.71-1.51,1.44-2.3,2.13c-0.48,0.42-0.97,0.82-1.45,1.22l-0.34,0.28c-0.78,0.64-1.6,1.33-2.46,1.98
		c-0.52,0.4-1.07,0.79-1.59,1.17l-0.33,0.23c-0.8,0.57-1.66,1.18-2.55,1.77c-0.68,0.45-1.38,0.89-2.03,1.29
		c-0.92,0.57-1.78,1.08-2.64,1.57c-0.65,0.37-1.34,0.75-2.13,1.16c-0.88,0.47-1.77,0.92-2.74,1.38c-0.88,0.42-1.56,0.74-2.2,1.02
		c-0.82,0.36-1.69,0.73-2.84,1.19l-0.25,0.09c-0.66,0.26-1.34,0.53-2.01,0.78c-1,0.36-2.01,0.69-2.96,1l-0.52,0.16
		c-0.58,0.19-1.17,0.37-1.77,0.55c-1.04,0.3-2.09,0.56-3.1,0.8l-0.59,0.15c-0.55,0.14-1.11,0.28-1.68,0.4
		c-0.99,0.21-2,0.38-2.98,0.55l-0.34,0.05c-0.23,0.04-0.45,0.08-0.68,0.12c-0.48,0.09-0.99,0.18-1.49,0.25
		c-1.17,0.16-2.38,0.28-3.55,0.39l-0.18,0.02c-0.25,0.02-0.5,0.05-0.75,0.08c-0.36,0.04-0.73,0.08-1.1,0.11
		c-1.94,0.14-3.84,0.2-5.65,0.2c-38.01,0-71.03-27-78.51-64.2c-1.05-5.2-1.58-10.53-1.58-15.85c-0.11-2.11,0.08-4.81,0.54-8.04
		c0.41-3.22,1.03-6.47,1.89-9.93c0.11-0.6,0.3-1.26,0.49-1.89c0.05-0.19,0.11-0.38,0.17-0.57c0.2-0.76,0.34-1.26,0.38-1.42l0.03-0.1
		c5.67-16.79,26.77-37.8,33.1-43.84c0.85-0.75,1.61-1.46,2.34-2.17c0.64-0.62,1.28-1.26,1.89-1.88
		c15.32-15.71,23.76-36.45,23.76-58.4c0-1.4-0.04-2.81-0.1-4.22c-0.01-0.27-0.04-0.54-0.06-0.81c-0.02-0.19-0.03-0.37-0.04-0.56
		l-0.02-0.23c-0.05-0.85-0.11-1.72-0.2-2.57c-0.03-0.34-0.08-0.67-0.12-1.01c-0.03-0.2-0.05-0.4-0.08-0.6l-0.06-0.49
		c-0.08-0.67-0.16-1.36-0.26-2.03c-0.05-0.36-0.12-0.71-0.18-1.07c-0.04-0.22-0.08-0.44-0.12-0.66l-0.09-0.53
		c-0.1-0.6-0.21-1.22-0.33-1.82c-0.08-0.4-0.17-0.8-0.26-1.2c-0.05-0.2-0.09-0.39-0.13-0.59l-0.1-0.47
		c-0.13-0.59-0.26-1.19-0.41-1.77c-0.1-0.4-0.21-0.79-0.32-1.18c-0.06-0.21-0.12-0.41-0.17-0.62l-0.11-0.4
		c-0.16-0.58-0.32-1.18-0.5-1.77c-0.13-0.42-0.27-0.83-0.41-1.25l-0.35-1.05c-0.18-0.53-0.35-1.07-0.54-1.59
		c-0.16-0.44-0.33-0.88-0.51-1.32l-0.24-0.61c-0.24-0.62-0.49-1.26-0.75-1.89c-0.19-0.46-0.4-0.93-0.61-1.38l-0.3-0.66
		c-0.25-0.56-0.5-1.13-0.77-1.69c-0.22-0.47-0.46-0.93-0.69-1.39l-0.28-0.56c-0.29-0.57-0.58-1.14-0.89-1.71
		c-0.23-0.43-0.48-0.86-0.72-1.29l-0.3-0.52c-0.33-0.58-0.67-1.18-1.03-1.76c-0.3-0.49-0.6-0.96-0.91-1.44l-0.28-0.43
		c-0.34-0.53-0.69-1.07-1.04-1.59c-0.29-0.43-0.59-0.85-0.89-1.27l-0.25-0.34c-0.41-0.58-0.84-1.18-1.27-1.75
		c-0.4-0.53-0.81-1.05-1.22-1.57c-0.5-0.63-0.92-1.16-1.37-1.69c-0.42-0.51-0.86-1.01-1.3-1.51c-0.46-0.52-0.95-1.08-1.47-1.65
		c-0.44-0.48-0.9-0.96-1.36-1.44c-0.14-0.15-0.28-0.29-0.43-0.44c0.23,0.69,0.44,1.39,0.65,2.07l0.14,0.47
		c0.05,0.17,0.11,0.34,0.16,0.51c0.07,0.22,0.15,0.44,0.21,0.67c0.08,0.27,0.14,0.55,0.21,0.82c0.05,0.2,0.09,0.41,0.15,0.61
		c1.14,4.55,1.71,9.16,1.71,13.7c0,24.75-15.83,46.37-39.4,53.83l0,0l-0.12,0.04c-0.06,0.02-0.12,0.04-0.18,0.06
		c-0.08,0.03-0.16,0.06-0.24,0.08l-0.63,0.2l-0.07-0.66c-1.05-9.61-4.65-18.83-10.4-26.66l-0.07-0.1l0,0
		c-0.02-0.02-0.03-0.05-0.05-0.07c-0.01-0.02-0.02-0.03-0.03-0.05c-8.18,9.04-15.87,18.02-22.84,26.66
		c-14.33,17.75-25.9,34.4-34.39,49.48c-1.07,1.9-2.09,3.79-3.05,5.61c-0.72,1.37-1.46,2.81-2.18,4.28
		c-8.25,16.65-12.43,31.35-12.43,43.67c0,10.39,1.33,20.75,3.96,30.76c0.44,1.72,0.95,3.4,1.46,5.08
		c7.18,23.1,21.41,43.88,40.47,59.07c0.71,0.56,1.42,1.14,2.14,1.68c0.23,0.18,0.47,0.35,0.7,0.53
		c20.28,15.06,45.4,23.98,72.61,23.98c30.64,0,58.64-11.31,80.05-29.98c0.08-0.07,0.15-0.13,0.23-0.19
		c0.83-0.73,1.64-1.47,2.45-2.22c1.42-1.32,2.83-2.65,4.18-4.04c0.14-0.15,0.28-0.3,0.42-0.45c8.86-9.18,16.25-19.7,21.85-31.21
		C359.02,323.33,358.86,323.59,358.69,323.86z"/>
	<path class="st2" d="M353.26,223.3c-0.53,2.2-1.11,4.33-1.72,6.31c-13.29,43.07-52.49,73.13-97.55,74.79c-2.67,0.28-5.29,0.28-8,0
		c-8.88-0.95-17.13-5.06-23.21-11.56c-5.77-6.18-9.27-14.15-9.92-22.58c-0.01,0.05-0.02,0.09-0.02,0.14
		c-0.7,4.11-1.05,7.72-1.05,11.02c0.26,5.2,0.53,10.59,1.56,15.68c7.39,36.69,39.96,63.32,77.44,63.32c1.93,0,3.88-0.07,5.79-0.21
		c0.28-0.02,0.57-0.06,0.85-0.09c0.23-0.03,0.45-0.06,0.68-0.08l0.3-0.03c1.28-0.12,2.6-0.24,3.88-0.43
		c0.32-0.05,0.63-0.11,0.95-0.17c0.24-0.05,0.48-0.09,0.71-0.13l0.31-0.05c1.19-0.2,2.43-0.41,3.62-0.67
		c0.29-0.06,0.57-0.14,0.86-0.22c0.23-0.06,0.46-0.13,0.69-0.18l0.29-0.07c1.2-0.29,2.45-0.6,3.65-0.95
		c0.18-0.05,0.36-0.12,0.53-0.18c0.16-0.05,0.31-0.11,0.47-0.16c1.33-0.42,2.87-0.91,4.34-1.47c0.15-0.06,0.3-0.12,0.45-0.19
		c0.14-0.06,0.27-0.12,0.41-0.17c1.29-0.51,2.81-1.12,4.32-1.81c0.16-0.08,0.32-0.16,0.48-0.24c0.13-0.07,0.26-0.14,0.4-0.2
		c1.32-0.63,2.73-1.32,4.12-2.09c0.21-0.12,0.42-0.24,0.62-0.37c0.16-0.1,0.33-0.2,0.5-0.3c1.26-0.72,2.5-1.44,3.69-2.21
		c0.2-0.13,0.4-0.27,0.6-0.41c0.17-0.12,0.34-0.25,0.52-0.37c1.08-0.73,2.31-1.55,3.47-2.43c0.24-0.18,0.46-0.37,0.69-0.55
		c0.18-0.14,0.35-0.29,0.53-0.43l0.23-0.18c0.97-0.76,1.97-1.54,2.91-2.36c0.27-0.23,0.54-0.49,0.8-0.73
		c0.19-0.18,0.37-0.35,0.56-0.53l0.44-0.41c0.77-0.69,1.56-1.42,2.31-2.16c0.3-0.3,0.58-0.61,0.86-0.92
		c0.19-0.2,0.37-0.41,0.56-0.61l0.49-0.51c0.64-0.67,1.31-1.37,1.93-2.08c0.34-0.39,0.66-0.8,0.98-1.2
		c0.19-0.24,0.37-0.48,0.56-0.71c0.18-0.23,0.37-0.45,0.55-0.67c0.49-0.59,0.99-1.2,1.46-1.83c0.38-0.51,0.74-1.04,1.09-1.56
		c0.18-0.26,0.36-0.52,0.54-0.79c0.18-0.26,0.36-0.51,0.54-0.77c0.36-0.51,0.73-1.03,1.07-1.56c0.37-0.58,0.72-1.19,1.06-1.77
		c0.16-0.28,0.32-0.55,0.48-0.83c0.16-0.27,0.32-0.54,0.48-0.8c0.3-0.5,0.61-1.01,0.9-1.54c0.37-0.69,0.72-1.41,1.06-2.12
		c0.13-0.27,0.26-0.55,0.4-0.82c0.13-0.27,0.27-0.54,0.41-0.81c0.23-0.45,0.47-0.91,0.68-1.38v-0.43h0.19c0,0,1.58-3.38,2.12-5.02
		l-0.09-0.03l0.29-0.83l0.07,0.03c0.12-0.36,0.23-0.71,0.34-1.07l-0.05-0.02l0.29-0.9l0.04,0.01c0.1-0.33,0.2-0.67,0.3-1l0.02-0.16
		l0.24-0.81l0.02,0.01c0.09-0.32,0.18-0.64,0.27-0.97l0.03-0.16l0.24-0.87l0.02,0.01c0.08-0.31,0.17-0.62,0.25-0.93l0.01-0.16
		c0.06-0.24,0.12-0.48,0.18-0.72l0.04-0.16l0.04,0.01c0.08-0.31,0.16-0.62,0.23-0.93l-0.05-0.01l0.24-1.08l0.07,0.02
		c2.1-9,3.17-18.31,3.17-27.68c0-14.4-5.69-31.97-16.92-52.22c-0.16,0.83-0.35,1.67-0.53,2.48l-0.19,0.83
		c-0.06,0.28-0.12,0.56-0.17,0.84C353.45,222.42,353.36,222.86,353.26,223.3z"/>
	<path class="st2" d="M261.91,105.84c0.05,0.08,0.1,0.16,0.15,0.23c1.11,1.65,2.2,3.41,3.24,5.23c0.07,0.12,0.14,0.24,0.21,0.37
		c0.08,0.14,0.16,0.27,0.24,0.41c0.97,1.74,1.89,3.56,2.83,5.57c0.17,0.37,0.34,0.74,0.5,1.11c0.9,2.02,1.67,3.92,2.34,5.8
		c0.06,0.16,0.11,0.32,0.16,0.48c0.04,0.12,0.08,0.23,0.12,0.35c0.69,1.98,1.3,3.96,1.81,5.89c0.02,0.08,0.04,0.16,0.07,0.23
		c0.03,0.1,0.06,0.2,0.08,0.3c0.49,1.89,0.93,3.93,1.34,6.23l0.07,0.38c0.05,0.27,0.1,0.53,0.14,0.8c0.34,2.09,0.61,4.2,0.8,6.24
		c0.02,0.22,0.03,0.43,0.05,0.65c0.01,0.16,0.02,0.31,0.03,0.46c0.19,2.44,0.28,4.61,0.28,6.64c0,22.23-8.55,43.24-24.07,59.16h0
		c-0.47,0.48-0.96,0.98-1.5,1.5c4.28,3.94,36.45,34.25,36.45,53.46c0,8.21-2.6,15.99-7.53,22.5c-4.57,6.04-10.72,10.45-17.85,12.83
		c0.69-0.09,1.39-0.19,2.07-0.28l0.85-0.12c1.45-0.2,2.95-0.42,4.41-0.69c0.94-0.17,1.88-0.38,2.79-0.58l0.69-0.15
		c1.54-0.34,2.93-0.66,4.32-1.03c1.14-0.3,2.28-0.65,3.38-0.98c1.26-0.38,2.74-0.84,4.21-1.35c1.18-0.41,2.32-0.85,3.28-1.22
		c1.5-0.58,2.83-1.12,4.06-1.66c0.94-0.41,1.95-0.87,3.18-1.45c1.39-0.66,2.66-1.3,3.9-1.95c1.09-0.57,2.09-1.12,3.07-1.69
		c1.19-0.68,2.41-1.41,3.71-2.23c1.17-0.73,2.1-1.34,2.95-1.9c1.3-0.87,2.56-1.79,3.52-2.49c0.96-0.71,1.9-1.4,2.81-2.12
		c1.19-0.94,2.35-1.92,3.32-2.75l0.2-0.17c0.81-0.69,1.65-1.41,2.45-2.15c1.1-1.01,2.18-2.08,3.11-3l0.47-0.47
		c0.66-0.66,1.35-1.34,2-2.03c0.96-1.02,1.9-2.1,2.8-3.15l0.59-0.68c0.59-0.67,1.2-1.37,1.77-2.08c0.82-1.02,1.62-2.09,2.39-3.13
		l0.28-0.38c0.19-0.25,0.37-0.5,0.56-0.75c0.5-0.66,1.02-1.35,1.5-2.05c0.72-1.04,1.4-2.12,2.06-3.18l0.39-0.62
		c0.2-0.31,0.4-0.62,0.59-0.93c0.41-0.63,0.82-1.28,1.21-1.94c0.69-1.18,1.33-2.41,1.96-3.6l0.3-0.58c0.18-0.34,0.37-0.68,0.55-1.02
		c0.32-0.59,0.65-1.2,0.95-1.82c0.71-1.45,1.35-2.97,1.98-4.45l0.18-0.43c0.14-0.34,0.29-0.67,0.44-1c0.22-0.48,0.44-0.98,0.64-1.48
		c1.01-2.57,1.92-5.14,2.7-7.66c0.65-2.1,1.24-4.28,1.77-6.47c0.12-0.5,0.22-1.02,0.32-1.52c0.07-0.34,0.13-0.67,0.2-1.01l0.19-0.9
		c0.22-1,0.44-2.04,0.62-3.07c-8.87-15.73-35.73-58.11-94.78-114.74c1.09,1.4,2.06,2.72,2.95,4.02
		C261.81,105.68,261.86,105.76,261.91,105.84z"/>
</g>
</svg>
