<svg id="Laag_1" data-name="Laag 1" xmlns="http://www.w3.org/2000/svg" viewBox="0 0 1035.8 238.95">
  <defs>
    <style>
      .cls-1 {
        opacity: 0.05;
      }

      .cls-11, .cls-2 {
        fill: red;
      }

      .cls-3 {
        fill: #fff;
      }

      .cls-4, .cls-5 {
        fill: #9d9b9b;
      }

      .cls-5 {
        font-size: 13.06px;
        font-family: Roboto-Light, Roboto;
        font-weight: 300;
      }

      .cls-6 {
        letter-spacing: -0.01em;
      }

      .cls-7 {
        letter-spacing: -0.01em;
      }

      .cls-8 {
        letter-spacing: -0.06em;
      }

      .cls-9 {
        letter-spacing: -0.02em;
      }

      .cls-10 {
        letter-spacing: -0.02em;
      }

      .cls-11 {
        opacity: 0.8;
      }

      .cls-12 {
        fill: blue;
      }

      .cls-13 {
        fill: #ff0;
      }
    </style>
  </defs>
  <rect class="cls-1" width="1035.8" height="163.96"/>
  <circle class="cls-2" cx="73.58" cy="78.29" r="53.22"/>
  <circle class="cls-3" cx="301.92" cy="77.22" r="53.22"/>
  <g>
    <path class="cls-4" d="M244.28,245.4v-9.29H247a3.56,3.56,0,0,1,2.26.62,2.16,2.16,0,0,1,.77,1.81,2.1,2.1,0,0,1-.39,1.26,2.15,2.15,0,0,1-1.07.76,2.27,2.27,0,0,1,1.8,2.23,2.41,2.41,0,0,1-.8,1.92,3.27,3.27,0,0,1-2.21.69Zm.79-5.12h2.14a2.42,2.42,0,0,0,1.52-.47,1.56,1.56,0,0,0,.54-1.29,1.52,1.52,0,0,0-.56-1.32,2.77,2.77,0,0,0-1.68-.43h-2Zm0,.66v3.8h2.35a2.37,2.37,0,0,0,1.6-.52,1.78,1.78,0,0,0,.59-1.42,1.74,1.74,0,0,0-.56-1.36,2.3,2.3,0,0,0-1.56-.5Z" transform="translate(-105.98 -206.49)"/>
    <path class="cls-4" d="M254,242.89l.28,1.44.35-1.37,2-6.85h.71l2,6.85.34,1.39.31-1.46,1.68-6.78h.8l-2.38,9.29h-.75l-2.11-7.27-.23-.92-.23.92-2.16,7.27h-.75l-2.37-9.29h.8Z" transform="translate(-105.98 -206.49)"/>
    <path class="cls-4" d="M264.35,244.74h5.74v.66H263.4v-.59l5.51-8h-5.34v-.66h6.31v.56Z" transform="translate(-105.98 -206.49)"/>
    <path class="cls-4" d="M278.39,242.5a3.28,3.28,0,0,1-1.05,2.25,3.46,3.46,0,0,1-2.37.78,3.31,3.31,0,0,1-1.82-.52,3.35,3.35,0,0,1-1.23-1.46,5.19,5.19,0,0,1-.44-2.17v-1.21a5.25,5.25,0,0,1,.43-2.19,3.38,3.38,0,0,1,1.25-1.48A3.46,3.46,0,0,1,275,236a3.32,3.32,0,0,1,2.36.81,3.37,3.37,0,0,1,1,2.22h-.79a2.36,2.36,0,0,0-2.57-2.36,2.43,2.43,0,0,0-2,.94,4.09,4.09,0,0,0-.75,2.61v1.14a4.13,4.13,0,0,0,.73,2.57,2.36,2.36,0,0,0,2,1,2.6,2.6,0,0,0,1.86-.59,2.8,2.8,0,0,0,.77-1.77Z" transform="translate(-105.98 -206.49)"/>
    <path class="cls-4" d="M287,241.53h-2.7v3.87h-.79v-9.29h3a3.45,3.45,0,0,1,2.32.72,2.77,2.77,0,0,1,.31,3.59,2.7,2.7,0,0,1-1.4.94l2.32,4v.08h-.84Zm-2.7-.67h2.4a2.21,2.21,0,0,0,1.59-.56,1.9,1.9,0,0,0,.6-1.46,1.92,1.92,0,0,0-.62-1.52,2.61,2.61,0,0,0-1.76-.55h-2.21Z" transform="translate(-105.98 -206.49)"/>
    <path class="cls-4" d="M291.17,241.85a4.06,4.06,0,0,1,.39-1.8,2.92,2.92,0,0,1,1.09-1.24,3,3,0,0,1,1.6-.44,2.83,2.83,0,0,1,2.23,1,3.7,3.7,0,0,1,.85,2.56v.16a4.2,4.2,0,0,1-.38,1.8,2.9,2.9,0,0,1-1.09,1.23,3,3,0,0,1-1.6.44,2.82,2.82,0,0,1-2.23-1,3.72,3.72,0,0,1-.86-2.56Zm.77.21a3.12,3.12,0,0,0,.64,2,2.17,2.17,0,0,0,3.35,0,3.23,3.23,0,0,0,.64-2.1v-.14a3.45,3.45,0,0,0-.29-1.45,2.4,2.4,0,0,0-.82-1,2.13,2.13,0,0,0-1.21-.36,2,2,0,0,0-1.67.8,3.23,3.23,0,0,0-.64,2.1Z" transform="translate(-105.98 -206.49)"/>
    <path class="cls-4" d="M298.49,241.85a4.2,4.2,0,0,1,.38-1.8,2.89,2.89,0,0,1,2.69-1.68,2.8,2.8,0,0,1,2.23,1,3.7,3.7,0,0,1,.86,2.56v.16a4.06,4.06,0,0,1-.39,1.8,2.88,2.88,0,0,1-1.08,1.23,3,3,0,0,1-1.6.44,2.82,2.82,0,0,1-2.23-1,3.67,3.67,0,0,1-.86-2.56Zm.76.21a3.18,3.18,0,0,0,.64,2,2.18,2.18,0,0,0,3.36,0,3.23,3.23,0,0,0,.64-2.1v-.14a3.61,3.61,0,0,0-.29-1.45,2.35,2.35,0,0,0-.83-1,2.08,2.08,0,0,0-1.21-.36,2,2,0,0,0-1.66.8,3.23,3.23,0,0,0-.65,2.1Z" transform="translate(-105.98 -206.49)"/>
    <path class="cls-4" d="M305.92,241.88a4.16,4.16,0,0,1,.72-2.56,2.33,2.33,0,0,1,1.95-.95,2.41,2.41,0,0,1,2.13,1.1V235.6h.76v9.8h-.72l0-.92a2.47,2.47,0,0,1-2.16,1.05,2.31,2.31,0,0,1-1.92-1,4.18,4.18,0,0,1-.73-2.6Zm.77.14a3.62,3.62,0,0,0,.53,2.08,1.7,1.7,0,0,0,1.49.76,2.06,2.06,0,0,0,2-1.24v-3.24a2,2,0,0,0-2-1.35,1.73,1.73,0,0,0-1.5.76A3.82,3.82,0,0,0,306.69,242Z" transform="translate(-105.98 -206.49)"/>
    <path class="cls-4" d="M247.91,274.14h-2l-.49,2.61h-.63l.49-2.61h-1.63v-.59h1.74l.53-2.82h-1.78v-.61H246l.51-2.65h.63l-.51,2.65h2l.51-2.65h.63l-.5,2.65h1.46v.61H249.2l-.53,2.82h1.62v.59h-1.74l-.49,2.61h-.64Zm-1.89-.59h2l.53-2.82h-2Z" transform="translate(-105.98 -206.49)"/>
    <path class="cls-4" d="M252.25,276.75v-6.27h-1.14v-.63h1.14V269a2.27,2.27,0,0,1,.54-1.63,2,2,0,0,1,1.5-.57,3,3,0,0,1,.81.11l0,.63a3.13,3.13,0,0,0-.7-.08,1.25,1.25,0,0,0-1,.4A1.57,1.57,0,0,0,253,269v.86h1.64v.63H253v6.27Z" transform="translate(-105.98 -206.49)"/>
    <path class="cls-4" d="M256.58,276.75v-6.27h-1.14v-.63h1.14V269a2.27,2.27,0,0,1,.54-1.63,2,2,0,0,1,1.5-.57,3,3,0,0,1,.81.11l-.06.63a3,3,0,0,0-.69-.08,1.27,1.27,0,0,0-1,.4,1.62,1.62,0,0,0-.35,1.11v.86H259v.63h-1.65v6.27Z" transform="translate(-105.98 -206.49)"/>
    <path class="cls-4" d="M265.83,272.88a5.12,5.12,0,0,1-.72,3,2.72,2.72,0,0,1-4.23,0,5,5,0,0,1-.76-2.9v-1.67a5.07,5.07,0,0,1,.73-3,2.75,2.75,0,0,1,4.23,0,4.79,4.79,0,0,1,.75,2.87Zm-.76-1.66a4.56,4.56,0,0,0-.52-2.41,1.92,1.92,0,0,0-3.13,0,4.36,4.36,0,0,0-.54,2.35V273a4.57,4.57,0,0,0,.54,2.44,1.87,1.87,0,0,0,3.12,0,4.58,4.58,0,0,0,.53-2.41Z" transform="translate(-105.98 -206.49)"/>
    <path class="cls-4" d="M273.07,272.88a5.12,5.12,0,0,1-.72,3,2.72,2.72,0,0,1-4.23,0,5,5,0,0,1-.76-2.9v-1.67a5.07,5.07,0,0,1,.73-3,2.75,2.75,0,0,1,4.23,0,4.79,4.79,0,0,1,.75,2.87Zm-.76-1.66a4.56,4.56,0,0,0-.52-2.41,1.92,1.92,0,0,0-3.13,0,4.36,4.36,0,0,0-.54,2.35V273a4.57,4.57,0,0,0,.54,2.44,1.87,1.87,0,0,0,3.12,0,4.58,4.58,0,0,0,.53-2.41Z" transform="translate(-105.98 -206.49)"/>
    <path class="cls-4" d="M280.31,272.88a5.12,5.12,0,0,1-.72,3,2.72,2.72,0,0,1-4.23,0,5,5,0,0,1-.76-2.9v-1.67a5.07,5.07,0,0,1,.73-3,2.75,2.75,0,0,1,4.23,0,4.79,4.79,0,0,1,.75,2.87Zm-.76-1.66a4.47,4.47,0,0,0-.52-2.41,1.92,1.92,0,0,0-3.13,0,4.36,4.36,0,0,0-.54,2.35V273a4.57,4.57,0,0,0,.54,2.44,1.87,1.87,0,0,0,3.12,0,4.58,4.58,0,0,0,.53-2.41Z" transform="translate(-105.98 -206.49)"/>
    <path class="cls-4" d="M287.55,272.88a5.12,5.12,0,0,1-.72,3,2.72,2.72,0,0,1-4.23,0,5,5,0,0,1-.76-2.9v-1.67a5.07,5.07,0,0,1,.73-3,2.75,2.75,0,0,1,4.23,0,4.79,4.79,0,0,1,.75,2.87Zm-.76-1.66a4.47,4.47,0,0,0-.52-2.41,1.92,1.92,0,0,0-3.13,0,4.36,4.36,0,0,0-.54,2.35V273a4.57,4.57,0,0,0,.54,2.44,1.87,1.87,0,0,0,3.12,0,4.58,4.58,0,0,0,.53-2.41Z" transform="translate(-105.98 -206.49)"/>
    <path class="cls-4" d="M247.75,288.56h-2.69v3.87h-.79v-9.29h3a3.43,3.43,0,0,1,2.32.72,2.75,2.75,0,0,1,.32,3.59,2.68,2.68,0,0,1-1.41.94l2.33,4v.08H250Zm-2.69-.66h2.4a2.21,2.21,0,0,0,1.59-.57,2.11,2.11,0,0,0,0-3,2.58,2.58,0,0,0-1.75-.54h-2.21Z" transform="translate(-105.98 -206.49)"/>
    <path class="cls-4" d="M258.1,292.43h-5.82v-.59l3.18-3.61a8.46,8.46,0,0,0,1.1-1.5,2.57,2.57,0,0,0,.3-1.16,1.89,1.89,0,0,0-.51-1.39,2,2,0,0,0-1.43-.51,2,2,0,0,0-1.51.6,2.11,2.11,0,0,0-.58,1.55h-.76a2.89,2.89,0,0,1,.36-1.43,2.52,2.52,0,0,1,1-1,3,3,0,0,1,1.48-.36,2.81,2.81,0,0,1,2,.67,2.35,2.35,0,0,1,.72,1.82,3.1,3.1,0,0,1-.41,1.42,10,10,0,0,1-1.43,1.93l-2.59,2.93h4.89Z" transform="translate(-105.98 -206.49)"/>
    <path class="cls-4" d="M260,287.67l.46-4.53h4.64v.71h-4l-.32,3.14a3,3,0,0,1,1.75-.51,2.57,2.57,0,0,1,2,.82,3.08,3.08,0,0,1,.75,2.17,3.32,3.32,0,0,1-.73,2.28,2.62,2.62,0,0,1-2,.81,2.82,2.82,0,0,1-2-.68,2.71,2.71,0,0,1-.86-1.89h.73a2.25,2.25,0,0,0,.64,1.44,2.1,2.1,0,0,0,1.45.48,1.8,1.8,0,0,0,1.5-.63,2.8,2.8,0,0,0,.51-1.8,2.41,2.41,0,0,0-.57-1.66,2,2,0,0,0-1.55-.65,3,3,0,0,0-.94.14,2.61,2.61,0,0,0-.85.53Z" transform="translate(-105.98 -206.49)"/>
    <path class="cls-4" d="M267.27,287.67l.46-4.53h4.64v.71h-4l-.32,3.14a3,3,0,0,1,1.75-.51,2.57,2.57,0,0,1,2,.82,3.08,3.08,0,0,1,.75,2.17,3.32,3.32,0,0,1-.73,2.28,2.62,2.62,0,0,1-2.05.81,2.82,2.82,0,0,1-2-.68A2.71,2.71,0,0,1,267,290h.73a2.25,2.25,0,0,0,.64,1.44,2.1,2.1,0,0,0,1.45.48,1.8,1.8,0,0,0,1.5-.63,2.8,2.8,0,0,0,.51-1.8,2.41,2.41,0,0,0-.57-1.66,2,2,0,0,0-1.55-.65,3,3,0,0,0-.94.14,2.61,2.61,0,0,0-.85.53Z" transform="translate(-105.98 -206.49)"/>
    <path class="cls-4" d="M284.18,291.33a2.62,2.62,0,0,1-1.28.9,5.46,5.46,0,0,1-1.95.33A3.7,3.7,0,0,1,279,292a3.56,3.56,0,0,1-1.31-1.48,5,5,0,0,1-.47-2.2v-1.17a4.47,4.47,0,0,1,1-3.05,3.3,3.3,0,0,1,2.62-1.12,3.46,3.46,0,0,1,2.31.73,3,3,0,0,1,1,2h-.78a2.43,2.43,0,0,0-.83-1.55,2.65,2.65,0,0,0-1.73-.53,2.54,2.54,0,0,0-2.06.92,4,4,0,0,0-.76,2.62v1.09a4.6,4.6,0,0,0,.36,1.88,2.93,2.93,0,0,0,1,1.26,2.74,2.74,0,0,0,1.55.45,4.33,4.33,0,0,0,1.74-.32,1.78,1.78,0,0,0,.7-.5v-2.39H280.9V288h3.28Z" transform="translate(-105.98 -206.49)"/>
    <path class="cls-4" d="M291.71,288.56a5.14,5.14,0,0,1-.72,3,2.73,2.73,0,0,1-4.24,0,4.91,4.91,0,0,1-.75-2.91V287a5.11,5.11,0,0,1,.72-3,2.47,2.47,0,0,1,2.13-1,2.44,2.44,0,0,1,2.1,1,4.84,4.84,0,0,1,.76,2.87Zm-.77-1.67a4.52,4.52,0,0,0-.52-2.41,1.93,1.93,0,0,0-3.13,0,4.34,4.34,0,0,0-.53,2.36v1.82a4.61,4.61,0,0,0,.53,2.43,1.76,1.76,0,0,0,1.57.84,1.72,1.72,0,0,0,1.55-.82,4.51,4.51,0,0,0,.53-2.41Z" transform="translate(-105.98 -206.49)"/>
    <path class="cls-4" d="M296.82,292.43v-9.29h2.75a3.58,3.58,0,0,1,2.26.62,2.2,2.2,0,0,1,.77,1.82,2.07,2.07,0,0,1-.39,1.25,2.14,2.14,0,0,1-1.08.76,2.27,2.27,0,0,1,1.31.8,2.22,2.22,0,0,1,.49,1.43,2.4,2.4,0,0,1-.79,1.92,3.27,3.27,0,0,1-2.21.69Zm.79-5.12h2.14a2.41,2.41,0,0,0,1.52-.46,1.84,1.84,0,0,0,0-2.62,2.77,2.77,0,0,0-1.68-.42h-2Zm0,.66v3.8H300a2.32,2.32,0,0,0,1.6-.52,1.78,1.78,0,0,0,.59-1.42,1.73,1.73,0,0,0-.57-1.36A2.27,2.27,0,0,0,300,288Z" transform="translate(-105.98 -206.49)"/>
    <path class="cls-4" d="M310.13,288.56a5.14,5.14,0,0,1-.72,3,2.73,2.73,0,0,1-4.24,0,4.91,4.91,0,0,1-.75-2.91V287a5,5,0,0,1,.73-3,2.44,2.44,0,0,1,2.12-1,2.48,2.48,0,0,1,2.11,1,4.92,4.92,0,0,1,.75,2.87Zm-.77-1.67a4.52,4.52,0,0,0-.52-2.41,1.93,1.93,0,0,0-3.13,0,4.53,4.53,0,0,0-.53,2.36v1.82a4.51,4.51,0,0,0,.54,2.43,1.74,1.74,0,0,0,1.56.84,1.72,1.72,0,0,0,1.55-.82,4.51,4.51,0,0,0,.53-2.41Z" transform="translate(-105.98 -206.49)"/>
    <path class="cls-4" d="M250.86,305.21a3.37,3.37,0,0,1-1.05,2.25,3.46,3.46,0,0,1-2.37.78,3.23,3.23,0,0,1-3.05-2,5.19,5.19,0,0,1-.44-2.17v-1.21a5.25,5.25,0,0,1,.43-2.19,3.31,3.31,0,0,1,1.25-1.48,3.43,3.43,0,0,1,1.87-.52,3.1,3.1,0,0,1,3.36,3h-.79a2.36,2.36,0,0,0-2.57-2.36,2.43,2.43,0,0,0-2,.94,4.09,4.09,0,0,0-.75,2.61v1.14a4.13,4.13,0,0,0,.73,2.57,2.35,2.35,0,0,0,2,.95,2.6,2.6,0,0,0,1.86-.59,2.86,2.86,0,0,0,.77-1.77Z" transform="translate(-105.98 -206.49)"/>
    <path class="cls-4" d="M258.07,304.24a5.14,5.14,0,0,1-.72,3,2.44,2.44,0,0,1-2.13,1,2.48,2.48,0,0,1-2.11-1,5,5,0,0,1-.75-2.91v-1.66a5,5,0,0,1,.73-3,2.45,2.45,0,0,1,2.12-1,2.48,2.48,0,0,1,2.11,1,4.88,4.88,0,0,1,.75,2.86Zm-.77-1.67a4.49,4.49,0,0,0-.52-2.41,1.91,1.91,0,0,0-3.12,0,4.39,4.39,0,0,0-.54,2.35v1.83a4.51,4.51,0,0,0,.54,2.43,1.74,1.74,0,0,0,1.56.84,1.72,1.72,0,0,0,1.55-.82,4.51,4.51,0,0,0,.53-2.41Z" transform="translate(-105.98 -206.49)"/>
    <path class="cls-4" d="M264.23,298.82l3.42,8.2,3.44-8.2h1.05v9.29h-.79v-4.05l.06-4.14L268,308.11h-.61L263.91,300,264,304v4.07h-.78v-9.29Z" transform="translate(-105.98 -206.49)"/>
    <path class="cls-4" d="M277.74,308.11H277v-8.37l-2.53.94V300l3.16-1.17h.13Z" transform="translate(-105.98 -206.49)"/>
    <path class="cls-4" d="M287,304.24a5.14,5.14,0,0,1-.72,3,2.43,2.43,0,0,1-2.12,1,2.49,2.49,0,0,1-2.12-1,5,5,0,0,1-.75-2.91v-1.66a5,5,0,0,1,.73-3,2.45,2.45,0,0,1,2.12-1,2.48,2.48,0,0,1,2.11,1,4.88,4.88,0,0,1,.75,2.86Zm-.76-1.67a4.59,4.59,0,0,0-.52-2.41,1.77,1.77,0,0,0-1.58-.82,1.72,1.72,0,0,0-1.55.8,4.39,4.39,0,0,0-.54,2.35v1.83a4.51,4.51,0,0,0,.54,2.43,1.75,1.75,0,0,0,1.57.84,1.7,1.7,0,0,0,1.54-.82,4.6,4.6,0,0,0,.54-2.41Z" transform="translate(-105.98 -206.49)"/>
    <path class="cls-4" d="M294.27,304.24a5.14,5.14,0,0,1-.72,3,2.43,2.43,0,0,1-2.12,1,2.49,2.49,0,0,1-2.12-1,5,5,0,0,1-.75-2.91v-1.66a5,5,0,0,1,.73-3,2.45,2.45,0,0,1,2.12-1,2.48,2.48,0,0,1,2.11,1,4.88,4.88,0,0,1,.75,2.86Zm-.76-1.67a4.59,4.59,0,0,0-.52-2.41,1.77,1.77,0,0,0-1.58-.82,1.73,1.73,0,0,0-1.55.8,4.39,4.39,0,0,0-.54,2.35v1.83a4.51,4.51,0,0,0,.54,2.43,1.75,1.75,0,0,0,1.57.84,1.7,1.7,0,0,0,1.54-.82,4.6,4.6,0,0,0,.54-2.41Z" transform="translate(-105.98 -206.49)"/>
    <path class="cls-4" d="M302.11,303.89l2.84-5.07h.9l-3.35,5.79v3.5h-.79v-3.5l-3.34-5.79h.93Z" transform="translate(-105.98 -206.49)"/>
    <path class="cls-4" d="M310.46,308.11h-.76v-8.37l-2.53.94V300l3.16-1.17h.13Z" transform="translate(-105.98 -206.49)"/>
    <path class="cls-4" d="M319.75,304.24a5.14,5.14,0,0,1-.72,3,2.44,2.44,0,0,1-2.13,1,2.47,2.47,0,0,1-2.11-1,5,5,0,0,1-.75-2.91v-1.66a5,5,0,0,1,.73-3,2.45,2.45,0,0,1,2.12-1,2.48,2.48,0,0,1,2.11,1,4.88,4.88,0,0,1,.75,2.86Zm-.77-1.67a4.49,4.49,0,0,0-.52-2.41,1.92,1.92,0,0,0-3.13,0,4.49,4.49,0,0,0-.53,2.35v1.83a4.51,4.51,0,0,0,.54,2.43,1.74,1.74,0,0,0,1.56.84,1.72,1.72,0,0,0,1.55-.82,4.51,4.51,0,0,0,.53-2.41Z" transform="translate(-105.98 -206.49)"/>
    <path class="cls-4" d="M327,304.24a5.14,5.14,0,0,1-.72,3,2.44,2.44,0,0,1-2.13,1,2.48,2.48,0,0,1-2.11-1,5,5,0,0,1-.75-2.91v-1.66a5,5,0,0,1,.73-3,2.45,2.45,0,0,1,2.12-1,2.48,2.48,0,0,1,2.11,1,4.88,4.88,0,0,1,.75,2.86Zm-.77-1.67a4.49,4.49,0,0,0-.52-2.41,1.92,1.92,0,0,0-3.13,0,4.49,4.49,0,0,0-.53,2.35v1.83a4.51,4.51,0,0,0,.54,2.43,1.74,1.74,0,0,0,1.56.84,1.72,1.72,0,0,0,1.55-.82,4.51,4.51,0,0,0,.53-2.41Z" transform="translate(-105.98 -206.49)"/>
    <path class="cls-4" d="M334.2,303.5l-1.31,1.28v3.33h-.79v-9.29h.79v5l4.76-5h1L334.75,303l4.19,5.16h-1Z" transform="translate(-105.98 -206.49)"/>
    <path class="cls-4" d="M345.65,304.24a5.14,5.14,0,0,1-.72,3,2.44,2.44,0,0,1-2.13,1,2.47,2.47,0,0,1-2.11-1,5,5,0,0,1-.75-2.91v-1.66a5,5,0,0,1,.73-3,2.45,2.45,0,0,1,2.12-1,2.48,2.48,0,0,1,2.11,1,4.88,4.88,0,0,1,.75,2.86Zm-.77-1.67a4.49,4.49,0,0,0-.52-2.41,1.92,1.92,0,0,0-3.13,0,4.39,4.39,0,0,0-.53,2.35v1.83a4.51,4.51,0,0,0,.54,2.43,1.74,1.74,0,0,0,1.56.84,1.72,1.72,0,0,0,1.55-.82,4.51,4.51,0,0,0,.53-2.41Z" transform="translate(-105.98 -206.49)"/>
  </g>
  <text class="cls-5" transform="translate(248.7 193.05)">* Deze tint b<tspan class="cls-6" x="69.22" y="0">e</tspan><tspan class="cls-7" x="75.88" y="0">v</tspan><tspan x="82.07" y="0">at 80% </tspan><tspan class="cls-7" x="123.75" y="0">v</tspan><tspan x="129.94" y="0">an de primaire hoofdkleu</tspan><tspan class="cls-8" x="271.5" y="0">r</tspan><tspan x="275.12" y="0">, deze tint is niet </tspan><tspan x="0" y="15.68">t</tspan><tspan class="cls-9" x="4.2" y="15.68">r</tspan><tspan x="8.34" y="15.68">anspa</tspan><tspan class="cls-10" x="43.36" y="15.68">r</tspan><tspan x="47.5" y="15.68">ant.</tspan></text>
  <circle class="cls-11" cx="301.92" cy="78.29" r="53.22"/>
  <g>
    <path class="cls-4" d="M479.13,245.4v-9.29h2.74a3.59,3.59,0,0,1,2.27.62,2.18,2.18,0,0,1,.77,1.81,2.1,2.1,0,0,1-.39,1.26,2.14,2.14,0,0,1-1.08.76,2.27,2.27,0,0,1,1.31.8,2.22,2.22,0,0,1,.49,1.43,2.4,2.4,0,0,1-.79,1.92,3.27,3.27,0,0,1-2.21.69Zm.78-5.12h2.15a2.44,2.44,0,0,0,1.52-.47,1.82,1.82,0,0,0,0-2.61,2.78,2.78,0,0,0-1.69-.43h-2Zm0,.66v3.8h2.36a2.39,2.39,0,0,0,1.6-.52,1.78,1.78,0,0,0,.59-1.42,1.72,1.72,0,0,0-.57-1.36,2.27,2.27,0,0,0-1.56-.5Z" transform="translate(-105.98 -206.49)"/>
    <path class="cls-4" d="M488.85,242.89l.29,1.44.35-1.37,2-6.85h.71l2,6.85.35,1.39.3-1.46,1.68-6.78h.81L495,245.4h-.76l-2.1-7.27-.24-.92-.23.92-2.15,7.27h-.76l-2.37-9.29h.81Z" transform="translate(-105.98 -206.49)"/>
    <path class="cls-4" d="M499.2,244.74h5.73v.66h-6.68v-.59l5.51-8h-5.35v-.66h6.32v.56Z" transform="translate(-105.98 -206.49)"/>
    <path class="cls-4" d="M513.24,242.5a3.37,3.37,0,0,1-1,2.25,3.46,3.46,0,0,1-2.37.78,3.26,3.26,0,0,1-3.06-2,5.35,5.35,0,0,1-.44-2.17v-1.21a5.25,5.25,0,0,1,.44-2.19A3.36,3.36,0,0,1,508,236.5a3.49,3.49,0,0,1,1.88-.52,3.29,3.29,0,0,1,2.35.81,3.33,3.33,0,0,1,1,2.22h-.79a2.36,2.36,0,0,0-2.57-2.36,2.45,2.45,0,0,0-2,.94,4.09,4.09,0,0,0-.74,2.61v1.14a4.13,4.13,0,0,0,.73,2.57,2.35,2.35,0,0,0,2,1,2.6,2.6,0,0,0,1.86-.59,2.86,2.86,0,0,0,.77-1.77Z" transform="translate(-105.98 -206.49)"/>
    <path class="cls-4" d="M521.79,241.53h-2.7v3.87h-.79v-9.29h3a3.43,3.43,0,0,1,2.32.72,2.5,2.5,0,0,1,.84,2,2.58,2.58,0,0,1-.52,1.58,2.68,2.68,0,0,1-1.41.94l2.32,4v.08H524Zm-2.7-.67h2.41a2.21,2.21,0,0,0,1.59-.56,2.11,2.11,0,0,0,0-3,2.58,2.58,0,0,0-1.75-.55h-2.22Z" transform="translate(-105.98 -206.49)"/>
    <path class="cls-4" d="M526,241.85a4.2,4.2,0,0,1,.38-1.8,2.89,2.89,0,0,1,2.69-1.68,2.82,2.82,0,0,1,2.23,1,3.7,3.7,0,0,1,.86,2.56v.16a4.06,4.06,0,0,1-.39,1.8,2.88,2.88,0,0,1-1.08,1.23,3,3,0,0,1-1.61.44,2.84,2.84,0,0,1-2.23-1A3.72,3.72,0,0,1,526,242Zm.76.21a3.18,3.18,0,0,0,.64,2,2.18,2.18,0,0,0,3.36,0,3.23,3.23,0,0,0,.64-2.1v-.14a3.61,3.61,0,0,0-.29-1.45,2.35,2.35,0,0,0-.83-1,2.08,2.08,0,0,0-1.21-.36,2,2,0,0,0-1.66.8,3.23,3.23,0,0,0-.65,2.1Z" transform="translate(-105.98 -206.49)"/>
    <path class="cls-4" d="M533.33,241.85a4.06,4.06,0,0,1,.39-1.8,2.89,2.89,0,0,1,2.69-1.68,2.82,2.82,0,0,1,2.23,1,3.7,3.7,0,0,1,.86,2.56v.16a4.06,4.06,0,0,1-.39,1.8,2.9,2.9,0,0,1-1.09,1.23,3,3,0,0,1-1.6.44,2.83,2.83,0,0,1-2.23-1,3.72,3.72,0,0,1-.86-2.56Zm.77.21a3.12,3.12,0,0,0,.64,2,2.06,2.06,0,0,0,1.68.79,2,2,0,0,0,1.67-.79,3.23,3.23,0,0,0,.65-2.1v-.14a3.45,3.45,0,0,0-.3-1.45,2.33,2.33,0,0,0-.82-1,2.1,2.1,0,0,0-1.21-.36,2.06,2.06,0,0,0-1.67.8,3.23,3.23,0,0,0-.64,2.1Z" transform="translate(-105.98 -206.49)"/>
    <path class="cls-4" d="M540.76,241.88a4.16,4.16,0,0,1,.72-2.56,2.33,2.33,0,0,1,1.95-.95,2.41,2.41,0,0,1,2.13,1.1V235.6h.76v9.8h-.71l0-.92a2.45,2.45,0,0,1-2.15,1.05,2.31,2.31,0,0,1-1.93-1,4.25,4.25,0,0,1-.73-2.6Zm.78.14a3.54,3.54,0,0,0,.53,2.08,1.7,1.7,0,0,0,1.49.76,2,2,0,0,0,2-1.24v-3.24a2,2,0,0,0-2-1.35,1.75,1.75,0,0,0-1.5.76A3.83,3.83,0,0,0,541.54,242Z" transform="translate(-105.98 -206.49)"/>
    <path class="cls-4" d="M482.76,274.14h-2l-.49,2.61h-.64l.49-2.61H478.5v-.59h1.73l.53-2.82H479v-.61h1.9l.5-2.65H482l-.5,2.65h2l.5-2.65h.64l-.5,2.65h1.46v.61H484l-.53,2.82h1.63v.59H483.4l-.49,2.61h-.64Zm-1.89-.59h2l.53-2.82h-2Z" transform="translate(-105.98 -206.49)"/>
    <path class="cls-4" d="M487.1,276.75v-6.27H486v-.63h1.14V269a2.27,2.27,0,0,1,.54-1.63,2,2,0,0,1,1.5-.57,3,3,0,0,1,.81.11l-.06.63a3,3,0,0,0-.69-.08,1.29,1.29,0,0,0-1,.4,1.62,1.62,0,0,0-.35,1.11v.86h1.65v.63h-1.65v6.27Z" transform="translate(-105.98 -206.49)"/>
    <path class="cls-4" d="M491.42,276.75v-6.27h-1.14v-.63h1.14V269a2.27,2.27,0,0,1,.54-1.63,2,2,0,0,1,1.5-.57,3,3,0,0,1,.81.11l0,.63a3.13,3.13,0,0,0-.7-.08,1.25,1.25,0,0,0-1,.4,1.57,1.57,0,0,0-.35,1.11v.86h1.64v.63h-1.64v6.27Z" transform="translate(-105.98 -206.49)"/>
    <path class="cls-4" d="M500.68,272.88a5.12,5.12,0,0,1-.72,3,2.73,2.73,0,0,1-4.24,0A4.9,4.9,0,0,1,495,273v-1.67a5,5,0,0,1,.73-3,2.43,2.43,0,0,1,2.12-1,2.48,2.48,0,0,1,2.11,1,4.94,4.94,0,0,1,.75,2.87Zm-.77-1.66a4.47,4.47,0,0,0-.52-2.41,1.92,1.92,0,0,0-3.13,0,4.46,4.46,0,0,0-.53,2.35V273a4.57,4.57,0,0,0,.54,2.44,1.87,1.87,0,0,0,3.11,0,4.49,4.49,0,0,0,.53-2.41Z" transform="translate(-105.98 -206.49)"/>
    <path class="cls-4" d="M507.92,272.88a5.12,5.12,0,0,1-.72,3,2.73,2.73,0,0,1-4.24,0,4.9,4.9,0,0,1-.75-2.9v-1.67a5,5,0,0,1,.73-3,2.43,2.43,0,0,1,2.12-1,2.48,2.48,0,0,1,2.11,1,4.94,4.94,0,0,1,.75,2.87Zm-.77-1.66a4.47,4.47,0,0,0-.52-2.41,1.92,1.92,0,0,0-3.13,0,4.46,4.46,0,0,0-.53,2.35V273a4.57,4.57,0,0,0,.54,2.44,1.87,1.87,0,0,0,3.11,0,4.49,4.49,0,0,0,.53-2.41Z" transform="translate(-105.98 -206.49)"/>
    <path class="cls-4" d="M515.16,272.88a5.12,5.12,0,0,1-.72,3,2.73,2.73,0,0,1-4.24,0,4.9,4.9,0,0,1-.75-2.9v-1.67a5,5,0,0,1,.73-3,2.43,2.43,0,0,1,2.12-1,2.48,2.48,0,0,1,2.11,1,4.94,4.94,0,0,1,.75,2.87Zm-.77-1.66a4.47,4.47,0,0,0-.52-2.41,1.72,1.72,0,0,0-1.57-.82,1.7,1.7,0,0,0-1.55.8,4.36,4.36,0,0,0-.54,2.35V273a4.57,4.57,0,0,0,.54,2.44,1.74,1.74,0,0,0,1.56.84,1.72,1.72,0,0,0,1.55-.83,4.49,4.49,0,0,0,.53-2.41Z" transform="translate(-105.98 -206.49)"/>
    <path class="cls-4" d="M522.4,272.88a5.12,5.12,0,0,1-.72,3,2.73,2.73,0,0,1-4.24,0,4.9,4.9,0,0,1-.75-2.9v-1.67a5,5,0,0,1,.73-3,2.43,2.43,0,0,1,2.12-1,2.48,2.48,0,0,1,2.11,1,4.94,4.94,0,0,1,.75,2.87Zm-.77-1.66a4.47,4.47,0,0,0-.52-2.41,1.72,1.72,0,0,0-1.57-.82,1.7,1.7,0,0,0-1.55.8,4.36,4.36,0,0,0-.54,2.35V273a4.57,4.57,0,0,0,.54,2.44,1.74,1.74,0,0,0,1.56.84,1.72,1.72,0,0,0,1.55-.83,4.49,4.49,0,0,0,.53-2.41Z" transform="translate(-105.98 -206.49)"/>
    <path class="cls-4" d="M482.6,288.56h-2.7v3.87h-.79v-9.29h3a3.45,3.45,0,0,1,2.32.72,2.73,2.73,0,0,1,.31,3.59,2.66,2.66,0,0,1-1.4.94l2.32,4v.08h-.83Zm-2.7-.66h2.41a2.17,2.17,0,0,0,1.58-.57,2.12,2.12,0,0,0,0-3,2.6,2.6,0,0,0-1.75-.54H479.9Z" transform="translate(-105.98 -206.49)"/>
    <path class="cls-4" d="M492.94,292.43h-5.82v-.59l3.19-3.61a8.31,8.31,0,0,0,1.09-1.5,2.46,2.46,0,0,0,.31-1.16,1.86,1.86,0,0,0-.52-1.39,1.93,1.93,0,0,0-1.42-.51,2,2,0,0,0-1.52.6,2.15,2.15,0,0,0-.57,1.55h-.76a3,3,0,0,1,.35-1.43,2.58,2.58,0,0,1,1-1,3,3,0,0,1,1.49-.36,2.77,2.77,0,0,1,2,.67,2.35,2.35,0,0,1,.72,1.82,3.07,3.07,0,0,1-.4,1.42,10.48,10.48,0,0,1-1.43,1.93l-2.59,2.93h4.88Z" transform="translate(-105.98 -206.49)"/>
    <path class="cls-4" d="M494.88,287.67l.45-4.53H500v.71h-4l-.33,3.14a3.05,3.05,0,0,1,1.75-.51,2.58,2.58,0,0,1,2,.82,3.12,3.12,0,0,1,.74,2.17,3.27,3.27,0,0,1-.73,2.28,2.59,2.59,0,0,1-2,.81,2.84,2.84,0,0,1-2-.68,2.75,2.75,0,0,1-.86-1.89h.73a2.26,2.26,0,0,0,.65,1.44,2.1,2.1,0,0,0,1.45.48,1.82,1.82,0,0,0,1.5-.63,2.8,2.8,0,0,0,.51-1.8,2.41,2.41,0,0,0-.57-1.66,2,2,0,0,0-1.55-.65,3,3,0,0,0-.95.14,2.58,2.58,0,0,0-.84.53Z" transform="translate(-105.98 -206.49)"/>
    <path class="cls-4" d="M502.12,287.67l.45-4.53h4.65v.71h-4L502.9,287a3.05,3.05,0,0,1,1.75-.51,2.58,2.58,0,0,1,2,.82,3.12,3.12,0,0,1,.74,2.17,3.27,3.27,0,0,1-.73,2.28,2.59,2.59,0,0,1-2,.81,2.84,2.84,0,0,1-2-.68,2.75,2.75,0,0,1-.86-1.89h.74a2.2,2.2,0,0,0,.64,1.44,2.1,2.1,0,0,0,1.45.48,1.82,1.82,0,0,0,1.5-.63,2.8,2.8,0,0,0,.51-1.8,2.41,2.41,0,0,0-.57-1.66,2,2,0,0,0-1.55-.65,3,3,0,0,0-.95.14,2.58,2.58,0,0,0-.84.53Z" transform="translate(-105.98 -206.49)"/>
    <path class="cls-4" d="M519,291.33a2.59,2.59,0,0,1-1.27.9,5.46,5.46,0,0,1-2,.33,3.68,3.68,0,0,1-1.94-.52,3.52,3.52,0,0,1-1.32-1.48,5.12,5.12,0,0,1-.47-2.2v-1.17a4.47,4.47,0,0,1,1-3.05,3.28,3.28,0,0,1,2.62-1.12,3.46,3.46,0,0,1,2.31.73,3,3,0,0,1,1,2h-.79a2.38,2.38,0,0,0-.83-1.55,2.62,2.62,0,0,0-1.72-.53,2.53,2.53,0,0,0-2.06.92,4,4,0,0,0-.76,2.62v1.09a4.6,4.6,0,0,0,.36,1.88,2.86,2.86,0,0,0,1,1.26,2.71,2.71,0,0,0,1.55.45,4.39,4.39,0,0,0,1.74-.32,1.86,1.86,0,0,0,.7-.5v-2.39h-2.49V288H519Z" transform="translate(-105.98 -206.49)"/>
    <path class="cls-4" d="M526.55,288.56a5.14,5.14,0,0,1-.72,3,2.72,2.72,0,0,1-4.23,0,5,5,0,0,1-.76-2.91V287a5,5,0,0,1,.73-3,2.44,2.44,0,0,1,2.12-1,2.48,2.48,0,0,1,2.11,1,4.84,4.84,0,0,1,.75,2.87Zm-.76-1.67a4.61,4.61,0,0,0-.52-2.41,1.75,1.75,0,0,0-1.58-.81,1.73,1.73,0,0,0-1.55.79,4.42,4.42,0,0,0-.54,2.36v1.82a4.51,4.51,0,0,0,.54,2.43,1.75,1.75,0,0,0,1.57.84,1.7,1.7,0,0,0,1.54-.82,4.6,4.6,0,0,0,.54-2.41Z" transform="translate(-105.98 -206.49)"/>
    <path class="cls-4" d="M531.67,292.43v-9.29h2.74a3.59,3.59,0,0,1,2.27.62,2.2,2.2,0,0,1,.77,1.82,2,2,0,0,1-.4,1.25,2.11,2.11,0,0,1-1.07.76,2.24,2.24,0,0,1,1.8,2.23,2.41,2.41,0,0,1-.8,1.92,3.23,3.23,0,0,1-2.21.69Zm.78-5.12h2.15a2.43,2.43,0,0,0,1.52-.46,1.84,1.84,0,0,0,0-2.62,2.81,2.81,0,0,0-1.69-.42h-2Zm0,.66v3.8h2.36a2.29,2.29,0,0,0,1.59-.52,1.75,1.75,0,0,0,.59-1.42,1.72,1.72,0,0,0-.56-1.36,2.3,2.3,0,0,0-1.56-.5Z" transform="translate(-105.98 -206.49)"/>
    <path class="cls-4" d="M545,288.56a5.14,5.14,0,0,1-.72,3,2.42,2.42,0,0,1-2.12,1,2.45,2.45,0,0,1-2.11-1,4.91,4.91,0,0,1-.75-2.91V287a5.11,5.11,0,0,1,.72-3,2.47,2.47,0,0,1,2.13-1,2.44,2.44,0,0,1,2.1,1,4.77,4.77,0,0,1,.75,2.87Zm-.76-1.67a4.52,4.52,0,0,0-.52-2.41,1.93,1.93,0,0,0-3.13,0,4.42,4.42,0,0,0-.54,2.36v1.82a4.51,4.51,0,0,0,.54,2.43,1.76,1.76,0,0,0,1.57.84,1.72,1.72,0,0,0,1.55-.82,4.51,4.51,0,0,0,.53-2.41Z" transform="translate(-105.98 -206.49)"/>
    <path class="cls-4" d="M485.71,305.21a3.37,3.37,0,0,1-1,2.25,3.49,3.49,0,0,1-2.37.78,3.26,3.26,0,0,1-3.06-2,5.35,5.35,0,0,1-.44-2.17v-1.21a5.25,5.25,0,0,1,.44-2.19,3.29,3.29,0,0,1,1.24-1.48,3.46,3.46,0,0,1,1.87-.52,3.3,3.3,0,0,1,2.36.81,3.35,3.35,0,0,1,1,2.22h-.79a2.37,2.37,0,0,0-2.58-2.36,2.43,2.43,0,0,0-2,.94,4.09,4.09,0,0,0-.75,2.61v1.14a4.19,4.19,0,0,0,.73,2.57,2.38,2.38,0,0,0,2,.95,2.56,2.56,0,0,0,1.85-.59,2.81,2.81,0,0,0,.78-1.77Z" transform="translate(-105.98 -206.49)"/>
    <path class="cls-4" d="M492.92,304.24a5.14,5.14,0,0,1-.73,3,2.42,2.42,0,0,1-2.12,1,2.47,2.47,0,0,1-2.11-1,5,5,0,0,1-.75-2.91v-1.66a5.08,5.08,0,0,1,.72-3,2.48,2.48,0,0,1,2.13-1,2.45,2.45,0,0,1,2.1,1,4.81,4.81,0,0,1,.76,2.86Zm-.77-1.67a4.49,4.49,0,0,0-.52-2.41,1.92,1.92,0,0,0-3.13,0,4.39,4.39,0,0,0-.54,2.35v1.83a4.51,4.51,0,0,0,.54,2.43,1.76,1.76,0,0,0,1.57.84,1.72,1.72,0,0,0,1.55-.82,4.51,4.51,0,0,0,.53-2.41Z" transform="translate(-105.98 -206.49)"/>
    <path class="cls-4" d="M499.07,298.82l3.43,8.2,3.43-8.2H507v9.29h-.78v-4.05l.06-4.14-3.46,8.19h-.6L498.75,300l.07,4.09v4.07H498v-9.29Z" transform="translate(-105.98 -206.49)"/>
    <path class="cls-4" d="M512.59,308.11h-.77v-8.37l-2.52.94V300l3.16-1.17h.13Z" transform="translate(-105.98 -206.49)"/>
    <path class="cls-4" d="M521.88,304.24a5.14,5.14,0,0,1-.72,3,2.73,2.73,0,0,1-4.24,0,5,5,0,0,1-.75-2.91v-1.66a5.08,5.08,0,0,1,.72-3,2.48,2.48,0,0,1,2.13-1,2.45,2.45,0,0,1,2.1,1,4.81,4.81,0,0,1,.76,2.86Zm-.77-1.67a4.49,4.49,0,0,0-.52-2.41,1.92,1.92,0,0,0-3.13,0,4.3,4.3,0,0,0-.53,2.35v1.83a4.61,4.61,0,0,0,.53,2.43,1.76,1.76,0,0,0,1.57.84,1.72,1.72,0,0,0,1.55-.82,4.51,4.51,0,0,0,.53-2.41Z" transform="translate(-105.98 -206.49)"/>
    <path class="cls-4" d="M529.12,304.24a5.14,5.14,0,0,1-.72,3,2.44,2.44,0,0,1-2.13,1,2.47,2.47,0,0,1-2.11-1,5,5,0,0,1-.75-2.91v-1.66a5.08,5.08,0,0,1,.72-3,2.48,2.48,0,0,1,2.13-1,2.45,2.45,0,0,1,2.1,1,4.81,4.81,0,0,1,.76,2.86Zm-.77-1.67a4.49,4.49,0,0,0-.52-2.41,1.92,1.92,0,0,0-3.13,0,4.3,4.3,0,0,0-.53,2.35v1.83a4.51,4.51,0,0,0,.54,2.43,1.87,1.87,0,0,0,3.11,0,4.51,4.51,0,0,0,.53-2.41Z" transform="translate(-105.98 -206.49)"/>
    <path class="cls-4" d="M537,303.89l2.83-5.07h.91l-3.35,5.79v3.5h-.79v-3.5l-3.35-5.79h.93Z" transform="translate(-105.98 -206.49)"/>
    <path class="cls-4" d="M545.31,308.11h-.77v-8.37l-2.53.94V300l3.17-1.17h.13Z" transform="translate(-105.98 -206.49)"/>
    <path class="cls-4" d="M554.59,304.24a5.14,5.14,0,0,1-.72,3,2.43,2.43,0,0,1-2.12,1,2.47,2.47,0,0,1-2.11-1,5,5,0,0,1-.76-2.91v-1.66a5.08,5.08,0,0,1,.73-3,2.75,2.75,0,0,1,4.23,0,4.74,4.74,0,0,1,.75,2.86Zm-.76-1.67a4.49,4.49,0,0,0-.52-2.41,1.92,1.92,0,0,0-3.13,0,4.39,4.39,0,0,0-.54,2.35v1.83a4.51,4.51,0,0,0,.54,2.43,1.75,1.75,0,0,0,1.57.84,1.72,1.72,0,0,0,1.55-.82,4.6,4.6,0,0,0,.53-2.41Z" transform="translate(-105.98 -206.49)"/>
    <path class="cls-4" d="M561.83,304.24a5.14,5.14,0,0,1-.72,3,2.43,2.43,0,0,1-2.12,1,2.47,2.47,0,0,1-2.11-1,5,5,0,0,1-.76-2.91v-1.66a5.08,5.08,0,0,1,.73-3,2.75,2.75,0,0,1,4.23,0,4.74,4.74,0,0,1,.75,2.86Zm-.76-1.67a4.49,4.49,0,0,0-.52-2.41,1.92,1.92,0,0,0-3.13,0,4.39,4.39,0,0,0-.54,2.35v1.83a4.51,4.51,0,0,0,.54,2.43,1.75,1.75,0,0,0,1.57.84,1.72,1.72,0,0,0,1.55-.82,4.6,4.6,0,0,0,.53-2.41Z" transform="translate(-105.98 -206.49)"/>
    <path class="cls-4" d="M569,303.5l-1.31,1.28v3.33H567v-9.29h.78v5l4.76-5h1L569.59,303l4.19,5.16h-.95Z" transform="translate(-105.98 -206.49)"/>
    <path class="cls-4" d="M580.49,304.24a5.14,5.14,0,0,1-.72,3,2.43,2.43,0,0,1-2.12,1,2.47,2.47,0,0,1-2.11-1,5,5,0,0,1-.76-2.91v-1.66a5.08,5.08,0,0,1,.73-3,2.75,2.75,0,0,1,4.23,0,4.74,4.74,0,0,1,.75,2.86Zm-.76-1.67a4.59,4.59,0,0,0-.52-2.41,1.92,1.92,0,0,0-3.13,0,4.39,4.39,0,0,0-.54,2.35v1.83a4.51,4.51,0,0,0,.54,2.43,1.75,1.75,0,0,0,1.57.84,1.73,1.73,0,0,0,1.55-.82,4.6,4.6,0,0,0,.53-2.41Z" transform="translate(-105.98 -206.49)"/>
  </g>
  <circle class="cls-12" cx="549.74" cy="78.29" r="53.22"/>
  <g>
    <path class="cls-4" d="M727,245.4v-9.29h2.74a3.56,3.56,0,0,1,2.26.62,2.16,2.16,0,0,1,.78,1.81,2.1,2.1,0,0,1-.4,1.26,2.15,2.15,0,0,1-1.07.76,2.27,2.27,0,0,1,1.8,2.23,2.41,2.41,0,0,1-.8,1.92,3.25,3.25,0,0,1-2.21.69Zm.78-5.12h2.14a2.45,2.45,0,0,0,1.53-.47,1.58,1.58,0,0,0,.53-1.29,1.55,1.55,0,0,0-.55-1.32,2.82,2.82,0,0,0-1.69-.43h-2Zm0,.66v3.8h2.35a2.35,2.35,0,0,0,1.6-.52,2,2,0,0,0,0-2.78,2.3,2.3,0,0,0-1.56-.5Z" transform="translate(-105.98 -206.49)"/>
    <path class="cls-4" d="M736.68,242.89l.28,1.44.36-1.37,2-6.85H740l2,6.85.34,1.39.31-1.46,1.68-6.78h.8l-2.38,9.29H742l-2.11-7.27-.23-.92-.23.92-2.16,7.27h-.75l-2.37-9.29h.8Z" transform="translate(-105.98 -206.49)"/>
    <path class="cls-4" d="M747,244.74h5.74v.66h-6.69v-.59l5.52-8h-5.35v-.66h6.32v.56Z" transform="translate(-105.98 -206.49)"/>
    <path class="cls-4" d="M761.07,242.5a3.37,3.37,0,0,1-1.05,2.25,3.49,3.49,0,0,1-2.37.78,3.26,3.26,0,0,1-3.06-2,5.19,5.19,0,0,1-.44-2.17v-1.21a5.25,5.25,0,0,1,.43-2.19,3.38,3.38,0,0,1,1.25-1.48,3.46,3.46,0,0,1,1.87-.52,3.32,3.32,0,0,1,2.36.81,3.37,3.37,0,0,1,1,2.22h-.8a2.36,2.36,0,0,0-2.57-2.36,2.43,2.43,0,0,0-2,.94,4.09,4.09,0,0,0-.75,2.61v1.14a4.13,4.13,0,0,0,.73,2.57,2.38,2.38,0,0,0,2,1,2.57,2.57,0,0,0,1.85-.59,2.75,2.75,0,0,0,.77-1.77Z" transform="translate(-105.98 -206.49)"/>
    <path class="cls-4" d="M766.15,245.4v-9.29h2.74a3.59,3.59,0,0,1,2.27.62,2.18,2.18,0,0,1,.77,1.81,2.1,2.1,0,0,1-.39,1.26,2.14,2.14,0,0,1-1.08.76,2.27,2.27,0,0,1,1.31.8,2.22,2.22,0,0,1,.49,1.43,2.4,2.4,0,0,1-.79,1.92,3.27,3.27,0,0,1-2.21.69Zm.78-5.12h2.15a2.44,2.44,0,0,0,1.52-.47,1.82,1.82,0,0,0,0-2.61,2.78,2.78,0,0,0-1.69-.43h-2Zm0,.66v3.8h2.36a2.39,2.39,0,0,0,1.6-.52,1.78,1.78,0,0,0,.59-1.42,1.72,1.72,0,0,0-.57-1.36,2.28,2.28,0,0,0-1.56-.5Z" transform="translate(-105.98 -206.49)"/>
    <path class="cls-4" d="M774.83,245.4h-.76v-9.8h.76Z" transform="translate(-105.98 -206.49)"/>
    <path class="cls-4" d="M781.26,245.4a3.85,3.85,0,0,1-.15-1,2.6,2.6,0,0,1-1,.8,3.1,3.1,0,0,1-1.32.29,2.32,2.32,0,0,1-1.61-.56,1.81,1.81,0,0,1-.61-1.4,1.87,1.87,0,0,1,.84-1.6,4,4,0,0,1,2.33-.58h1.39v-.79a1.49,1.49,0,0,0-.46-1.16,1.9,1.9,0,0,0-1.33-.43,2.1,2.1,0,0,0-1.32.41,1.2,1.2,0,0,0-.52,1h-.77a1.78,1.78,0,0,1,.77-1.43,3,3,0,0,1,1.88-.6,2.65,2.65,0,0,1,1.82.58,2.07,2.07,0,0,1,.69,1.61v3.26a4.05,4.05,0,0,0,.21,1.5v.08Zm-2.4-.55a2.54,2.54,0,0,0,1.37-.37,2.27,2.27,0,0,0,.88-1V242h-1.37a3.41,3.41,0,0,0-1.78.42,1.26,1.26,0,0,0-.65,1.11,1.27,1.27,0,0,0,.43,1A1.65,1.65,0,0,0,778.86,244.85Z" transform="translate(-105.98 -206.49)"/>
    <path class="cls-4" d="M788.34,244.53a2.49,2.49,0,0,1-2.2,1,2.18,2.18,0,0,1-1.68-.64,2.84,2.84,0,0,1-.58-1.9V238.5h.76v4.39c0,1.32.53,2,1.59,2a1.94,1.94,0,0,0,2.1-1.37v-5h.76v6.9h-.74Z" transform="translate(-105.98 -206.49)"/>
    <path class="cls-4" d="M792.73,243.81l.12.59.15-.62,1.66-5.28h.65l1.64,5.23.18.73.14-.67,1.42-5.29h.79l-2,6.9h-.65l-1.77-5.47-.09-.38-.08.38-1.74,5.47h-.65l-2-6.9h.78Z" transform="translate(-105.98 -206.49)"/>
    <path class="cls-4" d="M730.59,274.14h-2l-.49,2.61h-.63l.49-2.61h-1.63v-.59h1.74l.53-2.82h-1.78v-.61h1.89l.51-2.65h.63l-.51,2.65h2l.51-2.65h.64l-.51,2.65h1.46v.61h-1.57l-.53,2.82H733v.59h-1.74l-.49,2.61h-.64Zm-1.9-.59h2l.53-2.82h-2Z" transform="translate(-105.98 -206.49)"/>
    <path class="cls-4" d="M739.85,272.88a5.12,5.12,0,0,1-.72,3,2.42,2.42,0,0,1-2.12,1,2.45,2.45,0,0,1-2.11-1,4.9,4.9,0,0,1-.75-2.9v-1.67a5.07,5.07,0,0,1,.72-3,2.75,2.75,0,0,1,4.23,0,4.79,4.79,0,0,1,.75,2.87Zm-.76-1.66a4.47,4.47,0,0,0-.52-2.41,1.92,1.92,0,0,0-3.13,0,4.36,4.36,0,0,0-.54,2.35V273a4.57,4.57,0,0,0,.54,2.44,1.76,1.76,0,0,0,1.57.84,1.73,1.73,0,0,0,1.55-.83,4.58,4.58,0,0,0,.53-2.41Z" transform="translate(-105.98 -206.49)"/>
    <path class="cls-4" d="M747.09,272.88a5.12,5.12,0,0,1-.72,3,2.42,2.42,0,0,1-2.12,1,2.45,2.45,0,0,1-2.11-1,4.9,4.9,0,0,1-.75-2.9v-1.67a5.07,5.07,0,0,1,.72-3,2.75,2.75,0,0,1,4.23,0,4.79,4.79,0,0,1,.75,2.87Zm-.76-1.66a4.47,4.47,0,0,0-.52-2.41,1.92,1.92,0,0,0-3.13,0,4.36,4.36,0,0,0-.54,2.35V273a4.57,4.57,0,0,0,.54,2.44,1.76,1.76,0,0,0,1.57.84,1.73,1.73,0,0,0,1.55-.83,4.49,4.49,0,0,0,.53-2.41Z" transform="translate(-105.98 -206.49)"/>
    <path class="cls-4" d="M754.33,272.88a5.12,5.12,0,0,1-.72,3,2.42,2.42,0,0,1-2.12,1,2.45,2.45,0,0,1-2.11-1,4.9,4.9,0,0,1-.75-2.9v-1.67a5.07,5.07,0,0,1,.72-3,2.75,2.75,0,0,1,4.23,0,4.79,4.79,0,0,1,.75,2.87Zm-.76-1.66a4.47,4.47,0,0,0-.52-2.41,1.92,1.92,0,0,0-3.13,0,4.36,4.36,0,0,0-.54,2.35V273a4.57,4.57,0,0,0,.54,2.44,1.76,1.76,0,0,0,1.57.84,1.73,1.73,0,0,0,1.55-.83,4.49,4.49,0,0,0,.53-2.41Z" transform="translate(-105.98 -206.49)"/>
    <path class="cls-4" d="M761.58,272.88a5.11,5.11,0,0,1-.73,3,2.42,2.42,0,0,1-2.12,1,2.45,2.45,0,0,1-2.11-1,4.9,4.9,0,0,1-.75-2.9v-1.67a5.07,5.07,0,0,1,.72-3,2.75,2.75,0,0,1,4.23,0,4.86,4.86,0,0,1,.76,2.87Zm-.77-1.66a4.47,4.47,0,0,0-.52-2.41,1.92,1.92,0,0,0-3.13,0,4.36,4.36,0,0,0-.54,2.35V273a4.57,4.57,0,0,0,.54,2.44,1.76,1.76,0,0,0,1.57.84,1.73,1.73,0,0,0,1.55-.83,4.49,4.49,0,0,0,.53-2.41Z" transform="translate(-105.98 -206.49)"/>
    <path class="cls-4" d="M763.88,276.75v-6.27h-1.14v-.63h1.14V269a2.27,2.27,0,0,1,.54-1.63,2,2,0,0,1,1.51-.57,3,3,0,0,1,.81.11l-.06.63a3.06,3.06,0,0,0-.7-.08,1.25,1.25,0,0,0-1,.4,1.62,1.62,0,0,0-.35,1.11v.86h1.65v.63h-1.65v6.27Z" transform="translate(-105.98 -206.49)"/>
    <path class="cls-4" d="M768.21,276.75v-6.27h-1.14v-.63h1.14V269a2.27,2.27,0,0,1,.54-1.63,2,2,0,0,1,1.5-.57,3,3,0,0,1,.81.11l-.06.63a3,3,0,0,0-.69-.08,1.25,1.25,0,0,0-1,.4A1.57,1.57,0,0,0,769,269v.86h1.64v.63H769v6.27Z" transform="translate(-105.98 -206.49)"/>
    <path class="cls-4" d="M730.43,288.56h-2.7v3.87h-.79v-9.29h3a3.46,3.46,0,0,1,2.33.72,2.54,2.54,0,0,1,.83,2,2.49,2.49,0,0,1-.52,1.57,2.7,2.7,0,0,1-1.4.94l2.32,4v.08h-.84Zm-2.7-.66h2.4a2.21,2.21,0,0,0,1.59-.57,1.89,1.89,0,0,0,.6-1.45,1.93,1.93,0,0,0-.62-1.53,2.63,2.63,0,0,0-1.76-.54h-2.21Z" transform="translate(-105.98 -206.49)"/>
    <path class="cls-4" d="M740.55,288.56a5.14,5.14,0,0,1-.72,3,2.43,2.43,0,0,1-2.12,1,2.47,2.47,0,0,1-2.12-1,4.91,4.91,0,0,1-.75-2.91V287a5,5,0,0,1,.73-3,2.44,2.44,0,0,1,2.12-1,2.48,2.48,0,0,1,2.11,1,4.92,4.92,0,0,1,.75,2.87Zm-.77-1.67a4.52,4.52,0,0,0-.52-2.41,1.92,1.92,0,0,0-3.12,0,4.42,4.42,0,0,0-.54,2.36v1.82a4.51,4.51,0,0,0,.54,2.43,1.75,1.75,0,0,0,1.57.84,1.7,1.7,0,0,0,1.54-.82,4.51,4.51,0,0,0,.53-2.41Z" transform="translate(-105.98 -206.49)"/>
    <path class="cls-4" d="M752.37,291.33a2.62,2.62,0,0,1-1.28.9,5.46,5.46,0,0,1-2,.33,3.73,3.73,0,0,1-1.94-.52,3.56,3.56,0,0,1-1.31-1.48,5,5,0,0,1-.47-2.2v-1.17a4.47,4.47,0,0,1,1-3.05A3.3,3.3,0,0,1,749,283a3.46,3.46,0,0,1,2.31.73,3,3,0,0,1,1,2h-.78a2.43,2.43,0,0,0-.83-1.55,2.65,2.65,0,0,0-1.73-.53,2.54,2.54,0,0,0-2.06.92,4.07,4.07,0,0,0-.76,2.62v1.09a4.6,4.6,0,0,0,.36,1.88,2.88,2.88,0,0,0,1,1.26,2.68,2.68,0,0,0,1.54.45,4.33,4.33,0,0,0,1.74-.32,1.9,1.9,0,0,0,.71-.5v-2.39h-2.5V288h3.28Z" transform="translate(-105.98 -206.49)"/>
    <path class="cls-4" d="M759.9,288.56a5.14,5.14,0,0,1-.72,3,2.73,2.73,0,0,1-4.24,0,4.91,4.91,0,0,1-.75-2.91V287a5,5,0,0,1,.73-3,2.75,2.75,0,0,1,4.22,0,4.84,4.84,0,0,1,.76,2.87Zm-.77-1.67a4.52,4.52,0,0,0-.52-2.41,1.93,1.93,0,0,0-3.13,0,4.43,4.43,0,0,0-.53,2.36v1.82a4.51,4.51,0,0,0,.54,2.43,1.74,1.74,0,0,0,1.56.84,1.72,1.72,0,0,0,1.55-.82,4.51,4.51,0,0,0,.53-2.41Z" transform="translate(-105.98 -206.49)"/>
    <path class="cls-4" d="M765,292.43v-9.29h2.75a3.56,3.56,0,0,1,2.26.62,2.18,2.18,0,0,1,.77,1.82,2.07,2.07,0,0,1-.39,1.25,2.15,2.15,0,0,1-1.07.76,2.24,2.24,0,0,1,1.3.8,2.22,2.22,0,0,1,.49,1.43,2.4,2.4,0,0,1-.79,1.92,3.27,3.27,0,0,1-2.21.69Zm.79-5.12h2.14a2.41,2.41,0,0,0,1.52-.46,1.59,1.59,0,0,0,.54-1.3,1.55,1.55,0,0,0-.56-1.32,2.77,2.77,0,0,0-1.68-.42h-2Zm0,.66v3.8h2.35a2.32,2.32,0,0,0,1.6-.52,1.78,1.78,0,0,0,.59-1.42,1.76,1.76,0,0,0-.56-1.36,2.3,2.3,0,0,0-1.56-.5Z" transform="translate(-105.98 -206.49)"/>
    <path class="cls-4" d="M778.54,292.43h-5.82v-.59l3.18-3.61a8,8,0,0,0,1.1-1.5,2.59,2.59,0,0,0,.31-1.16,1.89,1.89,0,0,0-.52-1.39,1.93,1.93,0,0,0-1.42-.51,2,2,0,0,0-1.52.6,2.15,2.15,0,0,0-.58,1.55h-.75a2.89,2.89,0,0,1,.35-1.43,2.58,2.58,0,0,1,1-1,3,3,0,0,1,1.49-.36,2.79,2.79,0,0,1,2,.67,2.35,2.35,0,0,1,.72,1.82,3.1,3.1,0,0,1-.41,1.42,10.34,10.34,0,0,1-1.42,1.93l-2.59,2.93h4.88Z" transform="translate(-105.98 -206.49)"/>
    <path class="cls-4" d="M780.48,287.67l.45-4.53h4.64v.71h-4l-.33,3.14a3,3,0,0,1,1.75-.51,2.56,2.56,0,0,1,2,.82,3.08,3.08,0,0,1,.75,2.17,3.27,3.27,0,0,1-.73,2.28,2.61,2.61,0,0,1-2,.81,2.83,2.83,0,0,1-2-.68,2.75,2.75,0,0,1-.86-1.89h.73a2.21,2.21,0,0,0,.65,1.44,2.07,2.07,0,0,0,1.44.48,1.82,1.82,0,0,0,1.51-.63,2.86,2.86,0,0,0,.5-1.8,2.41,2.41,0,0,0-.57-1.66,1.94,1.94,0,0,0-1.54-.65,3,3,0,0,0-1,.14,2.61,2.61,0,0,0-.85.53Z" transform="translate(-105.98 -206.49)"/>
    <path class="cls-4" d="M787.72,287.67l.45-4.53h4.64v.71h-4L788.5,287a3,3,0,0,1,1.75-.51,2.56,2.56,0,0,1,2,.82,3.08,3.08,0,0,1,.75,2.17,3.27,3.27,0,0,1-.73,2.28,2.61,2.61,0,0,1-2,.81,2.83,2.83,0,0,1-2-.68,2.75,2.75,0,0,1-.86-1.89h.73a2.21,2.21,0,0,0,.65,1.44,2.07,2.07,0,0,0,1.44.48,1.82,1.82,0,0,0,1.51-.63,2.86,2.86,0,0,0,.5-1.8,2.45,2.45,0,0,0-.56-1.66,2,2,0,0,0-1.55-.65,3,3,0,0,0-1,.14,2.61,2.61,0,0,0-.85.53Z" transform="translate(-105.98 -206.49)"/>
    <path class="cls-4" d="M733.53,305.21a3.28,3.28,0,0,1-1,2.25,3.46,3.46,0,0,1-2.37.78,3.29,3.29,0,0,1-1.82-.52,3.35,3.35,0,0,1-1.23-1.46,5.19,5.19,0,0,1-.44-2.17v-1.21a5.25,5.25,0,0,1,.43-2.19,3.38,3.38,0,0,1,1.25-1.48,3.43,3.43,0,0,1,1.87-.52,3.1,3.1,0,0,1,3.36,3h-.79a2.36,2.36,0,0,0-2.57-2.36,2.43,2.43,0,0,0-2,.94,4.09,4.09,0,0,0-.75,2.61v1.14a4.13,4.13,0,0,0,.73,2.57,2.36,2.36,0,0,0,2,.95A2.6,2.6,0,0,0,732,307a2.8,2.8,0,0,0,.77-1.77Z" transform="translate(-105.98 -206.49)"/>
    <path class="cls-4" d="M738.69,308.11h-.76v-8.37l-2.53.94V300l3.17-1.17h.12Z" transform="translate(-105.98 -206.49)"/>
    <path class="cls-4" d="M748,304.24a5.14,5.14,0,0,1-.72,3,2.43,2.43,0,0,1-2.12,1,2.46,2.46,0,0,1-2.11-1,5,5,0,0,1-.76-2.91v-1.66a5,5,0,0,1,.73-3,2.45,2.45,0,0,1,2.12-1,2.48,2.48,0,0,1,2.11,1,4.88,4.88,0,0,1,.75,2.86Zm-.76-1.67a4.59,4.59,0,0,0-.52-2.41,1.76,1.76,0,0,0-1.58-.82,1.73,1.73,0,0,0-1.55.8,4.39,4.39,0,0,0-.54,2.35v1.83a4.51,4.51,0,0,0,.54,2.43,1.75,1.75,0,0,0,1.57.84,1.7,1.7,0,0,0,1.54-.82,4.6,4.6,0,0,0,.54-2.41Z" transform="translate(-105.98 -206.49)"/>
    <path class="cls-4" d="M755.22,304.24a5.14,5.14,0,0,1-.72,3,2.43,2.43,0,0,1-2.12,1,2.46,2.46,0,0,1-2.11-1,5,5,0,0,1-.76-2.91v-1.66a5,5,0,0,1,.73-3,2.45,2.45,0,0,1,2.12-1,2.48,2.48,0,0,1,2.11,1,4.81,4.81,0,0,1,.75,2.86Zm-.76-1.67a4.59,4.59,0,0,0-.52-2.41,1.76,1.76,0,0,0-1.58-.82,1.73,1.73,0,0,0-1.55.8,4.39,4.39,0,0,0-.54,2.35v1.83a4.51,4.51,0,0,0,.54,2.43,1.75,1.75,0,0,0,1.57.84,1.7,1.7,0,0,0,1.54-.82,4.6,4.6,0,0,0,.54-2.41Z" transform="translate(-105.98 -206.49)"/>
    <path class="cls-4" d="M761.38,298.82l3.42,8.2,3.44-8.2h1v9.29h-.79v-4.05l.07-4.14-3.46,8.19h-.61L761.06,300l.06,4.09v4.07h-.78v-9.29Z" transform="translate(-105.98 -206.49)"/>
    <path class="cls-4" d="M774.89,308.11h-.76v-8.37l-2.53.94V300l3.17-1.17h.12Z" transform="translate(-105.98 -206.49)"/>
    <path class="cls-4" d="M784.18,304.24a5.14,5.14,0,0,1-.72,3,2.43,2.43,0,0,1-2.12,1,2.46,2.46,0,0,1-2.11-1,5,5,0,0,1-.76-2.91v-1.66a5.08,5.08,0,0,1,.73-3,2.75,2.75,0,0,1,4.23,0,4.74,4.74,0,0,1,.75,2.86Zm-.76-1.67a4.59,4.59,0,0,0-.52-2.41,1.92,1.92,0,0,0-3.13,0,4.39,4.39,0,0,0-.54,2.35v1.83a4.51,4.51,0,0,0,.54,2.43,1.75,1.75,0,0,0,1.57.84,1.7,1.7,0,0,0,1.54-.82,4.5,4.5,0,0,0,.54-2.41Z" transform="translate(-105.98 -206.49)"/>
    <path class="cls-4" d="M791.42,304.24a5.14,5.14,0,0,1-.72,3,2.43,2.43,0,0,1-2.12,1,2.47,2.47,0,0,1-2.11-1,5,5,0,0,1-.76-2.91v-1.66a5.08,5.08,0,0,1,.73-3,2.75,2.75,0,0,1,4.23,0,4.74,4.74,0,0,1,.75,2.86Zm-.76-1.67a4.59,4.59,0,0,0-.52-2.41,1.92,1.92,0,0,0-3.13,0,4.39,4.39,0,0,0-.54,2.35v1.83a4.51,4.51,0,0,0,.54,2.43,1.75,1.75,0,0,0,1.57.84,1.7,1.7,0,0,0,1.54-.82,4.5,4.5,0,0,0,.54-2.41Z" transform="translate(-105.98 -206.49)"/>
    <path class="cls-4" d="M799.26,303.89l2.84-5.07H803l-3.36,5.79v3.5h-.78v-3.5l-3.35-5.79h.93Z" transform="translate(-105.98 -206.49)"/>
    <path class="cls-4" d="M809.66,304.24a5.14,5.14,0,0,1-.72,3,2.43,2.43,0,0,1-2.12,1,2.49,2.49,0,0,1-2.12-1,5,5,0,0,1-.75-2.91v-1.66a5,5,0,0,1,.73-3,2.45,2.45,0,0,1,2.12-1,2.48,2.48,0,0,1,2.11,1,4.88,4.88,0,0,1,.75,2.86Zm-.77-1.67a4.6,4.6,0,0,0-.51-2.41,1.77,1.77,0,0,0-1.58-.82,1.72,1.72,0,0,0-1.55.8,4.39,4.39,0,0,0-.54,2.35v1.83a4.51,4.51,0,0,0,.54,2.43,1.75,1.75,0,0,0,1.57.84,1.7,1.7,0,0,0,1.54-.82,4.51,4.51,0,0,0,.53-2.41Z" transform="translate(-105.98 -206.49)"/>
    <path class="cls-4" d="M816.87,303.5l-1.31,1.28v3.33h-.78v-9.29h.78v5l4.76-5h1L817.42,303l4.19,5.16h-1Z" transform="translate(-105.98 -206.49)"/>
    <path class="cls-4" d="M828.32,304.24a5.14,5.14,0,0,1-.72,3,2.44,2.44,0,0,1-2.13,1,2.48,2.48,0,0,1-2.11-1,5,5,0,0,1-.75-2.91v-1.66a5,5,0,0,1,.73-3,2.45,2.45,0,0,1,2.12-1,2.48,2.48,0,0,1,2.11,1,4.88,4.88,0,0,1,.75,2.86Zm-.77-1.67a4.49,4.49,0,0,0-.52-2.41,1.91,1.91,0,0,0-3.12,0,4.39,4.39,0,0,0-.54,2.35v1.83a4.51,4.51,0,0,0,.54,2.43,1.74,1.74,0,0,0,1.56.84,1.71,1.71,0,0,0,1.55-.82,4.51,4.51,0,0,0,.53-2.41Z" transform="translate(-105.98 -206.49)"/>
  </g>
  <circle class="cls-13" cx="801.29" cy="78.29" r="53.22"/>
  <g>
    <path class="cls-4" d="M978.51,245.4v-9.29h2.74a3.59,3.59,0,0,1,2.27.62,2.18,2.18,0,0,1,.77,1.81,2.1,2.1,0,0,1-.39,1.26,2.18,2.18,0,0,1-1.08.76,2.27,2.27,0,0,1,1.31.8,2.22,2.22,0,0,1,.49,1.43,2.4,2.4,0,0,1-.79,1.92,3.27,3.27,0,0,1-2.21.69Zm.78-5.12h2.15a2.44,2.44,0,0,0,1.52-.47,1.82,1.82,0,0,0,0-2.61,2.8,2.8,0,0,0-1.69-.43h-2Zm0,.66v3.8h2.36a2.39,2.39,0,0,0,1.6-.52,1.78,1.78,0,0,0,.58-1.42,1.71,1.71,0,0,0-.56-1.36,2.3,2.3,0,0,0-1.56-.5Z" transform="translate(-105.98 -206.49)"/>
    <path class="cls-4" d="M988.23,242.89l.29,1.44.35-1.37,2-6.85h.71l2,6.85.35,1.39.3-1.46,1.68-6.78h.8l-2.38,9.29h-.75l-2.1-7.27-.24-.92-.23.92-2.15,7.27h-.76l-2.37-9.29h.8Z" transform="translate(-105.98 -206.49)"/>
    <path class="cls-4" d="M998.58,244.74h5.73v.66h-6.68v-.59l5.51-8h-5.35v-.66h6.32v.56Z" transform="translate(-105.98 -206.49)"/>
    <path class="cls-4" d="M1012.62,242.5a3.37,3.37,0,0,1-1,2.25,3.46,3.46,0,0,1-2.37.78,3.26,3.26,0,0,1-3.06-2,5.35,5.35,0,0,1-.44-2.17v-1.21a5.25,5.25,0,0,1,.44-2.19,3.36,3.36,0,0,1,1.24-1.48,3.49,3.49,0,0,1,1.88-.52,3.29,3.29,0,0,1,2.35.81,3.37,3.37,0,0,1,1,2.22h-.79a2.37,2.37,0,0,0-2.57-2.36,2.44,2.44,0,0,0-2,.94,4.09,4.09,0,0,0-.75,2.61v1.14a4.19,4.19,0,0,0,.73,2.57,2.38,2.38,0,0,0,2,1,2.56,2.56,0,0,0,1.85-.59,2.81,2.81,0,0,0,.78-1.77Z" transform="translate(-105.98 -206.49)"/>
    <path class="cls-4" d="M1024.41,244.3a2.73,2.73,0,0,1-1.28.9,5.46,5.46,0,0,1-2,.33,3.59,3.59,0,0,1-1.94-.53,3.38,3.38,0,0,1-1.31-1.48,5.08,5.08,0,0,1-.48-2.19v-1.17a4.52,4.52,0,0,1,1-3.06,3.31,3.31,0,0,1,2.62-1.12,3.51,3.51,0,0,1,2.31.73,3,3,0,0,1,1,2h-.78a2.41,2.41,0,0,0-.84-1.55,2.62,2.62,0,0,0-1.72-.53,2.53,2.53,0,0,0-2.06.92,4,4,0,0,0-.76,2.61v1.1a4.64,4.64,0,0,0,.36,1.88,2.86,2.86,0,0,0,1,1.26,2.81,2.81,0,0,0,1.55.44,4.19,4.19,0,0,0,1.74-.32,1.84,1.84,0,0,0,.7-.49v-2.4h-2.49V241h3.28Z" transform="translate(-105.98 -206.49)"/>
    <path class="cls-4" d="M1029.13,245.53a3,3,0,0,1-1.59-.44,2.89,2.89,0,0,1-1.11-1.21,3.77,3.77,0,0,1-.4-1.73v-.28a4,4,0,0,1,.39-1.79,3,3,0,0,1,1.07-1.25,2.63,2.63,0,0,1,1.5-.46,2.5,2.5,0,0,1,2,.86,3.47,3.47,0,0,1,.74,2.34V242h-4.93v.15a2.92,2.92,0,0,0,.67,1.95,2.16,2.16,0,0,0,1.7.78,2.45,2.45,0,0,0,1.08-.22,2.38,2.38,0,0,0,.85-.72l.48.37A2.79,2.79,0,0,1,1029.13,245.53ZM1029,239a1.89,1.89,0,0,0-1.45.63,2.85,2.85,0,0,0-.72,1.7H1031v-.08a2.48,2.48,0,0,0-.57-1.62A1.76,1.76,0,0,0,1029,239Z" transform="translate(-105.98 -206.49)"/>
    <path class="cls-4" d="M1035.88,245.53a3,3,0,0,1-1.6-.44,2.93,2.93,0,0,1-1.1-1.21,3.65,3.65,0,0,1-.4-1.73v-.28a4,4,0,0,1,.39-1.79,3,3,0,0,1,1.07-1.25,2.63,2.63,0,0,1,1.5-.46,2.5,2.5,0,0,1,2,.86,3.47,3.47,0,0,1,.74,2.34V242h-4.93v.15a2.92,2.92,0,0,0,.67,1.95,2.16,2.16,0,0,0,1.7.78,2.45,2.45,0,0,0,1.08-.22,2.38,2.38,0,0,0,.85-.72l.48.37A2.79,2.79,0,0,1,1035.88,245.53Zm-.14-6.51a1.93,1.93,0,0,0-1.46.63,2.91,2.91,0,0,0-.71,1.7h4.14v-.08a2.48,2.48,0,0,0-.57-1.62A1.76,1.76,0,0,0,1035.74,239Z" transform="translate(-105.98 -206.49)"/>
    <path class="cls-4" d="M1040.81,245.4H1040v-9.8h.77Z" transform="translate(-105.98 -206.49)"/>
    <path class="cls-4" d="M982.14,274.14h-2l-.5,2.61H979l.49-2.61h-1.62v-.59h1.73l.53-2.82h-1.78v-.61h1.9l.5-2.65h.63l-.5,2.65h2l.5-2.65H984l-.5,2.65H985v.61h-1.58l-.53,2.82h1.63v.59h-1.74l-.49,2.61h-.64Zm-1.9-.59h2l.53-2.82h-2Z" transform="translate(-105.98 -206.49)"/>
    <path class="cls-4" d="M986.48,276.75v-6.27h-1.15v-.63h1.15V269a2.27,2.27,0,0,1,.54-1.63,2,2,0,0,1,1.5-.57,3,3,0,0,1,.81.11l-.06.63a3,3,0,0,0-.69-.08,1.27,1.27,0,0,0-1,.4,1.62,1.62,0,0,0-.35,1.11v.86h1.65v.63h-1.65v6.27Z" transform="translate(-105.98 -206.49)"/>
    <path class="cls-4" d="M990.8,276.75v-6.27h-1.14v-.63h1.14V269a2.27,2.27,0,0,1,.54-1.63,2,2,0,0,1,1.5-.57,3,3,0,0,1,.81.11l0,.63a3.13,3.13,0,0,0-.7-.08,1.25,1.25,0,0,0-1,.4,1.57,1.57,0,0,0-.35,1.11v.86h1.64v.63h-1.64v6.27Z" transform="translate(-105.98 -206.49)"/>
    <path class="cls-4" d="M995.13,276.75v-6.27H994v-.63h1.14V269a2.27,2.27,0,0,1,.54-1.63,2,2,0,0,1,1.5-.57,3,3,0,0,1,.81.11l-.06.63a3,3,0,0,0-.69-.08,1.27,1.27,0,0,0-1,.4,1.62,1.62,0,0,0-.35,1.11v.86h1.65v.63h-1.65v6.27Z" transform="translate(-105.98 -206.49)"/>
    <path class="cls-4" d="M999.45,276.75v-6.27h-1.14v-.63h1.14V269a2.27,2.27,0,0,1,.54-1.63,2,2,0,0,1,1.5-.57,3,3,0,0,1,.81.11l0,.63a3.13,3.13,0,0,0-.7-.08,1.25,1.25,0,0,0-1,.4,1.57,1.57,0,0,0-.35,1.11v.86h1.64v.63h-1.64v6.27Z" transform="translate(-105.98 -206.49)"/>
    <path class="cls-4" d="M1008.71,272.88a5.12,5.12,0,0,1-.72,3,2.73,2.73,0,0,1-4.24,0,4.9,4.9,0,0,1-.75-2.9v-1.67a5,5,0,0,1,.73-3,2.43,2.43,0,0,1,2.12-1,2.48,2.48,0,0,1,2.11,1,4.94,4.94,0,0,1,.75,2.87Zm-.77-1.66a4.47,4.47,0,0,0-.52-2.41,1.92,1.92,0,0,0-3.13,0,4.46,4.46,0,0,0-.53,2.35V273a4.57,4.57,0,0,0,.54,2.44,1.87,1.87,0,0,0,3.11,0,4.49,4.49,0,0,0,.53-2.41Z" transform="translate(-105.98 -206.49)"/>
    <path class="cls-4" d="M1016,272.88a5.12,5.12,0,0,1-.72,3,2.73,2.73,0,0,1-4.24,0,4.9,4.9,0,0,1-.75-2.9v-1.67a5,5,0,0,1,.73-3,2.43,2.43,0,0,1,2.12-1,2.48,2.48,0,0,1,2.11,1,4.94,4.94,0,0,1,.75,2.87Zm-.77-1.66a4.47,4.47,0,0,0-.52-2.41,1.92,1.92,0,0,0-3.13,0,4.46,4.46,0,0,0-.53,2.35V273a4.57,4.57,0,0,0,.54,2.44,1.87,1.87,0,0,0,3.11,0,4.49,4.49,0,0,0,.53-2.41Z" transform="translate(-105.98 -206.49)"/>
    <path class="cls-4" d="M982,288.56h-2.7v3.87h-.79v-9.29h3a3.45,3.45,0,0,1,2.32.72,2.76,2.76,0,0,1,.31,3.59,2.66,2.66,0,0,1-1.4.94l2.32,4v.08h-.84Zm-2.7-.66h2.41a2.2,2.2,0,0,0,1.58-.57,2.12,2.12,0,0,0,0-3,2.61,2.61,0,0,0-1.76-.54h-2.21Z" transform="translate(-105.98 -206.49)"/>
    <path class="cls-4" d="M992.32,292.43H986.5v-.59l3.18-3.61a8,8,0,0,0,1.1-1.5,2.46,2.46,0,0,0,.31-1.16,1.86,1.86,0,0,0-.52-1.39,1.93,1.93,0,0,0-1.42-.51,2,2,0,0,0-1.52.6,2.15,2.15,0,0,0-.57,1.55h-.76a3,3,0,0,1,.35-1.43,2.58,2.58,0,0,1,1-1,3,3,0,0,1,1.49-.36,2.79,2.79,0,0,1,2,.67,2.35,2.35,0,0,1,.72,1.82,3.07,3.07,0,0,1-.4,1.42,10.48,10.48,0,0,1-1.43,1.93l-2.59,2.93h4.88Z" transform="translate(-105.98 -206.49)"/>
    <path class="cls-4" d="M994.26,287.67l.45-4.53h4.65v.71h-4L995,287a3,3,0,0,1,1.75-.51,2.54,2.54,0,0,1,2,.82,3.08,3.08,0,0,1,.75,2.17,3.27,3.27,0,0,1-.73,2.28,2.59,2.59,0,0,1-2,.81,2.84,2.84,0,0,1-2-.68,2.75,2.75,0,0,1-.86-1.89h.73a2.26,2.26,0,0,0,.65,1.44,2.08,2.08,0,0,0,1.45.48,1.82,1.82,0,0,0,1.5-.63,2.8,2.8,0,0,0,.51-1.8,2.41,2.41,0,0,0-.57-1.66,2,2,0,0,0-1.55-.65,3,3,0,0,0-.95.14,2.58,2.58,0,0,0-.84.53Z" transform="translate(-105.98 -206.49)"/>
    <path class="cls-4" d="M1001.5,287.67l.45-4.53h4.65v.71h-4l-.33,3.14a3,3,0,0,1,1.75-.51,2.54,2.54,0,0,1,2,.82,3.08,3.08,0,0,1,.75,2.17,3.27,3.27,0,0,1-.73,2.28,2.59,2.59,0,0,1-2,.81,2.84,2.84,0,0,1-2-.68,2.75,2.75,0,0,1-.86-1.89h.73a2.26,2.26,0,0,0,.65,1.44,2.1,2.1,0,0,0,1.45.48,1.82,1.82,0,0,0,1.5-.63,2.8,2.8,0,0,0,.51-1.8,2.41,2.41,0,0,0-.57-1.66,2,2,0,0,0-1.55-.65,3,3,0,0,0-.95.14,2.58,2.58,0,0,0-.84.53Z" transform="translate(-105.98 -206.49)"/>
    <path class="cls-4" d="M1018.4,291.33a2.57,2.57,0,0,1-1.28.9,5.45,5.45,0,0,1-1.94.33,3.68,3.68,0,0,1-1.94-.52,3.52,3.52,0,0,1-1.32-1.48,5,5,0,0,1-.47-2.2v-1.17a4.47,4.47,0,0,1,1-3.05,3.28,3.28,0,0,1,2.62-1.12,3.49,3.49,0,0,1,2.31.73,3,3,0,0,1,1,2h-.79a2.38,2.38,0,0,0-.83-1.55,2.65,2.65,0,0,0-1.73-.53,2.55,2.55,0,0,0-2.06.92,4.07,4.07,0,0,0-.75,2.62v1.09a4.6,4.6,0,0,0,.36,1.88,2.86,2.86,0,0,0,1,1.26,2.71,2.71,0,0,0,1.55.45,4.39,4.39,0,0,0,1.74-.32,1.86,1.86,0,0,0,.7-.5v-2.39h-2.5V288h3.28Z" transform="translate(-105.98 -206.49)"/>
    <path class="cls-4" d="M1026.15,292.43h-5.82v-.59l3.18-3.61a8,8,0,0,0,1.1-1.5,2.59,2.59,0,0,0,.31-1.16,1.89,1.89,0,0,0-.52-1.39,1.93,1.93,0,0,0-1.42-.51,2,2,0,0,0-1.52.6,2.15,2.15,0,0,0-.58,1.55h-.75a2.89,2.89,0,0,1,.35-1.43,2.58,2.58,0,0,1,1-1A3,3,0,0,1,1023,283a2.79,2.79,0,0,1,2,.67,2.35,2.35,0,0,1,.72,1.82,3.1,3.1,0,0,1-.41,1.42,10.34,10.34,0,0,1-1.42,1.93l-2.59,2.93h4.88Z" transform="translate(-105.98 -206.49)"/>
    <path class="cls-4" d="M1032.26,289.44h1.45v.64h-1.45v2.35h-.77v-2.35h-4.37v-.43l4.3-6.51h.84Zm-4.2,0h3.43v-5.31l-.33.59Z" transform="translate(-105.98 -206.49)"/>
    <path class="cls-4" d="M1040.41,288.56a5.14,5.14,0,0,1-.72,3,2.72,2.72,0,0,1-4.23,0,4.91,4.91,0,0,1-.76-2.91V287a5,5,0,0,1,.73-3,2.44,2.44,0,0,1,2.12-1,2.48,2.48,0,0,1,2.11,1,4.92,4.92,0,0,1,.75,2.87Zm-.76-1.67a4.61,4.61,0,0,0-.52-2.41,1.76,1.76,0,0,0-1.58-.81,1.73,1.73,0,0,0-1.55.79,4.42,4.42,0,0,0-.54,2.36v1.82a4.51,4.51,0,0,0,.54,2.43,1.75,1.75,0,0,0,1.57.84,1.7,1.7,0,0,0,1.54-.82,4.6,4.6,0,0,0,.54-2.41Z" transform="translate(-105.98 -206.49)"/>
    <path class="cls-4" d="M1045.53,292.43v-9.29h2.74a3.59,3.59,0,0,1,2.27.62,2.2,2.2,0,0,1,.77,1.82,2,2,0,0,1-.4,1.25,2.15,2.15,0,0,1-1.07.76,2.27,2.27,0,0,1,1.8,2.23,2.41,2.41,0,0,1-.8,1.92,3.25,3.25,0,0,1-2.21.69Zm.78-5.12h2.15a2.43,2.43,0,0,0,1.52-.46,1.84,1.84,0,0,0,0-2.62,2.83,2.83,0,0,0-1.69-.42h-2Zm0,.66v3.8h2.36a2.29,2.29,0,0,0,1.59-.52,1.75,1.75,0,0,0,.59-1.42,1.72,1.72,0,0,0-.56-1.36,2.3,2.3,0,0,0-1.56-.5Z" transform="translate(-105.98 -206.49)"/>
    <path class="cls-4" d="M1058.83,288.56a5.14,5.14,0,0,1-.72,3,2.72,2.72,0,0,1-4.23,0,5,5,0,0,1-.76-2.91V287a5.1,5.1,0,0,1,.73-3,2.76,2.76,0,0,1,4.23,0,4.77,4.77,0,0,1,.75,2.87Zm-.76-1.67a4.52,4.52,0,0,0-.52-2.41,1.93,1.93,0,0,0-3.13,0,4.42,4.42,0,0,0-.54,2.36v1.82a4.51,4.51,0,0,0,.54,2.43,1.75,1.75,0,0,0,1.57.84,1.72,1.72,0,0,0,1.55-.82,4.6,4.6,0,0,0,.53-2.41Z" transform="translate(-105.98 -206.49)"/>
    <path class="cls-4" d="M985.09,305.21a3.37,3.37,0,0,1-1.05,2.25,3.49,3.49,0,0,1-2.37.78,3.26,3.26,0,0,1-3.06-2,5.19,5.19,0,0,1-.44-2.17v-1.21a5.41,5.41,0,0,1,.43-2.19,3.38,3.38,0,0,1,1.25-1.48,3.46,3.46,0,0,1,1.87-.52,3.32,3.32,0,0,1,2.36.81,3.35,3.35,0,0,1,1,2.22h-.8a2.36,2.36,0,0,0-2.57-2.36,2.43,2.43,0,0,0-2,.94,4.09,4.09,0,0,0-.75,2.61v1.14a4.19,4.19,0,0,0,.73,2.57,2.38,2.38,0,0,0,2,.95,2.56,2.56,0,0,0,1.85-.59,2.75,2.75,0,0,0,.77-1.77Z" transform="translate(-105.98 -206.49)"/>
    <path class="cls-4" d="M992.29,304.24a5.14,5.14,0,0,1-.72,3,2.43,2.43,0,0,1-2.12,1,2.47,2.47,0,0,1-2.11-1,5,5,0,0,1-.76-2.91v-1.66a5.08,5.08,0,0,1,.73-3,2.75,2.75,0,0,1,4.23,0,4.74,4.74,0,0,1,.75,2.86Zm-.76-1.67a4.49,4.49,0,0,0-.52-2.41,1.92,1.92,0,0,0-3.13,0,4.39,4.39,0,0,0-.54,2.35v1.83a4.51,4.51,0,0,0,.54,2.43,1.75,1.75,0,0,0,1.57.84,1.72,1.72,0,0,0,1.55-.82,4.6,4.6,0,0,0,.53-2.41Z" transform="translate(-105.98 -206.49)"/>
    <path class="cls-4" d="M998.45,298.82l3.43,8.2,3.43-8.2h1.05v9.29h-.78v-4.05l.06-4.14-3.46,8.19h-.6L998.13,300l.06,4.09v4.07h-.78v-9.29Z" transform="translate(-105.98 -206.49)"/>
    <path class="cls-4" d="M1014,304.24a5.14,5.14,0,0,1-.72,3,2.42,2.42,0,0,1-2.12,1,2.47,2.47,0,0,1-2.11-1,5,5,0,0,1-.75-2.91v-1.66a5.08,5.08,0,0,1,.72-3,2.48,2.48,0,0,1,2.13-1,2.45,2.45,0,0,1,2.1,1,4.74,4.74,0,0,1,.75,2.86Zm-.76-1.67a4.49,4.49,0,0,0-.52-2.41,1.92,1.92,0,0,0-3.13,0,4.39,4.39,0,0,0-.54,2.35v1.83a4.51,4.51,0,0,0,.54,2.43,1.76,1.76,0,0,0,1.57.84,1.72,1.72,0,0,0,1.55-.82,4.51,4.51,0,0,0,.53-2.41Z" transform="translate(-105.98 -206.49)"/>
    <path class="cls-4" d="M1021.85,303.89l2.84-5.07h.91l-3.36,5.79v3.5h-.78v-3.5l-3.35-5.79h.93Z" transform="translate(-105.98 -206.49)"/>
    <path class="cls-4" d="M1030.2,308.11h-.76v-8.37l-2.53.94V300l3.17-1.17h.12Z" transform="translate(-105.98 -206.49)"/>
    <path class="cls-4" d="M1039.49,304.24a5.14,5.14,0,0,1-.72,3,2.43,2.43,0,0,1-2.12,1,2.46,2.46,0,0,1-2.11-1,5,5,0,0,1-.76-2.91v-1.66a5.08,5.08,0,0,1,.73-3,2.75,2.75,0,0,1,4.23,0,4.81,4.81,0,0,1,.75,2.86Zm-.76-1.67a4.59,4.59,0,0,0-.52-2.41,1.92,1.92,0,0,0-3.13,0,4.39,4.39,0,0,0-.54,2.35v1.83a4.51,4.51,0,0,0,.54,2.43,1.75,1.75,0,0,0,1.57.84,1.7,1.7,0,0,0,1.54-.82,4.6,4.6,0,0,0,.54-2.41Z" transform="translate(-105.98 -206.49)"/>
    <path class="cls-4" d="M1046.73,304.24a5.14,5.14,0,0,1-.72,3,2.43,2.43,0,0,1-2.12,1,2.46,2.46,0,0,1-2.11-1,5,5,0,0,1-.76-2.91v-1.66a5.08,5.08,0,0,1,.73-3,2.75,2.75,0,0,1,4.23,0,4.81,4.81,0,0,1,.75,2.86Zm-.76-1.67a4.59,4.59,0,0,0-.52-2.41,1.92,1.92,0,0,0-3.13,0,4.39,4.39,0,0,0-.54,2.35v1.83a4.51,4.51,0,0,0,.54,2.43,1.75,1.75,0,0,0,1.57.84,1.7,1.7,0,0,0,1.54-.82,4.5,4.5,0,0,0,.54-2.41Z" transform="translate(-105.98 -206.49)"/>
    <path class="cls-4" d="M1053.94,303.5l-1.31,1.28v3.33h-.78v-9.29h.78v5l4.76-5h1l-3.89,4.13,4.19,5.16h-1Z" transform="translate(-105.98 -206.49)"/>
    <path class="cls-4" d="M1065.39,304.24a5.14,5.14,0,0,1-.72,3,2.43,2.43,0,0,1-2.12,1,2.46,2.46,0,0,1-2.11-1,5,5,0,0,1-.76-2.91v-1.66a5,5,0,0,1,.73-3,2.45,2.45,0,0,1,2.12-1,2.48,2.48,0,0,1,2.11,1,4.81,4.81,0,0,1,.75,2.86Zm-.76-1.67a4.59,4.59,0,0,0-.52-2.41,1.76,1.76,0,0,0-1.58-.82,1.73,1.73,0,0,0-1.55.8,4.39,4.39,0,0,0-.54,2.35v1.83a4.51,4.51,0,0,0,.54,2.43,1.75,1.75,0,0,0,1.57.84,1.7,1.7,0,0,0,1.54-.82,4.6,4.6,0,0,0,.54-2.41Z" transform="translate(-105.98 -206.49)"/>
  </g>
</svg>
