<svg id="Laag_1" data-name="Laag 1" xmlns="http://www.w3.org/2000/svg" viewBox="0 0 300.25 95.92"><defs><style>.cls-1,.cls-3,.cls-4,.cls-5{fill:red;}.cls-1{opacity:0.54;}.cls-2{fill:#e62b22;}.cls-3{opacity:0.72;}.cls-5{font-size:27.6px;font-family:CircularStd-Book, Circular Std;}.cls-6{letter-spacing:0em;}.cls-7{letter-spacing:-0.01em;}.cls-8{letter-spacing:0.01em;}.cls-9{font-family:CircularStd-Bold, Circular Std;font-weight:700;}.cls-10{letter-spacing:-0.02em;}.cls-11{letter-spacing:0em;}.cls-12{letter-spacing:0em;}</style></defs><path class="cls-1" d="M167.27,108.75a27,27,0,0,1,.56,38.24c-.2.2-.4.41-.61.61.16.14,11.76,10.67,11.76,17.13a11.75,11.75,0,0,1-10.5,11.69,33.89,33.89,0,0,0,31.11-23.84,35.36,35.36,0,0,0,1-4.24C190.07,129.62,168.47,109.85,167.27,108.75Z" transform="translate(-128.15 -108.73)"/><path class="cls-2" d="M166,176.42a11.47,11.47,0,0,0,2.53,0q-.63,0-1.26,0C166.79,176.45,166.37,176.44,166,176.42Z" transform="translate(-128.15 -108.73)"/><path class="cls-3" d="M200.6,148.34a35.36,35.36,0,0,1-1,4.24,33.89,33.89,0,0,1-31.11,23.84,11.47,11.47,0,0,1-2.53,0,11.76,11.76,0,0,1-10.5-11.69,7.54,7.54,0,0,1,.46-2.46h0a25.08,25.08,0,0,0-1.11,7,25.49,25.49,0,0,0,48.75,10.44h0l.09.05a38.78,38.78,0,0,0,2.64-14.13C206.28,160.4,204,154.43,200.6,148.34ZM203.84,179l0,.09Zm1.93-9.09a1.62,1.62,0,0,1,0,.22A1.62,1.62,0,0,0,205.77,169.91Zm0,.67a2.28,2.28,0,0,0,0,.26A2.28,2.28,0,0,1,205.75,170.58Zm-.05.67c0,.09,0,.18,0,.27C205.69,171.43,205.69,171.34,205.7,171.25Zm-.06.67,0,.27Zm-.08.66a2.51,2.51,0,0,1,0,.27A2.51,2.51,0,0,0,205.56,172.58Zm-.09.66c0,.09,0,.17-.05.26C205.44,173.41,205.45,173.33,205.47,173.24Zm-.12.65c0,.09,0,.17,0,.26C205.32,174.06,205.34,174,205.35,173.89Zm-.12.65-.06.25Zm-.15.64-.06.24Zm-.16.64-.06.23Zm-.18.64-.06.21Zm-.19.63a1.46,1.46,0,0,0-.07.19A1.46,1.46,0,0,1,204.55,177.09Zm-.22.63-.06.17Zm-.23.63a1.21,1.21,0,0,0,0,.14A1.21,1.21,0,0,1,204.1,178.35Z" transform="translate(-128.15 -108.73)"/><path class="cls-4" d="M155.91,162.27h0c1.78-5.3,8.33-11.86,10.56-14l.75-.69c.21-.2.41-.41.61-.61a27,27,0,0,0-.56-38.24l0,0a17.92,17.92,0,0,1-11.36,23.89,17.78,17.78,0,0,0-3.54-8.87c-2.44,2.69-5,5.63-7.47,8.71a119.59,119.59,0,0,0-11,15.88c-.33.6-.66,1.2-1,1.8l-.7,1.37c-2.46,5-4,9.8-4,14.08a39.07,39.07,0,0,0,75.49,14.13l-.09-.05a25.49,25.49,0,0,1-48.25-5.38,33.37,33.37,0,0,1-.5-5.06A28.94,28.94,0,0,1,155.91,162.27Z" transform="translate(-128.15 -108.73)"/><text class="cls-5" transform="translate(89.8 47.49)"><tspan class="cls-6">B</tspan><tspan x="16.48" y="0">rand</tspan><tspan class="cls-7" x="72.78" y="0">w</tspan><tspan x="94.39" y="0">ee</tspan><tspan class="cls-8" x="124.31" y="0">r</tspan><tspan x="134.71" y="0">zone</tspan><tspan class="cls-9"><tspan class="cls-10" x="0" y="25.2">C</tspan><tspan x="20.62" y="25.2">en</tspan><tspan class="cls-11" x="52" y="25.2">t</tspan><tspan class="cls-12" x="62.18" y="25.2">r</tspan><tspan x="73.03" y="25.2">um</tspan></tspan></text></svg>