<?xml version="1.0" encoding="utf-8"?>
<!-- Generator: Adobe Illustrator 24.1.0, SVG Export Plug-In . SVG Version: 6.00 Build 0)  -->
<svg version="1.1" id="Laag_1" xmlns="http://www.w3.org/2000/svg" xmlns:xlink="http://www.w3.org/1999/xlink" x="0px" y="0px"
	 viewBox="0 0 558.43 311.81" style="enable-background:new 0 0 558.43 311.81;" xml:space="preserve">
<style type="text/css">
	.st0{fill:none;}
	.st1{fill:#FF0000;}
	.st2{font-family:'CircularStd-Book';}
	.st3{font-size:27.6px;}
	.st4{opacity:0.5;fill:#FF0000;}
</style>
<rect x="216.95" y="131.24" class="st0" width="210.45" height="61.63"/>
<text transform="matrix(1 0 0 1 216.9478 151.2207)"><tspan x="0" y="0" class="st1 st2 st3">Brandweerzone</tspan><tspan x="0" y="25.2" class="st1 st2 st3">Centrum</tspan></text>
<path class="st1" d="M201.3,175.79c-0.03,0.05-0.06,0.1-0.09,0.14c-0.03,0.06-0.07,0.12-0.11,0.18c-0.32,0.5-0.67,0.99-1.02,1.47
	c-0.05,0.06-0.1,0.12-0.15,0.18c-0.04,0.05-0.08,0.09-0.11,0.14c-0.25,0.32-0.54,0.7-0.85,1.06c-0.09,0.1-0.18,0.2-0.27,0.29
	c-0.06,0.06-0.11,0.12-0.17,0.18c-0.25,0.27-0.51,0.56-0.77,0.82c-0.11,0.11-0.23,0.23-0.35,0.33c-0.06,0.05-0.11,0.1-0.17,0.16
	l-0.03,0.03c-0.24,0.23-0.48,0.46-0.74,0.68c-0.15,0.13-0.31,0.26-0.46,0.39l-0.11,0.09c-0.25,0.21-0.51,0.42-0.79,0.63
	c-0.17,0.13-0.34,0.25-0.51,0.38l-0.1,0.08c-0.26,0.18-0.53,0.38-0.82,0.57c-0.22,0.15-0.44,0.28-0.65,0.41
	c-0.29,0.18-0.57,0.35-0.85,0.5c-0.21,0.12-0.43,0.24-0.68,0.37c-0.28,0.15-0.57,0.29-0.88,0.44c-0.28,0.14-0.5,0.24-0.71,0.33
	c-0.26,0.12-0.54,0.23-0.91,0.38l-0.08,0.03c-0.21,0.08-0.43,0.17-0.65,0.25c-0.32,0.12-0.64,0.22-0.95,0.32l-0.17,0.05
	c-0.18,0.06-0.38,0.12-0.57,0.17c-0.33,0.1-0.67,0.18-0.99,0.26l-0.19,0.05c-0.18,0.04-0.36,0.09-0.54,0.13
	c-0.32,0.07-0.64,0.12-0.95,0.18l-0.11,0.02c-0.07,0.01-0.15,0.03-0.22,0.04c-0.16,0.03-0.32,0.06-0.48,0.08
	c-0.38,0.05-0.76,0.09-1.14,0.12l-0.06,0.01c-0.08,0.01-0.16,0.02-0.24,0.03c-0.12,0.01-0.23,0.03-0.35,0.04
	c-0.62,0.04-1.23,0.07-1.81,0.07c-12.18,0-22.76-8.65-25.16-20.58c-0.34-1.67-0.51-3.38-0.51-5.08c-0.03-0.68,0.02-1.54,0.17-2.58
	c0.13-1.03,0.33-2.07,0.61-3.18c0.04-0.19,0.1-0.4,0.16-0.6c0.02-0.06,0.04-0.12,0.05-0.18c0.06-0.25,0.11-0.4,0.12-0.45l0.01-0.03
	c1.82-5.38,8.58-12.11,10.61-14.05c0.27-0.24,0.52-0.47,0.75-0.69c0.21-0.2,0.41-0.4,0.61-0.6c4.91-5.04,7.62-11.68,7.62-18.72
	c0-0.45-0.01-0.9-0.03-1.35c0-0.09-0.01-0.17-0.02-0.26c0-0.06-0.01-0.12-0.01-0.18l0-0.07c-0.02-0.27-0.04-0.55-0.06-0.82
	c-0.01-0.11-0.02-0.22-0.04-0.32c-0.01-0.06-0.02-0.13-0.02-0.19l-0.02-0.16c-0.02-0.21-0.05-0.44-0.08-0.65
	c-0.02-0.12-0.04-0.23-0.06-0.34c-0.01-0.07-0.03-0.14-0.04-0.21l-0.03-0.17c-0.03-0.19-0.07-0.39-0.1-0.58
	c-0.03-0.13-0.06-0.26-0.08-0.38c-0.01-0.06-0.03-0.12-0.04-0.19l-0.03-0.15c-0.04-0.19-0.08-0.38-0.13-0.57
	c-0.03-0.13-0.07-0.25-0.1-0.38c-0.02-0.07-0.04-0.13-0.06-0.2l-0.03-0.13c-0.05-0.19-0.1-0.38-0.16-0.57
	c-0.04-0.13-0.09-0.27-0.13-0.4l-0.11-0.33c-0.06-0.17-0.11-0.34-0.17-0.51c-0.05-0.14-0.11-0.28-0.16-0.42l-0.08-0.19
	c-0.08-0.2-0.16-0.41-0.24-0.61c-0.06-0.15-0.13-0.3-0.19-0.44l-0.1-0.21c-0.08-0.18-0.16-0.36-0.25-0.54
	c-0.07-0.15-0.15-0.3-0.22-0.45l-0.09-0.18c-0.09-0.18-0.19-0.37-0.28-0.55c-0.08-0.14-0.15-0.28-0.23-0.41l-0.09-0.17
	c-0.11-0.19-0.22-0.38-0.33-0.56c-0.09-0.16-0.19-0.31-0.29-0.46l-0.09-0.14c-0.11-0.17-0.22-0.34-0.33-0.51
	c-0.09-0.14-0.19-0.27-0.29-0.41l-0.08-0.11c-0.13-0.19-0.27-0.38-0.41-0.56c-0.13-0.17-0.26-0.34-0.39-0.5
	c-0.16-0.2-0.29-0.37-0.44-0.54c-0.14-0.16-0.28-0.32-0.42-0.48c-0.15-0.17-0.3-0.35-0.47-0.53c-0.14-0.16-0.29-0.31-0.44-0.46
	c-0.05-0.05-0.09-0.09-0.14-0.14c0.08,0.22,0.14,0.45,0.21,0.66l0.05,0.15c0.02,0.05,0.03,0.11,0.05,0.16
	c0.02,0.07,0.05,0.14,0.07,0.21c0.02,0.09,0.05,0.17,0.07,0.26c0.02,0.07,0.03,0.13,0.05,0.19c0.36,1.46,0.55,2.93,0.55,4.39
	c0,7.93-5.07,14.86-12.63,17.25l0,0l-0.04,0.01c-0.02,0.01-0.04,0.01-0.06,0.02c-0.03,0.01-0.05,0.02-0.08,0.03l-0.2,0.06
	l-0.02-0.21c-0.34-3.08-1.49-6.03-3.33-8.54l-0.02-0.03l0,0c-0.01-0.01-0.01-0.01-0.02-0.02c0-0.01-0.01-0.01-0.01-0.02
	c-2.62,2.9-5.08,5.77-7.32,8.54c-4.59,5.69-8.3,11.02-11.02,15.86c-0.34,0.61-0.67,1.21-0.98,1.8c-0.23,0.44-0.47,0.9-0.7,1.37
	c-2.64,5.34-3.98,10.05-3.98,14c0,3.33,0.43,6.65,1.27,9.86c0.14,0.55,0.31,1.09,0.47,1.63c2.3,7.4,6.86,14.06,12.97,18.93
	c0.23,0.18,0.45,0.36,0.69,0.54c0.07,0.06,0.15,0.11,0.23,0.17c6.5,4.83,14.55,7.69,23.27,7.69c9.82,0,18.79-3.62,25.65-9.61
	c0.02-0.02,0.05-0.04,0.07-0.06c0.27-0.23,0.52-0.47,0.78-0.71c0.45-0.42,0.91-0.85,1.34-1.29c0.05-0.05,0.09-0.1,0.14-0.14
	c2.84-2.94,5.21-6.31,7-10C201.4,175.63,201.35,175.71,201.3,175.79z"/>
<path class="st4" d="M199.55,143.57c-0.17,0.71-0.36,1.39-0.55,2.02c-4.26,13.8-16.82,23.44-31.26,23.97c-0.86,0.09-1.7,0.09-2.56,0
	c-2.85-0.3-5.49-1.62-7.44-3.71c-1.85-1.98-2.97-4.54-3.18-7.24c0,0.01-0.01,0.03-0.01,0.04c-0.23,1.32-0.33,2.47-0.33,3.53
	c0.08,1.67,0.17,3.39,0.5,5.03c2.37,11.76,12.8,20.29,24.82,20.29c0.62,0,1.24-0.02,1.85-0.07c0.09-0.01,0.18-0.02,0.27-0.03
	c0.07-0.01,0.14-0.02,0.22-0.03l0.09-0.01c0.41-0.04,0.83-0.08,1.24-0.14c0.1-0.01,0.2-0.04,0.3-0.05c0.08-0.02,0.15-0.03,0.23-0.04
	l0.1-0.02c0.38-0.06,0.78-0.13,1.16-0.22c0.09-0.02,0.18-0.05,0.27-0.07c0.07-0.02,0.15-0.04,0.22-0.06l0.09-0.02
	c0.39-0.09,0.78-0.19,1.17-0.31c0.06-0.02,0.11-0.04,0.17-0.06c0.05-0.02,0.1-0.04,0.15-0.05c0.43-0.13,0.92-0.29,1.39-0.47
	c0.05-0.02,0.1-0.04,0.14-0.06c0.04-0.02,0.09-0.04,0.13-0.06c0.41-0.16,0.9-0.36,1.39-0.58c0.05-0.02,0.1-0.05,0.15-0.08
	c0.04-0.02,0.08-0.04,0.13-0.06c0.42-0.2,0.88-0.42,1.32-0.67c0.07-0.04,0.13-0.08,0.2-0.12c0.05-0.03,0.11-0.07,0.16-0.1
	c0.4-0.23,0.8-0.46,1.18-0.71c0.07-0.04,0.13-0.09,0.19-0.13c0.06-0.04,0.11-0.08,0.17-0.12c0.35-0.23,0.74-0.5,1.11-0.78
	c0.08-0.06,0.15-0.12,0.22-0.18c0.06-0.05,0.11-0.09,0.17-0.14l0.07-0.06c0.31-0.24,0.63-0.49,0.93-0.76
	c0.09-0.08,0.17-0.16,0.25-0.24c0.06-0.06,0.12-0.11,0.18-0.17l0.14-0.13c0.25-0.22,0.5-0.45,0.74-0.69
	c0.09-0.09,0.19-0.2,0.28-0.29c0.06-0.07,0.12-0.13,0.18-0.2l0.16-0.17c0.21-0.22,0.42-0.44,0.62-0.67
	c0.11-0.12,0.21-0.26,0.31-0.39c0.06-0.08,0.12-0.15,0.18-0.23c0.06-0.07,0.12-0.14,0.18-0.21c0.16-0.19,0.32-0.38,0.47-0.58
	c0.12-0.16,0.24-0.33,0.35-0.5c0.06-0.08,0.11-0.17,0.17-0.25c0.06-0.08,0.12-0.17,0.17-0.25c0.11-0.16,0.23-0.33,0.34-0.5
	c0.12-0.18,0.23-0.38,0.34-0.57c0.05-0.09,0.1-0.18,0.15-0.27c0.05-0.09,0.1-0.17,0.15-0.26c0.1-0.16,0.2-0.33,0.29-0.49
	c0.12-0.22,0.23-0.45,0.34-0.68c0.04-0.09,0.08-0.17,0.13-0.26c0.04-0.09,0.09-0.17,0.13-0.26c0.07-0.14,0.15-0.29,0.22-0.44v-0.14
	h0.06c0,0,0.5-1.08,0.68-1.61l-0.03-0.01l0.09-0.27l0.02,0.01c0.04-0.11,0.07-0.23,0.11-0.34l-0.02-0.01l0.09-0.29l0.01,0
	c0.03-0.11,0.06-0.21,0.1-0.32l0.01-0.05l0.08-0.26l0.01,0c0.03-0.1,0.06-0.21,0.09-0.31l0.01-0.05l0.08-0.28l0.01,0
	c0.03-0.1,0.05-0.2,0.08-0.3l0-0.05c0.02-0.08,0.04-0.15,0.06-0.23l0.01-0.05l0.01,0c0.02-0.1,0.05-0.2,0.07-0.3l-0.02,0l0.08-0.34
	l0.02,0c0.67-2.88,1.02-5.87,1.02-8.87c0-4.61-1.82-10.24-5.42-16.74c-0.05,0.27-0.11,0.54-0.17,0.79l-0.06,0.27
	c-0.02,0.09-0.04,0.18-0.06,0.27C199.62,143.29,199.59,143.43,199.55,143.57z"/>
<path class="st4" d="M170.28,105.92c0.02,0.02,0.03,0.05,0.05,0.07c0.36,0.53,0.7,1.09,1.04,1.68c0.02,0.04,0.05,0.08,0.07,0.12
	c0.03,0.04,0.05,0.09,0.08,0.13c0.31,0.56,0.61,1.14,0.91,1.79c0.05,0.12,0.11,0.24,0.16,0.36c0.29,0.65,0.53,1.26,0.75,1.86
	c0.02,0.05,0.04,0.1,0.05,0.15c0.01,0.04,0.02,0.07,0.04,0.11c0.22,0.64,0.42,1.27,0.58,1.89c0.01,0.02,0.01,0.05,0.02,0.07
	c0.01,0.03,0.02,0.06,0.03,0.1c0.16,0.61,0.3,1.26,0.43,2l0.02,0.12c0.02,0.09,0.03,0.17,0.04,0.26c0.11,0.67,0.2,1.34,0.26,2
	c0.01,0.07,0.01,0.14,0.02,0.21c0,0.05,0.01,0.1,0.01,0.15c0.06,0.78,0.09,1.48,0.09,2.13c0,7.12-2.74,13.86-7.71,18.96h0
	c-0.15,0.16-0.31,0.31-0.48,0.48c1.37,1.26,11.68,10.98,11.68,17.13c0,2.63-0.83,5.12-2.41,7.21c-1.46,1.94-3.43,3.35-5.72,4.11
	c0.22-0.03,0.45-0.06,0.66-0.09l0.27-0.04c0.46-0.07,0.94-0.13,1.41-0.22c0.3-0.06,0.6-0.12,0.89-0.19l0.22-0.05
	c0.49-0.11,0.94-0.21,1.39-0.33c0.36-0.1,0.73-0.21,1.08-0.32c0.4-0.12,0.88-0.27,1.35-0.43c0.38-0.13,0.74-0.27,1.05-0.39
	c0.48-0.19,0.91-0.36,1.3-0.53c0.3-0.13,0.62-0.28,1.02-0.47c0.44-0.21,0.85-0.42,1.25-0.63c0.35-0.18,0.67-0.36,0.98-0.54
	c0.38-0.22,0.77-0.45,1.19-0.71c0.37-0.23,0.67-0.43,0.94-0.61c0.42-0.28,0.82-0.57,1.13-0.8c0.31-0.23,0.61-0.45,0.9-0.68
	c0.38-0.3,0.75-0.61,1.06-0.88l0.06-0.05c0.26-0.22,0.53-0.45,0.79-0.69c0.35-0.33,0.7-0.67,1-0.96l0.15-0.15
	c0.21-0.21,0.43-0.43,0.64-0.65c0.31-0.33,0.61-0.67,0.9-1.01l0.19-0.22c0.19-0.22,0.38-0.44,0.57-0.67c0.26-0.33,0.52-0.67,0.77-1
	l0.09-0.12c0.06-0.08,0.12-0.16,0.18-0.24c0.16-0.21,0.33-0.43,0.48-0.66c0.23-0.33,0.45-0.68,0.66-1.02l0.12-0.2
	c0.06-0.1,0.13-0.2,0.19-0.3c0.13-0.2,0.26-0.41,0.39-0.62c0.22-0.38,0.43-0.77,0.63-1.15l0.1-0.19c0.06-0.11,0.12-0.22,0.18-0.33
	c0.1-0.19,0.21-0.38,0.31-0.58c0.23-0.47,0.43-0.95,0.63-1.42l0.06-0.14c0.05-0.11,0.09-0.21,0.14-0.32
	c0.07-0.15,0.14-0.31,0.21-0.47c0.32-0.82,0.62-1.65,0.86-2.46c0.21-0.67,0.4-1.37,0.57-2.07c0.04-0.16,0.07-0.33,0.1-0.49
	c0.02-0.11,0.04-0.22,0.06-0.32l0.06-0.29c0.07-0.32,0.14-0.65,0.2-0.98c-2.84-5.04-11.45-18.62-30.38-36.77
	c0.35,0.45,0.66,0.87,0.94,1.29C170.25,105.87,170.26,105.9,170.28,105.92z"/>
</svg>
