<svg id="Laag_1" data-name="Laag 1" xmlns="http://www.w3.org/2000/svg" viewBox="0 0 737.68 240.28">
  <defs>
    <style>
      .cls-1, .cls-2 {
        fill: #e80000;
      }

      .cls-2 {
        opacity: 0.8;
      }

      .cls-3, .cls-4, .cls-5, .cls-7 {
        fill: none;
        stroke-miterlimit: 10;
      }

      .cls-3, .cls-4, .cls-5 {
        stroke: #3c3b9f;
      }

      .cls-3, .cls-5, .cls-7 {
        stroke-width: 0.75px;
      }

      .cls-3 {
        opacity: 0.5;
      }

      .cls-4 {
        stroke-width: 0.5px;
      }

      .cls-4, .cls-5 {
        opacity: 0.39;
      }

      .cls-6, .cls-8 {
        fill: #ec0000;
      }

      .cls-6 {
        opacity: 0.04;
      }

      .cls-7 {
        stroke: #ec0000;
      }

      .cls-8 {
        opacity: 0.05;
      }

      .cls-9 {
        fill: #ea0000;
      }
    </style>
  </defs>
  <path class="cls-1" d="M583.08,287.88h0c4-11.82,18.61-26.46,23.58-31.2.57-.51,1.13-1,1.68-1.55s.91-.9,1.36-1.36a60.22,60.22,0,0,0-1.25-85.34l-.06-.06A40,40,0,0,1,583,221.7a39.81,39.81,0,0,0-7.9-19.81c-5.45,6-11.14,12.58-16.68,19.44-9.14,11.33-17.9,23.49-24.63,35.46q-1.14,2-2.19,4c-.54,1-1.06,2.05-1.57,3.07-5.5,11.1-8.93,21.86-8.93,31.41a87.21,87.21,0,0,0,168.52,31.54l-.21-.09a56.92,56.92,0,0,1-107.71-12,75.63,75.63,0,0,1-1.12-11.29C580.32,297.67,583.08,287.88,583.08,287.88Z" transform="translate(-231.03 -143.26)"/>
  <path class="cls-2" d="M608.45,168.43a60.22,60.22,0,0,1,1.25,85.34c-.45.46-.9.92-1.36,1.36.37.33,26.26,23.83,26.26,38.24a26.26,26.26,0,0,1-23.44,26.11,75.65,75.65,0,0,0,69.43-53.23,76.64,76.64,0,0,0,2.26-9.46C659.34,215,611.14,170.87,608.45,168.43Z" transform="translate(-231.03 -143.26)"/>
  <path class="cls-2" d="M682.85,256.79a76.64,76.64,0,0,1-2.26,9.46,75.65,75.65,0,0,1-69.43,53.23,26.26,26.26,0,0,1-29.09-26.11,17.31,17.31,0,0,1,1-5.49h0a56.76,56.76,0,0,0,106.36,38.85h0l.21.09a86.91,86.91,0,0,0,5.88-31.54C695.53,283.72,690.5,270.38,682.85,256.79Zm7.24,68.43-.08.21Zm4.31-20.28c0,.16,0,.33,0,.49C694.38,305.27,694.39,305.1,694.4,304.94Zm-.06,1.5c0,.2,0,.39,0,.58C694.31,306.83,694.33,306.64,694.34,306.44Zm-.1,1.5c0,.2,0,.4,0,.6C694.2,308.34,694.22,308.14,694.24,307.94Zm-.14,1.49c0,.2,0,.4-.07.6C694.06,309.83,694.08,309.63,694.1,309.43Zm-.17,1.47-.09.6Zm-.21,1.47c0,.2-.07.39-.1.59C693.65,312.76,693.68,312.57,693.72,312.37Zm-.25,1.46c0,.19-.08.38-.11.57C693.39,314.21,693.43,314,693.47,313.83Zm-.29,1.44-.12.56Zm-.33,1.44c0,.18-.08.35-.13.53C692.77,317.06,692.81,316.89,692.85,316.71Zm-.36,1.43c0,.17-.09.33-.13.5C692.4,318.47,692.45,318.31,692.49,318.14Zm-.4,1.42c0,.15-.09.31-.14.47C692,319.87,692.05,319.71,692.09,319.56Zm-.43,1.41c0,.14-.09.29-.14.43C691.57,321.26,691.61,321.11,691.66,321Zm-.48,1.41c0,.12-.09.25-.13.38C691.09,322.63,691.14,322.5,691.18,322.38Zm-.52,1.41-.12.31Z" transform="translate(-231.03 -143.26)"/>
  <g>
    <path class="cls-2" d="M968.62,293c-.48-10.51-5.23-23.14-14.1-37.54a488,488,0,0,0-69.1-83.34c.79,1,1.5,2,2.15,2.94a1.63,1.63,0,0,1,.11.17l.11.17c.81,1.21,1.61,2.49,2.37,3.82l.16.27c.06.1.12.2.17.3.71,1.27,1.39,2.6,2.07,4.08l.37.81c.66,1.48,1.21,2.86,1.7,4.23a2.53,2.53,0,0,1,.12.36l.09.25c.5,1.45.95,2.9,1.32,4.3,0,.06,0,.12.05.17l.06.22c.36,1.38.68,2.87,1,4.55l0,.28c0,.2.07.39.1.59.2,1.22.37,2.44.49,3.65,3.61,27-12.13,46.83-16.94,52.18,5.94,5.65,25.25,25,25.25,37.76A27.14,27.14,0,0,1,887.67,319l1.51-.2.62-.09c1.05-.15,2.15-.31,3.22-.5.68-.13,1.37-.28,2-.43l.51-.11c1.12-.25,2.14-.48,3.15-.75.83-.22,1.67-.48,2.47-.72s2-.61,3.08-1c.86-.3,1.69-.62,2.39-.89,1.1-.42,2.07-.82,3-1.21.69-.3,1.42-.63,2.33-1.06s1.94-.95,2.84-1.43,1.53-.82,2.25-1.23c.87-.5,1.75-1,2.71-1.63s1.53-1,2.15-1.39c1-.64,1.87-1.31,2.57-1.82s1.39-1,2-1.55c.88-.69,1.72-1.4,2.43-2l.14-.12c.6-.51,1.21-1,1.79-1.57.81-.74,1.6-1.52,2.27-2.19l.35-.34c.48-.48,1-1,1.46-1.49.7-.74,1.38-1.53,2-2.29l.44-.5c.43-.5.87-1,1.29-1.52.6-.75,1.18-1.53,1.75-2.29l.2-.28.41-.54c.36-.49.74-1,1.09-1.5.53-.76,1-1.55,1.51-2.32l.29-.45.43-.68c.3-.46.6-.94.88-1.42.51-.86,1-1.76,1.43-2.63l.23-.43c.13-.25.26-.5.4-.75.23-.43.48-.87.69-1.32.52-1.06,1-2.17,1.45-3.25l.13-.31.33-.73c.15-.35.32-.72.46-1.08.74-1.88,1.41-3.76,2-5.6.24-.8.48-1.62.7-2.44-.09.4-.19.8-.29,1.19A77.66,77.66,0,0,1,884.14,322a28.49,28.49,0,0,1-5.84.27A27.16,27.16,0,0,1,853,298.5a.34.34,0,0,0,0,.1,47.36,47.36,0,0,0-.4,8.07,79.31,79.31,0,0,0,1.67,11.4,57.84,57.84,0,0,0,58.65,43.59c1.41-.06,2.83-.18,4.21-.35.21,0,.41-.06.62-.09l.49-.08.21,0c.93-.13,1.89-.27,2.82-.45.23,0,.46-.1.69-.16l.51-.12.23-.05c.87-.19,1.76-.38,2.62-.61l.62-.19.49-.16.22-.06c.86-.25,1.76-.52,2.62-.82l.39-.15.34-.13c.95-.35,2.06-.76,3.11-1.22l.32-.15.3-.14c.92-.41,2-.91,3.09-1.47l.34-.19.28-.16c1-.51,2-1.06,2.94-1.67l.44-.28.36-.24c.89-.57,1.77-1.13,2.62-1.73l.42-.33.37-.28c.76-.57,1.63-1.21,2.45-1.89l.49-.43.37-.33.16-.14c.68-.58,1.38-1.19,2-1.82.19-.18.38-.37.56-.56l.39-.41.31-.31c.54-.53,1.09-1.08,1.61-1.65.21-.23.4-.47.6-.7l.39-.47.34-.39c.44-.51.9-1,1.33-1.58.23-.3.46-.61.67-.92l.39-.53.38-.51c.33-.45.68-.91,1-1.38s.51-.79.74-1.18l.37-.59c.12-.2.24-.39.37-.58.24-.38.49-.78.73-1.18s.48-.89.71-1.33l.32-.62.32-.6c.21-.37.42-.76.61-1.15s.47-1.06.7-1.58c.08-.2.17-.41.26-.61l.27-.61c.15-.33.31-.68.45-1l0-.31H964s1-2.52,1.38-3.74l-.06,0,.18-.61h0c.08-.26.15-.53.22-.79h0l.19-.66h0c.07-.24.13-.49.19-.74v-.11l.15-.6h0c.06-.24.12-.48.17-.71v-.12l.15-.64h0l.15-.69v-.11c0-.18.07-.35.11-.53l0-.12h0c0-.23.09-.46.13-.69h0l.14-.8h0A88.79,88.79,0,0,0,968.62,293Z" transform="translate(-231.03 -143.26)"/>
    <path class="cls-1" d="M958.78,334c-.06.11-.24.18-.31.29s-.76,1-.85,1.09c-.73,1.14-1.71,2-2.52,3.08l-.33.42c-.09.1-.17.21-.26.32-.57.73-1.24,1.58-2,2.4-.19.23-.4.45-.6.67l-.38.4c-.57.63-1.15,1.28-1.76,1.88-.25.26-.52.52-.79.76l-.37.36-.08.07c-.55.52-1.11,1.06-1.68,1.56l-1.06.89-.24.2c-.57.47-1.17,1-1.8,1.45-.38.29-.78.57-1.16.85l-.24.17c-.59.42-1.22.87-1.87,1.29s-1,.65-1.48.95c-.67.41-1.3.79-1.93,1.15l-1.55.84c-.64.34-1.3.67-2,1l-1.61.75c-.6.26-1.24.53-2.08.87l-.18.07c-.48.19-1,.39-1.47.57-.73.26-1.47.5-2.16.73l-.38.12-1.29.4c-.76.22-1.53.4-2.27.58l-.43.11-1.22.29c-.72.16-1.46.28-2.18.41l-.24,0-.5.09c-.36.06-.72.13-1.09.18-.85.12-1.74.2-2.59.29h-.13l-.55.06-.8.08c-1.41.1-2.8.15-4.13.15a58.44,58.44,0,0,1-58.5-58.48,31.43,31.43,0,0,1,.39-5.88,62.51,62.51,0,0,1,1.38-7.25,12.8,12.8,0,0,1,.36-1.38l.12-.41c.14-.56.25-.93.28-1l0-.07c4.14-12.26,19.55-27.61,24.18-32,.61-.55,1.17-1.07,1.71-1.59s.93-.91,1.38-1.37A60.8,60.8,0,0,0,897,209.73c0-1,0-2.06-.08-3.08,0-.2,0-.4,0-.6s0-.27,0-.41l0-.17c0-.61-.08-1.25-.14-1.87,0-.25,0-.5-.09-.74s0-.29,0-.44l0-.36c-.06-.49-.12-1-.19-1.48,0-.26-.09-.52-.13-.78l-.09-.48-.06-.39c-.08-.44-.15-.89-.24-1.33-.06-.29-.13-.58-.19-.88,0-.14-.07-.28-.1-.42l-.08-.34c-.09-.43-.19-.87-.29-1.3l-.24-.86c0-.15-.08-.3-.13-.45l-.07-.29c-.12-.42-.24-.86-.37-1.29l-.3-.92-.25-.76c-.13-.39-.26-.78-.4-1.16s-.24-.65-.37-1l-.17-.44c-.17-.46-.36-.93-.55-1.38s-.29-.68-.44-1l-.22-.49c-.18-.41-.36-.83-.56-1.24s-.33-.67-.51-1l-.2-.41-.65-1.25-.53-.94-.21-.37-.75-1.29c-.22-.36-.44-.7-.67-1l-.2-.32c-.25-.39-.5-.78-.76-1.16s-.43-.62-.65-.93l-.18-.26c-.3-.42-.61-.85-.93-1.28l-.89-1.14c-.36-.46-.67-.85-1-1.24s-.63-.74-.95-1.1l-1.07-1.21-1-1.05-.31-.32c.17.51.32,1,.47,1.51l.1.35.12.37c.06.16.11.32.16.49s.1.4.15.6.07.29.11.44a41.17,41.17,0,0,1-27.53,49.33h0l-.09,0-.13.05-.17.06-.46.14,0-.48a40.46,40.46,0,0,0-7.6-19.48l-.06-.07h0l0,0,0,0c-6,6.61-11.59,13.16-16.69,19.47a269,269,0,0,0-25.12,36.15c-.78,1.39-1.53,2.77-2.23,4.1-.52,1-1.06,2-1.59,3.12-6,12.16-9.08,22.9-9.08,31.9a88.62,88.62,0,0,0,2.9,22.47c.32,1.26.69,2.49,1.07,3.72a89.39,89.39,0,0,0,29.56,43.15c.52.41,1,.83,1.56,1.23l.52.38A89,89,0,0,0,937,361.64l.17-.15c.6-.53,1.19-1.07,1.78-1.62,1-1,2.07-1.94,3.06-2.95l.31-.32c6.47-6.71,12.43-14.22,16.51-22.62C958.67,334.16,958.91,333.78,958.78,334Z" transform="translate(-231.03 -143.26)"/>
  </g>
  <path class="cls-3" d="M337.72,171.84c-.26-1.17-.54-2.33-.88-3.47C337.16,169.52,337.43,170.68,337.72,171.84Z" transform="translate(-231.03 -143.26)"/>
  <path class="cls-4" d="M423.32,295.18a87.09,87.09,0,0,1-174.18,0c0-48.1,87.09-126.81,87.09-126.81S423.32,247.08,423.32,295.18Z" transform="translate(-231.03 -143.26)"/>
  <circle class="cls-4" cx="40.21" cy="82.82" r="39.96"/>
  <circle class="cls-4" cx="67.6" cy="40.21" r="39.96"/>
  <circle class="cls-5" cx="62.86" cy="68.74" r="60.45"/>
  <circle class="cls-4" cx="105.2" cy="100.63" r="75.51"/>
  <circle class="cls-4" cx="134.34" cy="160.05" r="56.83"/>
  <path class="cls-6" d="M608.45,168.43a60.22,60.22,0,0,1,1.25,85.34c-.45.46-.9.92-1.36,1.36.37.33,26.26,23.83,26.26,38.24a26.26,26.26,0,0,1-23.44,26.11,75.65,75.65,0,0,0,69.43-53.23,76.64,76.64,0,0,0,2.26-9.46C659.34,215,611.14,170.87,608.45,168.43Z" transform="translate(-231.03 -143.26)"/>
  <path class="cls-7" d="M311.17,287.88h0c4-11.82,18.61-26.46,23.58-31.2.56-.51,1.12-1,1.67-1.55s.92-.9,1.36-1.36a60.22,60.22,0,0,0-1.25-85.34l-.06-.06a40,40,0,0,1-25.35,53.33,39.82,39.82,0,0,0-7.91-19.81c-5.45,6-11.13,12.58-16.68,19.44-9.14,11.33-17.9,23.49-24.63,35.46q-1.14,2-2.19,4c-.54,1-1.06,2.05-1.57,3.07-5.49,11.1-8.93,21.86-8.93,31.41a87.21,87.21,0,0,0,168.52,31.54l-.21-.09a56.92,56.92,0,0,1-107.71-12,75.63,75.63,0,0,1-1.12-11.29C308.4,297.67,311.17,287.88,311.17,287.88Z" transform="translate(-231.03 -143.26)"/>
  <path class="cls-7" d="M410.93,256.79a74.88,74.88,0,0,1-2.26,9.46,75.64,75.64,0,0,1-69.42,53.23,26.87,26.87,0,0,1-5.67,0,26.26,26.26,0,0,1-23.43-26.11,17.33,17.33,0,0,1,1-5.49h0a56.75,56.75,0,0,0,106.35,38.85h0l.21.09a86.91,86.91,0,0,0,5.88-31.54C423.61,283.72,418.58,270.38,410.93,256.79Zm7.24,68.43-.08.21Zm4.31-20.28c0,.16,0,.33,0,.49C422.47,305.27,422.47,305.1,422.48,304.94Zm-.06,1.5c0,.2,0,.39,0,.58C422.39,306.83,422.41,306.64,422.42,306.44Zm-.1,1.5c0,.2,0,.4-.05.6C422.29,308.34,422.31,308.14,422.32,307.94Zm-.14,1.49-.06.6ZM422,310.9c0,.2-.06.4-.08.6C422,311.3,422,311.1,422,310.9Zm-.21,1.47c0,.2-.07.39-.1.59C421.73,312.76,421.77,312.57,421.8,312.37Zm-.25,1.46c0,.19-.07.38-.11.57C421.48,314.21,421.51,314,421.55,313.83Zm-.29,1.44-.12.56Zm-.32,1.44c-.05.18-.09.35-.13.53C420.85,317.06,420.89,316.89,420.94,316.71Zm-.36,1.43-.14.5Zm-.4,1.42c-.05.15-.1.31-.14.47C420.08,319.87,420.13,319.71,420.18,319.56Zm-.44,1.41c-.05.14-.09.29-.14.43C419.65,321.26,419.69,321.11,419.74,321Zm-.48,1.41c0,.12-.09.25-.13.38C419.17,322.63,419.22,322.5,419.26,322.38Zm-.52,1.41c0,.1-.07.21-.11.31C418.67,324,418.7,323.89,418.74,323.79Z" transform="translate(-231.03 -143.26)"/>
  <path class="cls-4" d="M695.23,295.18a87.09,87.09,0,0,1-174.17,0c0-48.1,87.09-126.81,87.09-126.81S695.23,247.08,695.23,295.18Z" transform="translate(-231.03 -143.26)"/>
  <circle class="cls-4" cx="312.13" cy="82.82" r="39.96"/>
  <circle class="cls-4" cx="339.52" cy="40.21" r="39.96"/>
  <circle class="cls-4" cx="334.78" cy="68.74" r="60.45"/>
  <circle class="cls-4" cx="377.11" cy="100.63" r="75.51"/>
  <circle class="cls-5" cx="406.26" cy="160.05" r="56.83"/>
  <path class="cls-6" d="M336.53,168.43a60.22,60.22,0,0,1,1.25,85.34c-.44.46-.9.92-1.36,1.36.37.33,26.26,23.83,26.26,38.24a26.26,26.26,0,0,1-23.43,26.11,75.64,75.64,0,0,0,69.42-53.23,74.88,74.88,0,0,0,2.26-9.46C387.42,215,339.22,170.87,336.53,168.43Z" transform="translate(-231.03 -143.26)"/>
  <path class="cls-8" d="M682.85,256.79a76.64,76.64,0,0,1-2.26,9.46,75.65,75.65,0,0,1-69.43,53.23,26.26,26.26,0,0,1-29.09-26.11,17.31,17.31,0,0,1,1-5.49h0a56.76,56.76,0,0,0,106.36,38.85h0l.21.09a86.91,86.91,0,0,0,5.88-31.54C695.53,283.72,690.5,270.38,682.85,256.79Zm7.24,68.43-.08.21Zm4.31-20.28c0,.16,0,.33,0,.49C694.38,305.27,694.39,305.1,694.4,304.94Zm-.06,1.5c0,.2,0,.39,0,.58C694.31,306.83,694.33,306.64,694.34,306.44Zm-.1,1.5c0,.2,0,.4,0,.6C694.2,308.34,694.22,308.14,694.24,307.94Zm-.14,1.49c0,.2,0,.4-.07.6C694.06,309.83,694.08,309.63,694.1,309.43Zm-.17,1.47-.09.6Zm-.21,1.47c0,.2-.07.39-.1.59C693.65,312.76,693.68,312.57,693.72,312.37Zm-.25,1.46c0,.19-.08.38-.11.57C693.39,314.21,693.43,314,693.47,313.83Zm-.29,1.44-.12.56Zm-.33,1.44c0,.18-.08.35-.13.53C692.77,317.06,692.81,316.89,692.85,316.71Zm-.36,1.43c0,.17-.09.33-.13.5C692.4,318.47,692.45,318.31,692.49,318.14Zm-.4,1.42c0,.15-.09.31-.14.47C692,319.87,692.05,319.71,692.09,319.56Zm-.43,1.41c0,.14-.09.29-.14.43C691.57,321.26,691.61,321.11,691.66,321Zm-.48,1.41c0,.12-.09.25-.13.38C691.09,322.63,691.14,322.5,691.18,322.38Zm-.52,1.41-.12.31Z" transform="translate(-231.03 -143.26)"/>
  <path class="cls-7" d="M336.53,168.43a60.22,60.22,0,0,1,1.25,85.34c-.44.46-.9.92-1.36,1.36.37.33,26.26,23.83,26.26,38.24a26.26,26.26,0,0,1-23.43,26.11,75.64,75.64,0,0,0,69.42-53.23,74.88,74.88,0,0,0,2.26-9.46C387.42,215,339.22,170.87,336.53,168.43Z" transform="translate(-231.03 -143.26)"/>
  <path class="cls-9" d="M753.47,295.34l.13-.12-.13.12Zm-15.56-9.17,5.83,6.27L731.66,292l-.17,5,12.33.47-6.38,5.93,3.34,3.6,12.69-11.68-11.78-12.68Z" transform="translate(-231.03 -143.26)"/>
  <path class="cls-9" d="M483.26,295.34l.13-.12-.13.12Zm-15.56-9.17,5.83,6.27L461.45,292l-.17,5,12.33.47-6.38,5.93,3.35,3.6,12.68-11.68-11.78-12.68Z" transform="translate(-231.03 -143.26)"/>
</svg>
