<svg id="Laag_1" data-name="Laag 1" xmlns="http://www.w3.org/2000/svg" viewBox="0 0 1200 630"><defs><style>.cls-1,.cls-10,.cls-12,.cls-2,.cls-3,.cls-4{fill:none;}.cls-1,.cls-2{stroke:#3b38a4;}.cls-1,.cls-10,.cls-12,.cls-2,.cls-3{stroke-miterlimit:10;}.cls-1,.cls-12{stroke-width:0.75px;}.cls-2{stroke-width:0.25px;}.cls-12,.cls-3,.cls-4{stroke:red;}.cls-3,.cls-4{stroke-width:0.5px;}.cls-4{stroke-miterlimit:1;}.cls-11,.cls-13,.cls-14,.cls-5,.cls-6,.cls-7,.cls-8,.cls-9{fill:red;}.cls-14,.cls-5{opacity:0.9;}.cls-6{opacity:0.92;}.cls-7{opacity:0.95;}.cls-8{opacity:0.68;}.cls-9{opacity:0.04;}.cls-10{stroke:#fa0021;}.cls-11{opacity:0.05;}.cls-13{opacity:0.11;}.cls-14{font-size:11.78px;font-family:SofiaProRegular, Sofia Pro;}.cls-15{letter-spacing:-0.02em;}.cls-16{letter-spacing:0em;}.cls-17{letter-spacing:-0.01em;}.cls-18{letter-spacing:-0.01em;}</style></defs><path class="cls-1" d="M229.54,121.4c-.39-1.8-.83-3.58-1.35-5.32C228.68,117.84,229.1,119.62,229.54,121.4Z"/><path class="cls-2" d="M360.89,310.67a133.64,133.64,0,0,1-267.27,0c0-73.81,133.64-194.59,133.64-194.59S360.89,236.86,360.89,310.67Z"/><circle class="cls-2" cx="127.53" cy="204.62" r="61.32"/><circle class="cls-2" cx="169.56" cy="139.24" r="61.32"/><circle class="cls-2" cx="162.29" cy="183.02" r="92.76"/><circle class="cls-2" cx="227.26" cy="231.95" r="115.88"/><path class="cls-1" d="M267.51,307.72a40.26,40.26,0,0,1-80.51,0c0-22.23,40.26-58.61,40.26-58.61S267.51,285.49,267.51,307.72Z"/><circle class="cls-2" cx="271.98" cy="323.14" r="87.21"/><path class="cls-3" d="M666.76,426.15a21.43,21.43,0,1,1-42.86,0c0-11.83,21.43-31.2,21.43-31.2S666.76,414.32,666.76,426.15Z"/><path class="cls-3" d="M802.93,431.84c-.06.23-.12.45-.19.68C802.81,432.29,802.87,432.07,802.93,431.84Z"/><path class="cls-3" d="M1096.56,429.86a21.67,21.67,0,0,1-2.51,1.44,22.49,22.49,0,0,1-25.62-4.25c-.21-.19-.42-.39-.62-.6a6.87,6.87,0,0,1-.55-.66,22.43,22.43,0,0,1-2.4-26.07c.06-.1.12-.19.17-.29.4-.65.83-1.28,1.3-1.9l-1.57.41-.73.22a21.81,21.81,0,0,0-8.63,4.43,25.9,25.9,0,0,0,29.19,42.13c.26-.12.51-.25.76-.39a25.35,25.35,0,0,0,5.43-3.9C1093.29,438.08,1095.17,434.28,1096.56,429.86Z"/><path class="cls-4" d="M1064.86,399.72a22.43,22.43,0,0,0,2.4,26.07,7.8,7.8,0,0,1,.92-10.37c2.53-2.36,9.79-2.26,12.54-2.12l1.08.06v0h.57a18,18,0,0,0,18.14-17.1v0c0-.18,0-.36,0-.54h0c-1-.08-6.72-.49-13.85-.37-2.43,0-5,.13-7.66.33a78.27,78.27,0,0,0-12.62,1.84c-.47.62-.9,1.25-1.3,1.9"/><path class="cls-3" d="M1067.26,425.79a6.87,6.87,0,0,0,.55.66c.2.21.41.41.62.6-.2-.21-.41-.41-.6-.62S1067.44,426,1067.26,425.79Z"/><path class="cls-3" d="M1081.8,413.36l-1.08-.06"/><path class="cls-2" d="M646.22,229.89c-.15-.7-.32-1.4-.53-2.08C645.89,228.5,646.05,229.2,646.22,229.89Z"/><path class="cls-2" d="M697.61,303.93a52.28,52.28,0,0,1-104.56,0c0-28.87,52.28-76.12,52.28-76.12S697.61,275.06,697.61,303.93Z"/><circle class="cls-2" cx="606.32" cy="262.45" r="23.99"/><circle class="cls-2" cx="622.76" cy="236.87" r="23.99"/><circle class="cls-2" cx="619.92" cy="254" r="36.28"/><circle class="cls-2" cx="645.33" cy="273.14" r="45.33"/><circle class="cls-2" cx="662.82" cy="308.81" r="34.11"/><path class="cls-5" d="M661,302.81a15.66,15.66,0,0,1-31.32,0c0-8.65,15.66-22.81,15.66-22.81S661,294.16,661,302.81Z"/><path class="cls-2" d="M784.49,230.66c-.15-.7-.32-1.4-.53-2.08C784.16,229.27,784.32,230,784.49,230.66Z"/><path class="cls-2" d="M835.87,304.7a52.28,52.28,0,0,1-104.55,0c0-28.87,52.28-76.12,52.28-76.12S835.87,275.83,835.87,304.7Z"/><circle class="cls-2" cx="744.59" cy="263.22" r="23.99"/><circle class="cls-2" cx="761.03" cy="237.64" r="23.99"/><circle class="cls-2" cx="758.18" cy="254.77" r="36.28"/><circle class="cls-2" cx="783.6" cy="273.91" r="45.33"/><path class="cls-2" d="M799.34,303.55a15.75,15.75,0,0,1-31.49,0c0-8.7,15.75-22.93,15.75-22.93S799.34,294.85,799.34,303.55Z"/><path class="cls-3" d="M802.74,432.52c.07-.23.13-.45.19-.68a21.5,21.5,0,0,0,.72-5.53c0-2.86-1.25-6.17-3.14-9.53-5.54-9.85-18.2-21.58-18.18-21.51"/><path class="cls-3" d="M782.31,395.26c-.1-.11-.2-.21-.31-.31l0,0a9.75,9.75,0,0,1,.7,3.64,9.91,9.91,0,0,1-6.86,9.42,9.77,9.77,0,0,0-1.95-4.85c-1.36,1.5-2.77,3.13-4.16,4.85a65.46,65.46,0,0,0-6.06,8.73c-.22.39-.44.79-.64,1.19-.1.19-.2.37-.29.56a18.29,18.29,0,0,0-2.21,7.78,21.58,21.58,0,0,0,42.25,6.21"/><path class="cls-6" d="M828.12,281.3c-13.38-23.78-44-52.1-43.9-51.94l.23.43-.26-.46c-.25-.26-.5-.5-.75-.75l-.1.09a23.93,23.93,0,0,1-14.88,31.55,23.74,23.74,0,0,0-4.71-11.72c-3.28,3.62-6.7,7.57-10,11.71a159.07,159.07,0,0,0-14.64,21.09c-.54,1-1.06,1.91-1.55,2.87l-.7,1.37c-3.28,6.64-5.34,13.07-5.34,18.78a52.12,52.12,0,0,0,52.12,52.11c22.77,0,42.68-12.92,49.85-37.24l.06.12c.17-.54.32-1.09.47-1.64a52,52,0,0,0,1.73-13.35C835.71,297.4,832.7,289.42,828.12,281.3Z"/><path class="cls-2" d="M1082.22,229c-.16-.71-.33-1.41-.53-2.09C1081.88,227.6,1082,228.3,1082.22,229Z"/><path class="cls-2" d="M1133.79,303.31a52.47,52.47,0,0,1-104.94,0c0-29,52.47-76.4,52.47-76.4S1133.79,274.33,1133.79,303.31Z"/><circle class="cls-2" cx="1042.17" cy="261.67" r="24.08"/><circle class="cls-2" cx="1058.67" cy="236" r="24.08"/><circle class="cls-2" cx="1055.81" cy="253.19" r="36.42"/><circle class="cls-2" cx="1081.32" cy="272.4" r="45.5"/><path class="cls-2" d="M1097.12,302.15a15.8,15.8,0,1,1-31.6,0c0-8.73,15.8-23,15.8-23S1097.12,293.42,1097.12,302.15Z"/><circle class="cls-2" cx="1098.88" cy="308.2" r="34.24"/><path class="cls-7" d="M1126.06,279.77a43.1,43.1,0,0,1-1.33,5.71,45.52,45.52,0,0,1-41.65,32.16,14.47,14.47,0,0,1-3.48,0,45.41,45.41,0,0,1-42-32.4c-.06-.21-.13-.43-.19-.65a45.31,45.31,0,0,1-1-4.54c-.54,1-1.06,1.93-1.56,2.89-.23.47-.47.93-.69,1.39-3.29,6.7-5.34,13.18-5.32,18.93A52.49,52.49,0,0,0,1131.62,318c.16-.55.32-1.1.46-1.65a52.41,52.41,0,0,0,1.7-13.45C1133.76,296,1130.7,287.94,1126.06,279.77Z"/><path class="cls-8" d="M1037.6,285.25a45.41,45.41,0,0,0,42,32.4A15.81,15.81,0,0,1,1065.48,302c0-7,10.15-17.65,14.15-21.56,1-.95,1.59-1.51,1.59-1.51l0,0c.27-.27.54-.55.8-.83a36.38,36.38,0,0,0-.37-50.51l0,0c-.24-.25-.6-.41-.86-.66,0,0,0,0,0,0-1.55,1.43-10,9.31-19.66,20-3.29,3.66-6.72,7.65-10.07,11.82a159.88,159.88,0,0,0-14.67,21.29,45.31,45.31,0,0,0,1,4.54"/><path class="cls-9" d="M227.72,116.16a92.41,92.41,0,0,1,1.92,131c-.68.7-1.38,1.4-2.09,2.08.56.51,40.29,36.57,40.29,58.68A40.31,40.31,0,0,1,231.89,348a116.08,116.08,0,0,0,106.53-81.69,114.57,114.57,0,0,0,3.47-14.52C305.82,187.65,231.85,119.91,227.72,116.16Z"/><path class="cls-10" d="M223.19,348a41.25,41.25,0,0,0,8.7,0c-1.45.05-2.89.09-4.35.09S224.64,348,223.19,348Z"/><path class="cls-11" d="M341.89,251.75a114.57,114.57,0,0,1-3.47,14.52A116.08,116.08,0,0,1,231.89,348a41.25,41.25,0,0,1-8.7,0,40.32,40.32,0,0,1-36-40.07,26.78,26.78,0,0,1,1.56-8.42h0a87.21,87.21,0,0,0-3.8,23.86,88.24,88.24,0,0,0,1.72,17.32A87.35,87.35,0,0,0,352,359.09h0l.32.15a133.39,133.39,0,0,0,9-48.4C361.35,293.08,353.62,272.61,341.89,251.75Zm11.11,105a2.88,2.88,0,0,1-.13.31A2.88,2.88,0,0,0,353,356.77Zm6.61-31.12,0,.75Zm-.09,2.31-.06.87Zm-.15,2.29c0,.31-.06.61-.08.92C359.31,330.86,359.34,330.56,359.37,330.25Zm-.21,2.28c0,.31-.07.62-.11.93C359.09,333.15,359.13,332.84,359.16,332.53Zm-.27,2.27c0,.3-.08.61-.13.92C358.81,335.41,358.85,335.1,358.89,334.8Zm-.33,2.25c0,.3-.09.6-.14.9C358.47,337.65,358.52,337.35,358.56,337.05Zm-.38,2.23c-.05.3-.11.59-.17.88C358.07,339.87,358.13,339.58,358.18,339.28Zm-.44,2.22-.18.85Zm-.5,2.21c-.06.27-.13.54-.2.81C357.11,344.25,357.18,344,357.24,343.71Zm-.55,2.19-.21.77Zm-.61,2.17c-.07.25-.14.49-.22.73C355.94,348.56,356,348.32,356.08,348.07Zm-.67,2.17c-.07.22-.14.45-.22.67C355.27,350.69,355.34,350.46,355.41,350.24Zm-.73,2.16-.21.59Zm-.8,2.17-.18.48Z"/><path class="cls-12" d="M188.79,299.47h0c6.13-18.13,28.56-40.6,36.19-47.88.87-.78,1.73-1.57,2.57-2.38s1.41-1.38,2.09-2.08a92.41,92.41,0,0,0-1.92-131l-.09-.08a61.46,61.46,0,0,1-38.91,81.83,61.1,61.1,0,0,0-12.13-30.39c-8.37,9.23-17.09,19.29-25.6,29.83-14,17.37-27.46,36-37.8,54.4-1.16,2.07-2.28,4.12-3.36,6.17q-1.23,2.37-2.4,4.71c-8.44,17.05-13.7,33.55-13.7,48.21a133.83,133.83,0,0,0,258.59,48.4l-.32-.15a87.35,87.35,0,0,1-165.29-18.44A119.28,119.28,0,0,1,185,323.33C184.55,314.5,188.79,299.47,188.79,299.47Z"/><path class="cls-12" d="M227.72,116.16a92.41,92.41,0,0,1,1.92,131c-.68.7-1.38,1.4-2.09,2.08.56.51,40.29,36.57,40.29,58.68A40.31,40.31,0,0,1,231.89,348a116.08,116.08,0,0,0,106.53-81.69,114.57,114.57,0,0,0,3.47-14.52C305.82,187.65,231.85,119.91,227.72,116.16Z"/><path class="cls-12" d="M341.89,251.75a114.57,114.57,0,0,1-3.47,14.52A116.08,116.08,0,0,1,231.89,348a41.25,41.25,0,0,1-8.7,0,40.32,40.32,0,0,1-36-40.07,26.78,26.78,0,0,1,1.56-8.42h0a87.21,87.21,0,0,0-3.8,23.86,88.24,88.24,0,0,0,1.72,17.32A87.35,87.35,0,0,0,352,359.09h0l.32.15a133.39,133.39,0,0,0,9-48.4C361.35,293.08,353.62,272.61,341.89,251.75Zm11.11,105a2.88,2.88,0,0,1-.13.31A2.88,2.88,0,0,0,353,356.77Zm6.61-31.12,0,.75Zm-.09,2.31-.06.87Zm-.15,2.29c0,.31-.06.61-.08.92C359.31,330.86,359.34,330.56,359.37,330.25Zm-.21,2.28c0,.31-.07.62-.11.93C359.09,333.15,359.13,332.84,359.16,332.53Zm-.27,2.27c0,.3-.08.61-.13.92C358.81,335.41,358.85,335.1,358.89,334.8Zm-.33,2.25c0,.3-.09.6-.14.9C358.47,337.65,358.52,337.35,358.56,337.05Zm-.38,2.23c-.05.3-.11.59-.17.88C358.07,339.87,358.13,339.58,358.18,339.28Zm-.44,2.22-.18.85Zm-.5,2.21c-.06.27-.13.54-.2.81C357.11,344.25,357.18,344,357.24,343.71Zm-.55,2.19-.21.77Zm-.61,2.17c-.07.25-.14.49-.22.73C355.94,348.56,356,348.32,356.08,348.07Zm-.67,2.17c-.07.22-.14.45-.22.67C355.27,350.69,355.34,350.46,355.41,350.24Zm-.73,2.16-.21.59Zm-.8,2.17-.18.48Z"/><path class="cls-2" d="M923.57,229c-.15-.71-.33-1.41-.53-2.09C923.23,227.62,923.4,228.32,923.57,229Z"/><path class="cls-2" d="M975.21,303.43a52.54,52.54,0,0,1-105.08,0c0-29,52.54-76.5,52.54-76.5S975.21,274.41,975.21,303.43Z"/><circle class="cls-2" cx="883.47" cy="261.74" r="24.11"/><circle class="cls-2" cx="899.99" cy="236.03" r="24.11"/><circle class="cls-2" cx="897.13" cy="253.25" r="36.47"/><circle class="cls-2" cx="922.67" cy="272.48" r="45.56"/><path class="cls-2" d="M938.5,302.27a15.83,15.83,0,1,1-31.65,0c0-8.74,15.82-23,15.82-23S938.5,293.53,938.5,302.27Z"/><circle class="cls-2" cx="940.25" cy="308.33" r="34.29"/><path class="cls-13" d="M922.86,227a36.35,36.35,0,0,1,.75,51.49c-.27.28-.54.55-.82.82.22.2,15.84,14.38,15.84,23.07a15.85,15.85,0,0,1-14.14,15.75A45.66,45.66,0,0,0,966.38,286a47,47,0,0,0,1.36-5.71C953.56,255.07,924.48,228.44,922.86,227Z"/><path class="cls-13" d="M967.74,280.27a47,47,0,0,1-1.36,5.71,45.66,45.66,0,0,1-41.89,32.11,16,16,0,0,1-1.71.09,16.32,16.32,0,0,1-1.71-.09,15.85,15.85,0,0,1-14.13-15.75,10.49,10.49,0,0,1,.61-3.31h0a34.2,34.2,0,0,0-1.49,9.38,34.72,34.72,0,0,0,.67,6.81,34.35,34.35,0,0,0,65,7.25h0l.13.06a52.53,52.53,0,0,0,3.55-19C975.39,296.52,972.35,288.47,967.74,280.27Zm4.37,41.28a1.12,1.12,0,0,0-.05.13A1.12,1.12,0,0,1,972.11,321.55Zm2.6-12.23c0,.1,0,.2,0,.29C974.7,309.52,974.7,309.42,974.71,309.32Zm0,.91c0,.11,0,.23,0,.34C974.66,310.46,974.66,310.34,974.67,310.23Zm-.06.9,0,.36Zm-.08.89c0,.13,0,.25,0,.37C974.5,312.27,974.52,312.15,974.53,312Zm-.11.89c0,.13,0,.25,0,.37C974.39,313.16,974.41,313,974.42,312.91Zm-.12.89-.06.36Zm-.16.88-.06.35Zm-.17.87c0,.11-.05.22-.07.34C973.92,315.77,974,315.66,974,315.55Zm-.19.87c0,.11-.06.21-.08.32C973.72,316.63,973.75,316.53,973.78,316.42Zm-.22.86c0,.1-.06.2-.08.3C973.5,317.48,973.53,317.38,973.56,317.28Zm-.24.86-.09.28Zm-.27.85c0,.08,0,.17-.08.26C973,319.16,973,319.07,973.05,319Zm-.28.85a1.55,1.55,0,0,0-.08.23A1.55,1.55,0,0,1,972.77,319.84Zm-.32.85c0,.06,0,.12-.07.19S972.43,320.75,972.45,320.69Z"/><path class="cls-7" d="M907.55,299h0c2.41-7.13,11.23-16,14.23-18.83.34-.3.68-.61,1-.93s.55-.54.82-.82a36.35,36.35,0,0,0-.75-51.49l0,0a24.16,24.16,0,0,1-15.3,32.17,24,24,0,0,0-4.77-12c-3.29,3.63-6.71,7.59-10.06,11.73a160.22,160.22,0,0,0-14.86,21.39c-.46.81-.9,1.62-1.32,2.42-.33.62-.64,1.24-1,1.85-3.31,6.71-5.38,13.19-5.38,19a52.61,52.61,0,0,0,101.66,19l-.13-.06a34.34,34.34,0,0,1-65-7.25,45.81,45.81,0,0,1-.67-6.81C905.88,304.93,907.55,299,907.55,299Z"/><path class="cls-8" d="M907.09,300.79c.15-.59.3-1.18.46-1.76A13.89,13.89,0,0,0,907.09,300.79Z"/><path class="cls-8" d="M975.39,303.5c0-7-3-15-7.65-23.23-14.18-25.2-43.26-51.83-44.88-53.31a36.35,36.35,0,0,1,.75,51.49c-.27.28-.54.55-.82.82.22.2,15.84,14.38,15.84,23.07a15.85,15.85,0,0,1-14.14,15.75,16,16,0,0,1-1.71.09,16.32,16.32,0,0,1-1.71-.09,15.85,15.85,0,0,1-14.13-15.75,8.38,8.38,0,0,1,.15-1.55,31.47,31.47,0,0,0-1,7.62,34.72,34.72,0,0,0,.67,6.81,34.35,34.35,0,0,0,65,7.25h0l.13.06A52.53,52.53,0,0,0,975.39,303.5Z"/><path class="cls-3" d="M916.58,424.32h0c1-2.9,4.57-6.5,5.79-7.66l.42-.39.33-.33a14.79,14.79,0,0,0-.31-21h0a9.85,9.85,0,0,1-6.23,13.11,9.81,9.81,0,0,0-2-4.87c-1.34,1.48-2.74,3.09-4.1,4.78a65.2,65.2,0,0,0-6,8.71q-.29.49-.54,1l-.39.75a18.14,18.14,0,0,0-2.19,7.73,21.44,21.44,0,0,0,41.42,7.75l0,0a14,14,0,0,1-26.48-3,19.26,19.26,0,0,1-.27-2.77A16,16,0,0,1,916.58,424.32Z"/><path class="cls-3" d="M916.37,425.2c.07-.29.13-.59.21-.88A5.09,5.09,0,0,0,916.37,425.2Z"/><path class="cls-3" d="M944.22,426.15c0-2.85-1.24-6.13-3.12-9.47-5.78-10.27-17.63-21.12-18.29-21.72a14.79,14.79,0,0,1,.31,21l-.33.33c.09.08,6.45,5.86,6.45,9.4a6.46,6.46,0,0,1-5.76,6.42,6.06,6.06,0,0,1-1.39,0,6.46,6.46,0,0,1-5.76-6.42,3.89,3.89,0,0,1,0-.47,13,13,0,0,0-.4,2.95,14,14,0,0,0,26.75,5.73h0l0,0A21.26,21.26,0,0,0,944.22,426.15Z"/><text class="cls-14" transform="translate(618.75 466.76)">Expertise</text><text class="cls-14" transform="translate(766.72 466.76)"><tspan class="cls-15">P</tspan><tspan x="6.96" y="0">assie</tspan></text><text class="cls-14" transform="translate(882.7 466.76)">Same<tspan class="cls-16" x="30.81" y="0">n</tspan><tspan class="cls-17" x="37.52" y="0">w</tspan><tspan x="46.6" y="0">erking</tspan></text><text class="cls-14" transform="translate(1048.47 466.56)"><tspan class="cls-16">C</tspan><tspan x="8.07" y="0">e</tspan><tspan class="cls-18" x="14.64" y="0">n</tspan><tspan x="21.34" y="0">trum</tspan></text></svg>