<svg id="Laag_1" data-name="Laag 1" xmlns="http://www.w3.org/2000/svg" viewBox="0 0 695.24 330.19">
  <defs>
    <style>
      .cls-1, .cls-2, .cls-3, .cls-4 {
        fill: none;
      }

      .cls-1, .cls-2, .cls-3 {
        stroke: red;
      }

      .cls-1, .cls-2, .cls-4 {
        stroke-miterlimit: 10;
      }

      .cls-1, .cls-3 {
        stroke-width: 0.45px;
      }

      .cls-2 {
        stroke-width: 0.35px;
      }

      .cls-3 {
        stroke-miterlimit: 1;
      }

      .cls-4 {
        stroke: #3b38a4;
        stroke-width: 0.25px;
      }

      .cls-5, .cls-6, .cls-7, .cls-8, .cls-9 {
        fill: red;
      }

      .cls-5, .cls-9 {
        opacity: 0.9;
      }

      .cls-6 {
        opacity: 0.92;
      }

      .cls-7 {
        opacity: 0.95;
      }

      .cls-8 {
        opacity: 0.68;
      }

      .cls-9 {
        font-size: 14.84px;
        font-family: SofiaProLight, Sofia Pro;
      }

      .cls-10 {
        letter-spacing: -0.02em;
      }

      .cls-11 {
        letter-spacing: -0.01em;
      }

      .cls-12 {
        letter-spacing: -0.01em;
      }

      .cls-13 {
        letter-spacing: 0em;
      }

      .cls-14 {
        letter-spacing: -0.01em;
      }
    </style>
  </defs>
  <path class="cls-1" d="M358.9,420a27,27,0,1,1-54,0c0-14.91,27-39.32,27-39.32S358.9,405,358.9,420Z" transform="translate(-252.38 -149.84)"/>
  <path class="cls-2" d="M530.52,427.12c-.07.29-.16.57-.24.86C530.37,427.7,530.45,427.41,530.52,427.12Z" transform="translate(-252.38 -149.84)"/>
  <path class="cls-1" d="M900.58,424.63a27,27,0,0,1-3.17,1.81,28.3,28.3,0,0,1-32.28-5.36,9.25,9.25,0,0,1-.79-.75,7.79,7.79,0,0,1-.69-.83,28.24,28.24,0,0,1-3-32.86c.07-.12.14-.24.22-.36a27.23,27.23,0,0,1,1.63-2.39q-1,.24-2,.51l-.92.27c-4.45,1.34-8.27,3.15-10.88,5.59a32.65,32.65,0,0,0,36.8,53.1l1-.49A32.57,32.57,0,0,0,893.3,438C896.46,435,898.82,430.2,900.58,424.63Z" transform="translate(-252.38 -149.84)"/>
  <path class="cls-3" d="M860.63,386.64a28.24,28.24,0,0,0,3,32.86,9.83,9.83,0,0,1,1.16-13.07c3.18-3,12.34-2.84,15.81-2.68.85,0,1.36.09,1.36.09h0l.72,0a22.64,22.64,0,0,0,22.86-21.55v0c0-.22-.07-.45-.06-.67h0c-1.32-.1-8.48-.62-17.46-.48-3.06.05-6.33.18-9.65.42a98.63,98.63,0,0,0-15.91,2.33,27.23,27.23,0,0,0-1.63,2.39" transform="translate(-252.38 -149.84)"/>
  <path class="cls-2" d="M863.65,419.5a7.79,7.79,0,0,0,.69.83,9.25,9.25,0,0,0,.79.75c-.26-.25-.51-.51-.76-.77S863.88,419.77,863.65,419.5Z" transform="translate(-252.38 -149.84)"/>
  <path class="cls-1" d="M882,403.84s-.51,0-1.36-.09" transform="translate(-252.38 -149.84)"/>
  <path class="cls-4" d="M333,172.61c-.19-.89-.41-1.77-.66-2.63C332.6,170.85,332.81,171.73,333,172.61Z" transform="translate(-252.38 -149.84)"/>
  <path class="cls-4" d="M397.78,265.92a65.89,65.89,0,0,1-131.77,0C266,229.53,331.9,170,331.9,170S397.78,229.53,397.78,265.92Z" transform="translate(-252.38 -149.84)"/>
  <circle class="cls-4" cx="30.36" cy="63.79" r="30.23"/>
  <circle class="cls-4" cx="51.08" cy="31.56" r="30.23"/>
  <circle class="cls-4" cx="47.49" cy="53.15" r="45.73"/>
  <circle class="cls-4" cx="79.52" cy="77.27" r="57.13"/>
  <circle class="cls-4" cx="101.57" cy="122.22" r="42.99"/>
  <path class="cls-5" d="M351.63,264.5a19.74,19.74,0,1,1-39.47,0c0-10.9,19.74-28.73,19.74-28.73S351.63,253.6,351.63,264.5Z" transform="translate(-252.38 -149.84)"/>
  <path class="cls-4" d="M507.28,173.58c-.19-.89-.41-1.76-.67-2.62C506.86,171.83,507.07,172.7,507.28,173.58Z" transform="translate(-252.38 -149.84)"/>
  <path class="cls-4" d="M572,266.89a65.89,65.89,0,0,1-131.77,0c0-36.39,65.89-95.93,65.89-95.93S572,230.5,572,266.89Z" transform="translate(-252.38 -149.84)"/>
  <circle class="cls-4" cx="204.62" cy="64.76" r="30.23"/>
  <circle class="cls-4" cx="225.33" cy="32.53" r="30.23"/>
  <circle class="cls-4" cx="221.75" cy="54.12" r="45.73"/>
  <circle class="cls-4" cx="253.78" cy="78.24" r="57.13"/>
  <path class="cls-4" d="M526,265.44a19.85,19.85,0,0,1-39.69,0c0-11,19.85-28.9,19.85-28.9S526,254.48,526,265.44Z" transform="translate(-252.38 -149.84)"/>
  <path class="cls-1" d="M530.28,428c.08-.29.17-.57.24-.86a27.13,27.13,0,0,0,.91-7c0-3.61-1.58-7.77-4-12-7-12.41-22.94-27.19-22.92-27.11" transform="translate(-252.38 -149.84)"/>
  <path class="cls-1" d="M504.54,381l-.39-.39-.06.05a12.46,12.46,0,0,1-7.76,16.46,12.39,12.39,0,0,0-2.46-6.11c-1.71,1.89-3.5,4-5.24,6.11a82.94,82.94,0,0,0-7.64,11q-.42.75-.81,1.5l-.36.71a23,23,0,0,0-2.79,9.8A27.2,27.2,0,0,0,530.28,428" transform="translate(-252.38 -149.84)"/>
  <path class="cls-6" d="M562.27,237.4c-16.87-30-55.39-65.67-55.34-65.46l.3.54-.33-.58c-.31-.32-.63-.63-.95-.94l-.13.11a30.12,30.12,0,0,1-18.74,39.76,29.94,29.94,0,0,0-5.94-14.77c-4.13,4.57-8.45,9.55-12.65,14.76A199.42,199.42,0,0,0,450,237.4c-.68,1.21-1.33,2.41-2,3.61-.3.58-.59,1.16-.87,1.73-4.15,8.37-6.74,16.47-6.74,23.67a65.69,65.69,0,0,0,65.69,65.68c28.69,0,53.78-16.29,62.83-46.93l.07.14c.21-.68.41-1.37.59-2.06a65.81,65.81,0,0,0,2.19-16.83C571.84,257.69,568,247.64,562.27,237.4Z" transform="translate(-252.38 -149.84)"/>
  <path class="cls-4" d="M882.5,171.48c-.19-.89-.41-1.77-.67-2.63C882.08,169.72,882.28,170.6,882.5,171.48Z" transform="translate(-252.38 -149.84)"/>
  <path class="cls-4" d="M947.5,265.14a66.13,66.13,0,0,1-132.25,0c0-36.52,66.12-96.29,66.12-96.29S947.5,228.62,947.5,265.14Z" transform="translate(-252.38 -149.84)"/>
  <circle class="cls-4" cx="579.65" cy="62.82" r="30.34"/>
  <circle class="cls-4" cx="600.45" cy="30.47" r="30.34"/>
  <circle class="cls-4" cx="596.85" cy="52.13" r="45.9"/>
  <circle class="cls-4" cx="628.99" cy="76.34" r="57.34"/>
  <path class="cls-4" d="M901.29,263.68a19.92,19.92,0,1,1-39.84,0c0-11,19.92-29,19.92-29S901.29,252.68,901.29,263.68Z" transform="translate(-252.38 -149.84)"/>
  <circle class="cls-4" cx="651.12" cy="121.46" r="43.15"/>
  <path class="cls-7" d="M937.76,235.47A57.13,57.13,0,0,1,883.6,283.2c-.73.08-1.46.13-2.2.14s-1.47,0-2.19-.12a57.28,57.28,0,0,1-52.94-40.84c-.08-.27-.16-.55-.23-.82a56.75,56.75,0,0,1-1.31-5.73c-.68,1.22-1.34,2.44-2,3.65l-.88,1.75c-4.14,8.44-6.72,16.61-6.7,23.86a66.15,66.15,0,0,0,129.57,18.6c.21-.69.4-1.38.59-2.08a66.36,66.36,0,0,0,2.14-17C947.46,255.87,943.6,245.76,937.76,235.47Z" transform="translate(-252.38 -149.84)"/>
  <path class="cls-8" d="M826.27,242.38a57.28,57.28,0,0,0,52.94,40.84,19.92,19.92,0,0,1-17.8-19.74c0-8.85,12.79-22.25,17.83-27.17,1.23-1.21,2-1.91,2-1.91l0,0c.34-.34.68-.69,1-1a45.88,45.88,0,0,0-.46-63.66l0,0c-.31-.33-.76-.52-1.08-.84h0c-2,1.81-12.61,11.74-24.78,25.25-4.15,4.62-8.48,9.64-12.7,14.91a201,201,0,0,0-18.49,26.82,56.75,56.75,0,0,0,1.31,5.73" transform="translate(-252.38 -149.84)"/>
  <path class="cls-4" d="M682.56,171.51c-.19-.89-.41-1.77-.67-2.64C682.14,169.75,682.34,170.63,682.56,171.51Z" transform="translate(-252.38 -149.84)"/>
  <path class="cls-4" d="M747.64,265.29a66.21,66.21,0,0,1-132.42,0c0-36.57,66.21-96.42,66.21-96.42S747.64,228.72,747.64,265.29Z" transform="translate(-252.38 -149.84)"/>
  <circle class="cls-4" cx="379.64" cy="62.9" r="30.38"/>
  <circle class="cls-4" cx="400.47" cy="30.51" r="30.38"/>
  <circle class="cls-4" cx="396.86" cy="52.2" r="45.96"/>
  <circle class="cls-4" cx="429.05" cy="76.44" r="57.41"/>
  <path class="cls-4" d="M701.37,263.83a19.95,19.95,0,0,1-39.89,0c0-11,19.95-29,19.95-29S701.37,252.81,701.37,263.83Z" transform="translate(-252.38 -149.84)"/>
  <circle class="cls-4" cx="451.21" cy="121.63" r="43.21"/>
  <path class="cls-8" d="M681.66,168.92a45.79,45.79,0,0,1,1,64.89l-1,1c.27.25,20,18.12,20,29.07a20,20,0,0,1-17.82,19.86,57.45,57.45,0,0,0,54.51-47.67C720.35,204.34,683.7,170.78,681.66,168.92Z" transform="translate(-252.38 -149.84)"/>
  <path class="cls-8" d="M738.23,236.1a57.45,57.45,0,0,1-54.51,47.67c-.7.07-1.42.11-2.15.11s-1.45,0-2.15-.11a20,20,0,0,1-17.82-19.86,13.3,13.3,0,0,1,.77-4.17h0a43.15,43.15,0,0,0,80.87,29.54h0l.16.08a66.32,66.32,0,0,0,4.47-24C747.87,256.58,744,246.43,738.23,236.1Zm5.5,52-.06.16ZM747,272.71c0,.13,0,.25,0,.37C747,273,747,272.84,747,272.71Zm0,1.14,0,.44Zm-.07,1.14c0,.15,0,.3,0,.46C746.86,275.29,746.88,275.14,746.89,275Zm-.11,1.13c0,.15,0,.31,0,.46C746.75,276.43,746.77,276.27,746.78,276.12Zm-.13,1.12-.06.46Zm-.16,1.12c0,.15,0,.3-.08.45C746.44,278.66,746.47,278.51,746.49,278.36Zm-.19,1.11c0,.14-.06.29-.08.43C746.24,279.76,746.27,279.61,746.3,279.47Zm-.22,1.1L746,281Zm-.25,1.09-.09.4Zm-.27,1.08c0,.13-.07.26-.1.39C745.49,283,745.53,282.87,745.56,282.74Zm-.3,1.08c0,.12-.07.24-.11.36C745.19,284.06,745.22,283.94,745.26,283.82Zm-.34,1.08c0,.11-.07.22-.1.33C744.85,285.12,744.89,285,744.92,284.9Zm-.36,1.07c0,.09-.06.19-.1.29C744.5,286.16,744.53,286.06,744.56,286Zm-.39,1.07-.09.24Z" transform="translate(-252.38 -149.84)"/>
  <path class="cls-7" d="M662.37,259.74h0c3-9,14.15-20.12,17.93-23.72.43-.39.86-.78,1.28-1.18l1-1a45.79,45.79,0,0,0-1-64.89l0,0a30.43,30.43,0,0,1-19.27,40.55,30.28,30.28,0,0,0-6-15.06c-4.14,4.58-8.46,9.56-12.68,14.78a202.75,202.75,0,0,0-18.73,27c-.57,1-1.13,2-1.66,3.06-.41.78-.81,1.55-1.19,2.33-4.18,8.44-6.79,16.62-6.79,23.88a66.31,66.31,0,0,0,128.13,24l-.16-.08a43.28,43.28,0,0,1-81.9-9.13,58.68,58.68,0,0,1-.85-8.59C660.27,267.19,662.37,259.74,662.37,259.74Z" transform="translate(-252.38 -149.84)"/>
  <path class="cls-1" d="M673.75,417.65h0c1.23-3.66,5.76-8.19,7.3-9.66l.52-.48q.23-.21.42-.42a18.67,18.67,0,0,0-.38-26.44l0,0a12.4,12.4,0,0,1-7.86,16.52,12.33,12.33,0,0,0-2.45-6.14c-1.69,1.87-3.45,3.9-5.16,6a82.12,82.12,0,0,0-7.64,11c-.23.42-.46.83-.67,1.25s-.33.63-.49,1a22.84,22.84,0,0,0-2.76,9.73,27,27,0,0,0,52.2,9.77l-.06,0A17.63,17.63,0,0,1,673.33,426a23.45,23.45,0,0,1-.35-3.5A20,20,0,0,1,673.75,417.65Z" transform="translate(-252.38 -149.84)"/>
  <g>
    <path class="cls-1" d="M673.49,418.75c.09-.36.16-.74.26-1.1A6,6,0,0,0,673.49,418.75Z" transform="translate(-252.38 -149.84)"/>
    <path class="cls-1" d="M708.58,420c0-3.59-1.56-7.72-3.93-11.93-7.28-12.94-22.21-26.62-23-27.37a18.67,18.67,0,0,1,.38,26.44q-.19.21-.42.42c.12.1,8.14,7.38,8.14,11.84a8.14,8.14,0,0,1-7.26,8.09,7.77,7.77,0,0,1-1.76,0,8.14,8.14,0,0,1-7.26-8.09,4.2,4.2,0,0,1,.06-.6,15.74,15.74,0,0,0-.51,3.72,17.63,17.63,0,0,0,33.72,7.22h0l.06,0A26.88,26.88,0,0,0,708.58,420Z" transform="translate(-252.38 -149.84)"/>
  </g>
  <text class="cls-9" transform="translate(46.5 321.41)">Expertise</text>
  <text class="cls-9" transform="translate(232.65 321.41)"><tspan class="cls-10">P</tspan><tspan x="8.74" y="0">assie</tspan></text>
  <text class="cls-9" transform="translate(378.84 321.41)">Same<tspan class="cls-11" x="39.2" y="0">n</tspan><tspan class="cls-12" x="47.54" y="0">w</tspan><tspan x="59.11" y="0">erking</tspan></text>
  <text class="cls-9" transform="translate(587.84 321.16)"><tspan class="cls-13">C</tspan><tspan x="10.02" y="0">e</tspan><tspan class="cls-14" x="18.34" y="0">n</tspan><tspan x="26.69" y="0">trum</tspan></text>
</svg>
