<?xml version="1.0" encoding="utf-8"?>
<!-- Generator: Adobe Illustrator 24.1.0, SVG Export Plug-In . SVG Version: 6.00 Build 0)  -->
<svg version="1.1" id="Laag_1" xmlns="http://www.w3.org/2000/svg" xmlns:xlink="http://www.w3.org/1999/xlink" x="0px" y="0px"
	 viewBox="0 0 400 400" style="enable-background:new 0 0 400 400;" xml:space="preserve">
<style type="text/css">
	.st0{opacity:0.8;fill:#FF0000;}
	.st1{fill:#FF0000;}
</style>
<g>
	<path class="st0" d="M292.88,214.93c-0.5-10.92-5.44-24.05-14.66-39.02c-0.01,0.06-27.36-43.99-71.83-86.63
		c0.83,1.06,1.56,2.07,2.24,3.05c0.04,0.06,0.08,0.12,0.12,0.18c0.04,0.06,0.08,0.12,0.11,0.18c0.84,1.25,1.67,2.59,2.46,3.97
		c0.05,0.09,0.11,0.19,0.16,0.28c0.06,0.1,0.12,0.21,0.18,0.31c0.73,1.32,1.44,2.7,2.15,4.23c0.13,0.28,0.26,0.56,0.38,0.84
		c0.68,1.54,1.27,2.98,1.77,4.4c0.04,0.12,0.08,0.24,0.12,0.37c0.03,0.09,0.06,0.18,0.09,0.26c0.52,1.51,0.98,3.01,1.37,4.47
		c0.02,0.06,0.03,0.12,0.05,0.18c0.02,0.07,0.04,0.15,0.06,0.23c0.37,1.44,0.71,2.99,1.02,4.73l0.05,0.29
		c0.04,0.2,0.07,0.4,0.11,0.61c0.21,1.27,0.38,2.54,0.51,3.79c3.75,28.1-12.61,48.69-17.62,54.24c6.17,5.88,26.25,26.03,26.25,39.26
		c0,6.24-1.98,12.14-5.72,17.09c-3.47,4.59-8.14,7.94-13.55,9.74c0.53-0.07,1.06-0.14,1.57-0.22l0.65-0.09
		c1.1-0.16,2.24-0.32,3.35-0.52c0.71-0.13,1.43-0.29,2.12-0.44l0.52-0.12c1.17-0.26,2.23-0.5,3.28-0.78
		c0.86-0.23,1.73-0.49,2.57-0.75c0.96-0.29,2.08-0.64,3.19-1.03c0.9-0.31,1.76-0.64,2.49-0.93c1.14-0.44,2.15-0.85,3.09-1.26
		c0.71-0.31,1.48-0.66,2.41-1.1c1.05-0.5,2.02-0.99,2.96-1.48c0.83-0.43,1.59-0.85,2.33-1.28c0.9-0.52,1.83-1.07,2.82-1.69
		c0.89-0.56,1.6-1.02,2.24-1.45c0.98-0.66,1.94-1.36,2.67-1.89c0.73-0.54,1.44-1.06,2.13-1.61c0.91-0.72,1.78-1.46,2.52-2.09
		l0.15-0.13c0.62-0.53,1.25-1.07,1.86-1.63c0.84-0.77,1.66-1.58,2.36-2.28l0.36-0.36c0.5-0.5,1.02-1.02,1.52-1.54
		c0.73-0.78,1.44-1.59,2.13-2.39l0.45-0.52c0.45-0.51,0.91-1.04,1.35-1.58c0.62-0.78,1.23-1.59,1.81-2.38l0.21-0.29
		c0.14-0.19,0.28-0.38,0.43-0.57c0.38-0.5,0.77-1.03,1.14-1.55c0.54-0.79,1.06-1.61,1.57-2.41l0.3-0.47
		c0.15-0.24,0.3-0.47,0.45-0.71c0.31-0.48,0.63-0.97,0.92-1.48c0.52-0.89,1.01-1.83,1.49-2.74l0.23-0.44
		c0.14-0.26,0.28-0.52,0.42-0.78c0.24-0.45,0.5-0.91,0.72-1.38c0.54-1.1,1.03-2.26,1.5-3.38l0.14-0.32
		c0.11-0.25,0.22-0.51,0.34-0.76c0.17-0.37,0.34-0.74,0.49-1.12c0.77-1.95,1.46-3.91,2.05-5.82c0.26-0.83,0.5-1.68,0.74-2.54
		c-0.1,0.42-0.2,0.84-0.31,1.24c-8.57,33.14-37.25,57.31-71.38,60.16c-2.02,0.31-4.01,0.4-6.07,0.28
		c-6.77-0.41-13.17-3.24-18.01-7.96c-4.6-4.48-7.53-10.41-8.31-16.78c0,0.03-0.01,0.07-0.01,0.1c-0.39,3.15-0.52,5.89-0.41,8.39
		c0.38,3.94,0.78,8.01,1.73,11.84c6.89,27.57,32.53,46.63,60.97,45.32c1.47-0.07,2.94-0.19,4.38-0.36c0.21-0.03,0.43-0.06,0.64-0.1
		c0.17-0.03,0.34-0.06,0.51-0.08l0.22-0.03c0.96-0.14,1.96-0.28,2.93-0.46c0.24-0.05,0.48-0.11,0.71-0.16
		c0.18-0.05,0.36-0.09,0.54-0.13l0.24-0.05c0.9-0.19,1.83-0.39,2.73-0.64c0.22-0.06,0.43-0.13,0.64-0.2
		c0.17-0.06,0.34-0.11,0.51-0.16l0.22-0.06c0.9-0.26,1.84-0.54,2.73-0.85c0.13-0.05,0.27-0.1,0.4-0.16
		c0.12-0.05,0.23-0.09,0.35-0.14c0.99-0.36,2.14-0.79,3.24-1.27c0.11-0.05,0.22-0.1,0.33-0.16c0.1-0.05,0.2-0.1,0.3-0.15
		c0.96-0.43,2.09-0.95,3.22-1.53c0.12-0.06,0.24-0.13,0.36-0.2c0.1-0.06,0.19-0.11,0.29-0.17c0.98-0.52,2.02-1.09,3.06-1.73
		c0.16-0.1,0.31-0.2,0.46-0.3c0.12-0.08,0.24-0.17,0.37-0.24c0.93-0.59,1.84-1.18,2.72-1.81c0.15-0.11,0.29-0.22,0.44-0.34
		c0.13-0.1,0.25-0.2,0.38-0.3c0.8-0.59,1.7-1.26,2.55-1.96c0.17-0.14,0.34-0.29,0.51-0.44c0.13-0.11,0.26-0.23,0.39-0.34l0.16-0.14
		c0.71-0.61,1.44-1.24,2.13-1.9c0.2-0.19,0.39-0.39,0.58-0.59c0.13-0.14,0.27-0.28,0.41-0.42l0.32-0.32
		c0.56-0.55,1.13-1.13,1.67-1.72c0.21-0.23,0.42-0.49,0.62-0.73c0.13-0.16,0.27-0.32,0.41-0.48l0.35-0.41
		c0.46-0.53,0.94-1.08,1.39-1.65c0.24-0.31,0.47-0.63,0.7-0.95c0.13-0.19,0.27-0.37,0.4-0.56c0.13-0.18,0.26-0.35,0.39-0.53
		c0.35-0.46,0.71-0.95,1.04-1.44c0.27-0.4,0.53-0.82,0.77-1.22c0.12-0.21,0.25-0.41,0.38-0.62c0.13-0.2,0.25-0.4,0.38-0.6
		c0.25-0.4,0.52-0.81,0.76-1.22c0.26-0.45,0.5-0.92,0.74-1.38c0.11-0.22,0.22-0.43,0.33-0.65c0.11-0.21,0.22-0.42,0.34-0.62
		c0.21-0.39,0.43-0.79,0.63-1.2c0.26-0.54,0.5-1.1,0.73-1.64c0.09-0.21,0.18-0.42,0.27-0.63c0.09-0.21,0.19-0.42,0.28-0.63
		c0.16-0.35,0.32-0.71,0.47-1.07l-0.01-0.32l0.15-0.01c0,0,1.08-2.62,1.43-3.88l-0.07-0.02l0.19-0.64l0.06,0.02
		c0.08-0.27,0.15-0.55,0.22-0.82l-0.04-0.01l0.19-0.69l0.03,0.01c0.07-0.26,0.13-0.51,0.19-0.77l0.01-0.12l0.15-0.62l0.02,0
		c0.06-0.25,0.12-0.49,0.17-0.74l0.01-0.12l0.15-0.67l0.01,0c0.05-0.24,0.1-0.48,0.15-0.72l0-0.12c0.04-0.18,0.07-0.37,0.11-0.55
		l0.02-0.12l0.03,0c0.05-0.24,0.1-0.47,0.14-0.71l-0.04-0.01l0.14-0.82l0.05,0.01C292.73,229.13,293.21,222.03,292.88,214.93z"/>
	<path class="st1" d="M282.65,257.53c-0.07,0.11-0.26,0.19-0.32,0.3c-0.08,0.14-0.79,1-0.88,1.13c-0.76,1.18-1.78,2.08-2.62,3.2
		c-0.11,0.15-0.23,0.29-0.35,0.43c-0.09,0.11-0.18,0.22-0.27,0.33c-0.59,0.76-1.29,1.65-2.02,2.5c-0.2,0.24-0.42,0.47-0.63,0.69
		c-0.13,0.14-0.26,0.28-0.39,0.42c-0.59,0.65-1.2,1.32-1.83,1.95c-0.27,0.27-0.55,0.53-0.82,0.79c-0.13,0.12-0.26,0.25-0.39,0.37
		l-0.08,0.08c-0.56,0.54-1.15,1.09-1.74,1.62c-0.36,0.32-0.74,0.62-1.1,0.92l-0.26,0.21c-0.59,0.49-1.22,1.01-1.87,1.5
		c-0.4,0.3-0.81,0.6-1.21,0.89l-0.25,0.18c-0.61,0.43-1.26,0.9-1.94,1.34c-0.52,0.34-1.05,0.67-1.54,0.98
		c-0.7,0.43-1.35,0.82-2.01,1.19c-0.49,0.28-1.02,0.57-1.62,0.88c-0.67,0.35-1.35,0.7-2.08,1.05c-0.67,0.32-1.18,0.56-1.67,0.78
		c-0.62,0.28-1.29,0.56-2.16,0.9l-0.19,0.07c-0.5,0.2-1.01,0.4-1.53,0.59c-0.76,0.28-1.53,0.53-2.25,0.76l-0.39,0.12
		c-0.44,0.14-0.89,0.28-1.34,0.41c-0.79,0.23-1.59,0.42-2.35,0.61l-0.45,0.11c-0.42,0.11-0.85,0.21-1.27,0.31
		c-0.75,0.16-1.52,0.29-2.26,0.42l-0.26,0.04c-0.17,0.03-0.34,0.06-0.52,0.09c-0.37,0.06-0.75,0.13-1.13,0.19
		c-0.89,0.12-1.81,0.21-2.69,0.3l-0.14,0.01c-0.19,0.02-0.38,0.04-0.57,0.06c-0.28,0.03-0.55,0.06-0.83,0.08
		c-1.47,0.1-2.91,0.16-4.29,0.16c-28.86,0-53.93-20.5-59.62-48.75c-0.79-3.95-1.2-8-1.2-12.04c-0.08-1.6,0.06-3.65,0.41-6.11
		c0.31-2.44,0.78-4.91,1.43-7.54c0.09-0.46,0.23-0.95,0.37-1.43c0.04-0.15,0.08-0.29,0.13-0.44c0.15-0.58,0.25-0.96,0.29-1.08
		l0.02-0.07c4.3-12.75,20.33-28.7,25.14-33.29c0.64-0.57,1.22-1.11,1.78-1.65c0.49-0.47,0.97-0.95,1.44-1.43
		c11.64-11.93,18.04-27.68,18.04-44.35c0-1.06-0.03-2.14-0.08-3.2c-0.01-0.21-0.03-0.41-0.04-0.62c-0.01-0.14-0.02-0.28-0.03-0.43
		l-0.01-0.17c-0.04-0.64-0.08-1.31-0.15-1.95c-0.03-0.26-0.06-0.51-0.09-0.77c-0.02-0.15-0.04-0.3-0.06-0.46l-0.04-0.37
		c-0.06-0.51-0.12-1.03-0.2-1.54c-0.04-0.27-0.09-0.54-0.14-0.81c-0.03-0.17-0.06-0.33-0.09-0.5l-0.07-0.4
		c-0.08-0.45-0.16-0.93-0.25-1.38c-0.06-0.31-0.13-0.61-0.2-0.91c-0.03-0.15-0.07-0.3-0.1-0.44l-0.08-0.35
		c-0.1-0.44-0.2-0.9-0.31-1.34c-0.08-0.3-0.16-0.6-0.24-0.9c-0.04-0.16-0.09-0.31-0.13-0.47l-0.08-0.3
		c-0.12-0.44-0.25-0.9-0.38-1.34c-0.1-0.32-0.2-0.63-0.31-0.95l-0.26-0.79c-0.13-0.4-0.27-0.81-0.41-1.21
		c-0.12-0.34-0.25-0.67-0.38-1l-0.18-0.46c-0.18-0.47-0.37-0.96-0.57-1.43c-0.15-0.35-0.3-0.7-0.46-1.05l-0.23-0.5
		c-0.19-0.42-0.38-0.86-0.58-1.28c-0.17-0.35-0.35-0.71-0.53-1.06l-0.22-0.42c-0.22-0.44-0.44-0.87-0.67-1.3
		c-0.18-0.33-0.36-0.65-0.55-0.98l-0.22-0.39c-0.25-0.44-0.51-0.9-0.78-1.34c-0.22-0.37-0.46-0.73-0.69-1.09l-0.21-0.33
		c-0.26-0.4-0.52-0.81-0.79-1.21c-0.22-0.33-0.45-0.65-0.68-0.97l-0.19-0.26c-0.31-0.44-0.64-0.89-0.96-1.33
		c-0.3-0.4-0.61-0.8-0.93-1.19c-0.38-0.48-0.7-0.88-1.04-1.29c-0.32-0.39-0.65-0.77-0.98-1.15c-0.35-0.4-0.72-0.82-1.12-1.25
		c-0.34-0.37-0.68-0.73-1.03-1.09c-0.11-0.11-0.22-0.22-0.33-0.33c0.18,0.53,0.34,1.06,0.49,1.57l0.11,0.36
		c0.04,0.13,0.08,0.26,0.12,0.39c0.06,0.17,0.11,0.34,0.16,0.51c0.06,0.2,0.11,0.41,0.16,0.62c0.04,0.16,0.07,0.31,0.11,0.46
		c0.86,3.45,1.3,6.95,1.3,10.41c0,18.8-12.02,35.21-29.92,40.88l0,0l-0.09,0.03c-0.05,0.01-0.09,0.03-0.14,0.05
		c-0.06,0.02-0.12,0.04-0.18,0.06l-0.48,0.15l-0.05-0.5c-0.8-7.3-3.53-14.3-7.9-20.25l-0.06-0.08l0,0
		c-0.01-0.02-0.02-0.04-0.04-0.05c-0.01-0.01-0.02-0.03-0.02-0.04c-6.21,6.87-12.05,13.68-17.35,20.24
		c-10.88,13.48-19.67,26.12-26.11,37.58c-0.81,1.44-1.59,2.88-2.32,4.26c-0.55,1.04-1.11,2.13-1.66,3.25
		c-6.26,12.65-9.44,23.8-9.44,33.16c0,7.89,1.01,15.75,3.01,23.36c0.33,1.3,0.72,2.58,1.11,3.86c5.45,17.54,16.25,33.32,30.73,44.86
		c0.54,0.43,1.08,0.86,1.63,1.28c0.18,0.14,0.36,0.27,0.53,0.4c15.4,11.44,34.47,18.21,55.13,18.21c23.27,0,44.53-8.59,60.79-22.76
		c0.06-0.05,0.12-0.1,0.17-0.15c0.63-0.55,1.24-1.12,1.86-1.69c1.08-1,2.15-2.01,3.18-3.07c0.11-0.11,0.21-0.23,0.32-0.34
		C272.22,274.07,278.41,266.27,282.65,257.53C282.53,257.72,282.78,257.33,282.65,257.53z"/>
</g>
</svg>
